G04 #@! TF.GenerationSoftware,KiCad,Pcbnew,7.99.0-unknown-099e5dd9e7~172~ubuntu22.04.1*
G04 #@! TF.CreationDate,2023-11-16T11:57:36+01:00*
G04 #@! TF.ProjectId,emfi,656d6669-2e6b-4696-9361-645f70636258,0.1*
G04 #@! TF.SameCoordinates,Original*
G04 #@! TF.FileFunction,Legend,Top*
G04 #@! TF.FilePolarity,Positive*
%FSLAX46Y46*%
G04 Gerber Fmt 4.6, Leading zero omitted, Abs format (unit mm)*
G04 Created by KiCad (PCBNEW 7.99.0-unknown-099e5dd9e7~172~ubuntu22.04.1) date 2023-11-16 11:57:36*
%MOMM*%
%LPD*%
G01*
G04 APERTURE LIST*
%ADD10C,0.125000*%
%ADD11C,0.300000*%
%ADD12C,0.150000*%
%ADD13C,0.120000*%
%ADD14C,0.010000*%
G04 APERTURE END LIST*
D10*
X111500000Y-51750000D02*
X107250000Y-51750000D01*
X115750000Y-54000000D02*
X111500000Y-54000000D01*
X111500000Y-54000000D02*
X111500000Y-51750000D01*
D11*
X45464286Y-32106900D02*
X45678572Y-32178328D01*
X45678572Y-32178328D02*
X46035714Y-32178328D01*
X46035714Y-32178328D02*
X46178572Y-32106900D01*
X46178572Y-32106900D02*
X46250000Y-32035471D01*
X46250000Y-32035471D02*
X46321429Y-31892614D01*
X46321429Y-31892614D02*
X46321429Y-31749757D01*
X46321429Y-31749757D02*
X46250000Y-31606900D01*
X46250000Y-31606900D02*
X46178572Y-31535471D01*
X46178572Y-31535471D02*
X46035714Y-31464042D01*
X46035714Y-31464042D02*
X45750000Y-31392614D01*
X45750000Y-31392614D02*
X45607143Y-31321185D01*
X45607143Y-31321185D02*
X45535714Y-31249757D01*
X45535714Y-31249757D02*
X45464286Y-31106900D01*
X45464286Y-31106900D02*
X45464286Y-30964042D01*
X45464286Y-30964042D02*
X45535714Y-30821185D01*
X45535714Y-30821185D02*
X45607143Y-30749757D01*
X45607143Y-30749757D02*
X45750000Y-30678328D01*
X45750000Y-30678328D02*
X46107143Y-30678328D01*
X46107143Y-30678328D02*
X46321429Y-30749757D01*
X46964285Y-32178328D02*
X46964285Y-31178328D01*
X46964285Y-30678328D02*
X46892857Y-30749757D01*
X46892857Y-30749757D02*
X46964285Y-30821185D01*
X46964285Y-30821185D02*
X47035714Y-30749757D01*
X47035714Y-30749757D02*
X46964285Y-30678328D01*
X46964285Y-30678328D02*
X46964285Y-30821185D01*
X47892857Y-32178328D02*
X47750000Y-32106900D01*
X47750000Y-32106900D02*
X47678571Y-31964042D01*
X47678571Y-31964042D02*
X47678571Y-30678328D01*
X48464285Y-32178328D02*
X48464285Y-31178328D01*
X48464285Y-30678328D02*
X48392857Y-30749757D01*
X48392857Y-30749757D02*
X48464285Y-30821185D01*
X48464285Y-30821185D02*
X48535714Y-30749757D01*
X48535714Y-30749757D02*
X48464285Y-30678328D01*
X48464285Y-30678328D02*
X48464285Y-30821185D01*
X49821429Y-32106900D02*
X49678571Y-32178328D01*
X49678571Y-32178328D02*
X49392857Y-32178328D01*
X49392857Y-32178328D02*
X49250000Y-32106900D01*
X49250000Y-32106900D02*
X49178571Y-32035471D01*
X49178571Y-32035471D02*
X49107143Y-31892614D01*
X49107143Y-31892614D02*
X49107143Y-31464042D01*
X49107143Y-31464042D02*
X49178571Y-31321185D01*
X49178571Y-31321185D02*
X49250000Y-31249757D01*
X49250000Y-31249757D02*
X49392857Y-31178328D01*
X49392857Y-31178328D02*
X49678571Y-31178328D01*
X49678571Y-31178328D02*
X49821429Y-31249757D01*
X50678571Y-32178328D02*
X50535714Y-32106900D01*
X50535714Y-32106900D02*
X50464285Y-32035471D01*
X50464285Y-32035471D02*
X50392857Y-31892614D01*
X50392857Y-31892614D02*
X50392857Y-31464042D01*
X50392857Y-31464042D02*
X50464285Y-31321185D01*
X50464285Y-31321185D02*
X50535714Y-31249757D01*
X50535714Y-31249757D02*
X50678571Y-31178328D01*
X50678571Y-31178328D02*
X50892857Y-31178328D01*
X50892857Y-31178328D02*
X51035714Y-31249757D01*
X51035714Y-31249757D02*
X51107143Y-31321185D01*
X51107143Y-31321185D02*
X51178571Y-31464042D01*
X51178571Y-31464042D02*
X51178571Y-31892614D01*
X51178571Y-31892614D02*
X51107143Y-32035471D01*
X51107143Y-32035471D02*
X51035714Y-32106900D01*
X51035714Y-32106900D02*
X50892857Y-32178328D01*
X50892857Y-32178328D02*
X50678571Y-32178328D01*
X51821428Y-31178328D02*
X51821428Y-32178328D01*
X51821428Y-31321185D02*
X51892857Y-31249757D01*
X51892857Y-31249757D02*
X52035714Y-31178328D01*
X52035714Y-31178328D02*
X52250000Y-31178328D01*
X52250000Y-31178328D02*
X52392857Y-31249757D01*
X52392857Y-31249757D02*
X52464286Y-31392614D01*
X52464286Y-31392614D02*
X52464286Y-32178328D01*
X52964286Y-30678328D02*
X53821429Y-30678328D01*
X53392857Y-32178328D02*
X53392857Y-30678328D01*
X54535714Y-32178328D02*
X54392857Y-32106900D01*
X54392857Y-32106900D02*
X54321428Y-32035471D01*
X54321428Y-32035471D02*
X54250000Y-31892614D01*
X54250000Y-31892614D02*
X54250000Y-31464042D01*
X54250000Y-31464042D02*
X54321428Y-31321185D01*
X54321428Y-31321185D02*
X54392857Y-31249757D01*
X54392857Y-31249757D02*
X54535714Y-31178328D01*
X54535714Y-31178328D02*
X54750000Y-31178328D01*
X54750000Y-31178328D02*
X54892857Y-31249757D01*
X54892857Y-31249757D02*
X54964286Y-31321185D01*
X54964286Y-31321185D02*
X55035714Y-31464042D01*
X55035714Y-31464042D02*
X55035714Y-31892614D01*
X55035714Y-31892614D02*
X54964286Y-32035471D01*
X54964286Y-32035471D02*
X54892857Y-32106900D01*
X54892857Y-32106900D02*
X54750000Y-32178328D01*
X54750000Y-32178328D02*
X54535714Y-32178328D01*
X56321429Y-32178328D02*
X56321429Y-31392614D01*
X56321429Y-31392614D02*
X56250000Y-31249757D01*
X56250000Y-31249757D02*
X56107143Y-31178328D01*
X56107143Y-31178328D02*
X55821429Y-31178328D01*
X55821429Y-31178328D02*
X55678571Y-31249757D01*
X56321429Y-32106900D02*
X56178571Y-32178328D01*
X56178571Y-32178328D02*
X55821429Y-32178328D01*
X55821429Y-32178328D02*
X55678571Y-32106900D01*
X55678571Y-32106900D02*
X55607143Y-31964042D01*
X55607143Y-31964042D02*
X55607143Y-31821185D01*
X55607143Y-31821185D02*
X55678571Y-31678328D01*
X55678571Y-31678328D02*
X55821429Y-31606900D01*
X55821429Y-31606900D02*
X56178571Y-31606900D01*
X56178571Y-31606900D02*
X56321429Y-31535471D01*
X56964286Y-32106900D02*
X57107143Y-32178328D01*
X57107143Y-32178328D02*
X57392857Y-32178328D01*
X57392857Y-32178328D02*
X57535714Y-32106900D01*
X57535714Y-32106900D02*
X57607143Y-31964042D01*
X57607143Y-31964042D02*
X57607143Y-31892614D01*
X57607143Y-31892614D02*
X57535714Y-31749757D01*
X57535714Y-31749757D02*
X57392857Y-31678328D01*
X57392857Y-31678328D02*
X57178572Y-31678328D01*
X57178572Y-31678328D02*
X57035714Y-31606900D01*
X57035714Y-31606900D02*
X56964286Y-31464042D01*
X56964286Y-31464042D02*
X56964286Y-31392614D01*
X56964286Y-31392614D02*
X57035714Y-31249757D01*
X57035714Y-31249757D02*
X57178572Y-31178328D01*
X57178572Y-31178328D02*
X57392857Y-31178328D01*
X57392857Y-31178328D02*
X57535714Y-31249757D01*
X58035715Y-31178328D02*
X58607143Y-31178328D01*
X58250000Y-30678328D02*
X58250000Y-31964042D01*
X58250000Y-31964042D02*
X58321429Y-32106900D01*
X58321429Y-32106900D02*
X58464286Y-32178328D01*
X58464286Y-32178328D02*
X58607143Y-32178328D01*
X59678572Y-32106900D02*
X59535715Y-32178328D01*
X59535715Y-32178328D02*
X59250001Y-32178328D01*
X59250001Y-32178328D02*
X59107143Y-32106900D01*
X59107143Y-32106900D02*
X59035715Y-31964042D01*
X59035715Y-31964042D02*
X59035715Y-31392614D01*
X59035715Y-31392614D02*
X59107143Y-31249757D01*
X59107143Y-31249757D02*
X59250001Y-31178328D01*
X59250001Y-31178328D02*
X59535715Y-31178328D01*
X59535715Y-31178328D02*
X59678572Y-31249757D01*
X59678572Y-31249757D02*
X59750001Y-31392614D01*
X59750001Y-31392614D02*
X59750001Y-31535471D01*
X59750001Y-31535471D02*
X59035715Y-31678328D01*
X60392857Y-32178328D02*
X60392857Y-31178328D01*
X60392857Y-31464042D02*
X60464286Y-31321185D01*
X60464286Y-31321185D02*
X60535715Y-31249757D01*
X60535715Y-31249757D02*
X60678572Y-31178328D01*
X60678572Y-31178328D02*
X60821429Y-31178328D01*
X62321428Y-31178328D02*
X62678571Y-32178328D01*
X62678571Y-32178328D02*
X63035714Y-31178328D01*
X63892857Y-30678328D02*
X64035714Y-30678328D01*
X64035714Y-30678328D02*
X64178571Y-30749757D01*
X64178571Y-30749757D02*
X64250000Y-30821185D01*
X64250000Y-30821185D02*
X64321428Y-30964042D01*
X64321428Y-30964042D02*
X64392857Y-31249757D01*
X64392857Y-31249757D02*
X64392857Y-31606900D01*
X64392857Y-31606900D02*
X64321428Y-31892614D01*
X64321428Y-31892614D02*
X64250000Y-32035471D01*
X64250000Y-32035471D02*
X64178571Y-32106900D01*
X64178571Y-32106900D02*
X64035714Y-32178328D01*
X64035714Y-32178328D02*
X63892857Y-32178328D01*
X63892857Y-32178328D02*
X63750000Y-32106900D01*
X63750000Y-32106900D02*
X63678571Y-32035471D01*
X63678571Y-32035471D02*
X63607142Y-31892614D01*
X63607142Y-31892614D02*
X63535714Y-31606900D01*
X63535714Y-31606900D02*
X63535714Y-31249757D01*
X63535714Y-31249757D02*
X63607142Y-30964042D01*
X63607142Y-30964042D02*
X63678571Y-30821185D01*
X63678571Y-30821185D02*
X63750000Y-30749757D01*
X63750000Y-30749757D02*
X63892857Y-30678328D01*
X65035713Y-32035471D02*
X65107142Y-32106900D01*
X65107142Y-32106900D02*
X65035713Y-32178328D01*
X65035713Y-32178328D02*
X64964285Y-32106900D01*
X64964285Y-32106900D02*
X65035713Y-32035471D01*
X65035713Y-32035471D02*
X65035713Y-32178328D01*
X65678571Y-30821185D02*
X65749999Y-30749757D01*
X65749999Y-30749757D02*
X65892857Y-30678328D01*
X65892857Y-30678328D02*
X66249999Y-30678328D01*
X66249999Y-30678328D02*
X66392857Y-30749757D01*
X66392857Y-30749757D02*
X66464285Y-30821185D01*
X66464285Y-30821185D02*
X66535714Y-30964042D01*
X66535714Y-30964042D02*
X66535714Y-31106900D01*
X66535714Y-31106900D02*
X66464285Y-31321185D01*
X66464285Y-31321185D02*
X65607142Y-32178328D01*
X65607142Y-32178328D02*
X66535714Y-32178328D01*
X99499999Y-61720870D02*
X99499999Y-60220870D01*
X99499999Y-60220870D02*
X99857142Y-60220870D01*
X99857142Y-60220870D02*
X100071428Y-60292299D01*
X100071428Y-60292299D02*
X100214285Y-60435156D01*
X100214285Y-60435156D02*
X100285714Y-60578013D01*
X100285714Y-60578013D02*
X100357142Y-60863727D01*
X100357142Y-60863727D02*
X100357142Y-61078013D01*
X100357142Y-61078013D02*
X100285714Y-61363727D01*
X100285714Y-61363727D02*
X100214285Y-61506584D01*
X100214285Y-61506584D02*
X100071428Y-61649442D01*
X100071428Y-61649442D02*
X99857142Y-61720870D01*
X99857142Y-61720870D02*
X99499999Y-61720870D01*
X100928571Y-61292299D02*
X101642857Y-61292299D01*
X100785714Y-61720870D02*
X101285714Y-60220870D01*
X101285714Y-60220870D02*
X101785714Y-61720870D01*
X102285713Y-61720870D02*
X102285713Y-60220870D01*
X102285713Y-60220870D02*
X103142856Y-61720870D01*
X103142856Y-61720870D02*
X103142856Y-60220870D01*
X104642857Y-60292299D02*
X104500000Y-60220870D01*
X104500000Y-60220870D02*
X104285714Y-60220870D01*
X104285714Y-60220870D02*
X104071428Y-60292299D01*
X104071428Y-60292299D02*
X103928571Y-60435156D01*
X103928571Y-60435156D02*
X103857142Y-60578013D01*
X103857142Y-60578013D02*
X103785714Y-60863727D01*
X103785714Y-60863727D02*
X103785714Y-61078013D01*
X103785714Y-61078013D02*
X103857142Y-61363727D01*
X103857142Y-61363727D02*
X103928571Y-61506584D01*
X103928571Y-61506584D02*
X104071428Y-61649442D01*
X104071428Y-61649442D02*
X104285714Y-61720870D01*
X104285714Y-61720870D02*
X104428571Y-61720870D01*
X104428571Y-61720870D02*
X104642857Y-61649442D01*
X104642857Y-61649442D02*
X104714285Y-61578013D01*
X104714285Y-61578013D02*
X104714285Y-61078013D01*
X104714285Y-61078013D02*
X104428571Y-61078013D01*
X105357142Y-60935156D02*
X105857142Y-60935156D01*
X106071428Y-61720870D02*
X105357142Y-61720870D01*
X105357142Y-61720870D02*
X105357142Y-60220870D01*
X105357142Y-60220870D02*
X106071428Y-60220870D01*
X107571428Y-61720870D02*
X107071428Y-61006584D01*
X106714285Y-61720870D02*
X106714285Y-60220870D01*
X106714285Y-60220870D02*
X107285714Y-60220870D01*
X107285714Y-60220870D02*
X107428571Y-60292299D01*
X107428571Y-60292299D02*
X107500000Y-60363727D01*
X107500000Y-60363727D02*
X107571428Y-60506584D01*
X107571428Y-60506584D02*
X107571428Y-60720870D01*
X107571428Y-60720870D02*
X107500000Y-60863727D01*
X107500000Y-60863727D02*
X107428571Y-60935156D01*
X107428571Y-60935156D02*
X107285714Y-61006584D01*
X107285714Y-61006584D02*
X106714285Y-61006584D01*
X95928570Y-64135786D02*
X95928570Y-62635786D01*
X95928570Y-63350072D02*
X96785713Y-63350072D01*
X96785713Y-64135786D02*
X96785713Y-62635786D01*
X97499999Y-64135786D02*
X97499999Y-62635786D01*
X99000000Y-62707215D02*
X98857143Y-62635786D01*
X98857143Y-62635786D02*
X98642857Y-62635786D01*
X98642857Y-62635786D02*
X98428571Y-62707215D01*
X98428571Y-62707215D02*
X98285714Y-62850072D01*
X98285714Y-62850072D02*
X98214285Y-62992929D01*
X98214285Y-62992929D02*
X98142857Y-63278643D01*
X98142857Y-63278643D02*
X98142857Y-63492929D01*
X98142857Y-63492929D02*
X98214285Y-63778643D01*
X98214285Y-63778643D02*
X98285714Y-63921500D01*
X98285714Y-63921500D02*
X98428571Y-64064358D01*
X98428571Y-64064358D02*
X98642857Y-64135786D01*
X98642857Y-64135786D02*
X98785714Y-64135786D01*
X98785714Y-64135786D02*
X99000000Y-64064358D01*
X99000000Y-64064358D02*
X99071428Y-63992929D01*
X99071428Y-63992929D02*
X99071428Y-63492929D01*
X99071428Y-63492929D02*
X98785714Y-63492929D01*
X99714285Y-64135786D02*
X99714285Y-62635786D01*
X99714285Y-63350072D02*
X100571428Y-63350072D01*
X100571428Y-64135786D02*
X100571428Y-62635786D01*
X102214286Y-62635786D02*
X102714286Y-64135786D01*
X102714286Y-64135786D02*
X103214286Y-62635786D01*
X104000000Y-62635786D02*
X104285714Y-62635786D01*
X104285714Y-62635786D02*
X104428571Y-62707215D01*
X104428571Y-62707215D02*
X104571428Y-62850072D01*
X104571428Y-62850072D02*
X104642857Y-63135786D01*
X104642857Y-63135786D02*
X104642857Y-63635786D01*
X104642857Y-63635786D02*
X104571428Y-63921500D01*
X104571428Y-63921500D02*
X104428571Y-64064358D01*
X104428571Y-64064358D02*
X104285714Y-64135786D01*
X104285714Y-64135786D02*
X104000000Y-64135786D01*
X104000000Y-64135786D02*
X103857143Y-64064358D01*
X103857143Y-64064358D02*
X103714285Y-63921500D01*
X103714285Y-63921500D02*
X103642857Y-63635786D01*
X103642857Y-63635786D02*
X103642857Y-63135786D01*
X103642857Y-63135786D02*
X103714285Y-62850072D01*
X103714285Y-62850072D02*
X103857143Y-62707215D01*
X103857143Y-62707215D02*
X104000000Y-62635786D01*
X106000000Y-64135786D02*
X105285714Y-64135786D01*
X105285714Y-64135786D02*
X105285714Y-62635786D01*
X106285715Y-62635786D02*
X107142858Y-62635786D01*
X106714286Y-64135786D02*
X106714286Y-62635786D01*
X107571429Y-63707215D02*
X108285715Y-63707215D01*
X107428572Y-64135786D02*
X107928572Y-62635786D01*
X107928572Y-62635786D02*
X108428572Y-64135786D01*
X109714286Y-62707215D02*
X109571429Y-62635786D01*
X109571429Y-62635786D02*
X109357143Y-62635786D01*
X109357143Y-62635786D02*
X109142857Y-62707215D01*
X109142857Y-62707215D02*
X109000000Y-62850072D01*
X109000000Y-62850072D02*
X108928571Y-62992929D01*
X108928571Y-62992929D02*
X108857143Y-63278643D01*
X108857143Y-63278643D02*
X108857143Y-63492929D01*
X108857143Y-63492929D02*
X108928571Y-63778643D01*
X108928571Y-63778643D02*
X109000000Y-63921500D01*
X109000000Y-63921500D02*
X109142857Y-64064358D01*
X109142857Y-64064358D02*
X109357143Y-64135786D01*
X109357143Y-64135786D02*
X109500000Y-64135786D01*
X109500000Y-64135786D02*
X109714286Y-64064358D01*
X109714286Y-64064358D02*
X109785714Y-63992929D01*
X109785714Y-63992929D02*
X109785714Y-63492929D01*
X109785714Y-63492929D02*
X109500000Y-63492929D01*
X110428571Y-63350072D02*
X110928571Y-63350072D01*
X111142857Y-64135786D02*
X110428571Y-64135786D01*
X110428571Y-64135786D02*
X110428571Y-62635786D01*
X110428571Y-62635786D02*
X111142857Y-62635786D01*
X99499999Y-31470870D02*
X99499999Y-29970870D01*
X99499999Y-29970870D02*
X99857142Y-29970870D01*
X99857142Y-29970870D02*
X100071428Y-30042299D01*
X100071428Y-30042299D02*
X100214285Y-30185156D01*
X100214285Y-30185156D02*
X100285714Y-30328013D01*
X100285714Y-30328013D02*
X100357142Y-30613727D01*
X100357142Y-30613727D02*
X100357142Y-30828013D01*
X100357142Y-30828013D02*
X100285714Y-31113727D01*
X100285714Y-31113727D02*
X100214285Y-31256584D01*
X100214285Y-31256584D02*
X100071428Y-31399442D01*
X100071428Y-31399442D02*
X99857142Y-31470870D01*
X99857142Y-31470870D02*
X99499999Y-31470870D01*
X100928571Y-31042299D02*
X101642857Y-31042299D01*
X100785714Y-31470870D02*
X101285714Y-29970870D01*
X101285714Y-29970870D02*
X101785714Y-31470870D01*
X102285713Y-31470870D02*
X102285713Y-29970870D01*
X102285713Y-29970870D02*
X103142856Y-31470870D01*
X103142856Y-31470870D02*
X103142856Y-29970870D01*
X104642857Y-30042299D02*
X104500000Y-29970870D01*
X104500000Y-29970870D02*
X104285714Y-29970870D01*
X104285714Y-29970870D02*
X104071428Y-30042299D01*
X104071428Y-30042299D02*
X103928571Y-30185156D01*
X103928571Y-30185156D02*
X103857142Y-30328013D01*
X103857142Y-30328013D02*
X103785714Y-30613727D01*
X103785714Y-30613727D02*
X103785714Y-30828013D01*
X103785714Y-30828013D02*
X103857142Y-31113727D01*
X103857142Y-31113727D02*
X103928571Y-31256584D01*
X103928571Y-31256584D02*
X104071428Y-31399442D01*
X104071428Y-31399442D02*
X104285714Y-31470870D01*
X104285714Y-31470870D02*
X104428571Y-31470870D01*
X104428571Y-31470870D02*
X104642857Y-31399442D01*
X104642857Y-31399442D02*
X104714285Y-31328013D01*
X104714285Y-31328013D02*
X104714285Y-30828013D01*
X104714285Y-30828013D02*
X104428571Y-30828013D01*
X105357142Y-30685156D02*
X105857142Y-30685156D01*
X106071428Y-31470870D02*
X105357142Y-31470870D01*
X105357142Y-31470870D02*
X105357142Y-29970870D01*
X105357142Y-29970870D02*
X106071428Y-29970870D01*
X107571428Y-31470870D02*
X107071428Y-30756584D01*
X106714285Y-31470870D02*
X106714285Y-29970870D01*
X106714285Y-29970870D02*
X107285714Y-29970870D01*
X107285714Y-29970870D02*
X107428571Y-30042299D01*
X107428571Y-30042299D02*
X107500000Y-30113727D01*
X107500000Y-30113727D02*
X107571428Y-30256584D01*
X107571428Y-30256584D02*
X107571428Y-30470870D01*
X107571428Y-30470870D02*
X107500000Y-30613727D01*
X107500000Y-30613727D02*
X107428571Y-30685156D01*
X107428571Y-30685156D02*
X107285714Y-30756584D01*
X107285714Y-30756584D02*
X106714285Y-30756584D01*
X95928570Y-33885786D02*
X95928570Y-32385786D01*
X95928570Y-33100072D02*
X96785713Y-33100072D01*
X96785713Y-33885786D02*
X96785713Y-32385786D01*
X97499999Y-33885786D02*
X97499999Y-32385786D01*
X99000000Y-32457215D02*
X98857143Y-32385786D01*
X98857143Y-32385786D02*
X98642857Y-32385786D01*
X98642857Y-32385786D02*
X98428571Y-32457215D01*
X98428571Y-32457215D02*
X98285714Y-32600072D01*
X98285714Y-32600072D02*
X98214285Y-32742929D01*
X98214285Y-32742929D02*
X98142857Y-33028643D01*
X98142857Y-33028643D02*
X98142857Y-33242929D01*
X98142857Y-33242929D02*
X98214285Y-33528643D01*
X98214285Y-33528643D02*
X98285714Y-33671500D01*
X98285714Y-33671500D02*
X98428571Y-33814358D01*
X98428571Y-33814358D02*
X98642857Y-33885786D01*
X98642857Y-33885786D02*
X98785714Y-33885786D01*
X98785714Y-33885786D02*
X99000000Y-33814358D01*
X99000000Y-33814358D02*
X99071428Y-33742929D01*
X99071428Y-33742929D02*
X99071428Y-33242929D01*
X99071428Y-33242929D02*
X98785714Y-33242929D01*
X99714285Y-33885786D02*
X99714285Y-32385786D01*
X99714285Y-33100072D02*
X100571428Y-33100072D01*
X100571428Y-33885786D02*
X100571428Y-32385786D01*
X102214286Y-32385786D02*
X102714286Y-33885786D01*
X102714286Y-33885786D02*
X103214286Y-32385786D01*
X104000000Y-32385786D02*
X104285714Y-32385786D01*
X104285714Y-32385786D02*
X104428571Y-32457215D01*
X104428571Y-32457215D02*
X104571428Y-32600072D01*
X104571428Y-32600072D02*
X104642857Y-32885786D01*
X104642857Y-32885786D02*
X104642857Y-33385786D01*
X104642857Y-33385786D02*
X104571428Y-33671500D01*
X104571428Y-33671500D02*
X104428571Y-33814358D01*
X104428571Y-33814358D02*
X104285714Y-33885786D01*
X104285714Y-33885786D02*
X104000000Y-33885786D01*
X104000000Y-33885786D02*
X103857143Y-33814358D01*
X103857143Y-33814358D02*
X103714285Y-33671500D01*
X103714285Y-33671500D02*
X103642857Y-33385786D01*
X103642857Y-33385786D02*
X103642857Y-32885786D01*
X103642857Y-32885786D02*
X103714285Y-32600072D01*
X103714285Y-32600072D02*
X103857143Y-32457215D01*
X103857143Y-32457215D02*
X104000000Y-32385786D01*
X106000000Y-33885786D02*
X105285714Y-33885786D01*
X105285714Y-33885786D02*
X105285714Y-32385786D01*
X106285715Y-32385786D02*
X107142858Y-32385786D01*
X106714286Y-33885786D02*
X106714286Y-32385786D01*
X107571429Y-33457215D02*
X108285715Y-33457215D01*
X107428572Y-33885786D02*
X107928572Y-32385786D01*
X107928572Y-32385786D02*
X108428572Y-33885786D01*
X109714286Y-32457215D02*
X109571429Y-32385786D01*
X109571429Y-32385786D02*
X109357143Y-32385786D01*
X109357143Y-32385786D02*
X109142857Y-32457215D01*
X109142857Y-32457215D02*
X109000000Y-32600072D01*
X109000000Y-32600072D02*
X108928571Y-32742929D01*
X108928571Y-32742929D02*
X108857143Y-33028643D01*
X108857143Y-33028643D02*
X108857143Y-33242929D01*
X108857143Y-33242929D02*
X108928571Y-33528643D01*
X108928571Y-33528643D02*
X109000000Y-33671500D01*
X109000000Y-33671500D02*
X109142857Y-33814358D01*
X109142857Y-33814358D02*
X109357143Y-33885786D01*
X109357143Y-33885786D02*
X109500000Y-33885786D01*
X109500000Y-33885786D02*
X109714286Y-33814358D01*
X109714286Y-33814358D02*
X109785714Y-33742929D01*
X109785714Y-33742929D02*
X109785714Y-33242929D01*
X109785714Y-33242929D02*
X109500000Y-33242929D01*
X110428571Y-33100072D02*
X110928571Y-33100072D01*
X111142857Y-33885786D02*
X110428571Y-33885786D01*
X110428571Y-33885786D02*
X110428571Y-32385786D01*
X110428571Y-32385786D02*
X111142857Y-32385786D01*
X157249999Y-61720870D02*
X157249999Y-60220870D01*
X157249999Y-60220870D02*
X157607142Y-60220870D01*
X157607142Y-60220870D02*
X157821428Y-60292299D01*
X157821428Y-60292299D02*
X157964285Y-60435156D01*
X157964285Y-60435156D02*
X158035714Y-60578013D01*
X158035714Y-60578013D02*
X158107142Y-60863727D01*
X158107142Y-60863727D02*
X158107142Y-61078013D01*
X158107142Y-61078013D02*
X158035714Y-61363727D01*
X158035714Y-61363727D02*
X157964285Y-61506584D01*
X157964285Y-61506584D02*
X157821428Y-61649442D01*
X157821428Y-61649442D02*
X157607142Y-61720870D01*
X157607142Y-61720870D02*
X157249999Y-61720870D01*
X158678571Y-61292299D02*
X159392857Y-61292299D01*
X158535714Y-61720870D02*
X159035714Y-60220870D01*
X159035714Y-60220870D02*
X159535714Y-61720870D01*
X160035713Y-61720870D02*
X160035713Y-60220870D01*
X160035713Y-60220870D02*
X160892856Y-61720870D01*
X160892856Y-61720870D02*
X160892856Y-60220870D01*
X162392857Y-60292299D02*
X162250000Y-60220870D01*
X162250000Y-60220870D02*
X162035714Y-60220870D01*
X162035714Y-60220870D02*
X161821428Y-60292299D01*
X161821428Y-60292299D02*
X161678571Y-60435156D01*
X161678571Y-60435156D02*
X161607142Y-60578013D01*
X161607142Y-60578013D02*
X161535714Y-60863727D01*
X161535714Y-60863727D02*
X161535714Y-61078013D01*
X161535714Y-61078013D02*
X161607142Y-61363727D01*
X161607142Y-61363727D02*
X161678571Y-61506584D01*
X161678571Y-61506584D02*
X161821428Y-61649442D01*
X161821428Y-61649442D02*
X162035714Y-61720870D01*
X162035714Y-61720870D02*
X162178571Y-61720870D01*
X162178571Y-61720870D02*
X162392857Y-61649442D01*
X162392857Y-61649442D02*
X162464285Y-61578013D01*
X162464285Y-61578013D02*
X162464285Y-61078013D01*
X162464285Y-61078013D02*
X162178571Y-61078013D01*
X163107142Y-60935156D02*
X163607142Y-60935156D01*
X163821428Y-61720870D02*
X163107142Y-61720870D01*
X163107142Y-61720870D02*
X163107142Y-60220870D01*
X163107142Y-60220870D02*
X163821428Y-60220870D01*
X165321428Y-61720870D02*
X164821428Y-61006584D01*
X164464285Y-61720870D02*
X164464285Y-60220870D01*
X164464285Y-60220870D02*
X165035714Y-60220870D01*
X165035714Y-60220870D02*
X165178571Y-60292299D01*
X165178571Y-60292299D02*
X165250000Y-60363727D01*
X165250000Y-60363727D02*
X165321428Y-60506584D01*
X165321428Y-60506584D02*
X165321428Y-60720870D01*
X165321428Y-60720870D02*
X165250000Y-60863727D01*
X165250000Y-60863727D02*
X165178571Y-60935156D01*
X165178571Y-60935156D02*
X165035714Y-61006584D01*
X165035714Y-61006584D02*
X164464285Y-61006584D01*
X153678570Y-64135786D02*
X153678570Y-62635786D01*
X153678570Y-63350072D02*
X154535713Y-63350072D01*
X154535713Y-64135786D02*
X154535713Y-62635786D01*
X155249999Y-64135786D02*
X155249999Y-62635786D01*
X156750000Y-62707215D02*
X156607143Y-62635786D01*
X156607143Y-62635786D02*
X156392857Y-62635786D01*
X156392857Y-62635786D02*
X156178571Y-62707215D01*
X156178571Y-62707215D02*
X156035714Y-62850072D01*
X156035714Y-62850072D02*
X155964285Y-62992929D01*
X155964285Y-62992929D02*
X155892857Y-63278643D01*
X155892857Y-63278643D02*
X155892857Y-63492929D01*
X155892857Y-63492929D02*
X155964285Y-63778643D01*
X155964285Y-63778643D02*
X156035714Y-63921500D01*
X156035714Y-63921500D02*
X156178571Y-64064358D01*
X156178571Y-64064358D02*
X156392857Y-64135786D01*
X156392857Y-64135786D02*
X156535714Y-64135786D01*
X156535714Y-64135786D02*
X156750000Y-64064358D01*
X156750000Y-64064358D02*
X156821428Y-63992929D01*
X156821428Y-63992929D02*
X156821428Y-63492929D01*
X156821428Y-63492929D02*
X156535714Y-63492929D01*
X157464285Y-64135786D02*
X157464285Y-62635786D01*
X157464285Y-63350072D02*
X158321428Y-63350072D01*
X158321428Y-64135786D02*
X158321428Y-62635786D01*
X159964286Y-62635786D02*
X160464286Y-64135786D01*
X160464286Y-64135786D02*
X160964286Y-62635786D01*
X161750000Y-62635786D02*
X162035714Y-62635786D01*
X162035714Y-62635786D02*
X162178571Y-62707215D01*
X162178571Y-62707215D02*
X162321428Y-62850072D01*
X162321428Y-62850072D02*
X162392857Y-63135786D01*
X162392857Y-63135786D02*
X162392857Y-63635786D01*
X162392857Y-63635786D02*
X162321428Y-63921500D01*
X162321428Y-63921500D02*
X162178571Y-64064358D01*
X162178571Y-64064358D02*
X162035714Y-64135786D01*
X162035714Y-64135786D02*
X161750000Y-64135786D01*
X161750000Y-64135786D02*
X161607143Y-64064358D01*
X161607143Y-64064358D02*
X161464285Y-63921500D01*
X161464285Y-63921500D02*
X161392857Y-63635786D01*
X161392857Y-63635786D02*
X161392857Y-63135786D01*
X161392857Y-63135786D02*
X161464285Y-62850072D01*
X161464285Y-62850072D02*
X161607143Y-62707215D01*
X161607143Y-62707215D02*
X161750000Y-62635786D01*
X163750000Y-64135786D02*
X163035714Y-64135786D01*
X163035714Y-64135786D02*
X163035714Y-62635786D01*
X164035715Y-62635786D02*
X164892858Y-62635786D01*
X164464286Y-64135786D02*
X164464286Y-62635786D01*
X165321429Y-63707215D02*
X166035715Y-63707215D01*
X165178572Y-64135786D02*
X165678572Y-62635786D01*
X165678572Y-62635786D02*
X166178572Y-64135786D01*
X167464286Y-62707215D02*
X167321429Y-62635786D01*
X167321429Y-62635786D02*
X167107143Y-62635786D01*
X167107143Y-62635786D02*
X166892857Y-62707215D01*
X166892857Y-62707215D02*
X166750000Y-62850072D01*
X166750000Y-62850072D02*
X166678571Y-62992929D01*
X166678571Y-62992929D02*
X166607143Y-63278643D01*
X166607143Y-63278643D02*
X166607143Y-63492929D01*
X166607143Y-63492929D02*
X166678571Y-63778643D01*
X166678571Y-63778643D02*
X166750000Y-63921500D01*
X166750000Y-63921500D02*
X166892857Y-64064358D01*
X166892857Y-64064358D02*
X167107143Y-64135786D01*
X167107143Y-64135786D02*
X167250000Y-64135786D01*
X167250000Y-64135786D02*
X167464286Y-64064358D01*
X167464286Y-64064358D02*
X167535714Y-63992929D01*
X167535714Y-63992929D02*
X167535714Y-63492929D01*
X167535714Y-63492929D02*
X167250000Y-63492929D01*
X168178571Y-63350072D02*
X168678571Y-63350072D01*
X168892857Y-64135786D02*
X168178571Y-64135786D01*
X168178571Y-64135786D02*
X168178571Y-62635786D01*
X168178571Y-62635786D02*
X168892857Y-62635786D01*
D10*
X53374999Y-33840464D02*
X53124999Y-33483321D01*
X52946428Y-33840464D02*
X52946428Y-33090464D01*
X52946428Y-33090464D02*
X53232142Y-33090464D01*
X53232142Y-33090464D02*
X53303571Y-33126178D01*
X53303571Y-33126178D02*
X53339285Y-33161892D01*
X53339285Y-33161892D02*
X53374999Y-33233321D01*
X53374999Y-33233321D02*
X53374999Y-33340464D01*
X53374999Y-33340464D02*
X53339285Y-33411892D01*
X53339285Y-33411892D02*
X53303571Y-33447607D01*
X53303571Y-33447607D02*
X53232142Y-33483321D01*
X53232142Y-33483321D02*
X52946428Y-33483321D01*
X53624999Y-33090464D02*
X54124999Y-33090464D01*
X54124999Y-33090464D02*
X53803571Y-33840464D01*
X73267856Y-61019035D02*
X73232142Y-61054750D01*
X73232142Y-61054750D02*
X73124999Y-61090464D01*
X73124999Y-61090464D02*
X73053571Y-61090464D01*
X73053571Y-61090464D02*
X72946428Y-61054750D01*
X72946428Y-61054750D02*
X72874999Y-60983321D01*
X72874999Y-60983321D02*
X72839285Y-60911892D01*
X72839285Y-60911892D02*
X72803571Y-60769035D01*
X72803571Y-60769035D02*
X72803571Y-60661892D01*
X72803571Y-60661892D02*
X72839285Y-60519035D01*
X72839285Y-60519035D02*
X72874999Y-60447607D01*
X72874999Y-60447607D02*
X72946428Y-60376178D01*
X72946428Y-60376178D02*
X73053571Y-60340464D01*
X73053571Y-60340464D02*
X73124999Y-60340464D01*
X73124999Y-60340464D02*
X73232142Y-60376178D01*
X73232142Y-60376178D02*
X73267856Y-60411892D01*
X73982142Y-61090464D02*
X73553571Y-61090464D01*
X73767856Y-61090464D02*
X73767856Y-60340464D01*
X73767856Y-60340464D02*
X73696428Y-60447607D01*
X73696428Y-60447607D02*
X73624999Y-60519035D01*
X73624999Y-60519035D02*
X73553571Y-60554750D01*
X74232142Y-60340464D02*
X74696428Y-60340464D01*
X74696428Y-60340464D02*
X74446428Y-60626178D01*
X74446428Y-60626178D02*
X74553571Y-60626178D01*
X74553571Y-60626178D02*
X74625000Y-60661892D01*
X74625000Y-60661892D02*
X74660714Y-60697607D01*
X74660714Y-60697607D02*
X74696428Y-60769035D01*
X74696428Y-60769035D02*
X74696428Y-60947607D01*
X74696428Y-60947607D02*
X74660714Y-61019035D01*
X74660714Y-61019035D02*
X74625000Y-61054750D01*
X74625000Y-61054750D02*
X74553571Y-61090464D01*
X74553571Y-61090464D02*
X74339285Y-61090464D01*
X74339285Y-61090464D02*
X74267857Y-61054750D01*
X74267857Y-61054750D02*
X74232142Y-61019035D01*
X76517856Y-61019035D02*
X76482142Y-61054750D01*
X76482142Y-61054750D02*
X76374999Y-61090464D01*
X76374999Y-61090464D02*
X76303571Y-61090464D01*
X76303571Y-61090464D02*
X76196428Y-61054750D01*
X76196428Y-61054750D02*
X76124999Y-60983321D01*
X76124999Y-60983321D02*
X76089285Y-60911892D01*
X76089285Y-60911892D02*
X76053571Y-60769035D01*
X76053571Y-60769035D02*
X76053571Y-60661892D01*
X76053571Y-60661892D02*
X76089285Y-60519035D01*
X76089285Y-60519035D02*
X76124999Y-60447607D01*
X76124999Y-60447607D02*
X76196428Y-60376178D01*
X76196428Y-60376178D02*
X76303571Y-60340464D01*
X76303571Y-60340464D02*
X76374999Y-60340464D01*
X76374999Y-60340464D02*
X76482142Y-60376178D01*
X76482142Y-60376178D02*
X76517856Y-60411892D01*
X77232142Y-61090464D02*
X76803571Y-61090464D01*
X77017856Y-61090464D02*
X77017856Y-60340464D01*
X77017856Y-60340464D02*
X76946428Y-60447607D01*
X76946428Y-60447607D02*
X76874999Y-60519035D01*
X76874999Y-60519035D02*
X76803571Y-60554750D01*
X77946428Y-61090464D02*
X77517857Y-61090464D01*
X77732142Y-61090464D02*
X77732142Y-60340464D01*
X77732142Y-60340464D02*
X77660714Y-60447607D01*
X77660714Y-60447607D02*
X77589285Y-60519035D01*
X77589285Y-60519035D02*
X77517857Y-60554750D01*
X78267856Y-49699035D02*
X78232142Y-49734750D01*
X78232142Y-49734750D02*
X78124999Y-49770464D01*
X78124999Y-49770464D02*
X78053571Y-49770464D01*
X78053571Y-49770464D02*
X77946428Y-49734750D01*
X77946428Y-49734750D02*
X77874999Y-49663321D01*
X77874999Y-49663321D02*
X77839285Y-49591892D01*
X77839285Y-49591892D02*
X77803571Y-49449035D01*
X77803571Y-49449035D02*
X77803571Y-49341892D01*
X77803571Y-49341892D02*
X77839285Y-49199035D01*
X77839285Y-49199035D02*
X77874999Y-49127607D01*
X77874999Y-49127607D02*
X77946428Y-49056178D01*
X77946428Y-49056178D02*
X78053571Y-49020464D01*
X78053571Y-49020464D02*
X78124999Y-49020464D01*
X78124999Y-49020464D02*
X78232142Y-49056178D01*
X78232142Y-49056178D02*
X78267856Y-49091892D01*
X78982142Y-49770464D02*
X78553571Y-49770464D01*
X78767856Y-49770464D02*
X78767856Y-49020464D01*
X78767856Y-49020464D02*
X78696428Y-49127607D01*
X78696428Y-49127607D02*
X78624999Y-49199035D01*
X78624999Y-49199035D02*
X78553571Y-49234750D01*
X79446428Y-49020464D02*
X79517857Y-49020464D01*
X79517857Y-49020464D02*
X79589285Y-49056178D01*
X79589285Y-49056178D02*
X79625000Y-49091892D01*
X79625000Y-49091892D02*
X79660714Y-49163321D01*
X79660714Y-49163321D02*
X79696428Y-49306178D01*
X79696428Y-49306178D02*
X79696428Y-49484750D01*
X79696428Y-49484750D02*
X79660714Y-49627607D01*
X79660714Y-49627607D02*
X79625000Y-49699035D01*
X79625000Y-49699035D02*
X79589285Y-49734750D01*
X79589285Y-49734750D02*
X79517857Y-49770464D01*
X79517857Y-49770464D02*
X79446428Y-49770464D01*
X79446428Y-49770464D02*
X79375000Y-49734750D01*
X79375000Y-49734750D02*
X79339285Y-49699035D01*
X79339285Y-49699035D02*
X79303571Y-49627607D01*
X79303571Y-49627607D02*
X79267857Y-49484750D01*
X79267857Y-49484750D02*
X79267857Y-49306178D01*
X79267857Y-49306178D02*
X79303571Y-49163321D01*
X79303571Y-49163321D02*
X79339285Y-49091892D01*
X79339285Y-49091892D02*
X79375000Y-49056178D01*
X79375000Y-49056178D02*
X79446428Y-49020464D01*
X87058571Y-55580464D02*
X87058571Y-56187607D01*
X87058571Y-56187607D02*
X87094285Y-56259035D01*
X87094285Y-56259035D02*
X87130000Y-56294750D01*
X87130000Y-56294750D02*
X87201428Y-56330464D01*
X87201428Y-56330464D02*
X87344285Y-56330464D01*
X87344285Y-56330464D02*
X87415714Y-56294750D01*
X87415714Y-56294750D02*
X87451428Y-56259035D01*
X87451428Y-56259035D02*
X87487142Y-56187607D01*
X87487142Y-56187607D02*
X87487142Y-55580464D01*
X87772856Y-55580464D02*
X88272856Y-55580464D01*
X88272856Y-55580464D02*
X87951428Y-56330464D01*
X71374999Y-42590464D02*
X71124999Y-42233321D01*
X70946428Y-42590464D02*
X70946428Y-41840464D01*
X70946428Y-41840464D02*
X71232142Y-41840464D01*
X71232142Y-41840464D02*
X71303571Y-41876178D01*
X71303571Y-41876178D02*
X71339285Y-41911892D01*
X71339285Y-41911892D02*
X71374999Y-41983321D01*
X71374999Y-41983321D02*
X71374999Y-42090464D01*
X71374999Y-42090464D02*
X71339285Y-42161892D01*
X71339285Y-42161892D02*
X71303571Y-42197607D01*
X71303571Y-42197607D02*
X71232142Y-42233321D01*
X71232142Y-42233321D02*
X70946428Y-42233321D01*
X72017857Y-41840464D02*
X71874999Y-41840464D01*
X71874999Y-41840464D02*
X71803571Y-41876178D01*
X71803571Y-41876178D02*
X71767857Y-41911892D01*
X71767857Y-41911892D02*
X71696428Y-42019035D01*
X71696428Y-42019035D02*
X71660714Y-42161892D01*
X71660714Y-42161892D02*
X71660714Y-42447607D01*
X71660714Y-42447607D02*
X71696428Y-42519035D01*
X71696428Y-42519035D02*
X71732142Y-42554750D01*
X71732142Y-42554750D02*
X71803571Y-42590464D01*
X71803571Y-42590464D02*
X71946428Y-42590464D01*
X71946428Y-42590464D02*
X72017857Y-42554750D01*
X72017857Y-42554750D02*
X72053571Y-42519035D01*
X72053571Y-42519035D02*
X72089285Y-42447607D01*
X72089285Y-42447607D02*
X72089285Y-42269035D01*
X72089285Y-42269035D02*
X72053571Y-42197607D01*
X72053571Y-42197607D02*
X72017857Y-42161892D01*
X72017857Y-42161892D02*
X71946428Y-42126178D01*
X71946428Y-42126178D02*
X71803571Y-42126178D01*
X71803571Y-42126178D02*
X71732142Y-42161892D01*
X71732142Y-42161892D02*
X71696428Y-42197607D01*
X71696428Y-42197607D02*
X71660714Y-42269035D01*
X71374999Y-40840464D02*
X71124999Y-40483321D01*
X70946428Y-40840464D02*
X70946428Y-40090464D01*
X70946428Y-40090464D02*
X71232142Y-40090464D01*
X71232142Y-40090464D02*
X71303571Y-40126178D01*
X71303571Y-40126178D02*
X71339285Y-40161892D01*
X71339285Y-40161892D02*
X71374999Y-40233321D01*
X71374999Y-40233321D02*
X71374999Y-40340464D01*
X71374999Y-40340464D02*
X71339285Y-40411892D01*
X71339285Y-40411892D02*
X71303571Y-40447607D01*
X71303571Y-40447607D02*
X71232142Y-40483321D01*
X71232142Y-40483321D02*
X70946428Y-40483321D01*
X72053571Y-40090464D02*
X71696428Y-40090464D01*
X71696428Y-40090464D02*
X71660714Y-40447607D01*
X71660714Y-40447607D02*
X71696428Y-40411892D01*
X71696428Y-40411892D02*
X71767857Y-40376178D01*
X71767857Y-40376178D02*
X71946428Y-40376178D01*
X71946428Y-40376178D02*
X72017857Y-40411892D01*
X72017857Y-40411892D02*
X72053571Y-40447607D01*
X72053571Y-40447607D02*
X72089285Y-40519035D01*
X72089285Y-40519035D02*
X72089285Y-40697607D01*
X72089285Y-40697607D02*
X72053571Y-40769035D01*
X72053571Y-40769035D02*
X72017857Y-40804750D01*
X72017857Y-40804750D02*
X71946428Y-40840464D01*
X71946428Y-40840464D02*
X71767857Y-40840464D01*
X71767857Y-40840464D02*
X71696428Y-40804750D01*
X71696428Y-40804750D02*
X71660714Y-40769035D01*
X73906856Y-35404642D02*
X73871142Y-35440357D01*
X73871142Y-35440357D02*
X73763999Y-35476071D01*
X73763999Y-35476071D02*
X73692571Y-35476071D01*
X73692571Y-35476071D02*
X73585428Y-35440357D01*
X73585428Y-35440357D02*
X73513999Y-35368928D01*
X73513999Y-35368928D02*
X73478285Y-35297499D01*
X73478285Y-35297499D02*
X73442571Y-35154642D01*
X73442571Y-35154642D02*
X73442571Y-35047499D01*
X73442571Y-35047499D02*
X73478285Y-34904642D01*
X73478285Y-34904642D02*
X73513999Y-34833214D01*
X73513999Y-34833214D02*
X73585428Y-34761785D01*
X73585428Y-34761785D02*
X73692571Y-34726071D01*
X73692571Y-34726071D02*
X73763999Y-34726071D01*
X73763999Y-34726071D02*
X73871142Y-34761785D01*
X73871142Y-34761785D02*
X73906856Y-34797499D01*
X74621142Y-35476071D02*
X74192571Y-35476071D01*
X74406856Y-35476071D02*
X74406856Y-34726071D01*
X74406856Y-34726071D02*
X74335428Y-34833214D01*
X74335428Y-34833214D02*
X74263999Y-34904642D01*
X74263999Y-34904642D02*
X74192571Y-34940357D01*
X75264000Y-34726071D02*
X75121142Y-34726071D01*
X75121142Y-34726071D02*
X75049714Y-34761785D01*
X75049714Y-34761785D02*
X75014000Y-34797499D01*
X75014000Y-34797499D02*
X74942571Y-34904642D01*
X74942571Y-34904642D02*
X74906857Y-35047499D01*
X74906857Y-35047499D02*
X74906857Y-35333214D01*
X74906857Y-35333214D02*
X74942571Y-35404642D01*
X74942571Y-35404642D02*
X74978285Y-35440357D01*
X74978285Y-35440357D02*
X75049714Y-35476071D01*
X75049714Y-35476071D02*
X75192571Y-35476071D01*
X75192571Y-35476071D02*
X75264000Y-35440357D01*
X75264000Y-35440357D02*
X75299714Y-35404642D01*
X75299714Y-35404642D02*
X75335428Y-35333214D01*
X75335428Y-35333214D02*
X75335428Y-35154642D01*
X75335428Y-35154642D02*
X75299714Y-35083214D01*
X75299714Y-35083214D02*
X75264000Y-35047499D01*
X75264000Y-35047499D02*
X75192571Y-35011785D01*
X75192571Y-35011785D02*
X75049714Y-35011785D01*
X75049714Y-35011785D02*
X74978285Y-35047499D01*
X74978285Y-35047499D02*
X74942571Y-35083214D01*
X74942571Y-35083214D02*
X74906857Y-35154642D01*
X70767856Y-38769035D02*
X70732142Y-38804750D01*
X70732142Y-38804750D02*
X70624999Y-38840464D01*
X70624999Y-38840464D02*
X70553571Y-38840464D01*
X70553571Y-38840464D02*
X70446428Y-38804750D01*
X70446428Y-38804750D02*
X70374999Y-38733321D01*
X70374999Y-38733321D02*
X70339285Y-38661892D01*
X70339285Y-38661892D02*
X70303571Y-38519035D01*
X70303571Y-38519035D02*
X70303571Y-38411892D01*
X70303571Y-38411892D02*
X70339285Y-38269035D01*
X70339285Y-38269035D02*
X70374999Y-38197607D01*
X70374999Y-38197607D02*
X70446428Y-38126178D01*
X70446428Y-38126178D02*
X70553571Y-38090464D01*
X70553571Y-38090464D02*
X70624999Y-38090464D01*
X70624999Y-38090464D02*
X70732142Y-38126178D01*
X70732142Y-38126178D02*
X70767856Y-38161892D01*
X71482142Y-38840464D02*
X71053571Y-38840464D01*
X71267856Y-38840464D02*
X71267856Y-38090464D01*
X71267856Y-38090464D02*
X71196428Y-38197607D01*
X71196428Y-38197607D02*
X71124999Y-38269035D01*
X71124999Y-38269035D02*
X71053571Y-38304750D01*
X72160714Y-38090464D02*
X71803571Y-38090464D01*
X71803571Y-38090464D02*
X71767857Y-38447607D01*
X71767857Y-38447607D02*
X71803571Y-38411892D01*
X71803571Y-38411892D02*
X71875000Y-38376178D01*
X71875000Y-38376178D02*
X72053571Y-38376178D01*
X72053571Y-38376178D02*
X72125000Y-38411892D01*
X72125000Y-38411892D02*
X72160714Y-38447607D01*
X72160714Y-38447607D02*
X72196428Y-38519035D01*
X72196428Y-38519035D02*
X72196428Y-38697607D01*
X72196428Y-38697607D02*
X72160714Y-38769035D01*
X72160714Y-38769035D02*
X72125000Y-38804750D01*
X72125000Y-38804750D02*
X72053571Y-38840464D01*
X72053571Y-38840464D02*
X71875000Y-38840464D01*
X71875000Y-38840464D02*
X71803571Y-38804750D01*
X71803571Y-38804750D02*
X71767857Y-38769035D01*
X79125000Y-40590464D02*
X78767857Y-40590464D01*
X78767857Y-40590464D02*
X78767857Y-39840464D01*
X79339286Y-39911892D02*
X79375000Y-39876178D01*
X79375000Y-39876178D02*
X79446429Y-39840464D01*
X79446429Y-39840464D02*
X79625000Y-39840464D01*
X79625000Y-39840464D02*
X79696429Y-39876178D01*
X79696429Y-39876178D02*
X79732143Y-39911892D01*
X79732143Y-39911892D02*
X79767857Y-39983321D01*
X79767857Y-39983321D02*
X79767857Y-40054750D01*
X79767857Y-40054750D02*
X79732143Y-40161892D01*
X79732143Y-40161892D02*
X79303571Y-40590464D01*
X79303571Y-40590464D02*
X79767857Y-40590464D01*
X70428571Y-44906071D02*
X70428571Y-45513214D01*
X70428571Y-45513214D02*
X70464285Y-45584642D01*
X70464285Y-45584642D02*
X70500000Y-45620357D01*
X70500000Y-45620357D02*
X70571428Y-45656071D01*
X70571428Y-45656071D02*
X70714285Y-45656071D01*
X70714285Y-45656071D02*
X70785714Y-45620357D01*
X70785714Y-45620357D02*
X70821428Y-45584642D01*
X70821428Y-45584642D02*
X70857142Y-45513214D01*
X70857142Y-45513214D02*
X70857142Y-44906071D01*
X71142856Y-44906071D02*
X71607142Y-44906071D01*
X71607142Y-44906071D02*
X71357142Y-45191785D01*
X71357142Y-45191785D02*
X71464285Y-45191785D01*
X71464285Y-45191785D02*
X71535714Y-45227499D01*
X71535714Y-45227499D02*
X71571428Y-45263214D01*
X71571428Y-45263214D02*
X71607142Y-45334642D01*
X71607142Y-45334642D02*
X71607142Y-45513214D01*
X71607142Y-45513214D02*
X71571428Y-45584642D01*
X71571428Y-45584642D02*
X71535714Y-45620357D01*
X71535714Y-45620357D02*
X71464285Y-45656071D01*
X71464285Y-45656071D02*
X71249999Y-45656071D01*
X71249999Y-45656071D02*
X71178571Y-45620357D01*
X71178571Y-45620357D02*
X71142856Y-45584642D01*
X77196428Y-35840464D02*
X77196428Y-35090464D01*
X77196428Y-35090464D02*
X77374999Y-35090464D01*
X77374999Y-35090464D02*
X77482142Y-35126178D01*
X77482142Y-35126178D02*
X77553571Y-35197607D01*
X77553571Y-35197607D02*
X77589285Y-35269035D01*
X77589285Y-35269035D02*
X77624999Y-35411892D01*
X77624999Y-35411892D02*
X77624999Y-35519035D01*
X77624999Y-35519035D02*
X77589285Y-35661892D01*
X77589285Y-35661892D02*
X77553571Y-35733321D01*
X77553571Y-35733321D02*
X77482142Y-35804750D01*
X77482142Y-35804750D02*
X77374999Y-35840464D01*
X77374999Y-35840464D02*
X77196428Y-35840464D01*
X78303571Y-35090464D02*
X77946428Y-35090464D01*
X77946428Y-35090464D02*
X77910714Y-35447607D01*
X77910714Y-35447607D02*
X77946428Y-35411892D01*
X77946428Y-35411892D02*
X78017857Y-35376178D01*
X78017857Y-35376178D02*
X78196428Y-35376178D01*
X78196428Y-35376178D02*
X78267857Y-35411892D01*
X78267857Y-35411892D02*
X78303571Y-35447607D01*
X78303571Y-35447607D02*
X78339285Y-35519035D01*
X78339285Y-35519035D02*
X78339285Y-35697607D01*
X78339285Y-35697607D02*
X78303571Y-35769035D01*
X78303571Y-35769035D02*
X78267857Y-35804750D01*
X78267857Y-35804750D02*
X78196428Y-35840464D01*
X78196428Y-35840464D02*
X78017857Y-35840464D01*
X78017857Y-35840464D02*
X77946428Y-35804750D01*
X77946428Y-35804750D02*
X77910714Y-35769035D01*
X63428571Y-45590464D02*
X63428571Y-46197607D01*
X63428571Y-46197607D02*
X63464285Y-46269035D01*
X63464285Y-46269035D02*
X63500000Y-46304750D01*
X63500000Y-46304750D02*
X63571428Y-46340464D01*
X63571428Y-46340464D02*
X63714285Y-46340464D01*
X63714285Y-46340464D02*
X63785714Y-46304750D01*
X63785714Y-46304750D02*
X63821428Y-46269035D01*
X63821428Y-46269035D02*
X63857142Y-46197607D01*
X63857142Y-46197607D02*
X63857142Y-45590464D01*
X64607142Y-46340464D02*
X64178571Y-46340464D01*
X64392856Y-46340464D02*
X64392856Y-45590464D01*
X64392856Y-45590464D02*
X64321428Y-45697607D01*
X64321428Y-45697607D02*
X64249999Y-45769035D01*
X64249999Y-45769035D02*
X64178571Y-45804750D01*
X63178571Y-34590464D02*
X63178571Y-35197607D01*
X63178571Y-35197607D02*
X63214285Y-35269035D01*
X63214285Y-35269035D02*
X63250000Y-35304750D01*
X63250000Y-35304750D02*
X63321428Y-35340464D01*
X63321428Y-35340464D02*
X63464285Y-35340464D01*
X63464285Y-35340464D02*
X63535714Y-35304750D01*
X63535714Y-35304750D02*
X63571428Y-35269035D01*
X63571428Y-35269035D02*
X63607142Y-35197607D01*
X63607142Y-35197607D02*
X63607142Y-34590464D01*
X63928571Y-34661892D02*
X63964285Y-34626178D01*
X63964285Y-34626178D02*
X64035714Y-34590464D01*
X64035714Y-34590464D02*
X64214285Y-34590464D01*
X64214285Y-34590464D02*
X64285714Y-34626178D01*
X64285714Y-34626178D02*
X64321428Y-34661892D01*
X64321428Y-34661892D02*
X64357142Y-34733321D01*
X64357142Y-34733321D02*
X64357142Y-34804750D01*
X64357142Y-34804750D02*
X64321428Y-34911892D01*
X64321428Y-34911892D02*
X63892856Y-35340464D01*
X63892856Y-35340464D02*
X64357142Y-35340464D01*
X82678571Y-35911892D02*
X82607142Y-35876178D01*
X82607142Y-35876178D02*
X82535714Y-35804750D01*
X82535714Y-35804750D02*
X82428571Y-35697607D01*
X82428571Y-35697607D02*
X82357142Y-35661892D01*
X82357142Y-35661892D02*
X82285714Y-35661892D01*
X82321428Y-35840464D02*
X82250000Y-35804750D01*
X82250000Y-35804750D02*
X82178571Y-35733321D01*
X82178571Y-35733321D02*
X82142857Y-35590464D01*
X82142857Y-35590464D02*
X82142857Y-35340464D01*
X82142857Y-35340464D02*
X82178571Y-35197607D01*
X82178571Y-35197607D02*
X82250000Y-35126178D01*
X82250000Y-35126178D02*
X82321428Y-35090464D01*
X82321428Y-35090464D02*
X82464285Y-35090464D01*
X82464285Y-35090464D02*
X82535714Y-35126178D01*
X82535714Y-35126178D02*
X82607142Y-35197607D01*
X82607142Y-35197607D02*
X82642857Y-35340464D01*
X82642857Y-35340464D02*
X82642857Y-35590464D01*
X82642857Y-35590464D02*
X82607142Y-35733321D01*
X82607142Y-35733321D02*
X82535714Y-35804750D01*
X82535714Y-35804750D02*
X82464285Y-35840464D01*
X82464285Y-35840464D02*
X82321428Y-35840464D01*
X83357142Y-35840464D02*
X82928571Y-35840464D01*
X83142856Y-35840464D02*
X83142856Y-35090464D01*
X83142856Y-35090464D02*
X83071428Y-35197607D01*
X83071428Y-35197607D02*
X82999999Y-35269035D01*
X82999999Y-35269035D02*
X82928571Y-35304750D01*
X90750000Y-34840464D02*
X90750000Y-35376178D01*
X90750000Y-35376178D02*
X90714285Y-35483321D01*
X90714285Y-35483321D02*
X90642857Y-35554750D01*
X90642857Y-35554750D02*
X90535714Y-35590464D01*
X90535714Y-35590464D02*
X90464285Y-35590464D01*
X91464286Y-34840464D02*
X91107143Y-34840464D01*
X91107143Y-34840464D02*
X91071429Y-35197607D01*
X91071429Y-35197607D02*
X91107143Y-35161892D01*
X91107143Y-35161892D02*
X91178572Y-35126178D01*
X91178572Y-35126178D02*
X91357143Y-35126178D01*
X91357143Y-35126178D02*
X91428572Y-35161892D01*
X91428572Y-35161892D02*
X91464286Y-35197607D01*
X91464286Y-35197607D02*
X91500000Y-35269035D01*
X91500000Y-35269035D02*
X91500000Y-35447607D01*
X91500000Y-35447607D02*
X91464286Y-35519035D01*
X91464286Y-35519035D02*
X91428572Y-35554750D01*
X91428572Y-35554750D02*
X91357143Y-35590464D01*
X91357143Y-35590464D02*
X91178572Y-35590464D01*
X91178572Y-35590464D02*
X91107143Y-35554750D01*
X91107143Y-35554750D02*
X91071429Y-35519035D01*
X52624999Y-52769035D02*
X52589285Y-52804750D01*
X52589285Y-52804750D02*
X52482142Y-52840464D01*
X52482142Y-52840464D02*
X52410714Y-52840464D01*
X52410714Y-52840464D02*
X52303571Y-52804750D01*
X52303571Y-52804750D02*
X52232142Y-52733321D01*
X52232142Y-52733321D02*
X52196428Y-52661892D01*
X52196428Y-52661892D02*
X52160714Y-52519035D01*
X52160714Y-52519035D02*
X52160714Y-52411892D01*
X52160714Y-52411892D02*
X52196428Y-52269035D01*
X52196428Y-52269035D02*
X52232142Y-52197607D01*
X52232142Y-52197607D02*
X52303571Y-52126178D01*
X52303571Y-52126178D02*
X52410714Y-52090464D01*
X52410714Y-52090464D02*
X52482142Y-52090464D01*
X52482142Y-52090464D02*
X52589285Y-52126178D01*
X52589285Y-52126178D02*
X52624999Y-52161892D01*
X53339285Y-52840464D02*
X52910714Y-52840464D01*
X53124999Y-52840464D02*
X53124999Y-52090464D01*
X53124999Y-52090464D02*
X53053571Y-52197607D01*
X53053571Y-52197607D02*
X52982142Y-52269035D01*
X52982142Y-52269035D02*
X52910714Y-52304750D01*
X86874999Y-59840464D02*
X86624999Y-59483321D01*
X86446428Y-59840464D02*
X86446428Y-59090464D01*
X86446428Y-59090464D02*
X86732142Y-59090464D01*
X86732142Y-59090464D02*
X86803571Y-59126178D01*
X86803571Y-59126178D02*
X86839285Y-59161892D01*
X86839285Y-59161892D02*
X86874999Y-59233321D01*
X86874999Y-59233321D02*
X86874999Y-59340464D01*
X86874999Y-59340464D02*
X86839285Y-59411892D01*
X86839285Y-59411892D02*
X86803571Y-59447607D01*
X86803571Y-59447607D02*
X86732142Y-59483321D01*
X86732142Y-59483321D02*
X86446428Y-59483321D01*
X87124999Y-59090464D02*
X87589285Y-59090464D01*
X87589285Y-59090464D02*
X87339285Y-59376178D01*
X87339285Y-59376178D02*
X87446428Y-59376178D01*
X87446428Y-59376178D02*
X87517857Y-59411892D01*
X87517857Y-59411892D02*
X87553571Y-59447607D01*
X87553571Y-59447607D02*
X87589285Y-59519035D01*
X87589285Y-59519035D02*
X87589285Y-59697607D01*
X87589285Y-59697607D02*
X87553571Y-59769035D01*
X87553571Y-59769035D02*
X87517857Y-59804750D01*
X87517857Y-59804750D02*
X87446428Y-59840464D01*
X87446428Y-59840464D02*
X87232142Y-59840464D01*
X87232142Y-59840464D02*
X87160714Y-59804750D01*
X87160714Y-59804750D02*
X87124999Y-59769035D01*
X90374999Y-59840464D02*
X90124999Y-59483321D01*
X89946428Y-59840464D02*
X89946428Y-59090464D01*
X89946428Y-59090464D02*
X90232142Y-59090464D01*
X90232142Y-59090464D02*
X90303571Y-59126178D01*
X90303571Y-59126178D02*
X90339285Y-59161892D01*
X90339285Y-59161892D02*
X90374999Y-59233321D01*
X90374999Y-59233321D02*
X90374999Y-59340464D01*
X90374999Y-59340464D02*
X90339285Y-59411892D01*
X90339285Y-59411892D02*
X90303571Y-59447607D01*
X90303571Y-59447607D02*
X90232142Y-59483321D01*
X90232142Y-59483321D02*
X89946428Y-59483321D01*
X90660714Y-59161892D02*
X90696428Y-59126178D01*
X90696428Y-59126178D02*
X90767857Y-59090464D01*
X90767857Y-59090464D02*
X90946428Y-59090464D01*
X90946428Y-59090464D02*
X91017857Y-59126178D01*
X91017857Y-59126178D02*
X91053571Y-59161892D01*
X91053571Y-59161892D02*
X91089285Y-59233321D01*
X91089285Y-59233321D02*
X91089285Y-59304750D01*
X91089285Y-59304750D02*
X91053571Y-59411892D01*
X91053571Y-59411892D02*
X90624999Y-59840464D01*
X90624999Y-59840464D02*
X91089285Y-59840464D01*
X112946428Y-52840464D02*
X112946428Y-52090464D01*
X112946428Y-52090464D02*
X113124999Y-52090464D01*
X113124999Y-52090464D02*
X113232142Y-52126178D01*
X113232142Y-52126178D02*
X113303571Y-52197607D01*
X113303571Y-52197607D02*
X113339285Y-52269035D01*
X113339285Y-52269035D02*
X113374999Y-52411892D01*
X113374999Y-52411892D02*
X113374999Y-52519035D01*
X113374999Y-52519035D02*
X113339285Y-52661892D01*
X113339285Y-52661892D02*
X113303571Y-52733321D01*
X113303571Y-52733321D02*
X113232142Y-52804750D01*
X113232142Y-52804750D02*
X113124999Y-52840464D01*
X113124999Y-52840464D02*
X112946428Y-52840464D01*
X114017857Y-52090464D02*
X113874999Y-52090464D01*
X113874999Y-52090464D02*
X113803571Y-52126178D01*
X113803571Y-52126178D02*
X113767857Y-52161892D01*
X113767857Y-52161892D02*
X113696428Y-52269035D01*
X113696428Y-52269035D02*
X113660714Y-52411892D01*
X113660714Y-52411892D02*
X113660714Y-52697607D01*
X113660714Y-52697607D02*
X113696428Y-52769035D01*
X113696428Y-52769035D02*
X113732142Y-52804750D01*
X113732142Y-52804750D02*
X113803571Y-52840464D01*
X113803571Y-52840464D02*
X113946428Y-52840464D01*
X113946428Y-52840464D02*
X114017857Y-52804750D01*
X114017857Y-52804750D02*
X114053571Y-52769035D01*
X114053571Y-52769035D02*
X114089285Y-52697607D01*
X114089285Y-52697607D02*
X114089285Y-52519035D01*
X114089285Y-52519035D02*
X114053571Y-52447607D01*
X114053571Y-52447607D02*
X114017857Y-52411892D01*
X114017857Y-52411892D02*
X113946428Y-52376178D01*
X113946428Y-52376178D02*
X113803571Y-52376178D01*
X113803571Y-52376178D02*
X113732142Y-52411892D01*
X113732142Y-52411892D02*
X113696428Y-52447607D01*
X113696428Y-52447607D02*
X113660714Y-52519035D01*
X112017856Y-58769035D02*
X111982142Y-58804750D01*
X111982142Y-58804750D02*
X111874999Y-58840464D01*
X111874999Y-58840464D02*
X111803571Y-58840464D01*
X111803571Y-58840464D02*
X111696428Y-58804750D01*
X111696428Y-58804750D02*
X111624999Y-58733321D01*
X111624999Y-58733321D02*
X111589285Y-58661892D01*
X111589285Y-58661892D02*
X111553571Y-58519035D01*
X111553571Y-58519035D02*
X111553571Y-58411892D01*
X111553571Y-58411892D02*
X111589285Y-58269035D01*
X111589285Y-58269035D02*
X111624999Y-58197607D01*
X111624999Y-58197607D02*
X111696428Y-58126178D01*
X111696428Y-58126178D02*
X111803571Y-58090464D01*
X111803571Y-58090464D02*
X111874999Y-58090464D01*
X111874999Y-58090464D02*
X111982142Y-58126178D01*
X111982142Y-58126178D02*
X112017856Y-58161892D01*
X112303571Y-58161892D02*
X112339285Y-58126178D01*
X112339285Y-58126178D02*
X112410714Y-58090464D01*
X112410714Y-58090464D02*
X112589285Y-58090464D01*
X112589285Y-58090464D02*
X112660714Y-58126178D01*
X112660714Y-58126178D02*
X112696428Y-58161892D01*
X112696428Y-58161892D02*
X112732142Y-58233321D01*
X112732142Y-58233321D02*
X112732142Y-58304750D01*
X112732142Y-58304750D02*
X112696428Y-58411892D01*
X112696428Y-58411892D02*
X112267856Y-58840464D01*
X112267856Y-58840464D02*
X112732142Y-58840464D01*
X113446428Y-58840464D02*
X113017857Y-58840464D01*
X113232142Y-58840464D02*
X113232142Y-58090464D01*
X113232142Y-58090464D02*
X113160714Y-58197607D01*
X113160714Y-58197607D02*
X113089285Y-58269035D01*
X113089285Y-58269035D02*
X113017857Y-58304750D01*
X113340464Y-55553571D02*
X112590464Y-55553571D01*
X112590464Y-55553571D02*
X112590464Y-55375000D01*
X112590464Y-55375000D02*
X112626178Y-55267857D01*
X112626178Y-55267857D02*
X112697607Y-55196428D01*
X112697607Y-55196428D02*
X112769035Y-55160714D01*
X112769035Y-55160714D02*
X112911892Y-55125000D01*
X112911892Y-55125000D02*
X113019035Y-55125000D01*
X113019035Y-55125000D02*
X113161892Y-55160714D01*
X113161892Y-55160714D02*
X113233321Y-55196428D01*
X113233321Y-55196428D02*
X113304750Y-55267857D01*
X113304750Y-55267857D02*
X113340464Y-55375000D01*
X113340464Y-55375000D02*
X113340464Y-55553571D01*
X112661892Y-54839285D02*
X112626178Y-54803571D01*
X112626178Y-54803571D02*
X112590464Y-54732143D01*
X112590464Y-54732143D02*
X112590464Y-54553571D01*
X112590464Y-54553571D02*
X112626178Y-54482143D01*
X112626178Y-54482143D02*
X112661892Y-54446428D01*
X112661892Y-54446428D02*
X112733321Y-54410714D01*
X112733321Y-54410714D02*
X112804750Y-54410714D01*
X112804750Y-54410714D02*
X112911892Y-54446428D01*
X112911892Y-54446428D02*
X113340464Y-54875000D01*
X113340464Y-54875000D02*
X113340464Y-54410714D01*
X112267856Y-35769035D02*
X112232142Y-35804750D01*
X112232142Y-35804750D02*
X112124999Y-35840464D01*
X112124999Y-35840464D02*
X112053571Y-35840464D01*
X112053571Y-35840464D02*
X111946428Y-35804750D01*
X111946428Y-35804750D02*
X111874999Y-35733321D01*
X111874999Y-35733321D02*
X111839285Y-35661892D01*
X111839285Y-35661892D02*
X111803571Y-35519035D01*
X111803571Y-35519035D02*
X111803571Y-35411892D01*
X111803571Y-35411892D02*
X111839285Y-35269035D01*
X111839285Y-35269035D02*
X111874999Y-35197607D01*
X111874999Y-35197607D02*
X111946428Y-35126178D01*
X111946428Y-35126178D02*
X112053571Y-35090464D01*
X112053571Y-35090464D02*
X112124999Y-35090464D01*
X112124999Y-35090464D02*
X112232142Y-35126178D01*
X112232142Y-35126178D02*
X112267856Y-35161892D01*
X112553571Y-35161892D02*
X112589285Y-35126178D01*
X112589285Y-35126178D02*
X112660714Y-35090464D01*
X112660714Y-35090464D02*
X112839285Y-35090464D01*
X112839285Y-35090464D02*
X112910714Y-35126178D01*
X112910714Y-35126178D02*
X112946428Y-35161892D01*
X112946428Y-35161892D02*
X112982142Y-35233321D01*
X112982142Y-35233321D02*
X112982142Y-35304750D01*
X112982142Y-35304750D02*
X112946428Y-35411892D01*
X112946428Y-35411892D02*
X112517856Y-35840464D01*
X112517856Y-35840464D02*
X112982142Y-35840464D01*
X113446428Y-35090464D02*
X113517857Y-35090464D01*
X113517857Y-35090464D02*
X113589285Y-35126178D01*
X113589285Y-35126178D02*
X113625000Y-35161892D01*
X113625000Y-35161892D02*
X113660714Y-35233321D01*
X113660714Y-35233321D02*
X113696428Y-35376178D01*
X113696428Y-35376178D02*
X113696428Y-35554750D01*
X113696428Y-35554750D02*
X113660714Y-35697607D01*
X113660714Y-35697607D02*
X113625000Y-35769035D01*
X113625000Y-35769035D02*
X113589285Y-35804750D01*
X113589285Y-35804750D02*
X113517857Y-35840464D01*
X113517857Y-35840464D02*
X113446428Y-35840464D01*
X113446428Y-35840464D02*
X113375000Y-35804750D01*
X113375000Y-35804750D02*
X113339285Y-35769035D01*
X113339285Y-35769035D02*
X113303571Y-35697607D01*
X113303571Y-35697607D02*
X113267857Y-35554750D01*
X113267857Y-35554750D02*
X113267857Y-35376178D01*
X113267857Y-35376178D02*
X113303571Y-35233321D01*
X113303571Y-35233321D02*
X113339285Y-35161892D01*
X113339285Y-35161892D02*
X113375000Y-35126178D01*
X113375000Y-35126178D02*
X113446428Y-35090464D01*
X94017856Y-58769035D02*
X93982142Y-58804750D01*
X93982142Y-58804750D02*
X93874999Y-58840464D01*
X93874999Y-58840464D02*
X93803571Y-58840464D01*
X93803571Y-58840464D02*
X93696428Y-58804750D01*
X93696428Y-58804750D02*
X93624999Y-58733321D01*
X93624999Y-58733321D02*
X93589285Y-58661892D01*
X93589285Y-58661892D02*
X93553571Y-58519035D01*
X93553571Y-58519035D02*
X93553571Y-58411892D01*
X93553571Y-58411892D02*
X93589285Y-58269035D01*
X93589285Y-58269035D02*
X93624999Y-58197607D01*
X93624999Y-58197607D02*
X93696428Y-58126178D01*
X93696428Y-58126178D02*
X93803571Y-58090464D01*
X93803571Y-58090464D02*
X93874999Y-58090464D01*
X93874999Y-58090464D02*
X93982142Y-58126178D01*
X93982142Y-58126178D02*
X94017856Y-58161892D01*
X94732142Y-58840464D02*
X94303571Y-58840464D01*
X94517856Y-58840464D02*
X94517856Y-58090464D01*
X94517856Y-58090464D02*
X94446428Y-58197607D01*
X94446428Y-58197607D02*
X94374999Y-58269035D01*
X94374999Y-58269035D02*
X94303571Y-58304750D01*
X95089285Y-58840464D02*
X95232142Y-58840464D01*
X95232142Y-58840464D02*
X95303571Y-58804750D01*
X95303571Y-58804750D02*
X95339285Y-58769035D01*
X95339285Y-58769035D02*
X95410714Y-58661892D01*
X95410714Y-58661892D02*
X95446428Y-58519035D01*
X95446428Y-58519035D02*
X95446428Y-58233321D01*
X95446428Y-58233321D02*
X95410714Y-58161892D01*
X95410714Y-58161892D02*
X95375000Y-58126178D01*
X95375000Y-58126178D02*
X95303571Y-58090464D01*
X95303571Y-58090464D02*
X95160714Y-58090464D01*
X95160714Y-58090464D02*
X95089285Y-58126178D01*
X95089285Y-58126178D02*
X95053571Y-58161892D01*
X95053571Y-58161892D02*
X95017857Y-58233321D01*
X95017857Y-58233321D02*
X95017857Y-58411892D01*
X95017857Y-58411892D02*
X95053571Y-58483321D01*
X95053571Y-58483321D02*
X95089285Y-58519035D01*
X95089285Y-58519035D02*
X95160714Y-58554750D01*
X95160714Y-58554750D02*
X95303571Y-58554750D01*
X95303571Y-58554750D02*
X95375000Y-58519035D01*
X95375000Y-58519035D02*
X95410714Y-58483321D01*
X95410714Y-58483321D02*
X95446428Y-58411892D01*
X114590464Y-55553571D02*
X113840464Y-55553571D01*
X113840464Y-55553571D02*
X113840464Y-55375000D01*
X113840464Y-55375000D02*
X113876178Y-55267857D01*
X113876178Y-55267857D02*
X113947607Y-55196428D01*
X113947607Y-55196428D02*
X114019035Y-55160714D01*
X114019035Y-55160714D02*
X114161892Y-55125000D01*
X114161892Y-55125000D02*
X114269035Y-55125000D01*
X114269035Y-55125000D02*
X114411892Y-55160714D01*
X114411892Y-55160714D02*
X114483321Y-55196428D01*
X114483321Y-55196428D02*
X114554750Y-55267857D01*
X114554750Y-55267857D02*
X114590464Y-55375000D01*
X114590464Y-55375000D02*
X114590464Y-55553571D01*
X113840464Y-54875000D02*
X113840464Y-54410714D01*
X113840464Y-54410714D02*
X114126178Y-54660714D01*
X114126178Y-54660714D02*
X114126178Y-54553571D01*
X114126178Y-54553571D02*
X114161892Y-54482143D01*
X114161892Y-54482143D02*
X114197607Y-54446428D01*
X114197607Y-54446428D02*
X114269035Y-54410714D01*
X114269035Y-54410714D02*
X114447607Y-54410714D01*
X114447607Y-54410714D02*
X114519035Y-54446428D01*
X114519035Y-54446428D02*
X114554750Y-54482143D01*
X114554750Y-54482143D02*
X114590464Y-54553571D01*
X114590464Y-54553571D02*
X114590464Y-54767857D01*
X114590464Y-54767857D02*
X114554750Y-54839285D01*
X114554750Y-54839285D02*
X114519035Y-54875000D01*
X112090464Y-55553571D02*
X111340464Y-55553571D01*
X111340464Y-55553571D02*
X111340464Y-55375000D01*
X111340464Y-55375000D02*
X111376178Y-55267857D01*
X111376178Y-55267857D02*
X111447607Y-55196428D01*
X111447607Y-55196428D02*
X111519035Y-55160714D01*
X111519035Y-55160714D02*
X111661892Y-55125000D01*
X111661892Y-55125000D02*
X111769035Y-55125000D01*
X111769035Y-55125000D02*
X111911892Y-55160714D01*
X111911892Y-55160714D02*
X111983321Y-55196428D01*
X111983321Y-55196428D02*
X112054750Y-55267857D01*
X112054750Y-55267857D02*
X112090464Y-55375000D01*
X112090464Y-55375000D02*
X112090464Y-55553571D01*
X112090464Y-54410714D02*
X112090464Y-54839285D01*
X112090464Y-54625000D02*
X111340464Y-54625000D01*
X111340464Y-54625000D02*
X111447607Y-54696428D01*
X111447607Y-54696428D02*
X111519035Y-54767857D01*
X111519035Y-54767857D02*
X111554750Y-54839285D01*
X115840464Y-55553571D02*
X115090464Y-55553571D01*
X115090464Y-55553571D02*
X115090464Y-55375000D01*
X115090464Y-55375000D02*
X115126178Y-55267857D01*
X115126178Y-55267857D02*
X115197607Y-55196428D01*
X115197607Y-55196428D02*
X115269035Y-55160714D01*
X115269035Y-55160714D02*
X115411892Y-55125000D01*
X115411892Y-55125000D02*
X115519035Y-55125000D01*
X115519035Y-55125000D02*
X115661892Y-55160714D01*
X115661892Y-55160714D02*
X115733321Y-55196428D01*
X115733321Y-55196428D02*
X115804750Y-55267857D01*
X115804750Y-55267857D02*
X115840464Y-55375000D01*
X115840464Y-55375000D02*
X115840464Y-55553571D01*
X115340464Y-54482143D02*
X115840464Y-54482143D01*
X115054750Y-54660714D02*
X115590464Y-54839285D01*
X115590464Y-54839285D02*
X115590464Y-54375000D01*
X93767856Y-35769035D02*
X93732142Y-35804750D01*
X93732142Y-35804750D02*
X93624999Y-35840464D01*
X93624999Y-35840464D02*
X93553571Y-35840464D01*
X93553571Y-35840464D02*
X93446428Y-35804750D01*
X93446428Y-35804750D02*
X93374999Y-35733321D01*
X93374999Y-35733321D02*
X93339285Y-35661892D01*
X93339285Y-35661892D02*
X93303571Y-35519035D01*
X93303571Y-35519035D02*
X93303571Y-35411892D01*
X93303571Y-35411892D02*
X93339285Y-35269035D01*
X93339285Y-35269035D02*
X93374999Y-35197607D01*
X93374999Y-35197607D02*
X93446428Y-35126178D01*
X93446428Y-35126178D02*
X93553571Y-35090464D01*
X93553571Y-35090464D02*
X93624999Y-35090464D01*
X93624999Y-35090464D02*
X93732142Y-35126178D01*
X93732142Y-35126178D02*
X93767856Y-35161892D01*
X94482142Y-35840464D02*
X94053571Y-35840464D01*
X94267856Y-35840464D02*
X94267856Y-35090464D01*
X94267856Y-35090464D02*
X94196428Y-35197607D01*
X94196428Y-35197607D02*
X94124999Y-35269035D01*
X94124999Y-35269035D02*
X94053571Y-35304750D01*
X94910714Y-35411892D02*
X94839285Y-35376178D01*
X94839285Y-35376178D02*
X94803571Y-35340464D01*
X94803571Y-35340464D02*
X94767857Y-35269035D01*
X94767857Y-35269035D02*
X94767857Y-35233321D01*
X94767857Y-35233321D02*
X94803571Y-35161892D01*
X94803571Y-35161892D02*
X94839285Y-35126178D01*
X94839285Y-35126178D02*
X94910714Y-35090464D01*
X94910714Y-35090464D02*
X95053571Y-35090464D01*
X95053571Y-35090464D02*
X95125000Y-35126178D01*
X95125000Y-35126178D02*
X95160714Y-35161892D01*
X95160714Y-35161892D02*
X95196428Y-35233321D01*
X95196428Y-35233321D02*
X95196428Y-35269035D01*
X95196428Y-35269035D02*
X95160714Y-35340464D01*
X95160714Y-35340464D02*
X95125000Y-35376178D01*
X95125000Y-35376178D02*
X95053571Y-35411892D01*
X95053571Y-35411892D02*
X94910714Y-35411892D01*
X94910714Y-35411892D02*
X94839285Y-35447607D01*
X94839285Y-35447607D02*
X94803571Y-35483321D01*
X94803571Y-35483321D02*
X94767857Y-35554750D01*
X94767857Y-35554750D02*
X94767857Y-35697607D01*
X94767857Y-35697607D02*
X94803571Y-35769035D01*
X94803571Y-35769035D02*
X94839285Y-35804750D01*
X94839285Y-35804750D02*
X94910714Y-35840464D01*
X94910714Y-35840464D02*
X95053571Y-35840464D01*
X95053571Y-35840464D02*
X95125000Y-35804750D01*
X95125000Y-35804750D02*
X95160714Y-35769035D01*
X95160714Y-35769035D02*
X95196428Y-35697607D01*
X95196428Y-35697607D02*
X95196428Y-35554750D01*
X95196428Y-35554750D02*
X95160714Y-35483321D01*
X95160714Y-35483321D02*
X95125000Y-35447607D01*
X95125000Y-35447607D02*
X95053571Y-35411892D01*
X156519035Y-44482143D02*
X156554750Y-44517857D01*
X156554750Y-44517857D02*
X156590464Y-44625000D01*
X156590464Y-44625000D02*
X156590464Y-44696428D01*
X156590464Y-44696428D02*
X156554750Y-44803571D01*
X156554750Y-44803571D02*
X156483321Y-44875000D01*
X156483321Y-44875000D02*
X156411892Y-44910714D01*
X156411892Y-44910714D02*
X156269035Y-44946428D01*
X156269035Y-44946428D02*
X156161892Y-44946428D01*
X156161892Y-44946428D02*
X156019035Y-44910714D01*
X156019035Y-44910714D02*
X155947607Y-44875000D01*
X155947607Y-44875000D02*
X155876178Y-44803571D01*
X155876178Y-44803571D02*
X155840464Y-44696428D01*
X155840464Y-44696428D02*
X155840464Y-44625000D01*
X155840464Y-44625000D02*
X155876178Y-44517857D01*
X155876178Y-44517857D02*
X155911892Y-44482143D01*
X155840464Y-44232143D02*
X155840464Y-43767857D01*
X155840464Y-43767857D02*
X156126178Y-44017857D01*
X156126178Y-44017857D02*
X156126178Y-43910714D01*
X156126178Y-43910714D02*
X156161892Y-43839286D01*
X156161892Y-43839286D02*
X156197607Y-43803571D01*
X156197607Y-43803571D02*
X156269035Y-43767857D01*
X156269035Y-43767857D02*
X156447607Y-43767857D01*
X156447607Y-43767857D02*
X156519035Y-43803571D01*
X156519035Y-43803571D02*
X156554750Y-43839286D01*
X156554750Y-43839286D02*
X156590464Y-43910714D01*
X156590464Y-43910714D02*
X156590464Y-44125000D01*
X156590464Y-44125000D02*
X156554750Y-44196428D01*
X156554750Y-44196428D02*
X156519035Y-44232143D01*
X155840464Y-43517857D02*
X155840464Y-43017857D01*
X155840464Y-43017857D02*
X156590464Y-43339285D01*
X119017856Y-30769035D02*
X118982142Y-30804750D01*
X118982142Y-30804750D02*
X118874999Y-30840464D01*
X118874999Y-30840464D02*
X118803571Y-30840464D01*
X118803571Y-30840464D02*
X118696428Y-30804750D01*
X118696428Y-30804750D02*
X118624999Y-30733321D01*
X118624999Y-30733321D02*
X118589285Y-30661892D01*
X118589285Y-30661892D02*
X118553571Y-30519035D01*
X118553571Y-30519035D02*
X118553571Y-30411892D01*
X118553571Y-30411892D02*
X118589285Y-30269035D01*
X118589285Y-30269035D02*
X118624999Y-30197607D01*
X118624999Y-30197607D02*
X118696428Y-30126178D01*
X118696428Y-30126178D02*
X118803571Y-30090464D01*
X118803571Y-30090464D02*
X118874999Y-30090464D01*
X118874999Y-30090464D02*
X118982142Y-30126178D01*
X118982142Y-30126178D02*
X119017856Y-30161892D01*
X119267856Y-30090464D02*
X119732142Y-30090464D01*
X119732142Y-30090464D02*
X119482142Y-30376178D01*
X119482142Y-30376178D02*
X119589285Y-30376178D01*
X119589285Y-30376178D02*
X119660714Y-30411892D01*
X119660714Y-30411892D02*
X119696428Y-30447607D01*
X119696428Y-30447607D02*
X119732142Y-30519035D01*
X119732142Y-30519035D02*
X119732142Y-30697607D01*
X119732142Y-30697607D02*
X119696428Y-30769035D01*
X119696428Y-30769035D02*
X119660714Y-30804750D01*
X119660714Y-30804750D02*
X119589285Y-30840464D01*
X119589285Y-30840464D02*
X119374999Y-30840464D01*
X119374999Y-30840464D02*
X119303571Y-30804750D01*
X119303571Y-30804750D02*
X119267856Y-30769035D01*
X120375000Y-30340464D02*
X120375000Y-30840464D01*
X120196428Y-30054750D02*
X120017857Y-30590464D01*
X120017857Y-30590464D02*
X120482142Y-30590464D01*
X126517856Y-30769035D02*
X126482142Y-30804750D01*
X126482142Y-30804750D02*
X126374999Y-30840464D01*
X126374999Y-30840464D02*
X126303571Y-30840464D01*
X126303571Y-30840464D02*
X126196428Y-30804750D01*
X126196428Y-30804750D02*
X126124999Y-30733321D01*
X126124999Y-30733321D02*
X126089285Y-30661892D01*
X126089285Y-30661892D02*
X126053571Y-30519035D01*
X126053571Y-30519035D02*
X126053571Y-30411892D01*
X126053571Y-30411892D02*
X126089285Y-30269035D01*
X126089285Y-30269035D02*
X126124999Y-30197607D01*
X126124999Y-30197607D02*
X126196428Y-30126178D01*
X126196428Y-30126178D02*
X126303571Y-30090464D01*
X126303571Y-30090464D02*
X126374999Y-30090464D01*
X126374999Y-30090464D02*
X126482142Y-30126178D01*
X126482142Y-30126178D02*
X126517856Y-30161892D01*
X126767856Y-30090464D02*
X127232142Y-30090464D01*
X127232142Y-30090464D02*
X126982142Y-30376178D01*
X126982142Y-30376178D02*
X127089285Y-30376178D01*
X127089285Y-30376178D02*
X127160714Y-30411892D01*
X127160714Y-30411892D02*
X127196428Y-30447607D01*
X127196428Y-30447607D02*
X127232142Y-30519035D01*
X127232142Y-30519035D02*
X127232142Y-30697607D01*
X127232142Y-30697607D02*
X127196428Y-30769035D01*
X127196428Y-30769035D02*
X127160714Y-30804750D01*
X127160714Y-30804750D02*
X127089285Y-30840464D01*
X127089285Y-30840464D02*
X126874999Y-30840464D01*
X126874999Y-30840464D02*
X126803571Y-30804750D01*
X126803571Y-30804750D02*
X126767856Y-30769035D01*
X127517857Y-30161892D02*
X127553571Y-30126178D01*
X127553571Y-30126178D02*
X127625000Y-30090464D01*
X127625000Y-30090464D02*
X127803571Y-30090464D01*
X127803571Y-30090464D02*
X127875000Y-30126178D01*
X127875000Y-30126178D02*
X127910714Y-30161892D01*
X127910714Y-30161892D02*
X127946428Y-30233321D01*
X127946428Y-30233321D02*
X127946428Y-30304750D01*
X127946428Y-30304750D02*
X127910714Y-30411892D01*
X127910714Y-30411892D02*
X127482142Y-30840464D01*
X127482142Y-30840464D02*
X127946428Y-30840464D01*
X119017856Y-64019035D02*
X118982142Y-64054750D01*
X118982142Y-64054750D02*
X118874999Y-64090464D01*
X118874999Y-64090464D02*
X118803571Y-64090464D01*
X118803571Y-64090464D02*
X118696428Y-64054750D01*
X118696428Y-64054750D02*
X118624999Y-63983321D01*
X118624999Y-63983321D02*
X118589285Y-63911892D01*
X118589285Y-63911892D02*
X118553571Y-63769035D01*
X118553571Y-63769035D02*
X118553571Y-63661892D01*
X118553571Y-63661892D02*
X118589285Y-63519035D01*
X118589285Y-63519035D02*
X118624999Y-63447607D01*
X118624999Y-63447607D02*
X118696428Y-63376178D01*
X118696428Y-63376178D02*
X118803571Y-63340464D01*
X118803571Y-63340464D02*
X118874999Y-63340464D01*
X118874999Y-63340464D02*
X118982142Y-63376178D01*
X118982142Y-63376178D02*
X119017856Y-63411892D01*
X119303571Y-63411892D02*
X119339285Y-63376178D01*
X119339285Y-63376178D02*
X119410714Y-63340464D01*
X119410714Y-63340464D02*
X119589285Y-63340464D01*
X119589285Y-63340464D02*
X119660714Y-63376178D01*
X119660714Y-63376178D02*
X119696428Y-63411892D01*
X119696428Y-63411892D02*
X119732142Y-63483321D01*
X119732142Y-63483321D02*
X119732142Y-63554750D01*
X119732142Y-63554750D02*
X119696428Y-63661892D01*
X119696428Y-63661892D02*
X119267856Y-64090464D01*
X119267856Y-64090464D02*
X119732142Y-64090464D01*
X120375000Y-63340464D02*
X120232142Y-63340464D01*
X120232142Y-63340464D02*
X120160714Y-63376178D01*
X120160714Y-63376178D02*
X120125000Y-63411892D01*
X120125000Y-63411892D02*
X120053571Y-63519035D01*
X120053571Y-63519035D02*
X120017857Y-63661892D01*
X120017857Y-63661892D02*
X120017857Y-63947607D01*
X120017857Y-63947607D02*
X120053571Y-64019035D01*
X120053571Y-64019035D02*
X120089285Y-64054750D01*
X120089285Y-64054750D02*
X120160714Y-64090464D01*
X120160714Y-64090464D02*
X120303571Y-64090464D01*
X120303571Y-64090464D02*
X120375000Y-64054750D01*
X120375000Y-64054750D02*
X120410714Y-64019035D01*
X120410714Y-64019035D02*
X120446428Y-63947607D01*
X120446428Y-63947607D02*
X120446428Y-63769035D01*
X120446428Y-63769035D02*
X120410714Y-63697607D01*
X120410714Y-63697607D02*
X120375000Y-63661892D01*
X120375000Y-63661892D02*
X120303571Y-63626178D01*
X120303571Y-63626178D02*
X120160714Y-63626178D01*
X120160714Y-63626178D02*
X120089285Y-63661892D01*
X120089285Y-63661892D02*
X120053571Y-63697607D01*
X120053571Y-63697607D02*
X120017857Y-63769035D01*
X141517856Y-30769035D02*
X141482142Y-30804750D01*
X141482142Y-30804750D02*
X141374999Y-30840464D01*
X141374999Y-30840464D02*
X141303571Y-30840464D01*
X141303571Y-30840464D02*
X141196428Y-30804750D01*
X141196428Y-30804750D02*
X141124999Y-30733321D01*
X141124999Y-30733321D02*
X141089285Y-30661892D01*
X141089285Y-30661892D02*
X141053571Y-30519035D01*
X141053571Y-30519035D02*
X141053571Y-30411892D01*
X141053571Y-30411892D02*
X141089285Y-30269035D01*
X141089285Y-30269035D02*
X141124999Y-30197607D01*
X141124999Y-30197607D02*
X141196428Y-30126178D01*
X141196428Y-30126178D02*
X141303571Y-30090464D01*
X141303571Y-30090464D02*
X141374999Y-30090464D01*
X141374999Y-30090464D02*
X141482142Y-30126178D01*
X141482142Y-30126178D02*
X141517856Y-30161892D01*
X142160714Y-30340464D02*
X142160714Y-30840464D01*
X141982142Y-30054750D02*
X141803571Y-30590464D01*
X141803571Y-30590464D02*
X142267856Y-30590464D01*
X142946428Y-30840464D02*
X142517857Y-30840464D01*
X142732142Y-30840464D02*
X142732142Y-30090464D01*
X142732142Y-30090464D02*
X142660714Y-30197607D01*
X142660714Y-30197607D02*
X142589285Y-30269035D01*
X142589285Y-30269035D02*
X142517857Y-30304750D01*
X141517856Y-64019035D02*
X141482142Y-64054750D01*
X141482142Y-64054750D02*
X141374999Y-64090464D01*
X141374999Y-64090464D02*
X141303571Y-64090464D01*
X141303571Y-64090464D02*
X141196428Y-64054750D01*
X141196428Y-64054750D02*
X141124999Y-63983321D01*
X141124999Y-63983321D02*
X141089285Y-63911892D01*
X141089285Y-63911892D02*
X141053571Y-63769035D01*
X141053571Y-63769035D02*
X141053571Y-63661892D01*
X141053571Y-63661892D02*
X141089285Y-63519035D01*
X141089285Y-63519035D02*
X141124999Y-63447607D01*
X141124999Y-63447607D02*
X141196428Y-63376178D01*
X141196428Y-63376178D02*
X141303571Y-63340464D01*
X141303571Y-63340464D02*
X141374999Y-63340464D01*
X141374999Y-63340464D02*
X141482142Y-63376178D01*
X141482142Y-63376178D02*
X141517856Y-63411892D01*
X141803571Y-63411892D02*
X141839285Y-63376178D01*
X141839285Y-63376178D02*
X141910714Y-63340464D01*
X141910714Y-63340464D02*
X142089285Y-63340464D01*
X142089285Y-63340464D02*
X142160714Y-63376178D01*
X142160714Y-63376178D02*
X142196428Y-63411892D01*
X142196428Y-63411892D02*
X142232142Y-63483321D01*
X142232142Y-63483321D02*
X142232142Y-63554750D01*
X142232142Y-63554750D02*
X142196428Y-63661892D01*
X142196428Y-63661892D02*
X141767856Y-64090464D01*
X141767856Y-64090464D02*
X142232142Y-64090464D01*
X142660714Y-63661892D02*
X142589285Y-63626178D01*
X142589285Y-63626178D02*
X142553571Y-63590464D01*
X142553571Y-63590464D02*
X142517857Y-63519035D01*
X142517857Y-63519035D02*
X142517857Y-63483321D01*
X142517857Y-63483321D02*
X142553571Y-63411892D01*
X142553571Y-63411892D02*
X142589285Y-63376178D01*
X142589285Y-63376178D02*
X142660714Y-63340464D01*
X142660714Y-63340464D02*
X142803571Y-63340464D01*
X142803571Y-63340464D02*
X142875000Y-63376178D01*
X142875000Y-63376178D02*
X142910714Y-63411892D01*
X142910714Y-63411892D02*
X142946428Y-63483321D01*
X142946428Y-63483321D02*
X142946428Y-63519035D01*
X142946428Y-63519035D02*
X142910714Y-63590464D01*
X142910714Y-63590464D02*
X142875000Y-63626178D01*
X142875000Y-63626178D02*
X142803571Y-63661892D01*
X142803571Y-63661892D02*
X142660714Y-63661892D01*
X142660714Y-63661892D02*
X142589285Y-63697607D01*
X142589285Y-63697607D02*
X142553571Y-63733321D01*
X142553571Y-63733321D02*
X142517857Y-63804750D01*
X142517857Y-63804750D02*
X142517857Y-63947607D01*
X142517857Y-63947607D02*
X142553571Y-64019035D01*
X142553571Y-64019035D02*
X142589285Y-64054750D01*
X142589285Y-64054750D02*
X142660714Y-64090464D01*
X142660714Y-64090464D02*
X142803571Y-64090464D01*
X142803571Y-64090464D02*
X142875000Y-64054750D01*
X142875000Y-64054750D02*
X142910714Y-64019035D01*
X142910714Y-64019035D02*
X142946428Y-63947607D01*
X142946428Y-63947607D02*
X142946428Y-63804750D01*
X142946428Y-63804750D02*
X142910714Y-63733321D01*
X142910714Y-63733321D02*
X142875000Y-63697607D01*
X142875000Y-63697607D02*
X142803571Y-63661892D01*
X154019035Y-49982143D02*
X154054750Y-50017857D01*
X154054750Y-50017857D02*
X154090464Y-50125000D01*
X154090464Y-50125000D02*
X154090464Y-50196428D01*
X154090464Y-50196428D02*
X154054750Y-50303571D01*
X154054750Y-50303571D02*
X153983321Y-50375000D01*
X153983321Y-50375000D02*
X153911892Y-50410714D01*
X153911892Y-50410714D02*
X153769035Y-50446428D01*
X153769035Y-50446428D02*
X153661892Y-50446428D01*
X153661892Y-50446428D02*
X153519035Y-50410714D01*
X153519035Y-50410714D02*
X153447607Y-50375000D01*
X153447607Y-50375000D02*
X153376178Y-50303571D01*
X153376178Y-50303571D02*
X153340464Y-50196428D01*
X153340464Y-50196428D02*
X153340464Y-50125000D01*
X153340464Y-50125000D02*
X153376178Y-50017857D01*
X153376178Y-50017857D02*
X153411892Y-49982143D01*
X153411892Y-49696428D02*
X153376178Y-49660714D01*
X153376178Y-49660714D02*
X153340464Y-49589286D01*
X153340464Y-49589286D02*
X153340464Y-49410714D01*
X153340464Y-49410714D02*
X153376178Y-49339286D01*
X153376178Y-49339286D02*
X153411892Y-49303571D01*
X153411892Y-49303571D02*
X153483321Y-49267857D01*
X153483321Y-49267857D02*
X153554750Y-49267857D01*
X153554750Y-49267857D02*
X153661892Y-49303571D01*
X153661892Y-49303571D02*
X154090464Y-49732143D01*
X154090464Y-49732143D02*
X154090464Y-49267857D01*
X153340464Y-48589285D02*
X153340464Y-48946428D01*
X153340464Y-48946428D02*
X153697607Y-48982142D01*
X153697607Y-48982142D02*
X153661892Y-48946428D01*
X153661892Y-48946428D02*
X153626178Y-48875000D01*
X153626178Y-48875000D02*
X153626178Y-48696428D01*
X153626178Y-48696428D02*
X153661892Y-48625000D01*
X153661892Y-48625000D02*
X153697607Y-48589285D01*
X153697607Y-48589285D02*
X153769035Y-48553571D01*
X153769035Y-48553571D02*
X153947607Y-48553571D01*
X153947607Y-48553571D02*
X154019035Y-48589285D01*
X154019035Y-48589285D02*
X154054750Y-48625000D01*
X154054750Y-48625000D02*
X154090464Y-48696428D01*
X154090464Y-48696428D02*
X154090464Y-48875000D01*
X154090464Y-48875000D02*
X154054750Y-48946428D01*
X154054750Y-48946428D02*
X154019035Y-48982142D01*
X157769035Y-44482143D02*
X157804750Y-44517857D01*
X157804750Y-44517857D02*
X157840464Y-44625000D01*
X157840464Y-44625000D02*
X157840464Y-44696428D01*
X157840464Y-44696428D02*
X157804750Y-44803571D01*
X157804750Y-44803571D02*
X157733321Y-44875000D01*
X157733321Y-44875000D02*
X157661892Y-44910714D01*
X157661892Y-44910714D02*
X157519035Y-44946428D01*
X157519035Y-44946428D02*
X157411892Y-44946428D01*
X157411892Y-44946428D02*
X157269035Y-44910714D01*
X157269035Y-44910714D02*
X157197607Y-44875000D01*
X157197607Y-44875000D02*
X157126178Y-44803571D01*
X157126178Y-44803571D02*
X157090464Y-44696428D01*
X157090464Y-44696428D02*
X157090464Y-44625000D01*
X157090464Y-44625000D02*
X157126178Y-44517857D01*
X157126178Y-44517857D02*
X157161892Y-44482143D01*
X157090464Y-44232143D02*
X157090464Y-43767857D01*
X157090464Y-43767857D02*
X157376178Y-44017857D01*
X157376178Y-44017857D02*
X157376178Y-43910714D01*
X157376178Y-43910714D02*
X157411892Y-43839286D01*
X157411892Y-43839286D02*
X157447607Y-43803571D01*
X157447607Y-43803571D02*
X157519035Y-43767857D01*
X157519035Y-43767857D02*
X157697607Y-43767857D01*
X157697607Y-43767857D02*
X157769035Y-43803571D01*
X157769035Y-43803571D02*
X157804750Y-43839286D01*
X157804750Y-43839286D02*
X157840464Y-43910714D01*
X157840464Y-43910714D02*
X157840464Y-44125000D01*
X157840464Y-44125000D02*
X157804750Y-44196428D01*
X157804750Y-44196428D02*
X157769035Y-44232143D01*
X157090464Y-43517857D02*
X157090464Y-43053571D01*
X157090464Y-43053571D02*
X157376178Y-43303571D01*
X157376178Y-43303571D02*
X157376178Y-43196428D01*
X157376178Y-43196428D02*
X157411892Y-43125000D01*
X157411892Y-43125000D02*
X157447607Y-43089285D01*
X157447607Y-43089285D02*
X157519035Y-43053571D01*
X157519035Y-43053571D02*
X157697607Y-43053571D01*
X157697607Y-43053571D02*
X157769035Y-43089285D01*
X157769035Y-43089285D02*
X157804750Y-43125000D01*
X157804750Y-43125000D02*
X157840464Y-43196428D01*
X157840464Y-43196428D02*
X157840464Y-43410714D01*
X157840464Y-43410714D02*
X157804750Y-43482142D01*
X157804750Y-43482142D02*
X157769035Y-43517857D01*
X149017856Y-64019035D02*
X148982142Y-64054750D01*
X148982142Y-64054750D02*
X148874999Y-64090464D01*
X148874999Y-64090464D02*
X148803571Y-64090464D01*
X148803571Y-64090464D02*
X148696428Y-64054750D01*
X148696428Y-64054750D02*
X148624999Y-63983321D01*
X148624999Y-63983321D02*
X148589285Y-63911892D01*
X148589285Y-63911892D02*
X148553571Y-63769035D01*
X148553571Y-63769035D02*
X148553571Y-63661892D01*
X148553571Y-63661892D02*
X148589285Y-63519035D01*
X148589285Y-63519035D02*
X148624999Y-63447607D01*
X148624999Y-63447607D02*
X148696428Y-63376178D01*
X148696428Y-63376178D02*
X148803571Y-63340464D01*
X148803571Y-63340464D02*
X148874999Y-63340464D01*
X148874999Y-63340464D02*
X148982142Y-63376178D01*
X148982142Y-63376178D02*
X149017856Y-63411892D01*
X149303571Y-63411892D02*
X149339285Y-63376178D01*
X149339285Y-63376178D02*
X149410714Y-63340464D01*
X149410714Y-63340464D02*
X149589285Y-63340464D01*
X149589285Y-63340464D02*
X149660714Y-63376178D01*
X149660714Y-63376178D02*
X149696428Y-63411892D01*
X149696428Y-63411892D02*
X149732142Y-63483321D01*
X149732142Y-63483321D02*
X149732142Y-63554750D01*
X149732142Y-63554750D02*
X149696428Y-63661892D01*
X149696428Y-63661892D02*
X149267856Y-64090464D01*
X149267856Y-64090464D02*
X149732142Y-64090464D01*
X149982142Y-63340464D02*
X150482142Y-63340464D01*
X150482142Y-63340464D02*
X150160714Y-64090464D01*
X155269035Y-49982143D02*
X155304750Y-50017857D01*
X155304750Y-50017857D02*
X155340464Y-50125000D01*
X155340464Y-50125000D02*
X155340464Y-50196428D01*
X155340464Y-50196428D02*
X155304750Y-50303571D01*
X155304750Y-50303571D02*
X155233321Y-50375000D01*
X155233321Y-50375000D02*
X155161892Y-50410714D01*
X155161892Y-50410714D02*
X155019035Y-50446428D01*
X155019035Y-50446428D02*
X154911892Y-50446428D01*
X154911892Y-50446428D02*
X154769035Y-50410714D01*
X154769035Y-50410714D02*
X154697607Y-50375000D01*
X154697607Y-50375000D02*
X154626178Y-50303571D01*
X154626178Y-50303571D02*
X154590464Y-50196428D01*
X154590464Y-50196428D02*
X154590464Y-50125000D01*
X154590464Y-50125000D02*
X154626178Y-50017857D01*
X154626178Y-50017857D02*
X154661892Y-49982143D01*
X154661892Y-49696428D02*
X154626178Y-49660714D01*
X154626178Y-49660714D02*
X154590464Y-49589286D01*
X154590464Y-49589286D02*
X154590464Y-49410714D01*
X154590464Y-49410714D02*
X154626178Y-49339286D01*
X154626178Y-49339286D02*
X154661892Y-49303571D01*
X154661892Y-49303571D02*
X154733321Y-49267857D01*
X154733321Y-49267857D02*
X154804750Y-49267857D01*
X154804750Y-49267857D02*
X154911892Y-49303571D01*
X154911892Y-49303571D02*
X155340464Y-49732143D01*
X155340464Y-49732143D02*
X155340464Y-49267857D01*
X154840464Y-48625000D02*
X155340464Y-48625000D01*
X154554750Y-48803571D02*
X155090464Y-48982142D01*
X155090464Y-48982142D02*
X155090464Y-48517857D01*
X159019035Y-49982143D02*
X159054750Y-50017857D01*
X159054750Y-50017857D02*
X159090464Y-50125000D01*
X159090464Y-50125000D02*
X159090464Y-50196428D01*
X159090464Y-50196428D02*
X159054750Y-50303571D01*
X159054750Y-50303571D02*
X158983321Y-50375000D01*
X158983321Y-50375000D02*
X158911892Y-50410714D01*
X158911892Y-50410714D02*
X158769035Y-50446428D01*
X158769035Y-50446428D02*
X158661892Y-50446428D01*
X158661892Y-50446428D02*
X158519035Y-50410714D01*
X158519035Y-50410714D02*
X158447607Y-50375000D01*
X158447607Y-50375000D02*
X158376178Y-50303571D01*
X158376178Y-50303571D02*
X158340464Y-50196428D01*
X158340464Y-50196428D02*
X158340464Y-50125000D01*
X158340464Y-50125000D02*
X158376178Y-50017857D01*
X158376178Y-50017857D02*
X158411892Y-49982143D01*
X158340464Y-49732143D02*
X158340464Y-49267857D01*
X158340464Y-49267857D02*
X158626178Y-49517857D01*
X158626178Y-49517857D02*
X158626178Y-49410714D01*
X158626178Y-49410714D02*
X158661892Y-49339286D01*
X158661892Y-49339286D02*
X158697607Y-49303571D01*
X158697607Y-49303571D02*
X158769035Y-49267857D01*
X158769035Y-49267857D02*
X158947607Y-49267857D01*
X158947607Y-49267857D02*
X159019035Y-49303571D01*
X159019035Y-49303571D02*
X159054750Y-49339286D01*
X159054750Y-49339286D02*
X159090464Y-49410714D01*
X159090464Y-49410714D02*
X159090464Y-49625000D01*
X159090464Y-49625000D02*
X159054750Y-49696428D01*
X159054750Y-49696428D02*
X159019035Y-49732143D01*
X159090464Y-48553571D02*
X159090464Y-48982142D01*
X159090464Y-48767857D02*
X158340464Y-48767857D01*
X158340464Y-48767857D02*
X158447607Y-48839285D01*
X158447607Y-48839285D02*
X158519035Y-48910714D01*
X158519035Y-48910714D02*
X158554750Y-48982142D01*
X154019035Y-44482143D02*
X154054750Y-44517857D01*
X154054750Y-44517857D02*
X154090464Y-44625000D01*
X154090464Y-44625000D02*
X154090464Y-44696428D01*
X154090464Y-44696428D02*
X154054750Y-44803571D01*
X154054750Y-44803571D02*
X153983321Y-44875000D01*
X153983321Y-44875000D02*
X153911892Y-44910714D01*
X153911892Y-44910714D02*
X153769035Y-44946428D01*
X153769035Y-44946428D02*
X153661892Y-44946428D01*
X153661892Y-44946428D02*
X153519035Y-44910714D01*
X153519035Y-44910714D02*
X153447607Y-44875000D01*
X153447607Y-44875000D02*
X153376178Y-44803571D01*
X153376178Y-44803571D02*
X153340464Y-44696428D01*
X153340464Y-44696428D02*
X153340464Y-44625000D01*
X153340464Y-44625000D02*
X153376178Y-44517857D01*
X153376178Y-44517857D02*
X153411892Y-44482143D01*
X153590464Y-43839286D02*
X154090464Y-43839286D01*
X153304750Y-44017857D02*
X153840464Y-44196428D01*
X153840464Y-44196428D02*
X153840464Y-43732143D01*
X153340464Y-43303571D02*
X153340464Y-43232142D01*
X153340464Y-43232142D02*
X153376178Y-43160714D01*
X153376178Y-43160714D02*
X153411892Y-43125000D01*
X153411892Y-43125000D02*
X153483321Y-43089285D01*
X153483321Y-43089285D02*
X153626178Y-43053571D01*
X153626178Y-43053571D02*
X153804750Y-43053571D01*
X153804750Y-43053571D02*
X153947607Y-43089285D01*
X153947607Y-43089285D02*
X154019035Y-43125000D01*
X154019035Y-43125000D02*
X154054750Y-43160714D01*
X154054750Y-43160714D02*
X154090464Y-43232142D01*
X154090464Y-43232142D02*
X154090464Y-43303571D01*
X154090464Y-43303571D02*
X154054750Y-43375000D01*
X154054750Y-43375000D02*
X154019035Y-43410714D01*
X154019035Y-43410714D02*
X153947607Y-43446428D01*
X153947607Y-43446428D02*
X153804750Y-43482142D01*
X153804750Y-43482142D02*
X153626178Y-43482142D01*
X153626178Y-43482142D02*
X153483321Y-43446428D01*
X153483321Y-43446428D02*
X153411892Y-43410714D01*
X153411892Y-43410714D02*
X153376178Y-43375000D01*
X153376178Y-43375000D02*
X153340464Y-43303571D01*
X134017856Y-64019035D02*
X133982142Y-64054750D01*
X133982142Y-64054750D02*
X133874999Y-64090464D01*
X133874999Y-64090464D02*
X133803571Y-64090464D01*
X133803571Y-64090464D02*
X133696428Y-64054750D01*
X133696428Y-64054750D02*
X133624999Y-63983321D01*
X133624999Y-63983321D02*
X133589285Y-63911892D01*
X133589285Y-63911892D02*
X133553571Y-63769035D01*
X133553571Y-63769035D02*
X133553571Y-63661892D01*
X133553571Y-63661892D02*
X133589285Y-63519035D01*
X133589285Y-63519035D02*
X133624999Y-63447607D01*
X133624999Y-63447607D02*
X133696428Y-63376178D01*
X133696428Y-63376178D02*
X133803571Y-63340464D01*
X133803571Y-63340464D02*
X133874999Y-63340464D01*
X133874999Y-63340464D02*
X133982142Y-63376178D01*
X133982142Y-63376178D02*
X134017856Y-63411892D01*
X134303571Y-63411892D02*
X134339285Y-63376178D01*
X134339285Y-63376178D02*
X134410714Y-63340464D01*
X134410714Y-63340464D02*
X134589285Y-63340464D01*
X134589285Y-63340464D02*
X134660714Y-63376178D01*
X134660714Y-63376178D02*
X134696428Y-63411892D01*
X134696428Y-63411892D02*
X134732142Y-63483321D01*
X134732142Y-63483321D02*
X134732142Y-63554750D01*
X134732142Y-63554750D02*
X134696428Y-63661892D01*
X134696428Y-63661892D02*
X134267856Y-64090464D01*
X134267856Y-64090464D02*
X134732142Y-64090464D01*
X135089285Y-64090464D02*
X135232142Y-64090464D01*
X135232142Y-64090464D02*
X135303571Y-64054750D01*
X135303571Y-64054750D02*
X135339285Y-64019035D01*
X135339285Y-64019035D02*
X135410714Y-63911892D01*
X135410714Y-63911892D02*
X135446428Y-63769035D01*
X135446428Y-63769035D02*
X135446428Y-63483321D01*
X135446428Y-63483321D02*
X135410714Y-63411892D01*
X135410714Y-63411892D02*
X135375000Y-63376178D01*
X135375000Y-63376178D02*
X135303571Y-63340464D01*
X135303571Y-63340464D02*
X135160714Y-63340464D01*
X135160714Y-63340464D02*
X135089285Y-63376178D01*
X135089285Y-63376178D02*
X135053571Y-63411892D01*
X135053571Y-63411892D02*
X135017857Y-63483321D01*
X135017857Y-63483321D02*
X135017857Y-63661892D01*
X135017857Y-63661892D02*
X135053571Y-63733321D01*
X135053571Y-63733321D02*
X135089285Y-63769035D01*
X135089285Y-63769035D02*
X135160714Y-63804750D01*
X135160714Y-63804750D02*
X135303571Y-63804750D01*
X135303571Y-63804750D02*
X135375000Y-63769035D01*
X135375000Y-63769035D02*
X135410714Y-63733321D01*
X135410714Y-63733321D02*
X135446428Y-63661892D01*
X155269035Y-44482143D02*
X155304750Y-44517857D01*
X155304750Y-44517857D02*
X155340464Y-44625000D01*
X155340464Y-44625000D02*
X155340464Y-44696428D01*
X155340464Y-44696428D02*
X155304750Y-44803571D01*
X155304750Y-44803571D02*
X155233321Y-44875000D01*
X155233321Y-44875000D02*
X155161892Y-44910714D01*
X155161892Y-44910714D02*
X155019035Y-44946428D01*
X155019035Y-44946428D02*
X154911892Y-44946428D01*
X154911892Y-44946428D02*
X154769035Y-44910714D01*
X154769035Y-44910714D02*
X154697607Y-44875000D01*
X154697607Y-44875000D02*
X154626178Y-44803571D01*
X154626178Y-44803571D02*
X154590464Y-44696428D01*
X154590464Y-44696428D02*
X154590464Y-44625000D01*
X154590464Y-44625000D02*
X154626178Y-44517857D01*
X154626178Y-44517857D02*
X154661892Y-44482143D01*
X154590464Y-44232143D02*
X154590464Y-43767857D01*
X154590464Y-43767857D02*
X154876178Y-44017857D01*
X154876178Y-44017857D02*
X154876178Y-43910714D01*
X154876178Y-43910714D02*
X154911892Y-43839286D01*
X154911892Y-43839286D02*
X154947607Y-43803571D01*
X154947607Y-43803571D02*
X155019035Y-43767857D01*
X155019035Y-43767857D02*
X155197607Y-43767857D01*
X155197607Y-43767857D02*
X155269035Y-43803571D01*
X155269035Y-43803571D02*
X155304750Y-43839286D01*
X155304750Y-43839286D02*
X155340464Y-43910714D01*
X155340464Y-43910714D02*
X155340464Y-44125000D01*
X155340464Y-44125000D02*
X155304750Y-44196428D01*
X155304750Y-44196428D02*
X155269035Y-44232143D01*
X155340464Y-43410714D02*
X155340464Y-43267857D01*
X155340464Y-43267857D02*
X155304750Y-43196428D01*
X155304750Y-43196428D02*
X155269035Y-43160714D01*
X155269035Y-43160714D02*
X155161892Y-43089285D01*
X155161892Y-43089285D02*
X155019035Y-43053571D01*
X155019035Y-43053571D02*
X154733321Y-43053571D01*
X154733321Y-43053571D02*
X154661892Y-43089285D01*
X154661892Y-43089285D02*
X154626178Y-43125000D01*
X154626178Y-43125000D02*
X154590464Y-43196428D01*
X154590464Y-43196428D02*
X154590464Y-43339285D01*
X154590464Y-43339285D02*
X154626178Y-43410714D01*
X154626178Y-43410714D02*
X154661892Y-43446428D01*
X154661892Y-43446428D02*
X154733321Y-43482142D01*
X154733321Y-43482142D02*
X154911892Y-43482142D01*
X154911892Y-43482142D02*
X154983321Y-43446428D01*
X154983321Y-43446428D02*
X155019035Y-43410714D01*
X155019035Y-43410714D02*
X155054750Y-43339285D01*
X155054750Y-43339285D02*
X155054750Y-43196428D01*
X155054750Y-43196428D02*
X155019035Y-43125000D01*
X155019035Y-43125000D02*
X154983321Y-43089285D01*
X154983321Y-43089285D02*
X154911892Y-43053571D01*
X159019035Y-44482143D02*
X159054750Y-44517857D01*
X159054750Y-44517857D02*
X159090464Y-44625000D01*
X159090464Y-44625000D02*
X159090464Y-44696428D01*
X159090464Y-44696428D02*
X159054750Y-44803571D01*
X159054750Y-44803571D02*
X158983321Y-44875000D01*
X158983321Y-44875000D02*
X158911892Y-44910714D01*
X158911892Y-44910714D02*
X158769035Y-44946428D01*
X158769035Y-44946428D02*
X158661892Y-44946428D01*
X158661892Y-44946428D02*
X158519035Y-44910714D01*
X158519035Y-44910714D02*
X158447607Y-44875000D01*
X158447607Y-44875000D02*
X158376178Y-44803571D01*
X158376178Y-44803571D02*
X158340464Y-44696428D01*
X158340464Y-44696428D02*
X158340464Y-44625000D01*
X158340464Y-44625000D02*
X158376178Y-44517857D01*
X158376178Y-44517857D02*
X158411892Y-44482143D01*
X158340464Y-44232143D02*
X158340464Y-43767857D01*
X158340464Y-43767857D02*
X158626178Y-44017857D01*
X158626178Y-44017857D02*
X158626178Y-43910714D01*
X158626178Y-43910714D02*
X158661892Y-43839286D01*
X158661892Y-43839286D02*
X158697607Y-43803571D01*
X158697607Y-43803571D02*
X158769035Y-43767857D01*
X158769035Y-43767857D02*
X158947607Y-43767857D01*
X158947607Y-43767857D02*
X159019035Y-43803571D01*
X159019035Y-43803571D02*
X159054750Y-43839286D01*
X159054750Y-43839286D02*
X159090464Y-43910714D01*
X159090464Y-43910714D02*
X159090464Y-44125000D01*
X159090464Y-44125000D02*
X159054750Y-44196428D01*
X159054750Y-44196428D02*
X159019035Y-44232143D01*
X158340464Y-43089285D02*
X158340464Y-43446428D01*
X158340464Y-43446428D02*
X158697607Y-43482142D01*
X158697607Y-43482142D02*
X158661892Y-43446428D01*
X158661892Y-43446428D02*
X158626178Y-43375000D01*
X158626178Y-43375000D02*
X158626178Y-43196428D01*
X158626178Y-43196428D02*
X158661892Y-43125000D01*
X158661892Y-43125000D02*
X158697607Y-43089285D01*
X158697607Y-43089285D02*
X158769035Y-43053571D01*
X158769035Y-43053571D02*
X158947607Y-43053571D01*
X158947607Y-43053571D02*
X159019035Y-43089285D01*
X159019035Y-43089285D02*
X159054750Y-43125000D01*
X159054750Y-43125000D02*
X159090464Y-43196428D01*
X159090464Y-43196428D02*
X159090464Y-43375000D01*
X159090464Y-43375000D02*
X159054750Y-43446428D01*
X159054750Y-43446428D02*
X159019035Y-43482142D01*
X149017856Y-30769035D02*
X148982142Y-30804750D01*
X148982142Y-30804750D02*
X148874999Y-30840464D01*
X148874999Y-30840464D02*
X148803571Y-30840464D01*
X148803571Y-30840464D02*
X148696428Y-30804750D01*
X148696428Y-30804750D02*
X148624999Y-30733321D01*
X148624999Y-30733321D02*
X148589285Y-30661892D01*
X148589285Y-30661892D02*
X148553571Y-30519035D01*
X148553571Y-30519035D02*
X148553571Y-30411892D01*
X148553571Y-30411892D02*
X148589285Y-30269035D01*
X148589285Y-30269035D02*
X148624999Y-30197607D01*
X148624999Y-30197607D02*
X148696428Y-30126178D01*
X148696428Y-30126178D02*
X148803571Y-30090464D01*
X148803571Y-30090464D02*
X148874999Y-30090464D01*
X148874999Y-30090464D02*
X148982142Y-30126178D01*
X148982142Y-30126178D02*
X149017856Y-30161892D01*
X149267856Y-30090464D02*
X149732142Y-30090464D01*
X149732142Y-30090464D02*
X149482142Y-30376178D01*
X149482142Y-30376178D02*
X149589285Y-30376178D01*
X149589285Y-30376178D02*
X149660714Y-30411892D01*
X149660714Y-30411892D02*
X149696428Y-30447607D01*
X149696428Y-30447607D02*
X149732142Y-30519035D01*
X149732142Y-30519035D02*
X149732142Y-30697607D01*
X149732142Y-30697607D02*
X149696428Y-30769035D01*
X149696428Y-30769035D02*
X149660714Y-30804750D01*
X149660714Y-30804750D02*
X149589285Y-30840464D01*
X149589285Y-30840464D02*
X149374999Y-30840464D01*
X149374999Y-30840464D02*
X149303571Y-30804750D01*
X149303571Y-30804750D02*
X149267856Y-30769035D01*
X150375000Y-30090464D02*
X150232142Y-30090464D01*
X150232142Y-30090464D02*
X150160714Y-30126178D01*
X150160714Y-30126178D02*
X150125000Y-30161892D01*
X150125000Y-30161892D02*
X150053571Y-30269035D01*
X150053571Y-30269035D02*
X150017857Y-30411892D01*
X150017857Y-30411892D02*
X150017857Y-30697607D01*
X150017857Y-30697607D02*
X150053571Y-30769035D01*
X150053571Y-30769035D02*
X150089285Y-30804750D01*
X150089285Y-30804750D02*
X150160714Y-30840464D01*
X150160714Y-30840464D02*
X150303571Y-30840464D01*
X150303571Y-30840464D02*
X150375000Y-30804750D01*
X150375000Y-30804750D02*
X150410714Y-30769035D01*
X150410714Y-30769035D02*
X150446428Y-30697607D01*
X150446428Y-30697607D02*
X150446428Y-30519035D01*
X150446428Y-30519035D02*
X150410714Y-30447607D01*
X150410714Y-30447607D02*
X150375000Y-30411892D01*
X150375000Y-30411892D02*
X150303571Y-30376178D01*
X150303571Y-30376178D02*
X150160714Y-30376178D01*
X150160714Y-30376178D02*
X150089285Y-30411892D01*
X150089285Y-30411892D02*
X150053571Y-30447607D01*
X150053571Y-30447607D02*
X150017857Y-30519035D01*
X134017856Y-30769035D02*
X133982142Y-30804750D01*
X133982142Y-30804750D02*
X133874999Y-30840464D01*
X133874999Y-30840464D02*
X133803571Y-30840464D01*
X133803571Y-30840464D02*
X133696428Y-30804750D01*
X133696428Y-30804750D02*
X133624999Y-30733321D01*
X133624999Y-30733321D02*
X133589285Y-30661892D01*
X133589285Y-30661892D02*
X133553571Y-30519035D01*
X133553571Y-30519035D02*
X133553571Y-30411892D01*
X133553571Y-30411892D02*
X133589285Y-30269035D01*
X133589285Y-30269035D02*
X133624999Y-30197607D01*
X133624999Y-30197607D02*
X133696428Y-30126178D01*
X133696428Y-30126178D02*
X133803571Y-30090464D01*
X133803571Y-30090464D02*
X133874999Y-30090464D01*
X133874999Y-30090464D02*
X133982142Y-30126178D01*
X133982142Y-30126178D02*
X134017856Y-30161892D01*
X134267856Y-30090464D02*
X134732142Y-30090464D01*
X134732142Y-30090464D02*
X134482142Y-30376178D01*
X134482142Y-30376178D02*
X134589285Y-30376178D01*
X134589285Y-30376178D02*
X134660714Y-30411892D01*
X134660714Y-30411892D02*
X134696428Y-30447607D01*
X134696428Y-30447607D02*
X134732142Y-30519035D01*
X134732142Y-30519035D02*
X134732142Y-30697607D01*
X134732142Y-30697607D02*
X134696428Y-30769035D01*
X134696428Y-30769035D02*
X134660714Y-30804750D01*
X134660714Y-30804750D02*
X134589285Y-30840464D01*
X134589285Y-30840464D02*
X134374999Y-30840464D01*
X134374999Y-30840464D02*
X134303571Y-30804750D01*
X134303571Y-30804750D02*
X134267856Y-30769035D01*
X135160714Y-30411892D02*
X135089285Y-30376178D01*
X135089285Y-30376178D02*
X135053571Y-30340464D01*
X135053571Y-30340464D02*
X135017857Y-30269035D01*
X135017857Y-30269035D02*
X135017857Y-30233321D01*
X135017857Y-30233321D02*
X135053571Y-30161892D01*
X135053571Y-30161892D02*
X135089285Y-30126178D01*
X135089285Y-30126178D02*
X135160714Y-30090464D01*
X135160714Y-30090464D02*
X135303571Y-30090464D01*
X135303571Y-30090464D02*
X135375000Y-30126178D01*
X135375000Y-30126178D02*
X135410714Y-30161892D01*
X135410714Y-30161892D02*
X135446428Y-30233321D01*
X135446428Y-30233321D02*
X135446428Y-30269035D01*
X135446428Y-30269035D02*
X135410714Y-30340464D01*
X135410714Y-30340464D02*
X135375000Y-30376178D01*
X135375000Y-30376178D02*
X135303571Y-30411892D01*
X135303571Y-30411892D02*
X135160714Y-30411892D01*
X135160714Y-30411892D02*
X135089285Y-30447607D01*
X135089285Y-30447607D02*
X135053571Y-30483321D01*
X135053571Y-30483321D02*
X135017857Y-30554750D01*
X135017857Y-30554750D02*
X135017857Y-30697607D01*
X135017857Y-30697607D02*
X135053571Y-30769035D01*
X135053571Y-30769035D02*
X135089285Y-30804750D01*
X135089285Y-30804750D02*
X135160714Y-30840464D01*
X135160714Y-30840464D02*
X135303571Y-30840464D01*
X135303571Y-30840464D02*
X135375000Y-30804750D01*
X135375000Y-30804750D02*
X135410714Y-30769035D01*
X135410714Y-30769035D02*
X135446428Y-30697607D01*
X135446428Y-30697607D02*
X135446428Y-30554750D01*
X135446428Y-30554750D02*
X135410714Y-30483321D01*
X135410714Y-30483321D02*
X135375000Y-30447607D01*
X135375000Y-30447607D02*
X135303571Y-30411892D01*
X126517856Y-64019035D02*
X126482142Y-64054750D01*
X126482142Y-64054750D02*
X126374999Y-64090464D01*
X126374999Y-64090464D02*
X126303571Y-64090464D01*
X126303571Y-64090464D02*
X126196428Y-64054750D01*
X126196428Y-64054750D02*
X126124999Y-63983321D01*
X126124999Y-63983321D02*
X126089285Y-63911892D01*
X126089285Y-63911892D02*
X126053571Y-63769035D01*
X126053571Y-63769035D02*
X126053571Y-63661892D01*
X126053571Y-63661892D02*
X126089285Y-63519035D01*
X126089285Y-63519035D02*
X126124999Y-63447607D01*
X126124999Y-63447607D02*
X126196428Y-63376178D01*
X126196428Y-63376178D02*
X126303571Y-63340464D01*
X126303571Y-63340464D02*
X126374999Y-63340464D01*
X126374999Y-63340464D02*
X126482142Y-63376178D01*
X126482142Y-63376178D02*
X126517856Y-63411892D01*
X126767856Y-63340464D02*
X127232142Y-63340464D01*
X127232142Y-63340464D02*
X126982142Y-63626178D01*
X126982142Y-63626178D02*
X127089285Y-63626178D01*
X127089285Y-63626178D02*
X127160714Y-63661892D01*
X127160714Y-63661892D02*
X127196428Y-63697607D01*
X127196428Y-63697607D02*
X127232142Y-63769035D01*
X127232142Y-63769035D02*
X127232142Y-63947607D01*
X127232142Y-63947607D02*
X127196428Y-64019035D01*
X127196428Y-64019035D02*
X127160714Y-64054750D01*
X127160714Y-64054750D02*
X127089285Y-64090464D01*
X127089285Y-64090464D02*
X126874999Y-64090464D01*
X126874999Y-64090464D02*
X126803571Y-64054750D01*
X126803571Y-64054750D02*
X126767856Y-64019035D01*
X127696428Y-63340464D02*
X127767857Y-63340464D01*
X127767857Y-63340464D02*
X127839285Y-63376178D01*
X127839285Y-63376178D02*
X127875000Y-63411892D01*
X127875000Y-63411892D02*
X127910714Y-63483321D01*
X127910714Y-63483321D02*
X127946428Y-63626178D01*
X127946428Y-63626178D02*
X127946428Y-63804750D01*
X127946428Y-63804750D02*
X127910714Y-63947607D01*
X127910714Y-63947607D02*
X127875000Y-64019035D01*
X127875000Y-64019035D02*
X127839285Y-64054750D01*
X127839285Y-64054750D02*
X127767857Y-64090464D01*
X127767857Y-64090464D02*
X127696428Y-64090464D01*
X127696428Y-64090464D02*
X127625000Y-64054750D01*
X127625000Y-64054750D02*
X127589285Y-64019035D01*
X127589285Y-64019035D02*
X127553571Y-63947607D01*
X127553571Y-63947607D02*
X127517857Y-63804750D01*
X127517857Y-63804750D02*
X127517857Y-63626178D01*
X127517857Y-63626178D02*
X127553571Y-63483321D01*
X127553571Y-63483321D02*
X127589285Y-63411892D01*
X127589285Y-63411892D02*
X127625000Y-63376178D01*
X127625000Y-63376178D02*
X127696428Y-63340464D01*
X156519035Y-49982143D02*
X156554750Y-50017857D01*
X156554750Y-50017857D02*
X156590464Y-50125000D01*
X156590464Y-50125000D02*
X156590464Y-50196428D01*
X156590464Y-50196428D02*
X156554750Y-50303571D01*
X156554750Y-50303571D02*
X156483321Y-50375000D01*
X156483321Y-50375000D02*
X156411892Y-50410714D01*
X156411892Y-50410714D02*
X156269035Y-50446428D01*
X156269035Y-50446428D02*
X156161892Y-50446428D01*
X156161892Y-50446428D02*
X156019035Y-50410714D01*
X156019035Y-50410714D02*
X155947607Y-50375000D01*
X155947607Y-50375000D02*
X155876178Y-50303571D01*
X155876178Y-50303571D02*
X155840464Y-50196428D01*
X155840464Y-50196428D02*
X155840464Y-50125000D01*
X155840464Y-50125000D02*
X155876178Y-50017857D01*
X155876178Y-50017857D02*
X155911892Y-49982143D01*
X155911892Y-49696428D02*
X155876178Y-49660714D01*
X155876178Y-49660714D02*
X155840464Y-49589286D01*
X155840464Y-49589286D02*
X155840464Y-49410714D01*
X155840464Y-49410714D02*
X155876178Y-49339286D01*
X155876178Y-49339286D02*
X155911892Y-49303571D01*
X155911892Y-49303571D02*
X155983321Y-49267857D01*
X155983321Y-49267857D02*
X156054750Y-49267857D01*
X156054750Y-49267857D02*
X156161892Y-49303571D01*
X156161892Y-49303571D02*
X156590464Y-49732143D01*
X156590464Y-49732143D02*
X156590464Y-49267857D01*
X155840464Y-49017857D02*
X155840464Y-48553571D01*
X155840464Y-48553571D02*
X156126178Y-48803571D01*
X156126178Y-48803571D02*
X156126178Y-48696428D01*
X156126178Y-48696428D02*
X156161892Y-48625000D01*
X156161892Y-48625000D02*
X156197607Y-48589285D01*
X156197607Y-48589285D02*
X156269035Y-48553571D01*
X156269035Y-48553571D02*
X156447607Y-48553571D01*
X156447607Y-48553571D02*
X156519035Y-48589285D01*
X156519035Y-48589285D02*
X156554750Y-48625000D01*
X156554750Y-48625000D02*
X156590464Y-48696428D01*
X156590464Y-48696428D02*
X156590464Y-48910714D01*
X156590464Y-48910714D02*
X156554750Y-48982142D01*
X156554750Y-48982142D02*
X156519035Y-49017857D01*
D12*
X70454819Y-54511904D02*
X71264342Y-54511904D01*
X71264342Y-54511904D02*
X71359580Y-54464285D01*
X71359580Y-54464285D02*
X71407200Y-54416666D01*
X71407200Y-54416666D02*
X71454819Y-54321428D01*
X71454819Y-54321428D02*
X71454819Y-54130952D01*
X71454819Y-54130952D02*
X71407200Y-54035714D01*
X71407200Y-54035714D02*
X71359580Y-53988095D01*
X71359580Y-53988095D02*
X71264342Y-53940476D01*
X71264342Y-53940476D02*
X70454819Y-53940476D01*
X70788152Y-53035714D02*
X71454819Y-53035714D01*
X70407200Y-53273809D02*
X71121485Y-53511904D01*
X71121485Y-53511904D02*
X71121485Y-52892857D01*
D10*
X65946428Y-60340464D02*
X65946428Y-59590464D01*
X65946428Y-59590464D02*
X66124999Y-59590464D01*
X66124999Y-59590464D02*
X66232142Y-59626178D01*
X66232142Y-59626178D02*
X66303571Y-59697607D01*
X66303571Y-59697607D02*
X66339285Y-59769035D01*
X66339285Y-59769035D02*
X66374999Y-59911892D01*
X66374999Y-59911892D02*
X66374999Y-60019035D01*
X66374999Y-60019035D02*
X66339285Y-60161892D01*
X66339285Y-60161892D02*
X66303571Y-60233321D01*
X66303571Y-60233321D02*
X66232142Y-60304750D01*
X66232142Y-60304750D02*
X66124999Y-60340464D01*
X66124999Y-60340464D02*
X65946428Y-60340464D01*
X66803571Y-59911892D02*
X66732142Y-59876178D01*
X66732142Y-59876178D02*
X66696428Y-59840464D01*
X66696428Y-59840464D02*
X66660714Y-59769035D01*
X66660714Y-59769035D02*
X66660714Y-59733321D01*
X66660714Y-59733321D02*
X66696428Y-59661892D01*
X66696428Y-59661892D02*
X66732142Y-59626178D01*
X66732142Y-59626178D02*
X66803571Y-59590464D01*
X66803571Y-59590464D02*
X66946428Y-59590464D01*
X66946428Y-59590464D02*
X67017857Y-59626178D01*
X67017857Y-59626178D02*
X67053571Y-59661892D01*
X67053571Y-59661892D02*
X67089285Y-59733321D01*
X67089285Y-59733321D02*
X67089285Y-59769035D01*
X67089285Y-59769035D02*
X67053571Y-59840464D01*
X67053571Y-59840464D02*
X67017857Y-59876178D01*
X67017857Y-59876178D02*
X66946428Y-59911892D01*
X66946428Y-59911892D02*
X66803571Y-59911892D01*
X66803571Y-59911892D02*
X66732142Y-59947607D01*
X66732142Y-59947607D02*
X66696428Y-59983321D01*
X66696428Y-59983321D02*
X66660714Y-60054750D01*
X66660714Y-60054750D02*
X66660714Y-60197607D01*
X66660714Y-60197607D02*
X66696428Y-60269035D01*
X66696428Y-60269035D02*
X66732142Y-60304750D01*
X66732142Y-60304750D02*
X66803571Y-60340464D01*
X66803571Y-60340464D02*
X66946428Y-60340464D01*
X66946428Y-60340464D02*
X67017857Y-60304750D01*
X67017857Y-60304750D02*
X67053571Y-60269035D01*
X67053571Y-60269035D02*
X67089285Y-60197607D01*
X67089285Y-60197607D02*
X67089285Y-60054750D01*
X67089285Y-60054750D02*
X67053571Y-59983321D01*
X67053571Y-59983321D02*
X67017857Y-59947607D01*
X67017857Y-59947607D02*
X66946428Y-59911892D01*
X62446428Y-60340464D02*
X62446428Y-59590464D01*
X62446428Y-59590464D02*
X62624999Y-59590464D01*
X62624999Y-59590464D02*
X62732142Y-59626178D01*
X62732142Y-59626178D02*
X62803571Y-59697607D01*
X62803571Y-59697607D02*
X62839285Y-59769035D01*
X62839285Y-59769035D02*
X62874999Y-59911892D01*
X62874999Y-59911892D02*
X62874999Y-60019035D01*
X62874999Y-60019035D02*
X62839285Y-60161892D01*
X62839285Y-60161892D02*
X62803571Y-60233321D01*
X62803571Y-60233321D02*
X62732142Y-60304750D01*
X62732142Y-60304750D02*
X62624999Y-60340464D01*
X62624999Y-60340464D02*
X62446428Y-60340464D01*
X63124999Y-59590464D02*
X63624999Y-59590464D01*
X63624999Y-59590464D02*
X63303571Y-60340464D01*
X61124999Y-60840464D02*
X60874999Y-60483321D01*
X60696428Y-60840464D02*
X60696428Y-60090464D01*
X60696428Y-60090464D02*
X60982142Y-60090464D01*
X60982142Y-60090464D02*
X61053571Y-60126178D01*
X61053571Y-60126178D02*
X61089285Y-60161892D01*
X61089285Y-60161892D02*
X61124999Y-60233321D01*
X61124999Y-60233321D02*
X61124999Y-60340464D01*
X61124999Y-60340464D02*
X61089285Y-60411892D01*
X61089285Y-60411892D02*
X61053571Y-60447607D01*
X61053571Y-60447607D02*
X60982142Y-60483321D01*
X60982142Y-60483321D02*
X60696428Y-60483321D01*
X61553571Y-60411892D02*
X61482142Y-60376178D01*
X61482142Y-60376178D02*
X61446428Y-60340464D01*
X61446428Y-60340464D02*
X61410714Y-60269035D01*
X61410714Y-60269035D02*
X61410714Y-60233321D01*
X61410714Y-60233321D02*
X61446428Y-60161892D01*
X61446428Y-60161892D02*
X61482142Y-60126178D01*
X61482142Y-60126178D02*
X61553571Y-60090464D01*
X61553571Y-60090464D02*
X61696428Y-60090464D01*
X61696428Y-60090464D02*
X61767857Y-60126178D01*
X61767857Y-60126178D02*
X61803571Y-60161892D01*
X61803571Y-60161892D02*
X61839285Y-60233321D01*
X61839285Y-60233321D02*
X61839285Y-60269035D01*
X61839285Y-60269035D02*
X61803571Y-60340464D01*
X61803571Y-60340464D02*
X61767857Y-60376178D01*
X61767857Y-60376178D02*
X61696428Y-60411892D01*
X61696428Y-60411892D02*
X61553571Y-60411892D01*
X61553571Y-60411892D02*
X61482142Y-60447607D01*
X61482142Y-60447607D02*
X61446428Y-60483321D01*
X61446428Y-60483321D02*
X61410714Y-60554750D01*
X61410714Y-60554750D02*
X61410714Y-60697607D01*
X61410714Y-60697607D02*
X61446428Y-60769035D01*
X61446428Y-60769035D02*
X61482142Y-60804750D01*
X61482142Y-60804750D02*
X61553571Y-60840464D01*
X61553571Y-60840464D02*
X61696428Y-60840464D01*
X61696428Y-60840464D02*
X61767857Y-60804750D01*
X61767857Y-60804750D02*
X61803571Y-60769035D01*
X61803571Y-60769035D02*
X61839285Y-60697607D01*
X61839285Y-60697607D02*
X61839285Y-60554750D01*
X61839285Y-60554750D02*
X61803571Y-60483321D01*
X61803571Y-60483321D02*
X61767857Y-60447607D01*
X61767857Y-60447607D02*
X61696428Y-60411892D01*
X64267856Y-60840464D02*
X64017856Y-60483321D01*
X63839285Y-60840464D02*
X63839285Y-60090464D01*
X63839285Y-60090464D02*
X64124999Y-60090464D01*
X64124999Y-60090464D02*
X64196428Y-60126178D01*
X64196428Y-60126178D02*
X64232142Y-60161892D01*
X64232142Y-60161892D02*
X64267856Y-60233321D01*
X64267856Y-60233321D02*
X64267856Y-60340464D01*
X64267856Y-60340464D02*
X64232142Y-60411892D01*
X64232142Y-60411892D02*
X64196428Y-60447607D01*
X64196428Y-60447607D02*
X64124999Y-60483321D01*
X64124999Y-60483321D02*
X63839285Y-60483321D01*
X64982142Y-60840464D02*
X64553571Y-60840464D01*
X64767856Y-60840464D02*
X64767856Y-60090464D01*
X64767856Y-60090464D02*
X64696428Y-60197607D01*
X64696428Y-60197607D02*
X64624999Y-60269035D01*
X64624999Y-60269035D02*
X64553571Y-60304750D01*
X65446428Y-60090464D02*
X65517857Y-60090464D01*
X65517857Y-60090464D02*
X65589285Y-60126178D01*
X65589285Y-60126178D02*
X65625000Y-60161892D01*
X65625000Y-60161892D02*
X65660714Y-60233321D01*
X65660714Y-60233321D02*
X65696428Y-60376178D01*
X65696428Y-60376178D02*
X65696428Y-60554750D01*
X65696428Y-60554750D02*
X65660714Y-60697607D01*
X65660714Y-60697607D02*
X65625000Y-60769035D01*
X65625000Y-60769035D02*
X65589285Y-60804750D01*
X65589285Y-60804750D02*
X65517857Y-60840464D01*
X65517857Y-60840464D02*
X65446428Y-60840464D01*
X65446428Y-60840464D02*
X65375000Y-60804750D01*
X65375000Y-60804750D02*
X65339285Y-60769035D01*
X65339285Y-60769035D02*
X65303571Y-60697607D01*
X65303571Y-60697607D02*
X65267857Y-60554750D01*
X65267857Y-60554750D02*
X65267857Y-60376178D01*
X65267857Y-60376178D02*
X65303571Y-60233321D01*
X65303571Y-60233321D02*
X65339285Y-60161892D01*
X65339285Y-60161892D02*
X65375000Y-60126178D01*
X65375000Y-60126178D02*
X65446428Y-60090464D01*
X55000000Y-50840464D02*
X55000000Y-51376178D01*
X55000000Y-51376178D02*
X54964285Y-51483321D01*
X54964285Y-51483321D02*
X54892857Y-51554750D01*
X54892857Y-51554750D02*
X54785714Y-51590464D01*
X54785714Y-51590464D02*
X54714285Y-51590464D01*
X55678572Y-51090464D02*
X55678572Y-51590464D01*
X55500000Y-50804750D02*
X55321429Y-51340464D01*
X55321429Y-51340464D02*
X55785714Y-51340464D01*
X49750000Y-44590464D02*
X49750000Y-45126178D01*
X49750000Y-45126178D02*
X49714285Y-45233321D01*
X49714285Y-45233321D02*
X49642857Y-45304750D01*
X49642857Y-45304750D02*
X49535714Y-45340464D01*
X49535714Y-45340464D02*
X49464285Y-45340464D01*
X50071429Y-44661892D02*
X50107143Y-44626178D01*
X50107143Y-44626178D02*
X50178572Y-44590464D01*
X50178572Y-44590464D02*
X50357143Y-44590464D01*
X50357143Y-44590464D02*
X50428572Y-44626178D01*
X50428572Y-44626178D02*
X50464286Y-44661892D01*
X50464286Y-44661892D02*
X50500000Y-44733321D01*
X50500000Y-44733321D02*
X50500000Y-44804750D01*
X50500000Y-44804750D02*
X50464286Y-44911892D01*
X50464286Y-44911892D02*
X50035714Y-45340464D01*
X50035714Y-45340464D02*
X50500000Y-45340464D01*
X50250000Y-54590464D02*
X50250000Y-55126178D01*
X50250000Y-55126178D02*
X50214285Y-55233321D01*
X50214285Y-55233321D02*
X50142857Y-55304750D01*
X50142857Y-55304750D02*
X50035714Y-55340464D01*
X50035714Y-55340464D02*
X49964285Y-55340464D01*
X51000000Y-55340464D02*
X50571429Y-55340464D01*
X50785714Y-55340464D02*
X50785714Y-54590464D01*
X50785714Y-54590464D02*
X50714286Y-54697607D01*
X50714286Y-54697607D02*
X50642857Y-54769035D01*
X50642857Y-54769035D02*
X50571429Y-54804750D01*
X168250000Y-45840464D02*
X168250000Y-46376178D01*
X168250000Y-46376178D02*
X168214285Y-46483321D01*
X168214285Y-46483321D02*
X168142857Y-46554750D01*
X168142857Y-46554750D02*
X168035714Y-46590464D01*
X168035714Y-46590464D02*
X167964285Y-46590464D01*
X168535714Y-45840464D02*
X169000000Y-45840464D01*
X169000000Y-45840464D02*
X168750000Y-46126178D01*
X168750000Y-46126178D02*
X168857143Y-46126178D01*
X168857143Y-46126178D02*
X168928572Y-46161892D01*
X168928572Y-46161892D02*
X168964286Y-46197607D01*
X168964286Y-46197607D02*
X169000000Y-46269035D01*
X169000000Y-46269035D02*
X169000000Y-46447607D01*
X169000000Y-46447607D02*
X168964286Y-46519035D01*
X168964286Y-46519035D02*
X168928572Y-46554750D01*
X168928572Y-46554750D02*
X168857143Y-46590464D01*
X168857143Y-46590464D02*
X168642857Y-46590464D01*
X168642857Y-46590464D02*
X168571429Y-46554750D01*
X168571429Y-46554750D02*
X168535714Y-46519035D01*
X50875000Y-52840464D02*
X50517857Y-52840464D01*
X50517857Y-52840464D02*
X50517857Y-52090464D01*
X51517857Y-52840464D02*
X51089286Y-52840464D01*
X51303571Y-52840464D02*
X51303571Y-52090464D01*
X51303571Y-52090464D02*
X51232143Y-52197607D01*
X51232143Y-52197607D02*
X51160714Y-52269035D01*
X51160714Y-52269035D02*
X51089286Y-52304750D01*
X168250000Y-59840464D02*
X168250000Y-60376178D01*
X168250000Y-60376178D02*
X168214285Y-60483321D01*
X168214285Y-60483321D02*
X168142857Y-60554750D01*
X168142857Y-60554750D02*
X168035714Y-60590464D01*
X168035714Y-60590464D02*
X167964285Y-60590464D01*
X168928572Y-59840464D02*
X168785714Y-59840464D01*
X168785714Y-59840464D02*
X168714286Y-59876178D01*
X168714286Y-59876178D02*
X168678572Y-59911892D01*
X168678572Y-59911892D02*
X168607143Y-60019035D01*
X168607143Y-60019035D02*
X168571429Y-60161892D01*
X168571429Y-60161892D02*
X168571429Y-60447607D01*
X168571429Y-60447607D02*
X168607143Y-60519035D01*
X168607143Y-60519035D02*
X168642857Y-60554750D01*
X168642857Y-60554750D02*
X168714286Y-60590464D01*
X168714286Y-60590464D02*
X168857143Y-60590464D01*
X168857143Y-60590464D02*
X168928572Y-60554750D01*
X168928572Y-60554750D02*
X168964286Y-60519035D01*
X168964286Y-60519035D02*
X169000000Y-60447607D01*
X169000000Y-60447607D02*
X169000000Y-60269035D01*
X169000000Y-60269035D02*
X168964286Y-60197607D01*
X168964286Y-60197607D02*
X168928572Y-60161892D01*
X168928572Y-60161892D02*
X168857143Y-60126178D01*
X168857143Y-60126178D02*
X168714286Y-60126178D01*
X168714286Y-60126178D02*
X168642857Y-60161892D01*
X168642857Y-60161892D02*
X168607143Y-60197607D01*
X168607143Y-60197607D02*
X168571429Y-60269035D01*
X157769035Y-49982143D02*
X157804750Y-50017857D01*
X157804750Y-50017857D02*
X157840464Y-50125000D01*
X157840464Y-50125000D02*
X157840464Y-50196428D01*
X157840464Y-50196428D02*
X157804750Y-50303571D01*
X157804750Y-50303571D02*
X157733321Y-50375000D01*
X157733321Y-50375000D02*
X157661892Y-50410714D01*
X157661892Y-50410714D02*
X157519035Y-50446428D01*
X157519035Y-50446428D02*
X157411892Y-50446428D01*
X157411892Y-50446428D02*
X157269035Y-50410714D01*
X157269035Y-50410714D02*
X157197607Y-50375000D01*
X157197607Y-50375000D02*
X157126178Y-50303571D01*
X157126178Y-50303571D02*
X157090464Y-50196428D01*
X157090464Y-50196428D02*
X157090464Y-50125000D01*
X157090464Y-50125000D02*
X157126178Y-50017857D01*
X157126178Y-50017857D02*
X157161892Y-49982143D01*
X157161892Y-49696428D02*
X157126178Y-49660714D01*
X157126178Y-49660714D02*
X157090464Y-49589286D01*
X157090464Y-49589286D02*
X157090464Y-49410714D01*
X157090464Y-49410714D02*
X157126178Y-49339286D01*
X157126178Y-49339286D02*
X157161892Y-49303571D01*
X157161892Y-49303571D02*
X157233321Y-49267857D01*
X157233321Y-49267857D02*
X157304750Y-49267857D01*
X157304750Y-49267857D02*
X157411892Y-49303571D01*
X157411892Y-49303571D02*
X157840464Y-49732143D01*
X157840464Y-49732143D02*
X157840464Y-49267857D01*
X157161892Y-48982142D02*
X157126178Y-48946428D01*
X157126178Y-48946428D02*
X157090464Y-48875000D01*
X157090464Y-48875000D02*
X157090464Y-48696428D01*
X157090464Y-48696428D02*
X157126178Y-48625000D01*
X157126178Y-48625000D02*
X157161892Y-48589285D01*
X157161892Y-48589285D02*
X157233321Y-48553571D01*
X157233321Y-48553571D02*
X157304750Y-48553571D01*
X157304750Y-48553571D02*
X157411892Y-48589285D01*
X157411892Y-48589285D02*
X157840464Y-49017857D01*
X157840464Y-49017857D02*
X157840464Y-48553571D01*
D12*
X159261905Y-31954819D02*
X159261905Y-30954819D01*
X159261905Y-30954819D02*
X159500000Y-30954819D01*
X159500000Y-30954819D02*
X159642857Y-31002438D01*
X159642857Y-31002438D02*
X159738095Y-31097676D01*
X159738095Y-31097676D02*
X159785714Y-31192914D01*
X159785714Y-31192914D02*
X159833333Y-31383390D01*
X159833333Y-31383390D02*
X159833333Y-31526247D01*
X159833333Y-31526247D02*
X159785714Y-31716723D01*
X159785714Y-31716723D02*
X159738095Y-31811961D01*
X159738095Y-31811961D02*
X159642857Y-31907200D01*
X159642857Y-31907200D02*
X159500000Y-31954819D01*
X159500000Y-31954819D02*
X159261905Y-31954819D01*
X160309524Y-31954819D02*
X160500000Y-31954819D01*
X160500000Y-31954819D02*
X160595238Y-31907200D01*
X160595238Y-31907200D02*
X160642857Y-31859580D01*
X160642857Y-31859580D02*
X160738095Y-31716723D01*
X160738095Y-31716723D02*
X160785714Y-31526247D01*
X160785714Y-31526247D02*
X160785714Y-31145295D01*
X160785714Y-31145295D02*
X160738095Y-31050057D01*
X160738095Y-31050057D02*
X160690476Y-31002438D01*
X160690476Y-31002438D02*
X160595238Y-30954819D01*
X160595238Y-30954819D02*
X160404762Y-30954819D01*
X160404762Y-30954819D02*
X160309524Y-31002438D01*
X160309524Y-31002438D02*
X160261905Y-31050057D01*
X160261905Y-31050057D02*
X160214286Y-31145295D01*
X160214286Y-31145295D02*
X160214286Y-31383390D01*
X160214286Y-31383390D02*
X160261905Y-31478628D01*
X160261905Y-31478628D02*
X160309524Y-31526247D01*
X160309524Y-31526247D02*
X160404762Y-31573866D01*
X160404762Y-31573866D02*
X160595238Y-31573866D01*
X160595238Y-31573866D02*
X160690476Y-31526247D01*
X160690476Y-31526247D02*
X160738095Y-31478628D01*
X160738095Y-31478628D02*
X160785714Y-31383390D01*
D10*
X54678571Y-40590464D02*
X54678571Y-41197607D01*
X54678571Y-41197607D02*
X54714285Y-41269035D01*
X54714285Y-41269035D02*
X54750000Y-41304750D01*
X54750000Y-41304750D02*
X54821428Y-41340464D01*
X54821428Y-41340464D02*
X54964285Y-41340464D01*
X54964285Y-41340464D02*
X55035714Y-41304750D01*
X55035714Y-41304750D02*
X55071428Y-41269035D01*
X55071428Y-41269035D02*
X55107142Y-41197607D01*
X55107142Y-41197607D02*
X55107142Y-40590464D01*
X55571428Y-40911892D02*
X55499999Y-40876178D01*
X55499999Y-40876178D02*
X55464285Y-40840464D01*
X55464285Y-40840464D02*
X55428571Y-40769035D01*
X55428571Y-40769035D02*
X55428571Y-40733321D01*
X55428571Y-40733321D02*
X55464285Y-40661892D01*
X55464285Y-40661892D02*
X55499999Y-40626178D01*
X55499999Y-40626178D02*
X55571428Y-40590464D01*
X55571428Y-40590464D02*
X55714285Y-40590464D01*
X55714285Y-40590464D02*
X55785714Y-40626178D01*
X55785714Y-40626178D02*
X55821428Y-40661892D01*
X55821428Y-40661892D02*
X55857142Y-40733321D01*
X55857142Y-40733321D02*
X55857142Y-40769035D01*
X55857142Y-40769035D02*
X55821428Y-40840464D01*
X55821428Y-40840464D02*
X55785714Y-40876178D01*
X55785714Y-40876178D02*
X55714285Y-40911892D01*
X55714285Y-40911892D02*
X55571428Y-40911892D01*
X55571428Y-40911892D02*
X55499999Y-40947607D01*
X55499999Y-40947607D02*
X55464285Y-40983321D01*
X55464285Y-40983321D02*
X55428571Y-41054750D01*
X55428571Y-41054750D02*
X55428571Y-41197607D01*
X55428571Y-41197607D02*
X55464285Y-41269035D01*
X55464285Y-41269035D02*
X55499999Y-41304750D01*
X55499999Y-41304750D02*
X55571428Y-41340464D01*
X55571428Y-41340464D02*
X55714285Y-41340464D01*
X55714285Y-41340464D02*
X55785714Y-41304750D01*
X55785714Y-41304750D02*
X55821428Y-41269035D01*
X55821428Y-41269035D02*
X55857142Y-41197607D01*
X55857142Y-41197607D02*
X55857142Y-41054750D01*
X55857142Y-41054750D02*
X55821428Y-40983321D01*
X55821428Y-40983321D02*
X55785714Y-40947607D01*
X55785714Y-40947607D02*
X55714285Y-40911892D01*
X55767856Y-35269035D02*
X55732142Y-35304750D01*
X55732142Y-35304750D02*
X55624999Y-35340464D01*
X55624999Y-35340464D02*
X55553571Y-35340464D01*
X55553571Y-35340464D02*
X55446428Y-35304750D01*
X55446428Y-35304750D02*
X55374999Y-35233321D01*
X55374999Y-35233321D02*
X55339285Y-35161892D01*
X55339285Y-35161892D02*
X55303571Y-35019035D01*
X55303571Y-35019035D02*
X55303571Y-34911892D01*
X55303571Y-34911892D02*
X55339285Y-34769035D01*
X55339285Y-34769035D02*
X55374999Y-34697607D01*
X55374999Y-34697607D02*
X55446428Y-34626178D01*
X55446428Y-34626178D02*
X55553571Y-34590464D01*
X55553571Y-34590464D02*
X55624999Y-34590464D01*
X55624999Y-34590464D02*
X55732142Y-34626178D01*
X55732142Y-34626178D02*
X55767856Y-34661892D01*
X56410714Y-34840464D02*
X56410714Y-35340464D01*
X56232142Y-34554750D02*
X56053571Y-35090464D01*
X56053571Y-35090464D02*
X56517856Y-35090464D01*
X56767857Y-34661892D02*
X56803571Y-34626178D01*
X56803571Y-34626178D02*
X56875000Y-34590464D01*
X56875000Y-34590464D02*
X57053571Y-34590464D01*
X57053571Y-34590464D02*
X57125000Y-34626178D01*
X57125000Y-34626178D02*
X57160714Y-34661892D01*
X57160714Y-34661892D02*
X57196428Y-34733321D01*
X57196428Y-34733321D02*
X57196428Y-34804750D01*
X57196428Y-34804750D02*
X57160714Y-34911892D01*
X57160714Y-34911892D02*
X56732142Y-35340464D01*
X56732142Y-35340464D02*
X57196428Y-35340464D01*
D13*
X53337221Y-35260000D02*
X53662779Y-35260000D01*
X53337221Y-34240000D02*
X53662779Y-34240000D01*
X73912779Y-59760000D02*
X73587221Y-59760000D01*
X73912779Y-58740000D02*
X73587221Y-58740000D01*
X77162779Y-58740000D02*
X76837221Y-58740000D01*
X77162779Y-59760000D02*
X76837221Y-59760000D01*
X78262779Y-48510000D02*
X77937221Y-48510000D01*
X78262779Y-47490000D02*
X77937221Y-47490000D01*
D12*
X95130000Y-54990000D02*
X80130000Y-54990000D01*
X80130000Y-54990000D02*
X80130000Y-39990000D01*
X80130000Y-39990000D02*
X95130000Y-39990000D01*
X95130000Y-39990000D02*
X95130000Y-54990000D01*
D13*
X73726221Y-41805607D02*
X74051779Y-41805607D01*
X73726221Y-42825607D02*
X74051779Y-42825607D01*
X74051779Y-40055607D02*
X73726221Y-40055607D01*
X74051779Y-41075607D02*
X73726221Y-41075607D01*
X74226221Y-36055607D02*
X74551779Y-36055607D01*
X74226221Y-37075607D02*
X74551779Y-37075607D01*
X74397578Y-39275607D02*
X73880422Y-39275607D01*
X74397578Y-37855607D02*
X73880422Y-37855607D01*
X75929000Y-45451859D02*
X75929000Y-42679355D01*
X79349000Y-45451859D02*
X79349000Y-42679355D01*
X75249000Y-46215607D02*
X75249000Y-43765607D01*
X72029000Y-44415607D02*
X72029000Y-46215607D01*
X77254000Y-39665607D02*
X77254000Y-39365607D01*
X78024000Y-39665607D02*
X78024000Y-39365607D01*
D12*
X69075000Y-47775000D02*
X68000000Y-47775000D01*
X58725000Y-47775000D02*
X58725000Y-48850000D01*
X58725000Y-58125000D02*
X58725000Y-57050000D01*
X69075000Y-58125000D02*
X69075000Y-57050000D01*
X58725000Y-58125000D02*
X59725000Y-58125000D01*
X69075000Y-47775000D02*
X69075000Y-48850000D01*
X58725000Y-47775000D02*
X59800000Y-47775000D01*
X59725000Y-58125000D02*
X59725000Y-59150000D01*
X69075000Y-58125000D02*
X68000000Y-58125000D01*
X58575000Y-43225000D02*
X59150000Y-43225000D01*
X58575000Y-43225000D02*
X58575000Y-37475000D01*
X59150000Y-43225000D02*
X59150000Y-44825000D01*
X69225000Y-43225000D02*
X69225000Y-37475000D01*
X69225000Y-43225000D02*
X68575000Y-43225000D01*
X69225000Y-37475000D02*
X68575000Y-37475000D01*
X58575000Y-37475000D02*
X59225000Y-37475000D01*
D13*
X83650000Y-36390000D02*
X81850000Y-36390000D01*
X81850000Y-39610000D02*
X84300000Y-39610000D01*
X93500000Y-36420000D02*
X94830000Y-36420000D01*
X94830000Y-36420000D02*
X94830000Y-37750000D01*
X87090000Y-36420000D02*
X87090000Y-39080000D01*
X92230000Y-39080000D02*
X87090000Y-39080000D01*
X92230000Y-36420000D02*
X87090000Y-36420000D01*
X92230000Y-36420000D02*
X92230000Y-39080000D01*
X52240000Y-50087221D02*
X52240000Y-50412779D01*
X53260000Y-50087221D02*
X53260000Y-50412779D01*
X87162779Y-57490000D02*
X86837221Y-57490000D01*
X87162779Y-58510000D02*
X86837221Y-58510000D01*
X90662779Y-57490000D02*
X90337221Y-57490000D01*
X90662779Y-58510000D02*
X90337221Y-58510000D01*
X111850000Y-42600000D02*
X111850000Y-49500000D01*
X115150000Y-42600000D02*
X115150000Y-49500000D01*
X115150000Y-42600000D02*
X111850000Y-42600000D01*
X109022369Y-58785000D02*
X105977631Y-58785000D01*
X109022369Y-52215000D02*
X105977631Y-52215000D01*
X99850000Y-51400000D02*
X99850000Y-44500000D01*
X103150000Y-51400000D02*
X103150000Y-44500000D01*
X99850000Y-51400000D02*
X103150000Y-51400000D01*
X109022369Y-35215000D02*
X105977631Y-35215000D01*
X109022369Y-41785000D02*
X105977631Y-41785000D01*
X97977631Y-52215000D02*
X101022369Y-52215000D01*
X97977631Y-58785000D02*
X101022369Y-58785000D01*
X107150000Y-42600000D02*
X103850000Y-42600000D01*
X107150000Y-42600000D02*
X107150000Y-49500000D01*
X103850000Y-42600000D02*
X103850000Y-49500000D01*
X95850000Y-42600000D02*
X95850000Y-49500000D01*
X99150000Y-42600000D02*
X99150000Y-49500000D01*
X99150000Y-42600000D02*
X95850000Y-42600000D01*
X107850000Y-51400000D02*
X107850000Y-44500000D01*
X111150000Y-51400000D02*
X111150000Y-44500000D01*
X107850000Y-51400000D02*
X111150000Y-51400000D01*
X101022369Y-41785000D02*
X97977631Y-41785000D01*
X101022369Y-35215000D02*
X97977631Y-35215000D01*
X137785000Y-44522369D02*
X137785000Y-41477631D01*
X131215000Y-44522369D02*
X131215000Y-41477631D01*
X116215000Y-33477631D02*
X116215000Y-36522369D01*
X122785000Y-33477631D02*
X122785000Y-36522369D01*
X130285000Y-33477631D02*
X130285000Y-36522369D01*
X123715000Y-33477631D02*
X123715000Y-36522369D01*
X116215000Y-60522369D02*
X116215000Y-57477631D01*
X122785000Y-60522369D02*
X122785000Y-57477631D01*
X138715000Y-33477631D02*
X138715000Y-36522369D01*
X145285000Y-33477631D02*
X145285000Y-36522369D01*
X138715000Y-60522369D02*
X138715000Y-57477631D01*
X145285000Y-60522369D02*
X145285000Y-57477631D01*
X116215000Y-49477631D02*
X116215000Y-52522369D01*
X122785000Y-49477631D02*
X122785000Y-52522369D01*
X145285000Y-44522369D02*
X145285000Y-41477631D01*
X138715000Y-44522369D02*
X138715000Y-41477631D01*
X146215000Y-60522369D02*
X146215000Y-57477631D01*
X152785000Y-60522369D02*
X152785000Y-57477631D01*
X130285000Y-49477631D02*
X130285000Y-52522369D01*
X123715000Y-49477631D02*
X123715000Y-52522369D01*
X146215000Y-49477631D02*
X146215000Y-52522369D01*
X152785000Y-49477631D02*
X152785000Y-52522369D01*
X122785000Y-44522369D02*
X122785000Y-41477631D01*
X116215000Y-44522369D02*
X116215000Y-41477631D01*
X137785000Y-60522369D02*
X137785000Y-57477631D01*
X131215000Y-60522369D02*
X131215000Y-57477631D01*
X130285000Y-44522369D02*
X130285000Y-41477631D01*
X123715000Y-44522369D02*
X123715000Y-41477631D01*
X146215000Y-44522369D02*
X146215000Y-41477631D01*
X152785000Y-44522369D02*
X152785000Y-41477631D01*
X146215000Y-33477631D02*
X146215000Y-36522369D01*
X152785000Y-33477631D02*
X152785000Y-36522369D01*
X131215000Y-33477631D02*
X131215000Y-36522369D01*
X137785000Y-33477631D02*
X137785000Y-36522369D01*
X130285000Y-60522369D02*
X130285000Y-57477631D01*
X123715000Y-60522369D02*
X123715000Y-57477631D01*
X137785000Y-49477631D02*
X137785000Y-52522369D01*
X131215000Y-49477631D02*
X131215000Y-52522369D01*
X72090000Y-57850000D02*
X72090000Y-51840000D01*
X78910000Y-55600000D02*
X78910000Y-51840000D01*
X72090000Y-51840000D02*
X73350000Y-51840000D01*
X78910000Y-51840000D02*
X77650000Y-51840000D01*
X67235000Y-63550000D02*
X67235000Y-61265000D01*
X67235000Y-61265000D02*
X65765000Y-61265000D01*
X65765000Y-61265000D02*
X65765000Y-63550000D01*
X63735000Y-63550000D02*
X63735000Y-61265000D01*
X63735000Y-61265000D02*
X62265000Y-61265000D01*
X62265000Y-61265000D02*
X62265000Y-63550000D01*
X60740000Y-62912779D02*
X60740000Y-62587221D01*
X61760000Y-62912779D02*
X61760000Y-62587221D01*
X64240000Y-62912779D02*
X64240000Y-62587221D01*
X65260000Y-62912779D02*
X65260000Y-62587221D01*
X56630000Y-57530000D02*
X55300000Y-57530000D01*
X56630000Y-52330000D02*
X53970000Y-52330000D01*
X56630000Y-56200000D02*
X56630000Y-57530000D01*
X56630000Y-54930000D02*
X53970000Y-54930000D01*
X53970000Y-54930000D02*
X53970000Y-52330000D01*
X56630000Y-54930000D02*
X56630000Y-52330000D01*
D12*
X43500000Y-58850000D02*
X43500000Y-59150000D01*
X43500000Y-59150000D02*
X43650000Y-59150000D01*
X49200000Y-56800000D02*
X49200000Y-57800000D01*
X46050000Y-59150000D02*
X47450000Y-59150000D01*
X49625000Y-53200000D02*
X49200000Y-53200000D01*
X43500000Y-50850000D02*
X43500000Y-51150000D01*
X43650000Y-50850000D02*
X43500000Y-50850000D01*
X47450000Y-50850000D02*
X46050000Y-50850000D01*
X43500000Y-51150000D02*
X43050000Y-51150000D01*
X49625000Y-53925000D02*
X49625000Y-53200000D01*
X49200000Y-53200000D02*
X49200000Y-52200000D01*
X43050000Y-58850000D02*
X43500000Y-58850000D01*
D13*
X50490000Y-50412779D02*
X50490000Y-50087221D01*
X51510000Y-50412779D02*
X51510000Y-50087221D01*
X138715000Y-49477631D02*
X138715000Y-52522369D01*
X145285000Y-49477631D02*
X145285000Y-52522369D01*
D14*
X51780085Y-59746793D02*
X51850894Y-59747545D01*
X51912200Y-59748541D01*
X51959775Y-59749685D01*
X51989395Y-59750880D01*
X51997297Y-59751764D01*
X51992497Y-59763350D01*
X51977205Y-59793709D01*
X51953232Y-59839395D01*
X51922391Y-59896958D01*
X51886492Y-59962952D01*
X51882475Y-59970282D01*
X51764404Y-60185550D01*
X51539982Y-60191900D01*
X51467681Y-60193870D01*
X51405065Y-60195430D01*
X51356177Y-60196492D01*
X51325057Y-60196967D01*
X51315580Y-60196827D01*
X51321460Y-60185837D01*
X51337863Y-60155983D01*
X51362950Y-60110590D01*
X51394883Y-60052983D01*
X51431824Y-59986486D01*
X51440861Y-59970237D01*
X51566123Y-59745071D01*
X51780085Y-59746793D01*
G36*
X51780085Y-59746793D02*
G01*
X51850894Y-59747545D01*
X51912200Y-59748541D01*
X51959775Y-59749685D01*
X51989395Y-59750880D01*
X51997297Y-59751764D01*
X51992497Y-59763350D01*
X51977205Y-59793709D01*
X51953232Y-59839395D01*
X51922391Y-59896958D01*
X51886492Y-59962952D01*
X51882475Y-59970282D01*
X51764404Y-60185550D01*
X51539982Y-60191900D01*
X51467681Y-60193870D01*
X51405065Y-60195430D01*
X51356177Y-60196492D01*
X51325057Y-60196967D01*
X51315580Y-60196827D01*
X51321460Y-60185837D01*
X51337863Y-60155983D01*
X51362950Y-60110590D01*
X51394883Y-60052983D01*
X51431824Y-59986486D01*
X51440861Y-59970237D01*
X51566123Y-59745071D01*
X51780085Y-59746793D01*
G37*
X51123534Y-60615628D02*
X51161200Y-60619620D01*
X51214841Y-60623063D01*
X51279745Y-60625621D01*
X51319185Y-60626541D01*
X51517824Y-60630050D01*
X51284102Y-61055500D01*
X51091127Y-61055500D01*
X51021077Y-61056298D01*
X50957833Y-61058492D01*
X50906796Y-61061788D01*
X50873363Y-61065887D01*
X50865576Y-61067886D01*
X50842032Y-61074697D01*
X50833000Y-61073380D01*
X50838901Y-61060718D01*
X50855395Y-61029256D01*
X50880665Y-60982354D01*
X50912895Y-60923374D01*
X50950269Y-60855678D01*
X50962782Y-60833148D01*
X51012200Y-60745790D01*
X51050952Y-60680660D01*
X51079448Y-60637125D01*
X51098096Y-60614555D01*
X51106556Y-60611421D01*
X51123534Y-60615628D01*
G36*
X51123534Y-60615628D02*
G01*
X51161200Y-60619620D01*
X51214841Y-60623063D01*
X51279745Y-60625621D01*
X51319185Y-60626541D01*
X51517824Y-60630050D01*
X51284102Y-61055500D01*
X51091127Y-61055500D01*
X51021077Y-61056298D01*
X50957833Y-61058492D01*
X50906796Y-61061788D01*
X50873363Y-61065887D01*
X50865576Y-61067886D01*
X50842032Y-61074697D01*
X50833000Y-61073380D01*
X50838901Y-61060718D01*
X50855395Y-61029256D01*
X50880665Y-60982354D01*
X50912895Y-60923374D01*
X50950269Y-60855678D01*
X50962782Y-60833148D01*
X51012200Y-60745790D01*
X51050952Y-60680660D01*
X51079448Y-60637125D01*
X51098096Y-60614555D01*
X51106556Y-60611421D01*
X51123534Y-60615628D01*
G37*
X53102744Y-59336646D02*
X53131041Y-59359767D01*
X53169994Y-59392720D01*
X53215820Y-59432186D01*
X53264737Y-59474849D01*
X53312961Y-59517391D01*
X53356708Y-59556496D01*
X53392195Y-59588847D01*
X53415640Y-59611125D01*
X53423320Y-59619894D01*
X53417221Y-59631782D01*
X53399674Y-59664228D01*
X53371584Y-59715599D01*
X53333853Y-59784256D01*
X53287385Y-59868566D01*
X53233082Y-59966891D01*
X53171848Y-60077595D01*
X53104586Y-60199044D01*
X53032199Y-60329600D01*
X52955591Y-60467629D01*
X52904170Y-60560200D01*
X52385500Y-61493650D01*
X52136300Y-61497094D01*
X52041004Y-61497867D01*
X51969762Y-61497172D01*
X51921267Y-61494953D01*
X51894213Y-61491156D01*
X51887100Y-61486606D01*
X51893073Y-61474230D01*
X51910307Y-61441499D01*
X51937772Y-61390286D01*
X51974440Y-61322462D01*
X52019283Y-61239903D01*
X52071270Y-61144480D01*
X52129374Y-61038067D01*
X52192565Y-60922537D01*
X52259815Y-60799763D01*
X52330094Y-60671619D01*
X52402375Y-60539977D01*
X52475627Y-60406711D01*
X52548822Y-60273694D01*
X52620932Y-60142798D01*
X52690927Y-60015898D01*
X52757778Y-59894866D01*
X52820457Y-59781576D01*
X52877935Y-59677901D01*
X52929183Y-59585713D01*
X52973172Y-59506886D01*
X53008873Y-59443293D01*
X53027241Y-59410850D01*
X53051960Y-59370179D01*
X53073009Y-59340552D01*
X53086764Y-59326919D01*
X53088887Y-59326672D01*
X53102744Y-59336646D01*
G36*
X53102744Y-59336646D02*
G01*
X53131041Y-59359767D01*
X53169994Y-59392720D01*
X53215820Y-59432186D01*
X53264737Y-59474849D01*
X53312961Y-59517391D01*
X53356708Y-59556496D01*
X53392195Y-59588847D01*
X53415640Y-59611125D01*
X53423320Y-59619894D01*
X53417221Y-59631782D01*
X53399674Y-59664228D01*
X53371584Y-59715599D01*
X53333853Y-59784256D01*
X53287385Y-59868566D01*
X53233082Y-59966891D01*
X53171848Y-60077595D01*
X53104586Y-60199044D01*
X53032199Y-60329600D01*
X52955591Y-60467629D01*
X52904170Y-60560200D01*
X52385500Y-61493650D01*
X52136300Y-61497094D01*
X52041004Y-61497867D01*
X51969762Y-61497172D01*
X51921267Y-61494953D01*
X51894213Y-61491156D01*
X51887100Y-61486606D01*
X51893073Y-61474230D01*
X51910307Y-61441499D01*
X51937772Y-61390286D01*
X51974440Y-61322462D01*
X52019283Y-61239903D01*
X52071270Y-61144480D01*
X52129374Y-61038067D01*
X52192565Y-60922537D01*
X52259815Y-60799763D01*
X52330094Y-60671619D01*
X52402375Y-60539977D01*
X52475627Y-60406711D01*
X52548822Y-60273694D01*
X52620932Y-60142798D01*
X52690927Y-60015898D01*
X52757778Y-59894866D01*
X52820457Y-59781576D01*
X52877935Y-59677901D01*
X52929183Y-59585713D01*
X52973172Y-59506886D01*
X53008873Y-59443293D01*
X53027241Y-59410850D01*
X53051960Y-59370179D01*
X53073009Y-59340552D01*
X53086764Y-59326919D01*
X53088887Y-59326672D01*
X53102744Y-59336646D01*
G37*
X51579484Y-61502833D02*
X51673533Y-61503478D01*
X51752476Y-61504443D01*
X51813865Y-61505702D01*
X51855253Y-61507234D01*
X51874194Y-61509012D01*
X51875084Y-61509407D01*
X51882460Y-61521845D01*
X51901037Y-61554681D01*
X51929787Y-61606052D01*
X51967683Y-61674092D01*
X52013696Y-61756937D01*
X52066799Y-61852724D01*
X52125964Y-61959588D01*
X52190163Y-62075665D01*
X52258368Y-62199091D01*
X52329552Y-62328001D01*
X52402686Y-62460532D01*
X52476743Y-62594818D01*
X52550695Y-62728997D01*
X52623514Y-62861203D01*
X52694173Y-62989572D01*
X52761642Y-63112241D01*
X52824896Y-63227345D01*
X52882905Y-63333019D01*
X52934642Y-63427400D01*
X52979080Y-63508624D01*
X53015189Y-63574825D01*
X53041943Y-63624141D01*
X53058314Y-63654706D01*
X53063259Y-63664444D01*
X53063098Y-63669006D01*
X53057468Y-63672823D01*
X53044350Y-63675959D01*
X53021727Y-63678481D01*
X52987582Y-63680453D01*
X52939897Y-63681941D01*
X52876656Y-63683009D01*
X52795841Y-63683724D01*
X52695434Y-63684151D01*
X52573419Y-63684354D01*
X52446681Y-63684400D01*
X51822445Y-63684400D01*
X51794058Y-63655825D01*
X51777818Y-63634545D01*
X51753614Y-63596795D01*
X51724078Y-63547346D01*
X51691842Y-63490969D01*
X51659539Y-63432435D01*
X51629801Y-63376514D01*
X51605260Y-63327978D01*
X51588549Y-63291596D01*
X51582300Y-63272140D01*
X51582299Y-63272041D01*
X51585402Y-63264760D01*
X51596988Y-63259519D01*
X51620475Y-63255999D01*
X51659279Y-63253884D01*
X51716819Y-63252857D01*
X51791850Y-63252600D01*
X51861588Y-63252150D01*
X51921496Y-63250902D01*
X51967389Y-63249015D01*
X51995081Y-63246645D01*
X52001400Y-63244729D01*
X51995564Y-63231652D01*
X51979314Y-63199910D01*
X51954532Y-63153059D01*
X51923102Y-63094659D01*
X51886908Y-63028266D01*
X51883925Y-63022827D01*
X51766450Y-62808797D01*
X51556550Y-62808449D01*
X51472819Y-62807787D01*
X51410957Y-62805933D01*
X51367452Y-62802607D01*
X51338789Y-62797527D01*
X51321455Y-62790414D01*
X51320205Y-62789577D01*
X51304339Y-62771763D01*
X51280640Y-62736939D01*
X51251600Y-62689671D01*
X51219710Y-62634523D01*
X51187461Y-62576059D01*
X51157344Y-62518844D01*
X51131851Y-62467443D01*
X51113472Y-62426421D01*
X51104699Y-62400340D01*
X51104605Y-62394534D01*
X51111742Y-62387483D01*
X51129162Y-62382436D01*
X51160263Y-62379098D01*
X51208443Y-62377176D01*
X51277101Y-62376374D01*
X51315201Y-62376300D01*
X51383831Y-62375740D01*
X51442523Y-62374190D01*
X51487046Y-62371850D01*
X51513167Y-62368917D01*
X51518273Y-62366775D01*
X51512175Y-62353198D01*
X51495522Y-62321117D01*
X51470255Y-62274142D01*
X51438317Y-62215881D01*
X51401649Y-62149945D01*
X51400392Y-62147700D01*
X51283037Y-61938150D01*
X51064781Y-61931800D01*
X50981898Y-61928988D01*
X50920832Y-61925811D01*
X50877999Y-61921866D01*
X50849816Y-61916752D01*
X50832699Y-61910067D01*
X50826143Y-61905028D01*
X50813372Y-61887438D01*
X50790954Y-61851705D01*
X50761381Y-61801998D01*
X50727147Y-61742485D01*
X50700776Y-61695478D01*
X50595791Y-61506350D01*
X51231167Y-61503057D01*
X51355854Y-61502598D01*
X51472775Y-61502532D01*
X51579484Y-61502833D01*
G36*
X51579484Y-61502833D02*
G01*
X51673533Y-61503478D01*
X51752476Y-61504443D01*
X51813865Y-61505702D01*
X51855253Y-61507234D01*
X51874194Y-61509012D01*
X51875084Y-61509407D01*
X51882460Y-61521845D01*
X51901037Y-61554681D01*
X51929787Y-61606052D01*
X51967683Y-61674092D01*
X52013696Y-61756937D01*
X52066799Y-61852724D01*
X52125964Y-61959588D01*
X52190163Y-62075665D01*
X52258368Y-62199091D01*
X52329552Y-62328001D01*
X52402686Y-62460532D01*
X52476743Y-62594818D01*
X52550695Y-62728997D01*
X52623514Y-62861203D01*
X52694173Y-62989572D01*
X52761642Y-63112241D01*
X52824896Y-63227345D01*
X52882905Y-63333019D01*
X52934642Y-63427400D01*
X52979080Y-63508624D01*
X53015189Y-63574825D01*
X53041943Y-63624141D01*
X53058314Y-63654706D01*
X53063259Y-63664444D01*
X53063098Y-63669006D01*
X53057468Y-63672823D01*
X53044350Y-63675959D01*
X53021727Y-63678481D01*
X52987582Y-63680453D01*
X52939897Y-63681941D01*
X52876656Y-63683009D01*
X52795841Y-63683724D01*
X52695434Y-63684151D01*
X52573419Y-63684354D01*
X52446681Y-63684400D01*
X51822445Y-63684400D01*
X51794058Y-63655825D01*
X51777818Y-63634545D01*
X51753614Y-63596795D01*
X51724078Y-63547346D01*
X51691842Y-63490969D01*
X51659539Y-63432435D01*
X51629801Y-63376514D01*
X51605260Y-63327978D01*
X51588549Y-63291596D01*
X51582300Y-63272140D01*
X51582299Y-63272041D01*
X51585402Y-63264760D01*
X51596988Y-63259519D01*
X51620475Y-63255999D01*
X51659279Y-63253884D01*
X51716819Y-63252857D01*
X51791850Y-63252600D01*
X51861588Y-63252150D01*
X51921496Y-63250902D01*
X51967389Y-63249015D01*
X51995081Y-63246645D01*
X52001400Y-63244729D01*
X51995564Y-63231652D01*
X51979314Y-63199910D01*
X51954532Y-63153059D01*
X51923102Y-63094659D01*
X51886908Y-63028266D01*
X51883925Y-63022827D01*
X51766450Y-62808797D01*
X51556550Y-62808449D01*
X51472819Y-62807787D01*
X51410957Y-62805933D01*
X51367452Y-62802607D01*
X51338789Y-62797527D01*
X51321455Y-62790414D01*
X51320205Y-62789577D01*
X51304339Y-62771763D01*
X51280640Y-62736939D01*
X51251600Y-62689671D01*
X51219710Y-62634523D01*
X51187461Y-62576059D01*
X51157344Y-62518844D01*
X51131851Y-62467443D01*
X51113472Y-62426421D01*
X51104699Y-62400340D01*
X51104605Y-62394534D01*
X51111742Y-62387483D01*
X51129162Y-62382436D01*
X51160263Y-62379098D01*
X51208443Y-62377176D01*
X51277101Y-62376374D01*
X51315201Y-62376300D01*
X51383831Y-62375740D01*
X51442523Y-62374190D01*
X51487046Y-62371850D01*
X51513167Y-62368917D01*
X51518273Y-62366775D01*
X51512175Y-62353198D01*
X51495522Y-62321117D01*
X51470255Y-62274142D01*
X51438317Y-62215881D01*
X51401649Y-62149945D01*
X51400392Y-62147700D01*
X51283037Y-61938150D01*
X51064781Y-61931800D01*
X50981898Y-61928988D01*
X50920832Y-61925811D01*
X50877999Y-61921866D01*
X50849816Y-61916752D01*
X50832699Y-61910067D01*
X50826143Y-61905028D01*
X50813372Y-61887438D01*
X50790954Y-61851705D01*
X50761381Y-61801998D01*
X50727147Y-61742485D01*
X50700776Y-61695478D01*
X50595791Y-61506350D01*
X51231167Y-61503057D01*
X51355854Y-61502598D01*
X51472775Y-61502532D01*
X51579484Y-61502833D01*
G37*
X56395367Y-61534925D02*
X56390507Y-61562166D01*
X56377722Y-61605083D01*
X56359371Y-61656130D01*
X56350727Y-61677800D01*
X56263797Y-61858814D01*
X56152773Y-62038665D01*
X56018949Y-62215510D01*
X55863621Y-62387504D01*
X55824906Y-62426266D01*
X55617539Y-62612391D01*
X55393433Y-62779996D01*
X55153902Y-62928430D01*
X54900262Y-63057039D01*
X54633827Y-63165169D01*
X54355914Y-63252167D01*
X54067836Y-63317381D01*
X54010293Y-63327553D01*
X53957730Y-63335444D01*
X53892725Y-63343700D01*
X53819507Y-63351950D01*
X53742307Y-63359819D01*
X53665353Y-63366935D01*
X53592876Y-63372926D01*
X53529106Y-63377417D01*
X53478272Y-63380037D01*
X53444605Y-63380412D01*
X53432462Y-63378502D01*
X53425787Y-63366767D01*
X53407936Y-63334801D01*
X53380016Y-63284605D01*
X53343134Y-63218180D01*
X53298398Y-63137528D01*
X53246914Y-63044649D01*
X53189790Y-62941545D01*
X53128133Y-62830217D01*
X53063050Y-62712667D01*
X52995649Y-62590894D01*
X52927037Y-62466902D01*
X52858320Y-62342689D01*
X52790607Y-62220259D01*
X52725004Y-62101612D01*
X52662619Y-61988749D01*
X52604559Y-61883672D01*
X52551931Y-61788382D01*
X52505842Y-61704879D01*
X52467400Y-61635165D01*
X52437711Y-61581241D01*
X52417884Y-61545109D01*
X52409025Y-61528770D01*
X52408924Y-61528575D01*
X52394206Y-61500001D01*
X54394903Y-61500000D01*
X56395600Y-61500000D01*
X56395367Y-61534925D01*
G36*
X56395367Y-61534925D02*
G01*
X56390507Y-61562166D01*
X56377722Y-61605083D01*
X56359371Y-61656130D01*
X56350727Y-61677800D01*
X56263797Y-61858814D01*
X56152773Y-62038665D01*
X56018949Y-62215510D01*
X55863621Y-62387504D01*
X55824906Y-62426266D01*
X55617539Y-62612391D01*
X55393433Y-62779996D01*
X55153902Y-62928430D01*
X54900262Y-63057039D01*
X54633827Y-63165169D01*
X54355914Y-63252167D01*
X54067836Y-63317381D01*
X54010293Y-63327553D01*
X53957730Y-63335444D01*
X53892725Y-63343700D01*
X53819507Y-63351950D01*
X53742307Y-63359819D01*
X53665353Y-63366935D01*
X53592876Y-63372926D01*
X53529106Y-63377417D01*
X53478272Y-63380037D01*
X53444605Y-63380412D01*
X53432462Y-63378502D01*
X53425787Y-63366767D01*
X53407936Y-63334801D01*
X53380016Y-63284605D01*
X53343134Y-63218180D01*
X53298398Y-63137528D01*
X53246914Y-63044649D01*
X53189790Y-62941545D01*
X53128133Y-62830217D01*
X53063050Y-62712667D01*
X52995649Y-62590894D01*
X52927037Y-62466902D01*
X52858320Y-62342689D01*
X52790607Y-62220259D01*
X52725004Y-62101612D01*
X52662619Y-61988749D01*
X52604559Y-61883672D01*
X52551931Y-61788382D01*
X52505842Y-61704879D01*
X52467400Y-61635165D01*
X52437711Y-61581241D01*
X52417884Y-61545109D01*
X52409025Y-61528770D01*
X52408924Y-61528575D01*
X52394206Y-61500001D01*
X54394903Y-61500000D01*
X56395600Y-61500000D01*
X56395367Y-61534925D01*
G37*
X54447775Y-60303410D02*
X54525290Y-60305475D01*
X54744130Y-60312550D01*
X54509650Y-60829200D01*
X54262000Y-60823284D01*
X54162088Y-60820216D01*
X54083805Y-60815860D01*
X54023388Y-60809467D01*
X53977070Y-60800290D01*
X53941087Y-60787578D01*
X53911674Y-60770583D01*
X53885067Y-60748556D01*
X53884716Y-60748227D01*
X53849361Y-60699868D01*
X53836296Y-60644796D01*
X53844237Y-60585764D01*
X53871905Y-60525522D01*
X53918017Y-60466822D01*
X53981291Y-60412417D01*
X54060447Y-60365057D01*
X54064000Y-60363312D01*
X54114309Y-60340961D01*
X54164025Y-60324316D01*
X54217688Y-60312807D01*
X54279840Y-60305867D01*
X54355022Y-60302924D01*
X54447775Y-60303410D01*
G36*
X54447775Y-60303410D02*
G01*
X54525290Y-60305475D01*
X54744130Y-60312550D01*
X54509650Y-60829200D01*
X54262000Y-60823284D01*
X54162088Y-60820216D01*
X54083805Y-60815860D01*
X54023388Y-60809467D01*
X53977070Y-60800290D01*
X53941087Y-60787578D01*
X53911674Y-60770583D01*
X53885067Y-60748556D01*
X53884716Y-60748227D01*
X53849361Y-60699868D01*
X53836296Y-60644796D01*
X53844237Y-60585764D01*
X53871905Y-60525522D01*
X53918017Y-60466822D01*
X53981291Y-60412417D01*
X54060447Y-60365057D01*
X54064000Y-60363312D01*
X54114309Y-60340961D01*
X54164025Y-60324316D01*
X54217688Y-60312807D01*
X54279840Y-60305867D01*
X54355022Y-60302924D01*
X54447775Y-60303410D01*
G37*
D13*
X155600000Y-32350000D02*
X162500000Y-32350000D01*
X155600000Y-32350000D02*
X155600000Y-35650000D01*
X155600000Y-35650000D02*
X162500000Y-35650000D01*
X54550000Y-40160000D02*
X55950000Y-40160000D01*
X55950000Y-37840000D02*
X54050000Y-37840000D01*
X55087221Y-35990000D02*
X55412779Y-35990000D01*
X55087221Y-37010000D02*
X55412779Y-37010000D01*
M02*
