G04 #@! TF.GenerationSoftware,KiCad,Pcbnew,7.99.0-unknown-099e5dd9e7~172~ubuntu22.04.1*
G04 #@! TF.CreationDate,2023-11-16T11:57:36+01:00*
G04 #@! TF.ProjectId,emfi,656d6669-2e6b-4696-9361-645f70636258,0.1*
G04 #@! TF.SameCoordinates,Original*
G04 #@! TF.FileFunction,Paste,Bot*
G04 #@! TF.FilePolarity,Positive*
%FSLAX46Y46*%
G04 Gerber Fmt 4.6, Leading zero omitted, Abs format (unit mm)*
G04 Created by KiCad (PCBNEW 7.99.0-unknown-099e5dd9e7~172~ubuntu22.04.1) date 2023-11-16 11:57:36*
%MOMM*%
%LPD*%
G01*
G04 APERTURE LIST*
G04 Aperture macros list*
%AMRoundRect*
0 Rectangle with rounded corners*
0 $1 Rounding radius*
0 $2 $3 $4 $5 $6 $7 $8 $9 X,Y pos of 4 corners*
0 Add a 4 corners polygon primitive as box body*
4,1,4,$2,$3,$4,$5,$6,$7,$8,$9,$2,$3,0*
0 Add four circle primitives for the rounded corners*
1,1,$1+$1,$2,$3*
1,1,$1+$1,$4,$5*
1,1,$1+$1,$6,$7*
1,1,$1+$1,$8,$9*
0 Add four rect primitives between the rounded corners*
20,1,$1+$1,$2,$3,$4,$5,0*
20,1,$1+$1,$4,$5,$6,$7,0*
20,1,$1+$1,$6,$7,$8,$9,0*
20,1,$1+$1,$8,$9,$2,$3,0*%
G04 Aperture macros list end*
%ADD10RoundRect,0.218750X-0.218750X-0.256250X0.218750X-0.256250X0.218750X0.256250X-0.218750X0.256250X0*%
%ADD11RoundRect,0.218750X0.256250X-0.218750X0.256250X0.218750X-0.256250X0.218750X-0.256250X-0.218750X0*%
%ADD12RoundRect,0.218750X-0.256250X0.218750X-0.256250X-0.218750X0.256250X-0.218750X0.256250X0.218750X0*%
%ADD13RoundRect,0.218750X0.218750X0.256250X-0.218750X0.256250X-0.218750X-0.256250X0.218750X-0.256250X0*%
%ADD14R,1.500000X2.000000*%
%ADD15R,3.800000X2.000000*%
%ADD16R,1.550000X0.600000*%
G04 APERTURE END LIST*
D10*
X76212500Y-59250000D03*
X77787500Y-59250000D03*
X72962500Y-59250000D03*
X74537500Y-59250000D03*
X65762500Y-51250000D03*
X67337500Y-51250000D03*
D11*
X61500000Y-56387500D03*
X61500000Y-54812500D03*
X63050000Y-56387500D03*
X63050000Y-54812500D03*
D12*
X66800000Y-39412500D03*
X66800000Y-40987500D03*
D13*
X67337500Y-48150000D03*
X65762500Y-48150000D03*
D11*
X67700000Y-56387500D03*
X67700000Y-54812500D03*
D13*
X67337500Y-49700000D03*
X65762500Y-49700000D03*
D12*
X61200000Y-49562500D03*
X61200000Y-51137500D03*
D11*
X66150000Y-56387500D03*
X66150000Y-54812500D03*
D12*
X59650000Y-49562500D03*
X59650000Y-51137500D03*
D13*
X61537500Y-53300000D03*
X59962500Y-53300000D03*
D11*
X164250000Y-41537500D03*
X164250000Y-39962500D03*
D14*
X77811079Y-56914277D03*
X75511079Y-56914277D03*
D15*
X75511079Y-50614277D03*
D14*
X73211079Y-56914277D03*
D16*
X157050000Y-37905000D03*
X157050000Y-36635000D03*
X157050000Y-35365000D03*
X157050000Y-34095000D03*
X162450000Y-34095000D03*
X162450000Y-35365000D03*
X162450000Y-36635000D03*
X162450000Y-37905000D03*
D12*
X71000000Y-38712500D03*
X71000000Y-40287500D03*
M02*
