G04 #@! TF.GenerationSoftware,KiCad,Pcbnew,8.0.5-8.0.5-0~ubuntu22.04.1*
G04 #@! TF.CreationDate,2024-09-17T16:45:07+02:00*
G04 #@! TF.ProjectId,emfi,656d6669-2e6b-4696-9361-645f70636258,0.1*
G04 #@! TF.SameCoordinates,Original*
G04 #@! TF.FileFunction,Paste,Top*
G04 #@! TF.FilePolarity,Positive*
%FSLAX46Y46*%
G04 Gerber Fmt 4.6, Leading zero omitted, Abs format (unit mm)*
G04 Created by KiCad (PCBNEW 8.0.5-8.0.5-0~ubuntu22.04.1) date 2024-09-17 16:45:07*
%MOMM*%
%LPD*%
G01*
G04 APERTURE LIST*
G04 Aperture macros list*
%AMRoundRect*
0 Rectangle with rounded corners*
0 $1 Rounding radius*
0 $2 $3 $4 $5 $6 $7 $8 $9 X,Y pos of 4 corners*
0 Add a 4 corners polygon primitive as box body*
4,1,4,$2,$3,$4,$5,$6,$7,$8,$9,$2,$3,0*
0 Add four circle primitives for the rounded corners*
1,1,$1+$1,$2,$3*
1,1,$1+$1,$4,$5*
1,1,$1+$1,$6,$7*
1,1,$1+$1,$8,$9*
0 Add four rect primitives between the rounded corners*
20,1,$1+$1,$2,$3,$4,$5,0*
20,1,$1+$1,$4,$5,$6,$7,0*
20,1,$1+$1,$6,$7,$8,$9,0*
20,1,$1+$1,$8,$9,$2,$3,0*%
G04 Aperture macros list end*
%ADD10RoundRect,0.218750X-0.218750X-0.256250X0.218750X-0.256250X0.218750X0.256250X-0.218750X0.256250X0*%
%ADD11RoundRect,0.218750X0.218750X0.256250X-0.218750X0.256250X-0.218750X-0.256250X0.218750X-0.256250X0*%
%ADD12RoundRect,0.243750X0.243750X0.456250X-0.243750X0.456250X-0.243750X-0.456250X0.243750X-0.456250X0*%
%ADD13RoundRect,0.250000X1.450000X-0.312500X1.450000X0.312500X-1.450000X0.312500X-1.450000X-0.312500X0*%
%ADD14R,0.650000X1.060000*%
%ADD15R,2.540000X2.670000*%
%ADD16R,1.270000X0.762000*%
%ADD17R,0.250000X1.000000*%
%ADD18R,1.000000X0.250000*%
%ADD19R,0.450000X1.750000*%
%ADD20R,1.060000X0.650000*%
%ADD21RoundRect,0.218750X-0.256250X0.218750X-0.256250X-0.218750X0.256250X-0.218750X0.256250X0.218750X0*%
%ADD22R,1.800000X3.500000*%
%ADD23RoundRect,0.250000X0.650000X3.050000X-0.650000X3.050000X-0.650000X-3.050000X0.650000X-3.050000X0*%
%ADD24RoundRect,0.250000X-0.650000X-3.050000X0.650000X-3.050000X0.650000X3.050000X-0.650000X3.050000X0*%
%ADD25RoundRect,0.250000X3.050000X-0.650000X3.050000X0.650000X-3.050000X0.650000X-3.050000X-0.650000X0*%
%ADD26RoundRect,0.250000X-3.050000X0.650000X-3.050000X-0.650000X3.050000X-0.650000X3.050000X0.650000X0*%
%ADD27R,1.500000X2.000000*%
%ADD28R,3.800000X2.000000*%
%ADD29RoundRect,0.218750X0.256250X-0.218750X0.256250X0.218750X-0.256250X0.218750X-0.256250X-0.218750X0*%
%ADD30R,2.500000X1.000000*%
%ADD31R,6.400000X1.440000*%
%ADD32R,1.300000X0.450000*%
%ADD33R,3.500000X1.800000*%
%ADD34R,0.650000X0.400000*%
G04 APERTURE END LIST*
D10*
X52712500Y-34750000D03*
X54287500Y-34750000D03*
D11*
X74537500Y-59250000D03*
X72962500Y-59250000D03*
X77787500Y-59250000D03*
X76212500Y-59250000D03*
X78887500Y-48000000D03*
X77312500Y-48000000D03*
D10*
X73101500Y-42315607D03*
X74676500Y-42315607D03*
D11*
X74676500Y-40565607D03*
X73101500Y-40565607D03*
D10*
X73601500Y-36565607D03*
X75176500Y-36565607D03*
D12*
X75076500Y-38565607D03*
X73201500Y-38565607D03*
D13*
X77639000Y-46203107D03*
X77639000Y-41928107D03*
D14*
X74589000Y-44215607D03*
X73639000Y-44215607D03*
X72689000Y-44215607D03*
X72689000Y-46415607D03*
X74589000Y-46415607D03*
D15*
X77639000Y-37867107D03*
D16*
X77639000Y-40218107D03*
D17*
X60150000Y-58650000D03*
X60650000Y-58650000D03*
X61150000Y-58650000D03*
X61650000Y-58650000D03*
X62150000Y-58650000D03*
X62650000Y-58650000D03*
X63150000Y-58650000D03*
X63650000Y-58650000D03*
X64150000Y-58650000D03*
X64650000Y-58650000D03*
X65150000Y-58650000D03*
X65650000Y-58650000D03*
X66150000Y-58650000D03*
X66650000Y-58650000D03*
X67150000Y-58650000D03*
X67650000Y-58650000D03*
D18*
X69600000Y-56700000D03*
X69600000Y-56200000D03*
X69600000Y-55700000D03*
X69600000Y-55200000D03*
X69600000Y-54700000D03*
X69600000Y-54200000D03*
X69600000Y-53700000D03*
X69600000Y-53200000D03*
X69600000Y-52700000D03*
X69600000Y-52200000D03*
X69600000Y-51700000D03*
X69600000Y-51200000D03*
X69600000Y-50700000D03*
X69600000Y-50200000D03*
X69600000Y-49700000D03*
X69600000Y-49200000D03*
D17*
X67650000Y-47250000D03*
X67150000Y-47250000D03*
X66650000Y-47250000D03*
X66150000Y-47250000D03*
X65650000Y-47250000D03*
X65150000Y-47250000D03*
X64650000Y-47250000D03*
X64150000Y-47250000D03*
X63650000Y-47250000D03*
X63150000Y-47250000D03*
X62650000Y-47250000D03*
X62150000Y-47250000D03*
X61650000Y-47250000D03*
X61150000Y-47250000D03*
X60650000Y-47250000D03*
X60150000Y-47250000D03*
D18*
X58200000Y-49200000D03*
X58200000Y-49700000D03*
X58200000Y-50200000D03*
X58200000Y-50700000D03*
X58200000Y-51200000D03*
X58200000Y-51700000D03*
X58200000Y-52200000D03*
X58200000Y-52700000D03*
X58200000Y-53200000D03*
X58200000Y-53700000D03*
X58200000Y-54200000D03*
X58200000Y-54700000D03*
X58200000Y-55200000D03*
X58200000Y-55700000D03*
X58200000Y-56200000D03*
X58200000Y-56700000D03*
D19*
X59675000Y-43950000D03*
X60325000Y-43950000D03*
X60975000Y-43950000D03*
X61625000Y-43950000D03*
X62275000Y-43950000D03*
X62925000Y-43950000D03*
X63575000Y-43950000D03*
X64225000Y-43950000D03*
X64875000Y-43950000D03*
X65525000Y-43950000D03*
X66175000Y-43950000D03*
X66825000Y-43950000D03*
X67475000Y-43950000D03*
X68125000Y-43950000D03*
X68125000Y-36750000D03*
X67475000Y-36750000D03*
X66825000Y-36750000D03*
X66175000Y-36750000D03*
X65525000Y-36750000D03*
X64875000Y-36750000D03*
X64225000Y-36750000D03*
X63575000Y-36750000D03*
X62925000Y-36750000D03*
X62275000Y-36750000D03*
X61625000Y-36750000D03*
X60975000Y-36750000D03*
X60325000Y-36750000D03*
X59675000Y-36750000D03*
D20*
X83850000Y-38950000D03*
X83850000Y-38000000D03*
X83850000Y-37050000D03*
X81650000Y-37050000D03*
X81650000Y-38000000D03*
X81650000Y-38950000D03*
D21*
X52750000Y-49462500D03*
X52750000Y-51037500D03*
D11*
X87787500Y-58500000D03*
X86212500Y-58500000D03*
X91287500Y-58500000D03*
X89712500Y-58500000D03*
D22*
X113500000Y-44500000D03*
X113500000Y-49500000D03*
D23*
X110125000Y-55500000D03*
X104875000Y-55500000D03*
D22*
X101500000Y-49500000D03*
X101500000Y-44500000D03*
D23*
X110125000Y-38500000D03*
X104875000Y-38500000D03*
D24*
X96875000Y-55500000D03*
X102125000Y-55500000D03*
D22*
X105500000Y-44500000D03*
X105500000Y-49500000D03*
X97500000Y-44500000D03*
X97500000Y-49500000D03*
X109500000Y-49500000D03*
X109500000Y-44500000D03*
D23*
X102125000Y-38500000D03*
X96875000Y-38500000D03*
D25*
X134500000Y-45625000D03*
X134500000Y-40375000D03*
D26*
X119500000Y-32375000D03*
X119500000Y-37625000D03*
X127000000Y-32375000D03*
X127000000Y-37625000D03*
D25*
X119500000Y-61625000D03*
X119500000Y-56375000D03*
D26*
X142000000Y-32375000D03*
X142000000Y-37625000D03*
D25*
X142000000Y-61625000D03*
X142000000Y-56375000D03*
D26*
X119500000Y-48375000D03*
X119500000Y-53625000D03*
D25*
X142000000Y-45625000D03*
X142000000Y-40375000D03*
X149500000Y-61625000D03*
X149500000Y-56375000D03*
D26*
X127000000Y-48375000D03*
X127000000Y-53625000D03*
X149500000Y-48375000D03*
X149500000Y-53625000D03*
D25*
X119500000Y-45625000D03*
X119500000Y-40375000D03*
X134500000Y-61625000D03*
X134500000Y-56375000D03*
X127000000Y-45625000D03*
X127000000Y-40375000D03*
X149500000Y-45625000D03*
X149500000Y-40375000D03*
D26*
X149500000Y-32375000D03*
X149500000Y-37625000D03*
X134500000Y-32375000D03*
X134500000Y-37625000D03*
D25*
X127000000Y-61625000D03*
X127000000Y-56375000D03*
D26*
X134500000Y-48375000D03*
X134500000Y-53625000D03*
D27*
X73200000Y-56900000D03*
X75500000Y-56900000D03*
D28*
X75500000Y-50600000D03*
D27*
X77800000Y-56900000D03*
D21*
X66500000Y-61962500D03*
X66500000Y-63537500D03*
X63000000Y-61962500D03*
X63000000Y-63537500D03*
D29*
X61250000Y-63537500D03*
X61250000Y-61962500D03*
X64750000Y-63537500D03*
X64750000Y-61962500D03*
D30*
X51500000Y-39000000D03*
D31*
X46250000Y-34720000D03*
X46250000Y-43280000D03*
D32*
X48700000Y-53700000D03*
X48700000Y-54350000D03*
X48700000Y-55000000D03*
X48700000Y-55650000D03*
X48700000Y-56300000D03*
D30*
X167050000Y-40000000D03*
D31*
X172300000Y-44280000D03*
X172300000Y-35720000D03*
D29*
X51000000Y-51037500D03*
X51000000Y-49462500D03*
D30*
X167050000Y-54000000D03*
D31*
X172300000Y-58280000D03*
X172300000Y-49720000D03*
D26*
X142000000Y-48375000D03*
X142000000Y-53625000D03*
D33*
X157500000Y-34000000D03*
X162500000Y-34000000D03*
D34*
X54300000Y-38350000D03*
X54300000Y-39000000D03*
X54300000Y-39650000D03*
X56200000Y-39650000D03*
X56200000Y-38350000D03*
D10*
X54462500Y-36500000D03*
X56037500Y-36500000D03*
M02*
