G04 #@! TF.GenerationSoftware,KiCad,Pcbnew,5.0.2-bee76a0~70~ubuntu18.04.1*
G04 #@! TF.CreationDate,2019-10-29T17:05:40+01:00*
G04 #@! TF.ProjectId,emfi,656d6669-2e6b-4696-9361-645f70636258,0.1*
G04 #@! TF.SameCoordinates,Original*
G04 #@! TF.FileFunction,Profile,NP*
%FSLAX46Y46*%
G04 Gerber Fmt 4.6, Leading zero omitted, Abs format (unit mm)*
G04 Created by KiCad (PCBNEW 5.0.2-bee76a0~70~ubuntu18.04.1) date mar. 29 oct. 2019 17:05:40 CET*
%MOMM*%
%LPD*%
G01*
G04 APERTURE LIST*
%ADD10C,0.150000*%
G04 APERTURE END LIST*
D10*
X175500000Y-50440000D02*
X175500000Y-43560000D01*
X168500000Y-57560000D02*
X168500000Y-50440000D01*
X168500000Y-50440000D02*
X175500000Y-50440000D01*
X175500000Y-57560000D02*
X168500000Y-57560000D01*
X43000000Y-29000000D02*
X43000000Y-35440000D01*
X50050000Y-42560000D02*
X43000000Y-42560000D01*
X50050000Y-35440000D02*
X50050000Y-42560000D01*
X50050000Y-35440000D02*
X43000000Y-35440000D01*
X168500000Y-36440000D02*
X175500000Y-36440000D01*
X168500000Y-43560000D02*
X168500000Y-36440000D01*
X175500000Y-43560000D02*
X168500000Y-43560000D01*
X43000000Y-29000000D02*
X44000000Y-28000000D01*
X43000000Y-65000000D02*
X43000000Y-42560000D01*
X44000000Y-66000000D02*
X43000000Y-65000000D01*
X170000000Y-66000000D02*
X44000000Y-66000000D01*
X175500000Y-60500000D02*
X170000000Y-66000000D01*
X175500000Y-57560000D02*
X175500000Y-60500000D01*
X170000000Y-28000000D02*
X44000000Y-28000000D01*
X175500000Y-33500000D02*
X170000000Y-28000000D01*
X175500000Y-36440000D02*
X175500000Y-33500000D01*
M02*
