G04 #@! TF.GenerationSoftware,KiCad,Pcbnew,5.0.2-bee76a0~70~ubuntu18.04.1*
G04 #@! TF.CreationDate,2019-10-29T17:05:40+01:00*
G04 #@! TF.ProjectId,emfi,656d6669-2e6b-4696-9361-645f70636258,0.1*
G04 #@! TF.SameCoordinates,Original*
G04 #@! TF.FileFunction,Soldermask,Bot*
G04 #@! TF.FilePolarity,Negative*
%FSLAX46Y46*%
G04 Gerber Fmt 4.6, Leading zero omitted, Abs format (unit mm)*
G04 Created by KiCad (PCBNEW 5.0.2-bee76a0~70~ubuntu18.04.1) date mar. 29 oct. 2019 17:05:40 CET*
%MOMM*%
%LPD*%
G01*
G04 APERTURE LIST*
%ADD10C,0.100000*%
G04 APERTURE END LIST*
D10*
G36*
X73304591Y-58728085D02*
X73338569Y-58738393D01*
X73369887Y-58755133D01*
X73397339Y-58777661D01*
X73419867Y-58805113D01*
X73436607Y-58836431D01*
X73446915Y-58870409D01*
X73451000Y-58911890D01*
X73451000Y-59588110D01*
X73446915Y-59629591D01*
X73436607Y-59663569D01*
X73419867Y-59694887D01*
X73397339Y-59722339D01*
X73369887Y-59744867D01*
X73338569Y-59761607D01*
X73304591Y-59771915D01*
X73263110Y-59776000D01*
X72661890Y-59776000D01*
X72620409Y-59771915D01*
X72586431Y-59761607D01*
X72555113Y-59744867D01*
X72527661Y-59722339D01*
X72505133Y-59694887D01*
X72488393Y-59663569D01*
X72478085Y-59629591D01*
X72474000Y-59588110D01*
X72474000Y-58911890D01*
X72478085Y-58870409D01*
X72488393Y-58836431D01*
X72505133Y-58805113D01*
X72527661Y-58777661D01*
X72555113Y-58755133D01*
X72586431Y-58738393D01*
X72620409Y-58728085D01*
X72661890Y-58724000D01*
X73263110Y-58724000D01*
X73304591Y-58728085D01*
X73304591Y-58728085D01*
G37*
G36*
X76554591Y-58728085D02*
X76588569Y-58738393D01*
X76619887Y-58755133D01*
X76647339Y-58777661D01*
X76669867Y-58805113D01*
X76686607Y-58836431D01*
X76696915Y-58870409D01*
X76701000Y-58911890D01*
X76701000Y-59588110D01*
X76696915Y-59629591D01*
X76686607Y-59663569D01*
X76669867Y-59694887D01*
X76647339Y-59722339D01*
X76619887Y-59744867D01*
X76588569Y-59761607D01*
X76554591Y-59771915D01*
X76513110Y-59776000D01*
X75911890Y-59776000D01*
X75870409Y-59771915D01*
X75836431Y-59761607D01*
X75805113Y-59744867D01*
X75777661Y-59722339D01*
X75755133Y-59694887D01*
X75738393Y-59663569D01*
X75728085Y-59629591D01*
X75724000Y-59588110D01*
X75724000Y-58911890D01*
X75728085Y-58870409D01*
X75738393Y-58836431D01*
X75755133Y-58805113D01*
X75777661Y-58777661D01*
X75805113Y-58755133D01*
X75836431Y-58738393D01*
X75870409Y-58728085D01*
X75911890Y-58724000D01*
X76513110Y-58724000D01*
X76554591Y-58728085D01*
X76554591Y-58728085D01*
G37*
G36*
X78129591Y-58728085D02*
X78163569Y-58738393D01*
X78194887Y-58755133D01*
X78222339Y-58777661D01*
X78244867Y-58805113D01*
X78261607Y-58836431D01*
X78271915Y-58870409D01*
X78276000Y-58911890D01*
X78276000Y-59588110D01*
X78271915Y-59629591D01*
X78261607Y-59663569D01*
X78244867Y-59694887D01*
X78222339Y-59722339D01*
X78194887Y-59744867D01*
X78163569Y-59761607D01*
X78129591Y-59771915D01*
X78088110Y-59776000D01*
X77486890Y-59776000D01*
X77445409Y-59771915D01*
X77411431Y-59761607D01*
X77380113Y-59744867D01*
X77352661Y-59722339D01*
X77330133Y-59694887D01*
X77313393Y-59663569D01*
X77303085Y-59629591D01*
X77299000Y-59588110D01*
X77299000Y-58911890D01*
X77303085Y-58870409D01*
X77313393Y-58836431D01*
X77330133Y-58805113D01*
X77352661Y-58777661D01*
X77380113Y-58755133D01*
X77411431Y-58738393D01*
X77445409Y-58728085D01*
X77486890Y-58724000D01*
X78088110Y-58724000D01*
X78129591Y-58728085D01*
X78129591Y-58728085D01*
G37*
G36*
X74879591Y-58728085D02*
X74913569Y-58738393D01*
X74944887Y-58755133D01*
X74972339Y-58777661D01*
X74994867Y-58805113D01*
X75011607Y-58836431D01*
X75021915Y-58870409D01*
X75026000Y-58911890D01*
X75026000Y-59588110D01*
X75021915Y-59629591D01*
X75011607Y-59663569D01*
X74994867Y-59694887D01*
X74972339Y-59722339D01*
X74944887Y-59744867D01*
X74913569Y-59761607D01*
X74879591Y-59771915D01*
X74838110Y-59776000D01*
X74236890Y-59776000D01*
X74195409Y-59771915D01*
X74161431Y-59761607D01*
X74130113Y-59744867D01*
X74102661Y-59722339D01*
X74080133Y-59694887D01*
X74063393Y-59663569D01*
X74053085Y-59629591D01*
X74049000Y-59588110D01*
X74049000Y-58911890D01*
X74053085Y-58870409D01*
X74063393Y-58836431D01*
X74080133Y-58805113D01*
X74102661Y-58777661D01*
X74130113Y-58755133D01*
X74161431Y-58738393D01*
X74195409Y-58728085D01*
X74236890Y-58724000D01*
X74838110Y-58724000D01*
X74879591Y-58728085D01*
X74879591Y-58728085D01*
G37*
G36*
X45297714Y-58258058D02*
X45297717Y-58258059D01*
X45415719Y-58293854D01*
X45415721Y-58293855D01*
X45524471Y-58351983D01*
X45619790Y-58430210D01*
X45698017Y-58525529D01*
X45756145Y-58634279D01*
X45791942Y-58752286D01*
X45804028Y-58875000D01*
X45791942Y-58997714D01*
X45756145Y-59115721D01*
X45698017Y-59224471D01*
X45619790Y-59319790D01*
X45524471Y-59398017D01*
X45524469Y-59398018D01*
X45415719Y-59456146D01*
X45319683Y-59485278D01*
X45297714Y-59491942D01*
X45205747Y-59501000D01*
X44494253Y-59501000D01*
X44402286Y-59491942D01*
X44380317Y-59485278D01*
X44284281Y-59456146D01*
X44175531Y-59398018D01*
X44175529Y-59398017D01*
X44080210Y-59319790D01*
X44001983Y-59224471D01*
X43943855Y-59115721D01*
X43908058Y-58997714D01*
X43895972Y-58875000D01*
X43908058Y-58752286D01*
X43943855Y-58634279D01*
X44001983Y-58525529D01*
X44080210Y-58430210D01*
X44175529Y-58351983D01*
X44284279Y-58293855D01*
X44284281Y-58293854D01*
X44402283Y-58258059D01*
X44402286Y-58258058D01*
X44494253Y-58249000D01*
X45205747Y-58249000D01*
X45297714Y-58258058D01*
X45297714Y-58258058D01*
G37*
G36*
X47688413Y-57055525D02*
X47763456Y-57078290D01*
X47773425Y-57081314D01*
X47851774Y-57123193D01*
X47920448Y-57179552D01*
X47976807Y-57248226D01*
X48018686Y-57326575D01*
X48018687Y-57326579D01*
X48044475Y-57411587D01*
X48053182Y-57500000D01*
X48044475Y-57588413D01*
X48021710Y-57663456D01*
X48018686Y-57673425D01*
X47990191Y-57726735D01*
X47976807Y-57751775D01*
X47958871Y-57773629D01*
X47927850Y-57811429D01*
X47914239Y-57831798D01*
X47904862Y-57854437D01*
X47900081Y-57878471D01*
X47900081Y-57902975D01*
X47904861Y-57927008D01*
X47914238Y-57949648D01*
X47927852Y-57970022D01*
X47945179Y-57987350D01*
X47965553Y-58000964D01*
X47988192Y-58010341D01*
X48012226Y-58015122D01*
X48036730Y-58015122D01*
X48060763Y-58010342D01*
X48069212Y-58006843D01*
X48076599Y-58004602D01*
X48076601Y-58004601D01*
X48222878Y-57960229D01*
X48222881Y-57960228D01*
X48336882Y-57949000D01*
X48963118Y-57949000D01*
X49077119Y-57960228D01*
X49077122Y-57960229D01*
X49223399Y-58004601D01*
X49223401Y-58004602D01*
X49358210Y-58076659D01*
X49476369Y-58173631D01*
X49573341Y-58291790D01*
X49573342Y-58291792D01*
X49645399Y-58426601D01*
X49675408Y-58525529D01*
X49689772Y-58572881D01*
X49704754Y-58725000D01*
X49689772Y-58877119D01*
X49645398Y-59023401D01*
X49573341Y-59158210D01*
X49476369Y-59276369D01*
X49358210Y-59373341D01*
X49312043Y-59398018D01*
X49223399Y-59445399D01*
X49104352Y-59481511D01*
X49077119Y-59489772D01*
X48963118Y-59501000D01*
X48336882Y-59501000D01*
X48222881Y-59489772D01*
X48195648Y-59481511D01*
X48076601Y-59445399D01*
X47987957Y-59398018D01*
X47941790Y-59373341D01*
X47823631Y-59276369D01*
X47726659Y-59158210D01*
X47654602Y-59023401D01*
X47610228Y-58877119D01*
X47595246Y-58725000D01*
X47610228Y-58572881D01*
X47624592Y-58525529D01*
X47654601Y-58426601D01*
X47726658Y-58291792D01*
X47726659Y-58291790D01*
X47823632Y-58173630D01*
X47860105Y-58143696D01*
X47877432Y-58126369D01*
X47891046Y-58105994D01*
X47900423Y-58083355D01*
X47905203Y-58059322D01*
X47905203Y-58034817D01*
X47900422Y-58010784D01*
X47891044Y-57988145D01*
X47877430Y-57967771D01*
X47860103Y-57950444D01*
X47839728Y-57936830D01*
X47817089Y-57927453D01*
X47793056Y-57922673D01*
X47768551Y-57922673D01*
X47744524Y-57927453D01*
X47723489Y-57933833D01*
X47688411Y-57944475D01*
X47622158Y-57951000D01*
X47577842Y-57951000D01*
X47511587Y-57944475D01*
X47436544Y-57921710D01*
X47426575Y-57918686D01*
X47348226Y-57876807D01*
X47279552Y-57820448D01*
X47223193Y-57751774D01*
X47181314Y-57673425D01*
X47178290Y-57663456D01*
X47155525Y-57588413D01*
X47146818Y-57500000D01*
X47155525Y-57411587D01*
X47181313Y-57326579D01*
X47181314Y-57326575D01*
X47223193Y-57248226D01*
X47279552Y-57179552D01*
X47348226Y-57123193D01*
X47426575Y-57081314D01*
X47436544Y-57078290D01*
X47511587Y-57055525D01*
X47577842Y-57049000D01*
X47622158Y-57049000D01*
X47688413Y-57055525D01*
X47688413Y-57055525D01*
G37*
G36*
X168631552Y-57126331D02*
X168713625Y-57160327D01*
X168713626Y-57160328D01*
X168713629Y-57160329D01*
X168787496Y-57209686D01*
X168787500Y-57209689D01*
X168850311Y-57272500D01*
X168850313Y-57272503D01*
X168850314Y-57272504D01*
X168899671Y-57346371D01*
X168899672Y-57346374D01*
X168899673Y-57346375D01*
X168933669Y-57428448D01*
X168951000Y-57515579D01*
X168951000Y-57604421D01*
X168933669Y-57691552D01*
X168899673Y-57773625D01*
X168899671Y-57773629D01*
X168868387Y-57820448D01*
X168850311Y-57847500D01*
X168787500Y-57910311D01*
X168787497Y-57910313D01*
X168787496Y-57910314D01*
X168713629Y-57959671D01*
X168713626Y-57959672D01*
X168713625Y-57959673D01*
X168631552Y-57993669D01*
X168544421Y-58011000D01*
X168455579Y-58011000D01*
X168368448Y-57993669D01*
X168286375Y-57959673D01*
X168286374Y-57959672D01*
X168286371Y-57959671D01*
X168212504Y-57910314D01*
X168212503Y-57910313D01*
X168212500Y-57910311D01*
X168149689Y-57847500D01*
X168131613Y-57820448D01*
X168100329Y-57773629D01*
X168100327Y-57773625D01*
X168066331Y-57691552D01*
X168049000Y-57604421D01*
X168049000Y-57515579D01*
X168066331Y-57428448D01*
X168100327Y-57346375D01*
X168100328Y-57346374D01*
X168100329Y-57346371D01*
X168149686Y-57272504D01*
X168149687Y-57272503D01*
X168149689Y-57272500D01*
X168212500Y-57209689D01*
X168212504Y-57209686D01*
X168286371Y-57160329D01*
X168286374Y-57160328D01*
X168286375Y-57160327D01*
X168368448Y-57126331D01*
X168455579Y-57109000D01*
X168544421Y-57109000D01*
X168631552Y-57126331D01*
X168631552Y-57126331D01*
G37*
G36*
X78612079Y-57965277D02*
X77010079Y-57965277D01*
X77010079Y-55863277D01*
X78612079Y-55863277D01*
X78612079Y-57965277D01*
X78612079Y-57965277D01*
G37*
G36*
X74012079Y-57965277D02*
X72410079Y-57965277D01*
X72410079Y-55863277D01*
X74012079Y-55863277D01*
X74012079Y-57965277D01*
X74012079Y-57965277D01*
G37*
G36*
X76312079Y-57965277D02*
X74710079Y-57965277D01*
X74710079Y-55863277D01*
X76312079Y-55863277D01*
X76312079Y-57965277D01*
X76312079Y-57965277D01*
G37*
G36*
X56201000Y-57101000D02*
X54399000Y-57101000D01*
X54399000Y-55299000D01*
X56201000Y-55299000D01*
X56201000Y-57101000D01*
X56201000Y-57101000D01*
G37*
G36*
X68079591Y-55903085D02*
X68113569Y-55913393D01*
X68144887Y-55930133D01*
X68172339Y-55952661D01*
X68194867Y-55980113D01*
X68211607Y-56011431D01*
X68221915Y-56045409D01*
X68226000Y-56086890D01*
X68226000Y-56688110D01*
X68221915Y-56729591D01*
X68211607Y-56763569D01*
X68194867Y-56794887D01*
X68172339Y-56822339D01*
X68144887Y-56844867D01*
X68113569Y-56861607D01*
X68079591Y-56871915D01*
X68038110Y-56876000D01*
X67361890Y-56876000D01*
X67320409Y-56871915D01*
X67286431Y-56861607D01*
X67255113Y-56844867D01*
X67227661Y-56822339D01*
X67205133Y-56794887D01*
X67188393Y-56763569D01*
X67178085Y-56729591D01*
X67174000Y-56688110D01*
X67174000Y-56086890D01*
X67178085Y-56045409D01*
X67188393Y-56011431D01*
X67205133Y-55980113D01*
X67227661Y-55952661D01*
X67255113Y-55930133D01*
X67286431Y-55913393D01*
X67320409Y-55903085D01*
X67361890Y-55899000D01*
X68038110Y-55899000D01*
X68079591Y-55903085D01*
X68079591Y-55903085D01*
G37*
G36*
X66529591Y-55903085D02*
X66563569Y-55913393D01*
X66594887Y-55930133D01*
X66622339Y-55952661D01*
X66644867Y-55980113D01*
X66661607Y-56011431D01*
X66671915Y-56045409D01*
X66676000Y-56086890D01*
X66676000Y-56688110D01*
X66671915Y-56729591D01*
X66661607Y-56763569D01*
X66644867Y-56794887D01*
X66622339Y-56822339D01*
X66594887Y-56844867D01*
X66563569Y-56861607D01*
X66529591Y-56871915D01*
X66488110Y-56876000D01*
X65811890Y-56876000D01*
X65770409Y-56871915D01*
X65736431Y-56861607D01*
X65705113Y-56844867D01*
X65677661Y-56822339D01*
X65655133Y-56794887D01*
X65638393Y-56763569D01*
X65628085Y-56729591D01*
X65624000Y-56688110D01*
X65624000Y-56086890D01*
X65628085Y-56045409D01*
X65638393Y-56011431D01*
X65655133Y-55980113D01*
X65677661Y-55952661D01*
X65705113Y-55930133D01*
X65736431Y-55913393D01*
X65770409Y-55903085D01*
X65811890Y-55899000D01*
X66488110Y-55899000D01*
X66529591Y-55903085D01*
X66529591Y-55903085D01*
G37*
G36*
X61879591Y-55903085D02*
X61913569Y-55913393D01*
X61944887Y-55930133D01*
X61972339Y-55952661D01*
X61994867Y-55980113D01*
X62011607Y-56011431D01*
X62021915Y-56045409D01*
X62026000Y-56086890D01*
X62026000Y-56688110D01*
X62021915Y-56729591D01*
X62011607Y-56763569D01*
X61994867Y-56794887D01*
X61972339Y-56822339D01*
X61944887Y-56844867D01*
X61913569Y-56861607D01*
X61879591Y-56871915D01*
X61838110Y-56876000D01*
X61161890Y-56876000D01*
X61120409Y-56871915D01*
X61086431Y-56861607D01*
X61055113Y-56844867D01*
X61027661Y-56822339D01*
X61005133Y-56794887D01*
X60988393Y-56763569D01*
X60978085Y-56729591D01*
X60974000Y-56688110D01*
X60974000Y-56086890D01*
X60978085Y-56045409D01*
X60988393Y-56011431D01*
X61005133Y-55980113D01*
X61027661Y-55952661D01*
X61055113Y-55930133D01*
X61086431Y-55913393D01*
X61120409Y-55903085D01*
X61161890Y-55899000D01*
X61838110Y-55899000D01*
X61879591Y-55903085D01*
X61879591Y-55903085D01*
G37*
G36*
X63429591Y-55903085D02*
X63463569Y-55913393D01*
X63494887Y-55930133D01*
X63522339Y-55952661D01*
X63544867Y-55980113D01*
X63561607Y-56011431D01*
X63571915Y-56045409D01*
X63576000Y-56086890D01*
X63576000Y-56688110D01*
X63571915Y-56729591D01*
X63561607Y-56763569D01*
X63544867Y-56794887D01*
X63522339Y-56822339D01*
X63494887Y-56844867D01*
X63463569Y-56861607D01*
X63429591Y-56871915D01*
X63388110Y-56876000D01*
X62711890Y-56876000D01*
X62670409Y-56871915D01*
X62636431Y-56861607D01*
X62605113Y-56844867D01*
X62577661Y-56822339D01*
X62555133Y-56794887D01*
X62538393Y-56763569D01*
X62528085Y-56729591D01*
X62524000Y-56688110D01*
X62524000Y-56086890D01*
X62528085Y-56045409D01*
X62538393Y-56011431D01*
X62555133Y-55980113D01*
X62577661Y-55952661D01*
X62605113Y-55930133D01*
X62636431Y-55913393D01*
X62670409Y-55903085D01*
X62711890Y-55899000D01*
X63388110Y-55899000D01*
X63429591Y-55903085D01*
X63429591Y-55903085D01*
G37*
G36*
X61879591Y-54328085D02*
X61913569Y-54338393D01*
X61944887Y-54355133D01*
X61972339Y-54377661D01*
X61994867Y-54405113D01*
X62011607Y-54436431D01*
X62021915Y-54470409D01*
X62026000Y-54511890D01*
X62026000Y-55113110D01*
X62021915Y-55154591D01*
X62011607Y-55188569D01*
X61994867Y-55219887D01*
X61972339Y-55247339D01*
X61944887Y-55269867D01*
X61913569Y-55286607D01*
X61879591Y-55296915D01*
X61838110Y-55301000D01*
X61161890Y-55301000D01*
X61120409Y-55296915D01*
X61086431Y-55286607D01*
X61055113Y-55269867D01*
X61027661Y-55247339D01*
X61005133Y-55219887D01*
X60988393Y-55188569D01*
X60978085Y-55154591D01*
X60974000Y-55113110D01*
X60974000Y-54511890D01*
X60978085Y-54470409D01*
X60988393Y-54436431D01*
X61005133Y-54405113D01*
X61027661Y-54377661D01*
X61055113Y-54355133D01*
X61086431Y-54338393D01*
X61120409Y-54328085D01*
X61161890Y-54324000D01*
X61838110Y-54324000D01*
X61879591Y-54328085D01*
X61879591Y-54328085D01*
G37*
G36*
X63429591Y-54328085D02*
X63463569Y-54338393D01*
X63494887Y-54355133D01*
X63522339Y-54377661D01*
X63544867Y-54405113D01*
X63561607Y-54436431D01*
X63571915Y-54470409D01*
X63576000Y-54511890D01*
X63576000Y-55113110D01*
X63571915Y-55154591D01*
X63561607Y-55188569D01*
X63544867Y-55219887D01*
X63522339Y-55247339D01*
X63494887Y-55269867D01*
X63463569Y-55286607D01*
X63429591Y-55296915D01*
X63388110Y-55301000D01*
X62711890Y-55301000D01*
X62670409Y-55296915D01*
X62636431Y-55286607D01*
X62605113Y-55269867D01*
X62577661Y-55247339D01*
X62555133Y-55219887D01*
X62538393Y-55188569D01*
X62528085Y-55154591D01*
X62524000Y-55113110D01*
X62524000Y-54511890D01*
X62528085Y-54470409D01*
X62538393Y-54436431D01*
X62555133Y-54405113D01*
X62577661Y-54377661D01*
X62605113Y-54355133D01*
X62636431Y-54338393D01*
X62670409Y-54328085D01*
X62711890Y-54324000D01*
X63388110Y-54324000D01*
X63429591Y-54328085D01*
X63429591Y-54328085D01*
G37*
G36*
X66529591Y-54328085D02*
X66563569Y-54338393D01*
X66594887Y-54355133D01*
X66622339Y-54377661D01*
X66644867Y-54405113D01*
X66661607Y-54436431D01*
X66671915Y-54470409D01*
X66676000Y-54511890D01*
X66676000Y-55113110D01*
X66671915Y-55154591D01*
X66661607Y-55188569D01*
X66644867Y-55219887D01*
X66622339Y-55247339D01*
X66594887Y-55269867D01*
X66563569Y-55286607D01*
X66529591Y-55296915D01*
X66488110Y-55301000D01*
X65811890Y-55301000D01*
X65770409Y-55296915D01*
X65736431Y-55286607D01*
X65705113Y-55269867D01*
X65677661Y-55247339D01*
X65655133Y-55219887D01*
X65638393Y-55188569D01*
X65628085Y-55154591D01*
X65624000Y-55113110D01*
X65624000Y-54511890D01*
X65628085Y-54470409D01*
X65638393Y-54436431D01*
X65655133Y-54405113D01*
X65677661Y-54377661D01*
X65705113Y-54355133D01*
X65736431Y-54338393D01*
X65770409Y-54328085D01*
X65811890Y-54324000D01*
X66488110Y-54324000D01*
X66529591Y-54328085D01*
X66529591Y-54328085D01*
G37*
G36*
X68079591Y-54328085D02*
X68113569Y-54338393D01*
X68144887Y-54355133D01*
X68172339Y-54377661D01*
X68194867Y-54405113D01*
X68211607Y-54436431D01*
X68221915Y-54470409D01*
X68226000Y-54511890D01*
X68226000Y-55113110D01*
X68221915Y-55154591D01*
X68211607Y-55188569D01*
X68194867Y-55219887D01*
X68172339Y-55247339D01*
X68144887Y-55269867D01*
X68113569Y-55286607D01*
X68079591Y-55296915D01*
X68038110Y-55301000D01*
X67361890Y-55301000D01*
X67320409Y-55296915D01*
X67286431Y-55286607D01*
X67255113Y-55269867D01*
X67227661Y-55247339D01*
X67205133Y-55219887D01*
X67188393Y-55188569D01*
X67178085Y-55154591D01*
X67174000Y-55113110D01*
X67174000Y-54511890D01*
X67178085Y-54470409D01*
X67188393Y-54436431D01*
X67205133Y-54405113D01*
X67227661Y-54377661D01*
X67255113Y-54355133D01*
X67286431Y-54338393D01*
X67320409Y-54328085D01*
X67361890Y-54324000D01*
X68038110Y-54324000D01*
X68079591Y-54328085D01*
X68079591Y-54328085D01*
G37*
G36*
X55410442Y-52765518D02*
X55476627Y-52772037D01*
X55585730Y-52805133D01*
X55646467Y-52823557D01*
X55705503Y-52855113D01*
X55802991Y-52907222D01*
X55816961Y-52918687D01*
X55940186Y-53019814D01*
X55996234Y-53088110D01*
X56052778Y-53157009D01*
X56052779Y-53157011D01*
X56136443Y-53313533D01*
X56136443Y-53313534D01*
X56187963Y-53483373D01*
X56205359Y-53660000D01*
X56187963Y-53836627D01*
X56153616Y-53949853D01*
X56136443Y-54006467D01*
X56062348Y-54145087D01*
X56052778Y-54162991D01*
X56023448Y-54198729D01*
X55940186Y-54300186D01*
X55845781Y-54377661D01*
X55802991Y-54412778D01*
X55802989Y-54412779D01*
X55646467Y-54496443D01*
X55595544Y-54511890D01*
X55476627Y-54547963D01*
X55410442Y-54554482D01*
X55344260Y-54561000D01*
X55255740Y-54561000D01*
X55189558Y-54554482D01*
X55123373Y-54547963D01*
X55004456Y-54511890D01*
X54953533Y-54496443D01*
X54797011Y-54412779D01*
X54797009Y-54412778D01*
X54754219Y-54377661D01*
X54659814Y-54300186D01*
X54576552Y-54198729D01*
X54547222Y-54162991D01*
X54537652Y-54145087D01*
X54463557Y-54006467D01*
X54446384Y-53949853D01*
X54412037Y-53836627D01*
X54394641Y-53660000D01*
X54412037Y-53483373D01*
X54463557Y-53313534D01*
X54463557Y-53313533D01*
X54547221Y-53157011D01*
X54547222Y-53157009D01*
X54603766Y-53088110D01*
X54659814Y-53019814D01*
X54783039Y-52918687D01*
X54797009Y-52907222D01*
X54894497Y-52855113D01*
X54953533Y-52823557D01*
X55014270Y-52805133D01*
X55123373Y-52772037D01*
X55189557Y-52765519D01*
X55255740Y-52759000D01*
X55344260Y-52759000D01*
X55410442Y-52765518D01*
X55410442Y-52765518D01*
G37*
G36*
X61879591Y-52778085D02*
X61913569Y-52788393D01*
X61944887Y-52805133D01*
X61972339Y-52827661D01*
X61994867Y-52855113D01*
X62011607Y-52886431D01*
X62021915Y-52920409D01*
X62026000Y-52961890D01*
X62026000Y-53638110D01*
X62021915Y-53679591D01*
X62011607Y-53713569D01*
X61994867Y-53744887D01*
X61972339Y-53772339D01*
X61944887Y-53794867D01*
X61913569Y-53811607D01*
X61879591Y-53821915D01*
X61838110Y-53826000D01*
X61236890Y-53826000D01*
X61195409Y-53821915D01*
X61161431Y-53811607D01*
X61130113Y-53794867D01*
X61102661Y-53772339D01*
X61080133Y-53744887D01*
X61063393Y-53713569D01*
X61053085Y-53679591D01*
X61049000Y-53638110D01*
X61049000Y-52961890D01*
X61053085Y-52920409D01*
X61063393Y-52886431D01*
X61080133Y-52855113D01*
X61102661Y-52827661D01*
X61130113Y-52805133D01*
X61161431Y-52788393D01*
X61195409Y-52778085D01*
X61236890Y-52774000D01*
X61838110Y-52774000D01*
X61879591Y-52778085D01*
X61879591Y-52778085D01*
G37*
G36*
X60304591Y-52778085D02*
X60338569Y-52788393D01*
X60369887Y-52805133D01*
X60397339Y-52827661D01*
X60419867Y-52855113D01*
X60436607Y-52886431D01*
X60446915Y-52920409D01*
X60451000Y-52961890D01*
X60451000Y-53638110D01*
X60446915Y-53679591D01*
X60436607Y-53713569D01*
X60419867Y-53744887D01*
X60397339Y-53772339D01*
X60369887Y-53794867D01*
X60338569Y-53811607D01*
X60304591Y-53821915D01*
X60263110Y-53826000D01*
X59661890Y-53826000D01*
X59620409Y-53821915D01*
X59586431Y-53811607D01*
X59555113Y-53794867D01*
X59527661Y-53772339D01*
X59505133Y-53744887D01*
X59488393Y-53713569D01*
X59478085Y-53679591D01*
X59474000Y-53638110D01*
X59474000Y-52961890D01*
X59478085Y-52920409D01*
X59488393Y-52886431D01*
X59505133Y-52855113D01*
X59527661Y-52827661D01*
X59555113Y-52805133D01*
X59586431Y-52788393D01*
X59620409Y-52778085D01*
X59661890Y-52774000D01*
X60263110Y-52774000D01*
X60304591Y-52778085D01*
X60304591Y-52778085D01*
G37*
G36*
X163051000Y-53751000D02*
X158449000Y-53751000D01*
X158449000Y-51149000D01*
X163051000Y-51149000D01*
X163051000Y-53751000D01*
X163051000Y-53751000D01*
G37*
G36*
X164629591Y-52303085D02*
X164663569Y-52313393D01*
X164694887Y-52330133D01*
X164722339Y-52352661D01*
X164744867Y-52380113D01*
X164761607Y-52411431D01*
X164771915Y-52445409D01*
X164776000Y-52486890D01*
X164776000Y-53088110D01*
X164771915Y-53129591D01*
X164761607Y-53163569D01*
X164744867Y-53194887D01*
X164722339Y-53222339D01*
X164694887Y-53244867D01*
X164663569Y-53261607D01*
X164629591Y-53271915D01*
X164588110Y-53276000D01*
X163911890Y-53276000D01*
X163870409Y-53271915D01*
X163836431Y-53261607D01*
X163805113Y-53244867D01*
X163777661Y-53222339D01*
X163755133Y-53194887D01*
X163738393Y-53163569D01*
X163728085Y-53129591D01*
X163724000Y-53088110D01*
X163724000Y-52486890D01*
X163728085Y-52445409D01*
X163738393Y-52411431D01*
X163755133Y-52380113D01*
X163777661Y-52352661D01*
X163805113Y-52330133D01*
X163836431Y-52313393D01*
X163870409Y-52303085D01*
X163911890Y-52299000D01*
X164588110Y-52299000D01*
X164629591Y-52303085D01*
X164629591Y-52303085D01*
G37*
G36*
X49077119Y-50510228D02*
X49077122Y-50510229D01*
X49223399Y-50554601D01*
X49223401Y-50554602D01*
X49358210Y-50626659D01*
X49476369Y-50723631D01*
X49573341Y-50841790D01*
X49645398Y-50976599D01*
X49689772Y-51122881D01*
X49704754Y-51275000D01*
X49689772Y-51427119D01*
X49689771Y-51427122D01*
X49645721Y-51572339D01*
X49645398Y-51573401D01*
X49573341Y-51708210D01*
X49476369Y-51826369D01*
X49358210Y-51923341D01*
X49358208Y-51923342D01*
X49223399Y-51995399D01*
X49166509Y-52012656D01*
X49077119Y-52039772D01*
X48963118Y-52051000D01*
X48336882Y-52051000D01*
X48222881Y-52039772D01*
X48133491Y-52012656D01*
X48076601Y-51995399D01*
X48076599Y-51995398D01*
X48069208Y-51993156D01*
X48060754Y-51989655D01*
X48036721Y-51984877D01*
X48012216Y-51984879D01*
X47988183Y-51989662D01*
X47965545Y-51999041D01*
X47945172Y-52012656D01*
X47927846Y-52029985D01*
X47914234Y-52050361D01*
X47904858Y-52073001D01*
X47900080Y-52097034D01*
X47900082Y-52121539D01*
X47904865Y-52145572D01*
X47914244Y-52168210D01*
X47927850Y-52188571D01*
X47951496Y-52217385D01*
X47976807Y-52248225D01*
X47990191Y-52273265D01*
X48018686Y-52326575D01*
X48018687Y-52326579D01*
X48044475Y-52411587D01*
X48053182Y-52500000D01*
X48044475Y-52588413D01*
X48021710Y-52663456D01*
X48018686Y-52673425D01*
X47976807Y-52751774D01*
X47920448Y-52820448D01*
X47851774Y-52876807D01*
X47773425Y-52918686D01*
X47767745Y-52920409D01*
X47688413Y-52944475D01*
X47622158Y-52951000D01*
X47577842Y-52951000D01*
X47511587Y-52944475D01*
X47432255Y-52920409D01*
X47426575Y-52918686D01*
X47348226Y-52876807D01*
X47279552Y-52820448D01*
X47223193Y-52751774D01*
X47181314Y-52673425D01*
X47178290Y-52663456D01*
X47155525Y-52588413D01*
X47146818Y-52500000D01*
X47155525Y-52411587D01*
X47181313Y-52326579D01*
X47181314Y-52326575D01*
X47223193Y-52248226D01*
X47279552Y-52179552D01*
X47348226Y-52123193D01*
X47426575Y-52081314D01*
X47439719Y-52077327D01*
X47511587Y-52055525D01*
X47577842Y-52049000D01*
X47622158Y-52049000D01*
X47688411Y-52055525D01*
X47723489Y-52066167D01*
X47744524Y-52072547D01*
X47768551Y-52077327D01*
X47793055Y-52077327D01*
X47817089Y-52072547D01*
X47839728Y-52063170D01*
X47860103Y-52049556D01*
X47877430Y-52032230D01*
X47891044Y-52011855D01*
X47900422Y-51989216D01*
X47905203Y-51965183D01*
X47905203Y-51940679D01*
X47900423Y-51916645D01*
X47891046Y-51894006D01*
X47877432Y-51873631D01*
X47860105Y-51856304D01*
X47823632Y-51826370D01*
X47726659Y-51708210D01*
X47654602Y-51573401D01*
X47654280Y-51572339D01*
X47610229Y-51427122D01*
X47610228Y-51427119D01*
X47595246Y-51275000D01*
X47610228Y-51122881D01*
X47654602Y-50976599D01*
X47726659Y-50841790D01*
X47823631Y-50723631D01*
X47941790Y-50626659D01*
X48076599Y-50554602D01*
X48076601Y-50554601D01*
X48222878Y-50510229D01*
X48222881Y-50510228D01*
X48336882Y-50499000D01*
X48963118Y-50499000D01*
X49077119Y-50510228D01*
X49077119Y-50510228D01*
G37*
G36*
X67679591Y-50728085D02*
X67713569Y-50738393D01*
X67744887Y-50755133D01*
X67772339Y-50777661D01*
X67794867Y-50805113D01*
X67811607Y-50836431D01*
X67821915Y-50870409D01*
X67826000Y-50911890D01*
X67826000Y-51588110D01*
X67821915Y-51629591D01*
X67811607Y-51663569D01*
X67794867Y-51694887D01*
X67772339Y-51722339D01*
X67744887Y-51744867D01*
X67713569Y-51761607D01*
X67679591Y-51771915D01*
X67638110Y-51776000D01*
X67036890Y-51776000D01*
X66995409Y-51771915D01*
X66961431Y-51761607D01*
X66930113Y-51744867D01*
X66902661Y-51722339D01*
X66880133Y-51694887D01*
X66863393Y-51663569D01*
X66853085Y-51629591D01*
X66849000Y-51588110D01*
X66849000Y-50911890D01*
X66853085Y-50870409D01*
X66863393Y-50836431D01*
X66880133Y-50805113D01*
X66902661Y-50777661D01*
X66930113Y-50755133D01*
X66961431Y-50738393D01*
X66995409Y-50728085D01*
X67036890Y-50724000D01*
X67638110Y-50724000D01*
X67679591Y-50728085D01*
X67679591Y-50728085D01*
G37*
G36*
X66104591Y-50728085D02*
X66138569Y-50738393D01*
X66169887Y-50755133D01*
X66197339Y-50777661D01*
X66219867Y-50805113D01*
X66236607Y-50836431D01*
X66246915Y-50870409D01*
X66251000Y-50911890D01*
X66251000Y-51588110D01*
X66246915Y-51629591D01*
X66236607Y-51663569D01*
X66219867Y-51694887D01*
X66197339Y-51722339D01*
X66169887Y-51744867D01*
X66138569Y-51761607D01*
X66104591Y-51771915D01*
X66063110Y-51776000D01*
X65461890Y-51776000D01*
X65420409Y-51771915D01*
X65386431Y-51761607D01*
X65355113Y-51744867D01*
X65327661Y-51722339D01*
X65305133Y-51694887D01*
X65288393Y-51663569D01*
X65278085Y-51629591D01*
X65274000Y-51588110D01*
X65274000Y-50911890D01*
X65278085Y-50870409D01*
X65288393Y-50836431D01*
X65305133Y-50805113D01*
X65327661Y-50777661D01*
X65355113Y-50755133D01*
X65386431Y-50738393D01*
X65420409Y-50728085D01*
X65461890Y-50724000D01*
X66063110Y-50724000D01*
X66104591Y-50728085D01*
X66104591Y-50728085D01*
G37*
G36*
X45297714Y-50508058D02*
X45304871Y-50510229D01*
X45415719Y-50543854D01*
X45415721Y-50543855D01*
X45524471Y-50601983D01*
X45619790Y-50680210D01*
X45698017Y-50775529D01*
X45732303Y-50839673D01*
X45756146Y-50884281D01*
X45764521Y-50911890D01*
X45791942Y-51002286D01*
X45804028Y-51125000D01*
X45791942Y-51247714D01*
X45756145Y-51365721D01*
X45698017Y-51474471D01*
X45619790Y-51569790D01*
X45524471Y-51648017D01*
X45415721Y-51706145D01*
X45415719Y-51706146D01*
X45321139Y-51734836D01*
X45297714Y-51741942D01*
X45205747Y-51751000D01*
X44494253Y-51751000D01*
X44402286Y-51741942D01*
X44378861Y-51734836D01*
X44284281Y-51706146D01*
X44284279Y-51706145D01*
X44175529Y-51648017D01*
X44080210Y-51569790D01*
X44001983Y-51474471D01*
X43943855Y-51365721D01*
X43908058Y-51247714D01*
X43895972Y-51125000D01*
X43908058Y-51002286D01*
X43935479Y-50911890D01*
X43943854Y-50884281D01*
X43967697Y-50839673D01*
X44001983Y-50775529D01*
X44080210Y-50680210D01*
X44175529Y-50601983D01*
X44284279Y-50543855D01*
X44284281Y-50543854D01*
X44395129Y-50510229D01*
X44402286Y-50508058D01*
X44494253Y-50499000D01*
X45205747Y-50499000D01*
X45297714Y-50508058D01*
X45297714Y-50508058D01*
G37*
G36*
X164629591Y-50728085D02*
X164663569Y-50738393D01*
X164694887Y-50755133D01*
X164722339Y-50777661D01*
X164744867Y-50805113D01*
X164761607Y-50836431D01*
X164771915Y-50870409D01*
X164776000Y-50911890D01*
X164776000Y-51513110D01*
X164771915Y-51554591D01*
X164761607Y-51588569D01*
X164744867Y-51619887D01*
X164722339Y-51647339D01*
X164694887Y-51669867D01*
X164663569Y-51686607D01*
X164629591Y-51696915D01*
X164588110Y-51701000D01*
X163911890Y-51701000D01*
X163870409Y-51696915D01*
X163836431Y-51686607D01*
X163805113Y-51669867D01*
X163777661Y-51647339D01*
X163755133Y-51619887D01*
X163738393Y-51588569D01*
X163728085Y-51554591D01*
X163724000Y-51513110D01*
X163724000Y-50911890D01*
X163728085Y-50870409D01*
X163738393Y-50836431D01*
X163755133Y-50805113D01*
X163777661Y-50777661D01*
X163805113Y-50755133D01*
X163836431Y-50738393D01*
X163870409Y-50728085D01*
X163911890Y-50724000D01*
X164588110Y-50724000D01*
X164629591Y-50728085D01*
X164629591Y-50728085D01*
G37*
G36*
X77462079Y-51665277D02*
X73560079Y-51665277D01*
X73560079Y-49563277D01*
X77462079Y-49563277D01*
X77462079Y-51665277D01*
X77462079Y-51665277D01*
G37*
G36*
X61579591Y-50653085D02*
X61613569Y-50663393D01*
X61644887Y-50680133D01*
X61672339Y-50702661D01*
X61694867Y-50730113D01*
X61711607Y-50761431D01*
X61721915Y-50795409D01*
X61726000Y-50836890D01*
X61726000Y-51438110D01*
X61721915Y-51479591D01*
X61711607Y-51513569D01*
X61694867Y-51544887D01*
X61672339Y-51572339D01*
X61644887Y-51594867D01*
X61613569Y-51611607D01*
X61579591Y-51621915D01*
X61538110Y-51626000D01*
X60861890Y-51626000D01*
X60820409Y-51621915D01*
X60786431Y-51611607D01*
X60755113Y-51594867D01*
X60727661Y-51572339D01*
X60705133Y-51544887D01*
X60688393Y-51513569D01*
X60678085Y-51479591D01*
X60674000Y-51438110D01*
X60674000Y-50836890D01*
X60678085Y-50795409D01*
X60688393Y-50761431D01*
X60705133Y-50730113D01*
X60727661Y-50702661D01*
X60755113Y-50680133D01*
X60786431Y-50663393D01*
X60820409Y-50653085D01*
X60861890Y-50649000D01*
X61538110Y-50649000D01*
X61579591Y-50653085D01*
X61579591Y-50653085D01*
G37*
G36*
X60029591Y-50653085D02*
X60063569Y-50663393D01*
X60094887Y-50680133D01*
X60122339Y-50702661D01*
X60144867Y-50730113D01*
X60161607Y-50761431D01*
X60171915Y-50795409D01*
X60176000Y-50836890D01*
X60176000Y-51438110D01*
X60171915Y-51479591D01*
X60161607Y-51513569D01*
X60144867Y-51544887D01*
X60122339Y-51572339D01*
X60094887Y-51594867D01*
X60063569Y-51611607D01*
X60029591Y-51621915D01*
X59988110Y-51626000D01*
X59311890Y-51626000D01*
X59270409Y-51621915D01*
X59236431Y-51611607D01*
X59205113Y-51594867D01*
X59177661Y-51572339D01*
X59155133Y-51544887D01*
X59138393Y-51513569D01*
X59128085Y-51479591D01*
X59124000Y-51438110D01*
X59124000Y-50836890D01*
X59128085Y-50795409D01*
X59138393Y-50761431D01*
X59155133Y-50730113D01*
X59177661Y-50702661D01*
X59205113Y-50680133D01*
X59236431Y-50663393D01*
X59270409Y-50653085D01*
X59311890Y-50649000D01*
X59988110Y-50649000D01*
X60029591Y-50653085D01*
X60029591Y-50653085D01*
G37*
G36*
X168631552Y-50006331D02*
X168713625Y-50040327D01*
X168713626Y-50040328D01*
X168713629Y-50040329D01*
X168787496Y-50089686D01*
X168787500Y-50089689D01*
X168850311Y-50152500D01*
X168850313Y-50152503D01*
X168850314Y-50152504D01*
X168899671Y-50226371D01*
X168899672Y-50226374D01*
X168899673Y-50226375D01*
X168933669Y-50308448D01*
X168951000Y-50395579D01*
X168951000Y-50484421D01*
X168933669Y-50571552D01*
X168899673Y-50653625D01*
X168899671Y-50653629D01*
X168852650Y-50724000D01*
X168850311Y-50727500D01*
X168787500Y-50790311D01*
X168787497Y-50790313D01*
X168787496Y-50790314D01*
X168713629Y-50839671D01*
X168713626Y-50839672D01*
X168713625Y-50839673D01*
X168631552Y-50873669D01*
X168544421Y-50891000D01*
X168455579Y-50891000D01*
X168368448Y-50873669D01*
X168286375Y-50839673D01*
X168286374Y-50839672D01*
X168286371Y-50839671D01*
X168212504Y-50790314D01*
X168212503Y-50790313D01*
X168212500Y-50790311D01*
X168149689Y-50727500D01*
X168147350Y-50724000D01*
X168100329Y-50653629D01*
X168100327Y-50653625D01*
X168066331Y-50571552D01*
X168049000Y-50484421D01*
X168049000Y-50395579D01*
X168066331Y-50308448D01*
X168100327Y-50226375D01*
X168100328Y-50226374D01*
X168100329Y-50226371D01*
X168149686Y-50152504D01*
X168149687Y-50152503D01*
X168149689Y-50152500D01*
X168212500Y-50089689D01*
X168212504Y-50089686D01*
X168286371Y-50040329D01*
X168286374Y-50040328D01*
X168286375Y-50040327D01*
X168368448Y-50006331D01*
X168455579Y-49989000D01*
X168544421Y-49989000D01*
X168631552Y-50006331D01*
X168631552Y-50006331D01*
G37*
G36*
X67679591Y-49178085D02*
X67713569Y-49188393D01*
X67744887Y-49205133D01*
X67772339Y-49227661D01*
X67794867Y-49255113D01*
X67811607Y-49286431D01*
X67821915Y-49320409D01*
X67826000Y-49361890D01*
X67826000Y-50038110D01*
X67821915Y-50079591D01*
X67811607Y-50113569D01*
X67794867Y-50144887D01*
X67772339Y-50172339D01*
X67744887Y-50194867D01*
X67713569Y-50211607D01*
X67679591Y-50221915D01*
X67638110Y-50226000D01*
X67036890Y-50226000D01*
X66995409Y-50221915D01*
X66961431Y-50211607D01*
X66930113Y-50194867D01*
X66902661Y-50172339D01*
X66880133Y-50144887D01*
X66863393Y-50113569D01*
X66853085Y-50079591D01*
X66849000Y-50038110D01*
X66849000Y-49361890D01*
X66853085Y-49320409D01*
X66863393Y-49286431D01*
X66880133Y-49255113D01*
X66902661Y-49227661D01*
X66930113Y-49205133D01*
X66961431Y-49188393D01*
X66995409Y-49178085D01*
X67036890Y-49174000D01*
X67638110Y-49174000D01*
X67679591Y-49178085D01*
X67679591Y-49178085D01*
G37*
G36*
X66104591Y-49178085D02*
X66138569Y-49188393D01*
X66169887Y-49205133D01*
X66197339Y-49227661D01*
X66219867Y-49255113D01*
X66236607Y-49286431D01*
X66246915Y-49320409D01*
X66251000Y-49361890D01*
X66251000Y-50038110D01*
X66246915Y-50079591D01*
X66236607Y-50113569D01*
X66219867Y-50144887D01*
X66197339Y-50172339D01*
X66169887Y-50194867D01*
X66138569Y-50211607D01*
X66104591Y-50221915D01*
X66063110Y-50226000D01*
X65461890Y-50226000D01*
X65420409Y-50221915D01*
X65386431Y-50211607D01*
X65355113Y-50194867D01*
X65327661Y-50172339D01*
X65305133Y-50144887D01*
X65288393Y-50113569D01*
X65278085Y-50079591D01*
X65274000Y-50038110D01*
X65274000Y-49361890D01*
X65278085Y-49320409D01*
X65288393Y-49286431D01*
X65305133Y-49255113D01*
X65327661Y-49227661D01*
X65355113Y-49205133D01*
X65386431Y-49188393D01*
X65420409Y-49178085D01*
X65461890Y-49174000D01*
X66063110Y-49174000D01*
X66104591Y-49178085D01*
X66104591Y-49178085D01*
G37*
G36*
X61579591Y-49078085D02*
X61613569Y-49088393D01*
X61644887Y-49105133D01*
X61672339Y-49127661D01*
X61694867Y-49155113D01*
X61711607Y-49186431D01*
X61721915Y-49220409D01*
X61726000Y-49261890D01*
X61726000Y-49863110D01*
X61721915Y-49904591D01*
X61711607Y-49938569D01*
X61694867Y-49969887D01*
X61672339Y-49997339D01*
X61644887Y-50019867D01*
X61613569Y-50036607D01*
X61579591Y-50046915D01*
X61538110Y-50051000D01*
X60861890Y-50051000D01*
X60820409Y-50046915D01*
X60786431Y-50036607D01*
X60755113Y-50019867D01*
X60727661Y-49997339D01*
X60705133Y-49969887D01*
X60688393Y-49938569D01*
X60678085Y-49904591D01*
X60674000Y-49863110D01*
X60674000Y-49261890D01*
X60678085Y-49220409D01*
X60688393Y-49186431D01*
X60705133Y-49155113D01*
X60727661Y-49127661D01*
X60755113Y-49105133D01*
X60786431Y-49088393D01*
X60820409Y-49078085D01*
X60861890Y-49074000D01*
X61538110Y-49074000D01*
X61579591Y-49078085D01*
X61579591Y-49078085D01*
G37*
G36*
X60029591Y-49078085D02*
X60063569Y-49088393D01*
X60094887Y-49105133D01*
X60122339Y-49127661D01*
X60144867Y-49155113D01*
X60161607Y-49186431D01*
X60171915Y-49220409D01*
X60176000Y-49261890D01*
X60176000Y-49863110D01*
X60171915Y-49904591D01*
X60161607Y-49938569D01*
X60144867Y-49969887D01*
X60122339Y-49997339D01*
X60094887Y-50019867D01*
X60063569Y-50036607D01*
X60029591Y-50046915D01*
X59988110Y-50051000D01*
X59311890Y-50051000D01*
X59270409Y-50046915D01*
X59236431Y-50036607D01*
X59205113Y-50019867D01*
X59177661Y-49997339D01*
X59155133Y-49969887D01*
X59138393Y-49938569D01*
X59128085Y-49904591D01*
X59124000Y-49863110D01*
X59124000Y-49261890D01*
X59128085Y-49220409D01*
X59138393Y-49186431D01*
X59155133Y-49155113D01*
X59177661Y-49127661D01*
X59205113Y-49105133D01*
X59236431Y-49088393D01*
X59270409Y-49078085D01*
X59311890Y-49074000D01*
X59988110Y-49074000D01*
X60029591Y-49078085D01*
X60029591Y-49078085D01*
G37*
G36*
X66104591Y-47628085D02*
X66138569Y-47638393D01*
X66169887Y-47655133D01*
X66197339Y-47677661D01*
X66219867Y-47705113D01*
X66236607Y-47736431D01*
X66246915Y-47770409D01*
X66251000Y-47811890D01*
X66251000Y-48488110D01*
X66246915Y-48529591D01*
X66236607Y-48563569D01*
X66219867Y-48594887D01*
X66197339Y-48622339D01*
X66169887Y-48644867D01*
X66138569Y-48661607D01*
X66104591Y-48671915D01*
X66063110Y-48676000D01*
X65461890Y-48676000D01*
X65420409Y-48671915D01*
X65386431Y-48661607D01*
X65355113Y-48644867D01*
X65327661Y-48622339D01*
X65305133Y-48594887D01*
X65288393Y-48563569D01*
X65278085Y-48529591D01*
X65274000Y-48488110D01*
X65274000Y-47811890D01*
X65278085Y-47770409D01*
X65288393Y-47736431D01*
X65305133Y-47705113D01*
X65327661Y-47677661D01*
X65355113Y-47655133D01*
X65386431Y-47638393D01*
X65420409Y-47628085D01*
X65461890Y-47624000D01*
X66063110Y-47624000D01*
X66104591Y-47628085D01*
X66104591Y-47628085D01*
G37*
G36*
X67679591Y-47628085D02*
X67713569Y-47638393D01*
X67744887Y-47655133D01*
X67772339Y-47677661D01*
X67794867Y-47705113D01*
X67811607Y-47736431D01*
X67821915Y-47770409D01*
X67826000Y-47811890D01*
X67826000Y-48488110D01*
X67821915Y-48529591D01*
X67811607Y-48563569D01*
X67794867Y-48594887D01*
X67772339Y-48622339D01*
X67744887Y-48644867D01*
X67713569Y-48661607D01*
X67679591Y-48671915D01*
X67638110Y-48676000D01*
X67036890Y-48676000D01*
X66995409Y-48671915D01*
X66961431Y-48661607D01*
X66930113Y-48644867D01*
X66902661Y-48622339D01*
X66880133Y-48594887D01*
X66863393Y-48563569D01*
X66853085Y-48529591D01*
X66849000Y-48488110D01*
X66849000Y-47811890D01*
X66853085Y-47770409D01*
X66863393Y-47736431D01*
X66880133Y-47705113D01*
X66902661Y-47677661D01*
X66930113Y-47655133D01*
X66961431Y-47638393D01*
X66995409Y-47628085D01*
X67036890Y-47624000D01*
X67638110Y-47624000D01*
X67679591Y-47628085D01*
X67679591Y-47628085D01*
G37*
G36*
X161861689Y-45703706D02*
X162005040Y-45717825D01*
X162250280Y-45792218D01*
X162250282Y-45792219D01*
X162476296Y-45913026D01*
X162674397Y-46075603D01*
X162836974Y-46273704D01*
X162836975Y-46273706D01*
X162957782Y-46499720D01*
X163032175Y-46744960D01*
X163057294Y-47000000D01*
X163032175Y-47255040D01*
X162957782Y-47500280D01*
X162957781Y-47500282D01*
X162836974Y-47726296D01*
X162674397Y-47924397D01*
X162476296Y-48086974D01*
X162476294Y-48086975D01*
X162250280Y-48207782D01*
X162005040Y-48282175D01*
X161861689Y-48296294D01*
X161813906Y-48301000D01*
X159686094Y-48301000D01*
X159638311Y-48296294D01*
X159494960Y-48282175D01*
X159249720Y-48207782D01*
X159023706Y-48086975D01*
X159023704Y-48086974D01*
X158825603Y-47924397D01*
X158663026Y-47726296D01*
X158542219Y-47500282D01*
X158542218Y-47500280D01*
X158467825Y-47255040D01*
X158442706Y-47000000D01*
X158467825Y-46744960D01*
X158542218Y-46499720D01*
X158663025Y-46273706D01*
X158663026Y-46273704D01*
X158825603Y-46075603D01*
X159023704Y-45913026D01*
X159249718Y-45792219D01*
X159249720Y-45792218D01*
X159494960Y-45717825D01*
X159638311Y-45703706D01*
X159686094Y-45699000D01*
X161813906Y-45699000D01*
X161861689Y-45703706D01*
X161861689Y-45703706D01*
G37*
G36*
X168631552Y-43126331D02*
X168713625Y-43160327D01*
X168713626Y-43160328D01*
X168713629Y-43160329D01*
X168787496Y-43209686D01*
X168787500Y-43209689D01*
X168850311Y-43272500D01*
X168850313Y-43272503D01*
X168850314Y-43272504D01*
X168899671Y-43346371D01*
X168899672Y-43346374D01*
X168899673Y-43346375D01*
X168933669Y-43428448D01*
X168951000Y-43515579D01*
X168951000Y-43604421D01*
X168933669Y-43691552D01*
X168899673Y-43773625D01*
X168899671Y-43773629D01*
X168850314Y-43847496D01*
X168850311Y-43847500D01*
X168787500Y-43910311D01*
X168787497Y-43910313D01*
X168787496Y-43910314D01*
X168713629Y-43959671D01*
X168713626Y-43959672D01*
X168713625Y-43959673D01*
X168631552Y-43993669D01*
X168544421Y-44011000D01*
X168455579Y-44011000D01*
X168368448Y-43993669D01*
X168286375Y-43959673D01*
X168286374Y-43959672D01*
X168286371Y-43959671D01*
X168212504Y-43910314D01*
X168212503Y-43910313D01*
X168212500Y-43910311D01*
X168149689Y-43847500D01*
X168149686Y-43847496D01*
X168100329Y-43773629D01*
X168100327Y-43773625D01*
X168066331Y-43691552D01*
X168049000Y-43604421D01*
X168049000Y-43515579D01*
X168066331Y-43428448D01*
X168100327Y-43346375D01*
X168100328Y-43346374D01*
X168100329Y-43346371D01*
X168149686Y-43272504D01*
X168149687Y-43272503D01*
X168149689Y-43272500D01*
X168212500Y-43209689D01*
X168212504Y-43209686D01*
X168286371Y-43160329D01*
X168286374Y-43160328D01*
X168286375Y-43160327D01*
X168368448Y-43126331D01*
X168455579Y-43109000D01*
X168544421Y-43109000D01*
X168631552Y-43126331D01*
X168631552Y-43126331D01*
G37*
G36*
X50181552Y-42126331D02*
X50263625Y-42160327D01*
X50263626Y-42160328D01*
X50263629Y-42160329D01*
X50337496Y-42209686D01*
X50337500Y-42209689D01*
X50400311Y-42272500D01*
X50400313Y-42272503D01*
X50400314Y-42272504D01*
X50449671Y-42346371D01*
X50449672Y-42346374D01*
X50449673Y-42346375D01*
X50483669Y-42428448D01*
X50501000Y-42515579D01*
X50501000Y-42604421D01*
X50483669Y-42691552D01*
X50456235Y-42757782D01*
X50449671Y-42773629D01*
X50410551Y-42832175D01*
X50400311Y-42847500D01*
X50337500Y-42910311D01*
X50337497Y-42910313D01*
X50337496Y-42910314D01*
X50263629Y-42959671D01*
X50263626Y-42959672D01*
X50263625Y-42959673D01*
X50181552Y-42993669D01*
X50094421Y-43011000D01*
X50005579Y-43011000D01*
X49918448Y-42993669D01*
X49836375Y-42959673D01*
X49836374Y-42959672D01*
X49836371Y-42959671D01*
X49762504Y-42910314D01*
X49762503Y-42910313D01*
X49762500Y-42910311D01*
X49699689Y-42847500D01*
X49689449Y-42832175D01*
X49650329Y-42773629D01*
X49643765Y-42757782D01*
X49616331Y-42691552D01*
X49599000Y-42604421D01*
X49599000Y-42515579D01*
X49616331Y-42428448D01*
X49650327Y-42346375D01*
X49650328Y-42346374D01*
X49650329Y-42346371D01*
X49699686Y-42272504D01*
X49699687Y-42272503D01*
X49699689Y-42272500D01*
X49762500Y-42209689D01*
X49762504Y-42209686D01*
X49836371Y-42160329D01*
X49836374Y-42160328D01*
X49836375Y-42160327D01*
X49918448Y-42126331D01*
X50005579Y-42109000D01*
X50094421Y-42109000D01*
X50181552Y-42126331D01*
X50181552Y-42126331D01*
G37*
G36*
X161861689Y-40253706D02*
X162005040Y-40267825D01*
X162250280Y-40342218D01*
X162250282Y-40342219D01*
X162476296Y-40463026D01*
X162674397Y-40625603D01*
X162836974Y-40823704D01*
X162836975Y-40823706D01*
X162957782Y-41049720D01*
X163032175Y-41294960D01*
X163057294Y-41550000D01*
X163032175Y-41805040D01*
X162957782Y-42050280D01*
X162957781Y-42050282D01*
X162836974Y-42276296D01*
X162674397Y-42474397D01*
X162476296Y-42636974D01*
X162476294Y-42636975D01*
X162250280Y-42757782D01*
X162005040Y-42832175D01*
X161861689Y-42846294D01*
X161813906Y-42851000D01*
X159686094Y-42851000D01*
X159638311Y-42846294D01*
X159494960Y-42832175D01*
X159249720Y-42757782D01*
X159023706Y-42636975D01*
X159023704Y-42636974D01*
X158825603Y-42474397D01*
X158663026Y-42276296D01*
X158542219Y-42050282D01*
X158542218Y-42050280D01*
X158467825Y-41805040D01*
X158442706Y-41550000D01*
X158467825Y-41294960D01*
X158542218Y-41049720D01*
X158663025Y-40823706D01*
X158663026Y-40823704D01*
X158825603Y-40625603D01*
X159023704Y-40463026D01*
X159249718Y-40342219D01*
X159249720Y-40342218D01*
X159494960Y-40267825D01*
X159638311Y-40253706D01*
X159686094Y-40249000D01*
X161813906Y-40249000D01*
X161861689Y-40253706D01*
X161861689Y-40253706D01*
G37*
G36*
X67179591Y-40503085D02*
X67213569Y-40513393D01*
X67244887Y-40530133D01*
X67272339Y-40552661D01*
X67294867Y-40580113D01*
X67311607Y-40611431D01*
X67321915Y-40645409D01*
X67326000Y-40686890D01*
X67326000Y-41288110D01*
X67321915Y-41329591D01*
X67311607Y-41363569D01*
X67294867Y-41394887D01*
X67272339Y-41422339D01*
X67244887Y-41444867D01*
X67213569Y-41461607D01*
X67179591Y-41471915D01*
X67138110Y-41476000D01*
X66461890Y-41476000D01*
X66420409Y-41471915D01*
X66386431Y-41461607D01*
X66355113Y-41444867D01*
X66327661Y-41422339D01*
X66305133Y-41394887D01*
X66288393Y-41363569D01*
X66278085Y-41329591D01*
X66274000Y-41288110D01*
X66274000Y-40686890D01*
X66278085Y-40645409D01*
X66288393Y-40611431D01*
X66305133Y-40580113D01*
X66327661Y-40552661D01*
X66355113Y-40530133D01*
X66386431Y-40513393D01*
X66420409Y-40503085D01*
X66461890Y-40499000D01*
X67138110Y-40499000D01*
X67179591Y-40503085D01*
X67179591Y-40503085D01*
G37*
G36*
X67179591Y-38928085D02*
X67213569Y-38938393D01*
X67244887Y-38955133D01*
X67272339Y-38977661D01*
X67294867Y-39005113D01*
X67311607Y-39036431D01*
X67321915Y-39070409D01*
X67326000Y-39111890D01*
X67326000Y-39713110D01*
X67321915Y-39754591D01*
X67311607Y-39788569D01*
X67294867Y-39819887D01*
X67272339Y-39847339D01*
X67244887Y-39869867D01*
X67213569Y-39886607D01*
X67179591Y-39896915D01*
X67138110Y-39901000D01*
X66461890Y-39901000D01*
X66420409Y-39896915D01*
X66386431Y-39886607D01*
X66355113Y-39869867D01*
X66327661Y-39847339D01*
X66305133Y-39819887D01*
X66288393Y-39788569D01*
X66278085Y-39754591D01*
X66274000Y-39713110D01*
X66274000Y-39111890D01*
X66278085Y-39070409D01*
X66288393Y-39036431D01*
X66305133Y-39005113D01*
X66327661Y-38977661D01*
X66355113Y-38955133D01*
X66386431Y-38938393D01*
X66420409Y-38928085D01*
X66461890Y-38924000D01*
X67138110Y-38924000D01*
X67179591Y-38928085D01*
X67179591Y-38928085D01*
G37*
G36*
X94401000Y-38651000D02*
X92599000Y-38651000D01*
X92599000Y-36849000D01*
X94401000Y-36849000D01*
X94401000Y-38651000D01*
X94401000Y-38651000D01*
G37*
G36*
X91070443Y-36855519D02*
X91136627Y-36862037D01*
X91232105Y-36891000D01*
X91306467Y-36913557D01*
X91441996Y-36986000D01*
X91462991Y-36997222D01*
X91498729Y-37026552D01*
X91600186Y-37109814D01*
X91683448Y-37211271D01*
X91712778Y-37247009D01*
X91712779Y-37247011D01*
X91796443Y-37403533D01*
X91796443Y-37403534D01*
X91847963Y-37573373D01*
X91865359Y-37750000D01*
X91847963Y-37926627D01*
X91813616Y-38039853D01*
X91796443Y-38096467D01*
X91722348Y-38235087D01*
X91712778Y-38252991D01*
X91683448Y-38288729D01*
X91600186Y-38390186D01*
X91498729Y-38473448D01*
X91462991Y-38502778D01*
X91462989Y-38502779D01*
X91306467Y-38586443D01*
X91249853Y-38603616D01*
X91136627Y-38637963D01*
X91070442Y-38644482D01*
X91004260Y-38651000D01*
X90915740Y-38651000D01*
X90849558Y-38644482D01*
X90783373Y-38637963D01*
X90670147Y-38603616D01*
X90613533Y-38586443D01*
X90457011Y-38502779D01*
X90457009Y-38502778D01*
X90421271Y-38473448D01*
X90319814Y-38390186D01*
X90236552Y-38288729D01*
X90207222Y-38252991D01*
X90197652Y-38235087D01*
X90123557Y-38096467D01*
X90106384Y-38039853D01*
X90072037Y-37926627D01*
X90054641Y-37750000D01*
X90072037Y-37573373D01*
X90123557Y-37403534D01*
X90123557Y-37403533D01*
X90207221Y-37247011D01*
X90207222Y-37247009D01*
X90236552Y-37211271D01*
X90319814Y-37109814D01*
X90421271Y-37026552D01*
X90457009Y-36997222D01*
X90478004Y-36986000D01*
X90613533Y-36913557D01*
X90687895Y-36891000D01*
X90783373Y-36862037D01*
X90849557Y-36855519D01*
X90915740Y-36849000D01*
X91004260Y-36849000D01*
X91070443Y-36855519D01*
X91070443Y-36855519D01*
G37*
G36*
X88530443Y-36855519D02*
X88596627Y-36862037D01*
X88692105Y-36891000D01*
X88766467Y-36913557D01*
X88901996Y-36986000D01*
X88922991Y-36997222D01*
X88958729Y-37026552D01*
X89060186Y-37109814D01*
X89143448Y-37211271D01*
X89172778Y-37247009D01*
X89172779Y-37247011D01*
X89256443Y-37403533D01*
X89256443Y-37403534D01*
X89307963Y-37573373D01*
X89325359Y-37750000D01*
X89307963Y-37926627D01*
X89273616Y-38039853D01*
X89256443Y-38096467D01*
X89182348Y-38235087D01*
X89172778Y-38252991D01*
X89143448Y-38288729D01*
X89060186Y-38390186D01*
X88958729Y-38473448D01*
X88922991Y-38502778D01*
X88922989Y-38502779D01*
X88766467Y-38586443D01*
X88709853Y-38603616D01*
X88596627Y-38637963D01*
X88530442Y-38644482D01*
X88464260Y-38651000D01*
X88375740Y-38651000D01*
X88309558Y-38644482D01*
X88243373Y-38637963D01*
X88130147Y-38603616D01*
X88073533Y-38586443D01*
X87917011Y-38502779D01*
X87917009Y-38502778D01*
X87881271Y-38473448D01*
X87779814Y-38390186D01*
X87696552Y-38288729D01*
X87667222Y-38252991D01*
X87657652Y-38235087D01*
X87583557Y-38096467D01*
X87566384Y-38039853D01*
X87532037Y-37926627D01*
X87514641Y-37750000D01*
X87532037Y-37573373D01*
X87583557Y-37403534D01*
X87583557Y-37403533D01*
X87667221Y-37247011D01*
X87667222Y-37247009D01*
X87696552Y-37211271D01*
X87779814Y-37109814D01*
X87881271Y-37026552D01*
X87917009Y-36997222D01*
X87938004Y-36986000D01*
X88073533Y-36913557D01*
X88147895Y-36891000D01*
X88243373Y-36862037D01*
X88309557Y-36855519D01*
X88375740Y-36849000D01*
X88464260Y-36849000D01*
X88530443Y-36855519D01*
X88530443Y-36855519D01*
G37*
G36*
X157876000Y-38256000D02*
X156224000Y-38256000D01*
X156224000Y-37554000D01*
X157876000Y-37554000D01*
X157876000Y-38256000D01*
X157876000Y-38256000D01*
G37*
G36*
X163276000Y-38256000D02*
X161624000Y-38256000D01*
X161624000Y-37554000D01*
X163276000Y-37554000D01*
X163276000Y-38256000D01*
X163276000Y-38256000D01*
G37*
G36*
X163276000Y-36986000D02*
X161624000Y-36986000D01*
X161624000Y-36284000D01*
X163276000Y-36284000D01*
X163276000Y-36986000D01*
X163276000Y-36986000D01*
G37*
G36*
X157876000Y-36986000D02*
X156224000Y-36986000D01*
X156224000Y-36284000D01*
X157876000Y-36284000D01*
X157876000Y-36986000D01*
X157876000Y-36986000D01*
G37*
G36*
X168631552Y-36006331D02*
X168713625Y-36040327D01*
X168713626Y-36040328D01*
X168713629Y-36040329D01*
X168787496Y-36089686D01*
X168787500Y-36089689D01*
X168850311Y-36152500D01*
X168850313Y-36152503D01*
X168850314Y-36152504D01*
X168899671Y-36226371D01*
X168899672Y-36226374D01*
X168899673Y-36226375D01*
X168933669Y-36308448D01*
X168951000Y-36395579D01*
X168951000Y-36484421D01*
X168933669Y-36571552D01*
X168899673Y-36653625D01*
X168899671Y-36653629D01*
X168850314Y-36727496D01*
X168850311Y-36727500D01*
X168787500Y-36790311D01*
X168787497Y-36790313D01*
X168787496Y-36790314D01*
X168713629Y-36839671D01*
X168713626Y-36839672D01*
X168713625Y-36839673D01*
X168631552Y-36873669D01*
X168544421Y-36891000D01*
X168455579Y-36891000D01*
X168368448Y-36873669D01*
X168286375Y-36839673D01*
X168286374Y-36839672D01*
X168286371Y-36839671D01*
X168212504Y-36790314D01*
X168212503Y-36790313D01*
X168212500Y-36790311D01*
X168149689Y-36727500D01*
X168149686Y-36727496D01*
X168100329Y-36653629D01*
X168100327Y-36653625D01*
X168066331Y-36571552D01*
X168049000Y-36484421D01*
X168049000Y-36395579D01*
X168066331Y-36308448D01*
X168100327Y-36226375D01*
X168100328Y-36226374D01*
X168100329Y-36226371D01*
X168149686Y-36152504D01*
X168149687Y-36152503D01*
X168149689Y-36152500D01*
X168212500Y-36089689D01*
X168212504Y-36089686D01*
X168286371Y-36040329D01*
X168286374Y-36040328D01*
X168286375Y-36040327D01*
X168368448Y-36006331D01*
X168455579Y-35989000D01*
X168544421Y-35989000D01*
X168631552Y-36006331D01*
X168631552Y-36006331D01*
G37*
G36*
X50181552Y-35006331D02*
X50263625Y-35040327D01*
X50263626Y-35040328D01*
X50263629Y-35040329D01*
X50337496Y-35089686D01*
X50337500Y-35089689D01*
X50400311Y-35152500D01*
X50400313Y-35152503D01*
X50400314Y-35152504D01*
X50449671Y-35226371D01*
X50449672Y-35226374D01*
X50449673Y-35226375D01*
X50483669Y-35308448D01*
X50501000Y-35395579D01*
X50501000Y-35484421D01*
X50483669Y-35571552D01*
X50449673Y-35653625D01*
X50449671Y-35653629D01*
X50407995Y-35716000D01*
X50400311Y-35727500D01*
X50337500Y-35790311D01*
X50337497Y-35790313D01*
X50337496Y-35790314D01*
X50263629Y-35839671D01*
X50263626Y-35839672D01*
X50263625Y-35839673D01*
X50181552Y-35873669D01*
X50094421Y-35891000D01*
X50005579Y-35891000D01*
X49918448Y-35873669D01*
X49836375Y-35839673D01*
X49836374Y-35839672D01*
X49836371Y-35839671D01*
X49762504Y-35790314D01*
X49762503Y-35790313D01*
X49762500Y-35790311D01*
X49699689Y-35727500D01*
X49692005Y-35716000D01*
X49650329Y-35653629D01*
X49650327Y-35653625D01*
X49616331Y-35571552D01*
X49599000Y-35484421D01*
X49599000Y-35395579D01*
X49616331Y-35308448D01*
X49650327Y-35226375D01*
X49650328Y-35226374D01*
X49650329Y-35226371D01*
X49699686Y-35152504D01*
X49699687Y-35152503D01*
X49699689Y-35152500D01*
X49762500Y-35089689D01*
X49762504Y-35089686D01*
X49836371Y-35040329D01*
X49836374Y-35040328D01*
X49836375Y-35040327D01*
X49918448Y-35006331D01*
X50005579Y-34989000D01*
X50094421Y-34989000D01*
X50181552Y-35006331D01*
X50181552Y-35006331D01*
G37*
G36*
X157876000Y-35716000D02*
X156224000Y-35716000D01*
X156224000Y-35014000D01*
X157876000Y-35014000D01*
X157876000Y-35716000D01*
X157876000Y-35716000D01*
G37*
G36*
X163276000Y-35716000D02*
X161624000Y-35716000D01*
X161624000Y-35014000D01*
X163276000Y-35014000D01*
X163276000Y-35716000D01*
X163276000Y-35716000D01*
G37*
G36*
X157876000Y-34446000D02*
X156224000Y-34446000D01*
X156224000Y-33744000D01*
X157876000Y-33744000D01*
X157876000Y-34446000D01*
X157876000Y-34446000D01*
G37*
G36*
X163276000Y-34446000D02*
X161624000Y-34446000D01*
X161624000Y-33744000D01*
X163276000Y-33744000D01*
X163276000Y-34446000D01*
X163276000Y-34446000D01*
G37*
M02*
