G04 #@! TF.GenerationSoftware,KiCad,Pcbnew,5.0.2-bee76a0~70~ubuntu18.04.1*
G04 #@! TF.CreationDate,2019-10-29T17:05:40+01:00*
G04 #@! TF.ProjectId,emfi,656d6669-2e6b-4696-9361-645f70636258,0.1*
G04 #@! TF.SameCoordinates,Original*
G04 #@! TF.FileFunction,Paste,Top*
G04 #@! TF.FilePolarity,Positive*
%FSLAX46Y46*%
G04 Gerber Fmt 4.6, Leading zero omitted, Abs format (unit mm)*
G04 Created by KiCad (PCBNEW 5.0.2-bee76a0~70~ubuntu18.04.1) date mar. 29 oct. 2019 17:05:40 CET*
%MOMM*%
%LPD*%
G01*
G04 APERTURE LIST*
%ADD10R,3.800000X2.000000*%
%ADD11R,1.500000X2.000000*%
%ADD12C,0.100000*%
%ADD13C,0.875000*%
%ADD14R,0.650000X0.400000*%
%ADD15R,3.500000X1.800000*%
%ADD16R,6.400000X1.440000*%
%ADD17R,2.500000X1.000000*%
%ADD18C,1.800000*%
%ADD19R,1.800000X3.500000*%
%ADD20C,3.000000*%
%ADD21C,0.975000*%
%ADD22R,1.300000X0.450000*%
%ADD23R,1.270000X0.762000*%
%ADD24R,2.540000X2.670000*%
%ADD25C,1.125000*%
%ADD26R,0.250000X1.000000*%
%ADD27R,1.000000X0.250000*%
%ADD28R,0.450000X1.750000*%
%ADD29R,0.650000X1.060000*%
%ADD30R,1.060000X0.650000*%
G04 APERTURE END LIST*
D10*
G04 #@! TO.C,U4*
X75500000Y-50600000D03*
D11*
X75500000Y-56900000D03*
X77800000Y-56900000D03*
X73200000Y-56900000D03*
G04 #@! TD*
D12*
G04 #@! TO.C,C42*
G36*
X54702691Y-36026053D02*
X54723926Y-36029203D01*
X54744750Y-36034419D01*
X54764962Y-36041651D01*
X54784368Y-36050830D01*
X54802781Y-36061866D01*
X54820024Y-36074654D01*
X54835930Y-36089070D01*
X54850346Y-36104976D01*
X54863134Y-36122219D01*
X54874170Y-36140632D01*
X54883349Y-36160038D01*
X54890581Y-36180250D01*
X54895797Y-36201074D01*
X54898947Y-36222309D01*
X54900000Y-36243750D01*
X54900000Y-36756250D01*
X54898947Y-36777691D01*
X54895797Y-36798926D01*
X54890581Y-36819750D01*
X54883349Y-36839962D01*
X54874170Y-36859368D01*
X54863134Y-36877781D01*
X54850346Y-36895024D01*
X54835930Y-36910930D01*
X54820024Y-36925346D01*
X54802781Y-36938134D01*
X54784368Y-36949170D01*
X54764962Y-36958349D01*
X54744750Y-36965581D01*
X54723926Y-36970797D01*
X54702691Y-36973947D01*
X54681250Y-36975000D01*
X54243750Y-36975000D01*
X54222309Y-36973947D01*
X54201074Y-36970797D01*
X54180250Y-36965581D01*
X54160038Y-36958349D01*
X54140632Y-36949170D01*
X54122219Y-36938134D01*
X54104976Y-36925346D01*
X54089070Y-36910930D01*
X54074654Y-36895024D01*
X54061866Y-36877781D01*
X54050830Y-36859368D01*
X54041651Y-36839962D01*
X54034419Y-36819750D01*
X54029203Y-36798926D01*
X54026053Y-36777691D01*
X54025000Y-36756250D01*
X54025000Y-36243750D01*
X54026053Y-36222309D01*
X54029203Y-36201074D01*
X54034419Y-36180250D01*
X54041651Y-36160038D01*
X54050830Y-36140632D01*
X54061866Y-36122219D01*
X54074654Y-36104976D01*
X54089070Y-36089070D01*
X54104976Y-36074654D01*
X54122219Y-36061866D01*
X54140632Y-36050830D01*
X54160038Y-36041651D01*
X54180250Y-36034419D01*
X54201074Y-36029203D01*
X54222309Y-36026053D01*
X54243750Y-36025000D01*
X54681250Y-36025000D01*
X54702691Y-36026053D01*
X54702691Y-36026053D01*
G37*
D13*
X54462500Y-36500000D03*
D12*
G36*
X56277691Y-36026053D02*
X56298926Y-36029203D01*
X56319750Y-36034419D01*
X56339962Y-36041651D01*
X56359368Y-36050830D01*
X56377781Y-36061866D01*
X56395024Y-36074654D01*
X56410930Y-36089070D01*
X56425346Y-36104976D01*
X56438134Y-36122219D01*
X56449170Y-36140632D01*
X56458349Y-36160038D01*
X56465581Y-36180250D01*
X56470797Y-36201074D01*
X56473947Y-36222309D01*
X56475000Y-36243750D01*
X56475000Y-36756250D01*
X56473947Y-36777691D01*
X56470797Y-36798926D01*
X56465581Y-36819750D01*
X56458349Y-36839962D01*
X56449170Y-36859368D01*
X56438134Y-36877781D01*
X56425346Y-36895024D01*
X56410930Y-36910930D01*
X56395024Y-36925346D01*
X56377781Y-36938134D01*
X56359368Y-36949170D01*
X56339962Y-36958349D01*
X56319750Y-36965581D01*
X56298926Y-36970797D01*
X56277691Y-36973947D01*
X56256250Y-36975000D01*
X55818750Y-36975000D01*
X55797309Y-36973947D01*
X55776074Y-36970797D01*
X55755250Y-36965581D01*
X55735038Y-36958349D01*
X55715632Y-36949170D01*
X55697219Y-36938134D01*
X55679976Y-36925346D01*
X55664070Y-36910930D01*
X55649654Y-36895024D01*
X55636866Y-36877781D01*
X55625830Y-36859368D01*
X55616651Y-36839962D01*
X55609419Y-36819750D01*
X55604203Y-36798926D01*
X55601053Y-36777691D01*
X55600000Y-36756250D01*
X55600000Y-36243750D01*
X55601053Y-36222309D01*
X55604203Y-36201074D01*
X55609419Y-36180250D01*
X55616651Y-36160038D01*
X55625830Y-36140632D01*
X55636866Y-36122219D01*
X55649654Y-36104976D01*
X55664070Y-36089070D01*
X55679976Y-36074654D01*
X55697219Y-36061866D01*
X55715632Y-36050830D01*
X55735038Y-36041651D01*
X55755250Y-36034419D01*
X55776074Y-36029203D01*
X55797309Y-36026053D01*
X55818750Y-36025000D01*
X56256250Y-36025000D01*
X56277691Y-36026053D01*
X56277691Y-36026053D01*
G37*
D13*
X56037500Y-36500000D03*
G04 #@! TD*
D14*
G04 #@! TO.C,U8*
X54300000Y-38350000D03*
X54300000Y-39650000D03*
X54300000Y-39000000D03*
X56200000Y-39650000D03*
X56200000Y-38350000D03*
G04 #@! TD*
D15*
G04 #@! TO.C,D9*
X157500000Y-34000000D03*
X162500000Y-34000000D03*
G04 #@! TD*
D16*
G04 #@! TO.C,J6*
X172300000Y-58280000D03*
D17*
X167050000Y-54000000D03*
D16*
X172300000Y-49720000D03*
G04 #@! TD*
D12*
G04 #@! TO.C,R10*
G36*
X65027691Y-61526053D02*
X65048926Y-61529203D01*
X65069750Y-61534419D01*
X65089962Y-61541651D01*
X65109368Y-61550830D01*
X65127781Y-61561866D01*
X65145024Y-61574654D01*
X65160930Y-61589070D01*
X65175346Y-61604976D01*
X65188134Y-61622219D01*
X65199170Y-61640632D01*
X65208349Y-61660038D01*
X65215581Y-61680250D01*
X65220797Y-61701074D01*
X65223947Y-61722309D01*
X65225000Y-61743750D01*
X65225000Y-62181250D01*
X65223947Y-62202691D01*
X65220797Y-62223926D01*
X65215581Y-62244750D01*
X65208349Y-62264962D01*
X65199170Y-62284368D01*
X65188134Y-62302781D01*
X65175346Y-62320024D01*
X65160930Y-62335930D01*
X65145024Y-62350346D01*
X65127781Y-62363134D01*
X65109368Y-62374170D01*
X65089962Y-62383349D01*
X65069750Y-62390581D01*
X65048926Y-62395797D01*
X65027691Y-62398947D01*
X65006250Y-62400000D01*
X64493750Y-62400000D01*
X64472309Y-62398947D01*
X64451074Y-62395797D01*
X64430250Y-62390581D01*
X64410038Y-62383349D01*
X64390632Y-62374170D01*
X64372219Y-62363134D01*
X64354976Y-62350346D01*
X64339070Y-62335930D01*
X64324654Y-62320024D01*
X64311866Y-62302781D01*
X64300830Y-62284368D01*
X64291651Y-62264962D01*
X64284419Y-62244750D01*
X64279203Y-62223926D01*
X64276053Y-62202691D01*
X64275000Y-62181250D01*
X64275000Y-61743750D01*
X64276053Y-61722309D01*
X64279203Y-61701074D01*
X64284419Y-61680250D01*
X64291651Y-61660038D01*
X64300830Y-61640632D01*
X64311866Y-61622219D01*
X64324654Y-61604976D01*
X64339070Y-61589070D01*
X64354976Y-61574654D01*
X64372219Y-61561866D01*
X64390632Y-61550830D01*
X64410038Y-61541651D01*
X64430250Y-61534419D01*
X64451074Y-61529203D01*
X64472309Y-61526053D01*
X64493750Y-61525000D01*
X65006250Y-61525000D01*
X65027691Y-61526053D01*
X65027691Y-61526053D01*
G37*
D13*
X64750000Y-61962500D03*
D12*
G36*
X65027691Y-63101053D02*
X65048926Y-63104203D01*
X65069750Y-63109419D01*
X65089962Y-63116651D01*
X65109368Y-63125830D01*
X65127781Y-63136866D01*
X65145024Y-63149654D01*
X65160930Y-63164070D01*
X65175346Y-63179976D01*
X65188134Y-63197219D01*
X65199170Y-63215632D01*
X65208349Y-63235038D01*
X65215581Y-63255250D01*
X65220797Y-63276074D01*
X65223947Y-63297309D01*
X65225000Y-63318750D01*
X65225000Y-63756250D01*
X65223947Y-63777691D01*
X65220797Y-63798926D01*
X65215581Y-63819750D01*
X65208349Y-63839962D01*
X65199170Y-63859368D01*
X65188134Y-63877781D01*
X65175346Y-63895024D01*
X65160930Y-63910930D01*
X65145024Y-63925346D01*
X65127781Y-63938134D01*
X65109368Y-63949170D01*
X65089962Y-63958349D01*
X65069750Y-63965581D01*
X65048926Y-63970797D01*
X65027691Y-63973947D01*
X65006250Y-63975000D01*
X64493750Y-63975000D01*
X64472309Y-63973947D01*
X64451074Y-63970797D01*
X64430250Y-63965581D01*
X64410038Y-63958349D01*
X64390632Y-63949170D01*
X64372219Y-63938134D01*
X64354976Y-63925346D01*
X64339070Y-63910930D01*
X64324654Y-63895024D01*
X64311866Y-63877781D01*
X64300830Y-63859368D01*
X64291651Y-63839962D01*
X64284419Y-63819750D01*
X64279203Y-63798926D01*
X64276053Y-63777691D01*
X64275000Y-63756250D01*
X64275000Y-63318750D01*
X64276053Y-63297309D01*
X64279203Y-63276074D01*
X64284419Y-63255250D01*
X64291651Y-63235038D01*
X64300830Y-63215632D01*
X64311866Y-63197219D01*
X64324654Y-63179976D01*
X64339070Y-63164070D01*
X64354976Y-63149654D01*
X64372219Y-63136866D01*
X64390632Y-63125830D01*
X64410038Y-63116651D01*
X64430250Y-63109419D01*
X64451074Y-63104203D01*
X64472309Y-63101053D01*
X64493750Y-63100000D01*
X65006250Y-63100000D01*
X65027691Y-63101053D01*
X65027691Y-63101053D01*
G37*
D13*
X64750000Y-63537500D03*
G04 #@! TD*
D12*
G04 #@! TO.C,R8*
G36*
X61527691Y-63101053D02*
X61548926Y-63104203D01*
X61569750Y-63109419D01*
X61589962Y-63116651D01*
X61609368Y-63125830D01*
X61627781Y-63136866D01*
X61645024Y-63149654D01*
X61660930Y-63164070D01*
X61675346Y-63179976D01*
X61688134Y-63197219D01*
X61699170Y-63215632D01*
X61708349Y-63235038D01*
X61715581Y-63255250D01*
X61720797Y-63276074D01*
X61723947Y-63297309D01*
X61725000Y-63318750D01*
X61725000Y-63756250D01*
X61723947Y-63777691D01*
X61720797Y-63798926D01*
X61715581Y-63819750D01*
X61708349Y-63839962D01*
X61699170Y-63859368D01*
X61688134Y-63877781D01*
X61675346Y-63895024D01*
X61660930Y-63910930D01*
X61645024Y-63925346D01*
X61627781Y-63938134D01*
X61609368Y-63949170D01*
X61589962Y-63958349D01*
X61569750Y-63965581D01*
X61548926Y-63970797D01*
X61527691Y-63973947D01*
X61506250Y-63975000D01*
X60993750Y-63975000D01*
X60972309Y-63973947D01*
X60951074Y-63970797D01*
X60930250Y-63965581D01*
X60910038Y-63958349D01*
X60890632Y-63949170D01*
X60872219Y-63938134D01*
X60854976Y-63925346D01*
X60839070Y-63910930D01*
X60824654Y-63895024D01*
X60811866Y-63877781D01*
X60800830Y-63859368D01*
X60791651Y-63839962D01*
X60784419Y-63819750D01*
X60779203Y-63798926D01*
X60776053Y-63777691D01*
X60775000Y-63756250D01*
X60775000Y-63318750D01*
X60776053Y-63297309D01*
X60779203Y-63276074D01*
X60784419Y-63255250D01*
X60791651Y-63235038D01*
X60800830Y-63215632D01*
X60811866Y-63197219D01*
X60824654Y-63179976D01*
X60839070Y-63164070D01*
X60854976Y-63149654D01*
X60872219Y-63136866D01*
X60890632Y-63125830D01*
X60910038Y-63116651D01*
X60930250Y-63109419D01*
X60951074Y-63104203D01*
X60972309Y-63101053D01*
X60993750Y-63100000D01*
X61506250Y-63100000D01*
X61527691Y-63101053D01*
X61527691Y-63101053D01*
G37*
D13*
X61250000Y-63537500D03*
D12*
G36*
X61527691Y-61526053D02*
X61548926Y-61529203D01*
X61569750Y-61534419D01*
X61589962Y-61541651D01*
X61609368Y-61550830D01*
X61627781Y-61561866D01*
X61645024Y-61574654D01*
X61660930Y-61589070D01*
X61675346Y-61604976D01*
X61688134Y-61622219D01*
X61699170Y-61640632D01*
X61708349Y-61660038D01*
X61715581Y-61680250D01*
X61720797Y-61701074D01*
X61723947Y-61722309D01*
X61725000Y-61743750D01*
X61725000Y-62181250D01*
X61723947Y-62202691D01*
X61720797Y-62223926D01*
X61715581Y-62244750D01*
X61708349Y-62264962D01*
X61699170Y-62284368D01*
X61688134Y-62302781D01*
X61675346Y-62320024D01*
X61660930Y-62335930D01*
X61645024Y-62350346D01*
X61627781Y-62363134D01*
X61609368Y-62374170D01*
X61589962Y-62383349D01*
X61569750Y-62390581D01*
X61548926Y-62395797D01*
X61527691Y-62398947D01*
X61506250Y-62400000D01*
X60993750Y-62400000D01*
X60972309Y-62398947D01*
X60951074Y-62395797D01*
X60930250Y-62390581D01*
X60910038Y-62383349D01*
X60890632Y-62374170D01*
X60872219Y-62363134D01*
X60854976Y-62350346D01*
X60839070Y-62335930D01*
X60824654Y-62320024D01*
X60811866Y-62302781D01*
X60800830Y-62284368D01*
X60791651Y-62264962D01*
X60784419Y-62244750D01*
X60779203Y-62223926D01*
X60776053Y-62202691D01*
X60775000Y-62181250D01*
X60775000Y-61743750D01*
X60776053Y-61722309D01*
X60779203Y-61701074D01*
X60784419Y-61680250D01*
X60791651Y-61660038D01*
X60800830Y-61640632D01*
X60811866Y-61622219D01*
X60824654Y-61604976D01*
X60839070Y-61589070D01*
X60854976Y-61574654D01*
X60872219Y-61561866D01*
X60890632Y-61550830D01*
X60910038Y-61541651D01*
X60930250Y-61534419D01*
X60951074Y-61529203D01*
X60972309Y-61526053D01*
X60993750Y-61525000D01*
X61506250Y-61525000D01*
X61527691Y-61526053D01*
X61527691Y-61526053D01*
G37*
D13*
X61250000Y-61962500D03*
G04 #@! TD*
D12*
G04 #@! TO.C,D7*
G36*
X63277691Y-63101053D02*
X63298926Y-63104203D01*
X63319750Y-63109419D01*
X63339962Y-63116651D01*
X63359368Y-63125830D01*
X63377781Y-63136866D01*
X63395024Y-63149654D01*
X63410930Y-63164070D01*
X63425346Y-63179976D01*
X63438134Y-63197219D01*
X63449170Y-63215632D01*
X63458349Y-63235038D01*
X63465581Y-63255250D01*
X63470797Y-63276074D01*
X63473947Y-63297309D01*
X63475000Y-63318750D01*
X63475000Y-63756250D01*
X63473947Y-63777691D01*
X63470797Y-63798926D01*
X63465581Y-63819750D01*
X63458349Y-63839962D01*
X63449170Y-63859368D01*
X63438134Y-63877781D01*
X63425346Y-63895024D01*
X63410930Y-63910930D01*
X63395024Y-63925346D01*
X63377781Y-63938134D01*
X63359368Y-63949170D01*
X63339962Y-63958349D01*
X63319750Y-63965581D01*
X63298926Y-63970797D01*
X63277691Y-63973947D01*
X63256250Y-63975000D01*
X62743750Y-63975000D01*
X62722309Y-63973947D01*
X62701074Y-63970797D01*
X62680250Y-63965581D01*
X62660038Y-63958349D01*
X62640632Y-63949170D01*
X62622219Y-63938134D01*
X62604976Y-63925346D01*
X62589070Y-63910930D01*
X62574654Y-63895024D01*
X62561866Y-63877781D01*
X62550830Y-63859368D01*
X62541651Y-63839962D01*
X62534419Y-63819750D01*
X62529203Y-63798926D01*
X62526053Y-63777691D01*
X62525000Y-63756250D01*
X62525000Y-63318750D01*
X62526053Y-63297309D01*
X62529203Y-63276074D01*
X62534419Y-63255250D01*
X62541651Y-63235038D01*
X62550830Y-63215632D01*
X62561866Y-63197219D01*
X62574654Y-63179976D01*
X62589070Y-63164070D01*
X62604976Y-63149654D01*
X62622219Y-63136866D01*
X62640632Y-63125830D01*
X62660038Y-63116651D01*
X62680250Y-63109419D01*
X62701074Y-63104203D01*
X62722309Y-63101053D01*
X62743750Y-63100000D01*
X63256250Y-63100000D01*
X63277691Y-63101053D01*
X63277691Y-63101053D01*
G37*
D13*
X63000000Y-63537500D03*
D12*
G36*
X63277691Y-61526053D02*
X63298926Y-61529203D01*
X63319750Y-61534419D01*
X63339962Y-61541651D01*
X63359368Y-61550830D01*
X63377781Y-61561866D01*
X63395024Y-61574654D01*
X63410930Y-61589070D01*
X63425346Y-61604976D01*
X63438134Y-61622219D01*
X63449170Y-61640632D01*
X63458349Y-61660038D01*
X63465581Y-61680250D01*
X63470797Y-61701074D01*
X63473947Y-61722309D01*
X63475000Y-61743750D01*
X63475000Y-62181250D01*
X63473947Y-62202691D01*
X63470797Y-62223926D01*
X63465581Y-62244750D01*
X63458349Y-62264962D01*
X63449170Y-62284368D01*
X63438134Y-62302781D01*
X63425346Y-62320024D01*
X63410930Y-62335930D01*
X63395024Y-62350346D01*
X63377781Y-62363134D01*
X63359368Y-62374170D01*
X63339962Y-62383349D01*
X63319750Y-62390581D01*
X63298926Y-62395797D01*
X63277691Y-62398947D01*
X63256250Y-62400000D01*
X62743750Y-62400000D01*
X62722309Y-62398947D01*
X62701074Y-62395797D01*
X62680250Y-62390581D01*
X62660038Y-62383349D01*
X62640632Y-62374170D01*
X62622219Y-62363134D01*
X62604976Y-62350346D01*
X62589070Y-62335930D01*
X62574654Y-62320024D01*
X62561866Y-62302781D01*
X62550830Y-62284368D01*
X62541651Y-62264962D01*
X62534419Y-62244750D01*
X62529203Y-62223926D01*
X62526053Y-62202691D01*
X62525000Y-62181250D01*
X62525000Y-61743750D01*
X62526053Y-61722309D01*
X62529203Y-61701074D01*
X62534419Y-61680250D01*
X62541651Y-61660038D01*
X62550830Y-61640632D01*
X62561866Y-61622219D01*
X62574654Y-61604976D01*
X62589070Y-61589070D01*
X62604976Y-61574654D01*
X62622219Y-61561866D01*
X62640632Y-61550830D01*
X62660038Y-61541651D01*
X62680250Y-61534419D01*
X62701074Y-61529203D01*
X62722309Y-61526053D01*
X62743750Y-61525000D01*
X63256250Y-61525000D01*
X63277691Y-61526053D01*
X63277691Y-61526053D01*
G37*
D13*
X63000000Y-61962500D03*
G04 #@! TD*
D12*
G04 #@! TO.C,D8*
G36*
X66777691Y-61526053D02*
X66798926Y-61529203D01*
X66819750Y-61534419D01*
X66839962Y-61541651D01*
X66859368Y-61550830D01*
X66877781Y-61561866D01*
X66895024Y-61574654D01*
X66910930Y-61589070D01*
X66925346Y-61604976D01*
X66938134Y-61622219D01*
X66949170Y-61640632D01*
X66958349Y-61660038D01*
X66965581Y-61680250D01*
X66970797Y-61701074D01*
X66973947Y-61722309D01*
X66975000Y-61743750D01*
X66975000Y-62181250D01*
X66973947Y-62202691D01*
X66970797Y-62223926D01*
X66965581Y-62244750D01*
X66958349Y-62264962D01*
X66949170Y-62284368D01*
X66938134Y-62302781D01*
X66925346Y-62320024D01*
X66910930Y-62335930D01*
X66895024Y-62350346D01*
X66877781Y-62363134D01*
X66859368Y-62374170D01*
X66839962Y-62383349D01*
X66819750Y-62390581D01*
X66798926Y-62395797D01*
X66777691Y-62398947D01*
X66756250Y-62400000D01*
X66243750Y-62400000D01*
X66222309Y-62398947D01*
X66201074Y-62395797D01*
X66180250Y-62390581D01*
X66160038Y-62383349D01*
X66140632Y-62374170D01*
X66122219Y-62363134D01*
X66104976Y-62350346D01*
X66089070Y-62335930D01*
X66074654Y-62320024D01*
X66061866Y-62302781D01*
X66050830Y-62284368D01*
X66041651Y-62264962D01*
X66034419Y-62244750D01*
X66029203Y-62223926D01*
X66026053Y-62202691D01*
X66025000Y-62181250D01*
X66025000Y-61743750D01*
X66026053Y-61722309D01*
X66029203Y-61701074D01*
X66034419Y-61680250D01*
X66041651Y-61660038D01*
X66050830Y-61640632D01*
X66061866Y-61622219D01*
X66074654Y-61604976D01*
X66089070Y-61589070D01*
X66104976Y-61574654D01*
X66122219Y-61561866D01*
X66140632Y-61550830D01*
X66160038Y-61541651D01*
X66180250Y-61534419D01*
X66201074Y-61529203D01*
X66222309Y-61526053D01*
X66243750Y-61525000D01*
X66756250Y-61525000D01*
X66777691Y-61526053D01*
X66777691Y-61526053D01*
G37*
D13*
X66500000Y-61962500D03*
D12*
G36*
X66777691Y-63101053D02*
X66798926Y-63104203D01*
X66819750Y-63109419D01*
X66839962Y-63116651D01*
X66859368Y-63125830D01*
X66877781Y-63136866D01*
X66895024Y-63149654D01*
X66910930Y-63164070D01*
X66925346Y-63179976D01*
X66938134Y-63197219D01*
X66949170Y-63215632D01*
X66958349Y-63235038D01*
X66965581Y-63255250D01*
X66970797Y-63276074D01*
X66973947Y-63297309D01*
X66975000Y-63318750D01*
X66975000Y-63756250D01*
X66973947Y-63777691D01*
X66970797Y-63798926D01*
X66965581Y-63819750D01*
X66958349Y-63839962D01*
X66949170Y-63859368D01*
X66938134Y-63877781D01*
X66925346Y-63895024D01*
X66910930Y-63910930D01*
X66895024Y-63925346D01*
X66877781Y-63938134D01*
X66859368Y-63949170D01*
X66839962Y-63958349D01*
X66819750Y-63965581D01*
X66798926Y-63970797D01*
X66777691Y-63973947D01*
X66756250Y-63975000D01*
X66243750Y-63975000D01*
X66222309Y-63973947D01*
X66201074Y-63970797D01*
X66180250Y-63965581D01*
X66160038Y-63958349D01*
X66140632Y-63949170D01*
X66122219Y-63938134D01*
X66104976Y-63925346D01*
X66089070Y-63910930D01*
X66074654Y-63895024D01*
X66061866Y-63877781D01*
X66050830Y-63859368D01*
X66041651Y-63839962D01*
X66034419Y-63819750D01*
X66029203Y-63798926D01*
X66026053Y-63777691D01*
X66025000Y-63756250D01*
X66025000Y-63318750D01*
X66026053Y-63297309D01*
X66029203Y-63276074D01*
X66034419Y-63255250D01*
X66041651Y-63235038D01*
X66050830Y-63215632D01*
X66061866Y-63197219D01*
X66074654Y-63179976D01*
X66089070Y-63164070D01*
X66104976Y-63149654D01*
X66122219Y-63136866D01*
X66140632Y-63125830D01*
X66160038Y-63116651D01*
X66180250Y-63109419D01*
X66201074Y-63104203D01*
X66222309Y-63101053D01*
X66243750Y-63100000D01*
X66756250Y-63100000D01*
X66777691Y-63101053D01*
X66777691Y-63101053D01*
G37*
D13*
X66500000Y-63537500D03*
G04 #@! TD*
D12*
G04 #@! TO.C,C36*
G36*
X152574504Y-36726204D02*
X152598773Y-36729804D01*
X152622571Y-36735765D01*
X152645671Y-36744030D01*
X152667849Y-36754520D01*
X152688893Y-36767133D01*
X152708598Y-36781747D01*
X152726777Y-36798223D01*
X152743253Y-36816402D01*
X152757867Y-36836107D01*
X152770480Y-36857151D01*
X152780970Y-36879329D01*
X152789235Y-36902429D01*
X152795196Y-36926227D01*
X152798796Y-36950496D01*
X152800000Y-36975000D01*
X152800000Y-38275000D01*
X152798796Y-38299504D01*
X152795196Y-38323773D01*
X152789235Y-38347571D01*
X152780970Y-38370671D01*
X152770480Y-38392849D01*
X152757867Y-38413893D01*
X152743253Y-38433598D01*
X152726777Y-38451777D01*
X152708598Y-38468253D01*
X152688893Y-38482867D01*
X152667849Y-38495480D01*
X152645671Y-38505970D01*
X152622571Y-38514235D01*
X152598773Y-38520196D01*
X152574504Y-38523796D01*
X152550000Y-38525000D01*
X146450000Y-38525000D01*
X146425496Y-38523796D01*
X146401227Y-38520196D01*
X146377429Y-38514235D01*
X146354329Y-38505970D01*
X146332151Y-38495480D01*
X146311107Y-38482867D01*
X146291402Y-38468253D01*
X146273223Y-38451777D01*
X146256747Y-38433598D01*
X146242133Y-38413893D01*
X146229520Y-38392849D01*
X146219030Y-38370671D01*
X146210765Y-38347571D01*
X146204804Y-38323773D01*
X146201204Y-38299504D01*
X146200000Y-38275000D01*
X146200000Y-36975000D01*
X146201204Y-36950496D01*
X146204804Y-36926227D01*
X146210765Y-36902429D01*
X146219030Y-36879329D01*
X146229520Y-36857151D01*
X146242133Y-36836107D01*
X146256747Y-36816402D01*
X146273223Y-36798223D01*
X146291402Y-36781747D01*
X146311107Y-36767133D01*
X146332151Y-36754520D01*
X146354329Y-36744030D01*
X146377429Y-36735765D01*
X146401227Y-36729804D01*
X146425496Y-36726204D01*
X146450000Y-36725000D01*
X152550000Y-36725000D01*
X152574504Y-36726204D01*
X152574504Y-36726204D01*
G37*
D18*
X149500000Y-37625000D03*
D12*
G36*
X152574504Y-31476204D02*
X152598773Y-31479804D01*
X152622571Y-31485765D01*
X152645671Y-31494030D01*
X152667849Y-31504520D01*
X152688893Y-31517133D01*
X152708598Y-31531747D01*
X152726777Y-31548223D01*
X152743253Y-31566402D01*
X152757867Y-31586107D01*
X152770480Y-31607151D01*
X152780970Y-31629329D01*
X152789235Y-31652429D01*
X152795196Y-31676227D01*
X152798796Y-31700496D01*
X152800000Y-31725000D01*
X152800000Y-33025000D01*
X152798796Y-33049504D01*
X152795196Y-33073773D01*
X152789235Y-33097571D01*
X152780970Y-33120671D01*
X152770480Y-33142849D01*
X152757867Y-33163893D01*
X152743253Y-33183598D01*
X152726777Y-33201777D01*
X152708598Y-33218253D01*
X152688893Y-33232867D01*
X152667849Y-33245480D01*
X152645671Y-33255970D01*
X152622571Y-33264235D01*
X152598773Y-33270196D01*
X152574504Y-33273796D01*
X152550000Y-33275000D01*
X146450000Y-33275000D01*
X146425496Y-33273796D01*
X146401227Y-33270196D01*
X146377429Y-33264235D01*
X146354329Y-33255970D01*
X146332151Y-33245480D01*
X146311107Y-33232867D01*
X146291402Y-33218253D01*
X146273223Y-33201777D01*
X146256747Y-33183598D01*
X146242133Y-33163893D01*
X146229520Y-33142849D01*
X146219030Y-33120671D01*
X146210765Y-33097571D01*
X146204804Y-33073773D01*
X146201204Y-33049504D01*
X146200000Y-33025000D01*
X146200000Y-31725000D01*
X146201204Y-31700496D01*
X146204804Y-31676227D01*
X146210765Y-31652429D01*
X146219030Y-31629329D01*
X146229520Y-31607151D01*
X146242133Y-31586107D01*
X146256747Y-31566402D01*
X146273223Y-31548223D01*
X146291402Y-31531747D01*
X146311107Y-31517133D01*
X146332151Y-31504520D01*
X146354329Y-31494030D01*
X146377429Y-31485765D01*
X146401227Y-31479804D01*
X146425496Y-31476204D01*
X146450000Y-31475000D01*
X152550000Y-31475000D01*
X152574504Y-31476204D01*
X152574504Y-31476204D01*
G37*
D18*
X149500000Y-32375000D03*
G04 #@! TD*
D12*
G04 #@! TO.C,C39*
G36*
X130074504Y-44726204D02*
X130098773Y-44729804D01*
X130122571Y-44735765D01*
X130145671Y-44744030D01*
X130167849Y-44754520D01*
X130188893Y-44767133D01*
X130208598Y-44781747D01*
X130226777Y-44798223D01*
X130243253Y-44816402D01*
X130257867Y-44836107D01*
X130270480Y-44857151D01*
X130280970Y-44879329D01*
X130289235Y-44902429D01*
X130295196Y-44926227D01*
X130298796Y-44950496D01*
X130300000Y-44975000D01*
X130300000Y-46275000D01*
X130298796Y-46299504D01*
X130295196Y-46323773D01*
X130289235Y-46347571D01*
X130280970Y-46370671D01*
X130270480Y-46392849D01*
X130257867Y-46413893D01*
X130243253Y-46433598D01*
X130226777Y-46451777D01*
X130208598Y-46468253D01*
X130188893Y-46482867D01*
X130167849Y-46495480D01*
X130145671Y-46505970D01*
X130122571Y-46514235D01*
X130098773Y-46520196D01*
X130074504Y-46523796D01*
X130050000Y-46525000D01*
X123950000Y-46525000D01*
X123925496Y-46523796D01*
X123901227Y-46520196D01*
X123877429Y-46514235D01*
X123854329Y-46505970D01*
X123832151Y-46495480D01*
X123811107Y-46482867D01*
X123791402Y-46468253D01*
X123773223Y-46451777D01*
X123756747Y-46433598D01*
X123742133Y-46413893D01*
X123729520Y-46392849D01*
X123719030Y-46370671D01*
X123710765Y-46347571D01*
X123704804Y-46323773D01*
X123701204Y-46299504D01*
X123700000Y-46275000D01*
X123700000Y-44975000D01*
X123701204Y-44950496D01*
X123704804Y-44926227D01*
X123710765Y-44902429D01*
X123719030Y-44879329D01*
X123729520Y-44857151D01*
X123742133Y-44836107D01*
X123756747Y-44816402D01*
X123773223Y-44798223D01*
X123791402Y-44781747D01*
X123811107Y-44767133D01*
X123832151Y-44754520D01*
X123854329Y-44744030D01*
X123877429Y-44735765D01*
X123901227Y-44729804D01*
X123925496Y-44726204D01*
X123950000Y-44725000D01*
X130050000Y-44725000D01*
X130074504Y-44726204D01*
X130074504Y-44726204D01*
G37*
D18*
X127000000Y-45625000D03*
D12*
G36*
X130074504Y-39476204D02*
X130098773Y-39479804D01*
X130122571Y-39485765D01*
X130145671Y-39494030D01*
X130167849Y-39504520D01*
X130188893Y-39517133D01*
X130208598Y-39531747D01*
X130226777Y-39548223D01*
X130243253Y-39566402D01*
X130257867Y-39586107D01*
X130270480Y-39607151D01*
X130280970Y-39629329D01*
X130289235Y-39652429D01*
X130295196Y-39676227D01*
X130298796Y-39700496D01*
X130300000Y-39725000D01*
X130300000Y-41025000D01*
X130298796Y-41049504D01*
X130295196Y-41073773D01*
X130289235Y-41097571D01*
X130280970Y-41120671D01*
X130270480Y-41142849D01*
X130257867Y-41163893D01*
X130243253Y-41183598D01*
X130226777Y-41201777D01*
X130208598Y-41218253D01*
X130188893Y-41232867D01*
X130167849Y-41245480D01*
X130145671Y-41255970D01*
X130122571Y-41264235D01*
X130098773Y-41270196D01*
X130074504Y-41273796D01*
X130050000Y-41275000D01*
X123950000Y-41275000D01*
X123925496Y-41273796D01*
X123901227Y-41270196D01*
X123877429Y-41264235D01*
X123854329Y-41255970D01*
X123832151Y-41245480D01*
X123811107Y-41232867D01*
X123791402Y-41218253D01*
X123773223Y-41201777D01*
X123756747Y-41183598D01*
X123742133Y-41163893D01*
X123729520Y-41142849D01*
X123719030Y-41120671D01*
X123710765Y-41097571D01*
X123704804Y-41073773D01*
X123701204Y-41049504D01*
X123700000Y-41025000D01*
X123700000Y-39725000D01*
X123701204Y-39700496D01*
X123704804Y-39676227D01*
X123710765Y-39652429D01*
X123719030Y-39629329D01*
X123729520Y-39607151D01*
X123742133Y-39586107D01*
X123756747Y-39566402D01*
X123773223Y-39548223D01*
X123791402Y-39531747D01*
X123811107Y-39517133D01*
X123832151Y-39504520D01*
X123854329Y-39494030D01*
X123877429Y-39485765D01*
X123901227Y-39479804D01*
X123925496Y-39476204D01*
X123950000Y-39475000D01*
X130050000Y-39475000D01*
X130074504Y-39476204D01*
X130074504Y-39476204D01*
G37*
D18*
X127000000Y-40375000D03*
G04 #@! TD*
D12*
G04 #@! TO.C,C40*
G36*
X122574504Y-39476204D02*
X122598773Y-39479804D01*
X122622571Y-39485765D01*
X122645671Y-39494030D01*
X122667849Y-39504520D01*
X122688893Y-39517133D01*
X122708598Y-39531747D01*
X122726777Y-39548223D01*
X122743253Y-39566402D01*
X122757867Y-39586107D01*
X122770480Y-39607151D01*
X122780970Y-39629329D01*
X122789235Y-39652429D01*
X122795196Y-39676227D01*
X122798796Y-39700496D01*
X122800000Y-39725000D01*
X122800000Y-41025000D01*
X122798796Y-41049504D01*
X122795196Y-41073773D01*
X122789235Y-41097571D01*
X122780970Y-41120671D01*
X122770480Y-41142849D01*
X122757867Y-41163893D01*
X122743253Y-41183598D01*
X122726777Y-41201777D01*
X122708598Y-41218253D01*
X122688893Y-41232867D01*
X122667849Y-41245480D01*
X122645671Y-41255970D01*
X122622571Y-41264235D01*
X122598773Y-41270196D01*
X122574504Y-41273796D01*
X122550000Y-41275000D01*
X116450000Y-41275000D01*
X116425496Y-41273796D01*
X116401227Y-41270196D01*
X116377429Y-41264235D01*
X116354329Y-41255970D01*
X116332151Y-41245480D01*
X116311107Y-41232867D01*
X116291402Y-41218253D01*
X116273223Y-41201777D01*
X116256747Y-41183598D01*
X116242133Y-41163893D01*
X116229520Y-41142849D01*
X116219030Y-41120671D01*
X116210765Y-41097571D01*
X116204804Y-41073773D01*
X116201204Y-41049504D01*
X116200000Y-41025000D01*
X116200000Y-39725000D01*
X116201204Y-39700496D01*
X116204804Y-39676227D01*
X116210765Y-39652429D01*
X116219030Y-39629329D01*
X116229520Y-39607151D01*
X116242133Y-39586107D01*
X116256747Y-39566402D01*
X116273223Y-39548223D01*
X116291402Y-39531747D01*
X116311107Y-39517133D01*
X116332151Y-39504520D01*
X116354329Y-39494030D01*
X116377429Y-39485765D01*
X116401227Y-39479804D01*
X116425496Y-39476204D01*
X116450000Y-39475000D01*
X122550000Y-39475000D01*
X122574504Y-39476204D01*
X122574504Y-39476204D01*
G37*
D18*
X119500000Y-40375000D03*
D12*
G36*
X122574504Y-44726204D02*
X122598773Y-44729804D01*
X122622571Y-44735765D01*
X122645671Y-44744030D01*
X122667849Y-44754520D01*
X122688893Y-44767133D01*
X122708598Y-44781747D01*
X122726777Y-44798223D01*
X122743253Y-44816402D01*
X122757867Y-44836107D01*
X122770480Y-44857151D01*
X122780970Y-44879329D01*
X122789235Y-44902429D01*
X122795196Y-44926227D01*
X122798796Y-44950496D01*
X122800000Y-44975000D01*
X122800000Y-46275000D01*
X122798796Y-46299504D01*
X122795196Y-46323773D01*
X122789235Y-46347571D01*
X122780970Y-46370671D01*
X122770480Y-46392849D01*
X122757867Y-46413893D01*
X122743253Y-46433598D01*
X122726777Y-46451777D01*
X122708598Y-46468253D01*
X122688893Y-46482867D01*
X122667849Y-46495480D01*
X122645671Y-46505970D01*
X122622571Y-46514235D01*
X122598773Y-46520196D01*
X122574504Y-46523796D01*
X122550000Y-46525000D01*
X116450000Y-46525000D01*
X116425496Y-46523796D01*
X116401227Y-46520196D01*
X116377429Y-46514235D01*
X116354329Y-46505970D01*
X116332151Y-46495480D01*
X116311107Y-46482867D01*
X116291402Y-46468253D01*
X116273223Y-46451777D01*
X116256747Y-46433598D01*
X116242133Y-46413893D01*
X116229520Y-46392849D01*
X116219030Y-46370671D01*
X116210765Y-46347571D01*
X116204804Y-46323773D01*
X116201204Y-46299504D01*
X116200000Y-46275000D01*
X116200000Y-44975000D01*
X116201204Y-44950496D01*
X116204804Y-44926227D01*
X116210765Y-44902429D01*
X116219030Y-44879329D01*
X116229520Y-44857151D01*
X116242133Y-44836107D01*
X116256747Y-44816402D01*
X116273223Y-44798223D01*
X116291402Y-44781747D01*
X116311107Y-44767133D01*
X116332151Y-44754520D01*
X116354329Y-44744030D01*
X116377429Y-44735765D01*
X116401227Y-44729804D01*
X116425496Y-44726204D01*
X116450000Y-44725000D01*
X122550000Y-44725000D01*
X122574504Y-44726204D01*
X122574504Y-44726204D01*
G37*
D18*
X119500000Y-45625000D03*
G04 #@! TD*
D12*
G04 #@! TO.C,C41*
G36*
X145074504Y-31476204D02*
X145098773Y-31479804D01*
X145122571Y-31485765D01*
X145145671Y-31494030D01*
X145167849Y-31504520D01*
X145188893Y-31517133D01*
X145208598Y-31531747D01*
X145226777Y-31548223D01*
X145243253Y-31566402D01*
X145257867Y-31586107D01*
X145270480Y-31607151D01*
X145280970Y-31629329D01*
X145289235Y-31652429D01*
X145295196Y-31676227D01*
X145298796Y-31700496D01*
X145300000Y-31725000D01*
X145300000Y-33025000D01*
X145298796Y-33049504D01*
X145295196Y-33073773D01*
X145289235Y-33097571D01*
X145280970Y-33120671D01*
X145270480Y-33142849D01*
X145257867Y-33163893D01*
X145243253Y-33183598D01*
X145226777Y-33201777D01*
X145208598Y-33218253D01*
X145188893Y-33232867D01*
X145167849Y-33245480D01*
X145145671Y-33255970D01*
X145122571Y-33264235D01*
X145098773Y-33270196D01*
X145074504Y-33273796D01*
X145050000Y-33275000D01*
X138950000Y-33275000D01*
X138925496Y-33273796D01*
X138901227Y-33270196D01*
X138877429Y-33264235D01*
X138854329Y-33255970D01*
X138832151Y-33245480D01*
X138811107Y-33232867D01*
X138791402Y-33218253D01*
X138773223Y-33201777D01*
X138756747Y-33183598D01*
X138742133Y-33163893D01*
X138729520Y-33142849D01*
X138719030Y-33120671D01*
X138710765Y-33097571D01*
X138704804Y-33073773D01*
X138701204Y-33049504D01*
X138700000Y-33025000D01*
X138700000Y-31725000D01*
X138701204Y-31700496D01*
X138704804Y-31676227D01*
X138710765Y-31652429D01*
X138719030Y-31629329D01*
X138729520Y-31607151D01*
X138742133Y-31586107D01*
X138756747Y-31566402D01*
X138773223Y-31548223D01*
X138791402Y-31531747D01*
X138811107Y-31517133D01*
X138832151Y-31504520D01*
X138854329Y-31494030D01*
X138877429Y-31485765D01*
X138901227Y-31479804D01*
X138925496Y-31476204D01*
X138950000Y-31475000D01*
X145050000Y-31475000D01*
X145074504Y-31476204D01*
X145074504Y-31476204D01*
G37*
D18*
X142000000Y-32375000D03*
D12*
G36*
X145074504Y-36726204D02*
X145098773Y-36729804D01*
X145122571Y-36735765D01*
X145145671Y-36744030D01*
X145167849Y-36754520D01*
X145188893Y-36767133D01*
X145208598Y-36781747D01*
X145226777Y-36798223D01*
X145243253Y-36816402D01*
X145257867Y-36836107D01*
X145270480Y-36857151D01*
X145280970Y-36879329D01*
X145289235Y-36902429D01*
X145295196Y-36926227D01*
X145298796Y-36950496D01*
X145300000Y-36975000D01*
X145300000Y-38275000D01*
X145298796Y-38299504D01*
X145295196Y-38323773D01*
X145289235Y-38347571D01*
X145280970Y-38370671D01*
X145270480Y-38392849D01*
X145257867Y-38413893D01*
X145243253Y-38433598D01*
X145226777Y-38451777D01*
X145208598Y-38468253D01*
X145188893Y-38482867D01*
X145167849Y-38495480D01*
X145145671Y-38505970D01*
X145122571Y-38514235D01*
X145098773Y-38520196D01*
X145074504Y-38523796D01*
X145050000Y-38525000D01*
X138950000Y-38525000D01*
X138925496Y-38523796D01*
X138901227Y-38520196D01*
X138877429Y-38514235D01*
X138854329Y-38505970D01*
X138832151Y-38495480D01*
X138811107Y-38482867D01*
X138791402Y-38468253D01*
X138773223Y-38451777D01*
X138756747Y-38433598D01*
X138742133Y-38413893D01*
X138729520Y-38392849D01*
X138719030Y-38370671D01*
X138710765Y-38347571D01*
X138704804Y-38323773D01*
X138701204Y-38299504D01*
X138700000Y-38275000D01*
X138700000Y-36975000D01*
X138701204Y-36950496D01*
X138704804Y-36926227D01*
X138710765Y-36902429D01*
X138719030Y-36879329D01*
X138729520Y-36857151D01*
X138742133Y-36836107D01*
X138756747Y-36816402D01*
X138773223Y-36798223D01*
X138791402Y-36781747D01*
X138811107Y-36767133D01*
X138832151Y-36754520D01*
X138854329Y-36744030D01*
X138877429Y-36735765D01*
X138901227Y-36729804D01*
X138925496Y-36726204D01*
X138950000Y-36725000D01*
X145050000Y-36725000D01*
X145074504Y-36726204D01*
X145074504Y-36726204D01*
G37*
D18*
X142000000Y-37625000D03*
G04 #@! TD*
D12*
G04 #@! TO.C,C37*
G36*
X137574504Y-39476204D02*
X137598773Y-39479804D01*
X137622571Y-39485765D01*
X137645671Y-39494030D01*
X137667849Y-39504520D01*
X137688893Y-39517133D01*
X137708598Y-39531747D01*
X137726777Y-39548223D01*
X137743253Y-39566402D01*
X137757867Y-39586107D01*
X137770480Y-39607151D01*
X137780970Y-39629329D01*
X137789235Y-39652429D01*
X137795196Y-39676227D01*
X137798796Y-39700496D01*
X137800000Y-39725000D01*
X137800000Y-41025000D01*
X137798796Y-41049504D01*
X137795196Y-41073773D01*
X137789235Y-41097571D01*
X137780970Y-41120671D01*
X137770480Y-41142849D01*
X137757867Y-41163893D01*
X137743253Y-41183598D01*
X137726777Y-41201777D01*
X137708598Y-41218253D01*
X137688893Y-41232867D01*
X137667849Y-41245480D01*
X137645671Y-41255970D01*
X137622571Y-41264235D01*
X137598773Y-41270196D01*
X137574504Y-41273796D01*
X137550000Y-41275000D01*
X131450000Y-41275000D01*
X131425496Y-41273796D01*
X131401227Y-41270196D01*
X131377429Y-41264235D01*
X131354329Y-41255970D01*
X131332151Y-41245480D01*
X131311107Y-41232867D01*
X131291402Y-41218253D01*
X131273223Y-41201777D01*
X131256747Y-41183598D01*
X131242133Y-41163893D01*
X131229520Y-41142849D01*
X131219030Y-41120671D01*
X131210765Y-41097571D01*
X131204804Y-41073773D01*
X131201204Y-41049504D01*
X131200000Y-41025000D01*
X131200000Y-39725000D01*
X131201204Y-39700496D01*
X131204804Y-39676227D01*
X131210765Y-39652429D01*
X131219030Y-39629329D01*
X131229520Y-39607151D01*
X131242133Y-39586107D01*
X131256747Y-39566402D01*
X131273223Y-39548223D01*
X131291402Y-39531747D01*
X131311107Y-39517133D01*
X131332151Y-39504520D01*
X131354329Y-39494030D01*
X131377429Y-39485765D01*
X131401227Y-39479804D01*
X131425496Y-39476204D01*
X131450000Y-39475000D01*
X137550000Y-39475000D01*
X137574504Y-39476204D01*
X137574504Y-39476204D01*
G37*
D18*
X134500000Y-40375000D03*
D12*
G36*
X137574504Y-44726204D02*
X137598773Y-44729804D01*
X137622571Y-44735765D01*
X137645671Y-44744030D01*
X137667849Y-44754520D01*
X137688893Y-44767133D01*
X137708598Y-44781747D01*
X137726777Y-44798223D01*
X137743253Y-44816402D01*
X137757867Y-44836107D01*
X137770480Y-44857151D01*
X137780970Y-44879329D01*
X137789235Y-44902429D01*
X137795196Y-44926227D01*
X137798796Y-44950496D01*
X137800000Y-44975000D01*
X137800000Y-46275000D01*
X137798796Y-46299504D01*
X137795196Y-46323773D01*
X137789235Y-46347571D01*
X137780970Y-46370671D01*
X137770480Y-46392849D01*
X137757867Y-46413893D01*
X137743253Y-46433598D01*
X137726777Y-46451777D01*
X137708598Y-46468253D01*
X137688893Y-46482867D01*
X137667849Y-46495480D01*
X137645671Y-46505970D01*
X137622571Y-46514235D01*
X137598773Y-46520196D01*
X137574504Y-46523796D01*
X137550000Y-46525000D01*
X131450000Y-46525000D01*
X131425496Y-46523796D01*
X131401227Y-46520196D01*
X131377429Y-46514235D01*
X131354329Y-46505970D01*
X131332151Y-46495480D01*
X131311107Y-46482867D01*
X131291402Y-46468253D01*
X131273223Y-46451777D01*
X131256747Y-46433598D01*
X131242133Y-46413893D01*
X131229520Y-46392849D01*
X131219030Y-46370671D01*
X131210765Y-46347571D01*
X131204804Y-46323773D01*
X131201204Y-46299504D01*
X131200000Y-46275000D01*
X131200000Y-44975000D01*
X131201204Y-44950496D01*
X131204804Y-44926227D01*
X131210765Y-44902429D01*
X131219030Y-44879329D01*
X131229520Y-44857151D01*
X131242133Y-44836107D01*
X131256747Y-44816402D01*
X131273223Y-44798223D01*
X131291402Y-44781747D01*
X131311107Y-44767133D01*
X131332151Y-44754520D01*
X131354329Y-44744030D01*
X131377429Y-44735765D01*
X131401227Y-44729804D01*
X131425496Y-44726204D01*
X131450000Y-44725000D01*
X137550000Y-44725000D01*
X137574504Y-44726204D01*
X137574504Y-44726204D01*
G37*
D18*
X134500000Y-45625000D03*
G04 #@! TD*
D12*
G04 #@! TO.C,C32*
G36*
X130074504Y-31476204D02*
X130098773Y-31479804D01*
X130122571Y-31485765D01*
X130145671Y-31494030D01*
X130167849Y-31504520D01*
X130188893Y-31517133D01*
X130208598Y-31531747D01*
X130226777Y-31548223D01*
X130243253Y-31566402D01*
X130257867Y-31586107D01*
X130270480Y-31607151D01*
X130280970Y-31629329D01*
X130289235Y-31652429D01*
X130295196Y-31676227D01*
X130298796Y-31700496D01*
X130300000Y-31725000D01*
X130300000Y-33025000D01*
X130298796Y-33049504D01*
X130295196Y-33073773D01*
X130289235Y-33097571D01*
X130280970Y-33120671D01*
X130270480Y-33142849D01*
X130257867Y-33163893D01*
X130243253Y-33183598D01*
X130226777Y-33201777D01*
X130208598Y-33218253D01*
X130188893Y-33232867D01*
X130167849Y-33245480D01*
X130145671Y-33255970D01*
X130122571Y-33264235D01*
X130098773Y-33270196D01*
X130074504Y-33273796D01*
X130050000Y-33275000D01*
X123950000Y-33275000D01*
X123925496Y-33273796D01*
X123901227Y-33270196D01*
X123877429Y-33264235D01*
X123854329Y-33255970D01*
X123832151Y-33245480D01*
X123811107Y-33232867D01*
X123791402Y-33218253D01*
X123773223Y-33201777D01*
X123756747Y-33183598D01*
X123742133Y-33163893D01*
X123729520Y-33142849D01*
X123719030Y-33120671D01*
X123710765Y-33097571D01*
X123704804Y-33073773D01*
X123701204Y-33049504D01*
X123700000Y-33025000D01*
X123700000Y-31725000D01*
X123701204Y-31700496D01*
X123704804Y-31676227D01*
X123710765Y-31652429D01*
X123719030Y-31629329D01*
X123729520Y-31607151D01*
X123742133Y-31586107D01*
X123756747Y-31566402D01*
X123773223Y-31548223D01*
X123791402Y-31531747D01*
X123811107Y-31517133D01*
X123832151Y-31504520D01*
X123854329Y-31494030D01*
X123877429Y-31485765D01*
X123901227Y-31479804D01*
X123925496Y-31476204D01*
X123950000Y-31475000D01*
X130050000Y-31475000D01*
X130074504Y-31476204D01*
X130074504Y-31476204D01*
G37*
D18*
X127000000Y-32375000D03*
D12*
G36*
X130074504Y-36726204D02*
X130098773Y-36729804D01*
X130122571Y-36735765D01*
X130145671Y-36744030D01*
X130167849Y-36754520D01*
X130188893Y-36767133D01*
X130208598Y-36781747D01*
X130226777Y-36798223D01*
X130243253Y-36816402D01*
X130257867Y-36836107D01*
X130270480Y-36857151D01*
X130280970Y-36879329D01*
X130289235Y-36902429D01*
X130295196Y-36926227D01*
X130298796Y-36950496D01*
X130300000Y-36975000D01*
X130300000Y-38275000D01*
X130298796Y-38299504D01*
X130295196Y-38323773D01*
X130289235Y-38347571D01*
X130280970Y-38370671D01*
X130270480Y-38392849D01*
X130257867Y-38413893D01*
X130243253Y-38433598D01*
X130226777Y-38451777D01*
X130208598Y-38468253D01*
X130188893Y-38482867D01*
X130167849Y-38495480D01*
X130145671Y-38505970D01*
X130122571Y-38514235D01*
X130098773Y-38520196D01*
X130074504Y-38523796D01*
X130050000Y-38525000D01*
X123950000Y-38525000D01*
X123925496Y-38523796D01*
X123901227Y-38520196D01*
X123877429Y-38514235D01*
X123854329Y-38505970D01*
X123832151Y-38495480D01*
X123811107Y-38482867D01*
X123791402Y-38468253D01*
X123773223Y-38451777D01*
X123756747Y-38433598D01*
X123742133Y-38413893D01*
X123729520Y-38392849D01*
X123719030Y-38370671D01*
X123710765Y-38347571D01*
X123704804Y-38323773D01*
X123701204Y-38299504D01*
X123700000Y-38275000D01*
X123700000Y-36975000D01*
X123701204Y-36950496D01*
X123704804Y-36926227D01*
X123710765Y-36902429D01*
X123719030Y-36879329D01*
X123729520Y-36857151D01*
X123742133Y-36836107D01*
X123756747Y-36816402D01*
X123773223Y-36798223D01*
X123791402Y-36781747D01*
X123811107Y-36767133D01*
X123832151Y-36754520D01*
X123854329Y-36744030D01*
X123877429Y-36735765D01*
X123901227Y-36729804D01*
X123925496Y-36726204D01*
X123950000Y-36725000D01*
X130050000Y-36725000D01*
X130074504Y-36726204D01*
X130074504Y-36726204D01*
G37*
D18*
X127000000Y-37625000D03*
G04 #@! TD*
D12*
G04 #@! TO.C,C38*
G36*
X137574504Y-36726204D02*
X137598773Y-36729804D01*
X137622571Y-36735765D01*
X137645671Y-36744030D01*
X137667849Y-36754520D01*
X137688893Y-36767133D01*
X137708598Y-36781747D01*
X137726777Y-36798223D01*
X137743253Y-36816402D01*
X137757867Y-36836107D01*
X137770480Y-36857151D01*
X137780970Y-36879329D01*
X137789235Y-36902429D01*
X137795196Y-36926227D01*
X137798796Y-36950496D01*
X137800000Y-36975000D01*
X137800000Y-38275000D01*
X137798796Y-38299504D01*
X137795196Y-38323773D01*
X137789235Y-38347571D01*
X137780970Y-38370671D01*
X137770480Y-38392849D01*
X137757867Y-38413893D01*
X137743253Y-38433598D01*
X137726777Y-38451777D01*
X137708598Y-38468253D01*
X137688893Y-38482867D01*
X137667849Y-38495480D01*
X137645671Y-38505970D01*
X137622571Y-38514235D01*
X137598773Y-38520196D01*
X137574504Y-38523796D01*
X137550000Y-38525000D01*
X131450000Y-38525000D01*
X131425496Y-38523796D01*
X131401227Y-38520196D01*
X131377429Y-38514235D01*
X131354329Y-38505970D01*
X131332151Y-38495480D01*
X131311107Y-38482867D01*
X131291402Y-38468253D01*
X131273223Y-38451777D01*
X131256747Y-38433598D01*
X131242133Y-38413893D01*
X131229520Y-38392849D01*
X131219030Y-38370671D01*
X131210765Y-38347571D01*
X131204804Y-38323773D01*
X131201204Y-38299504D01*
X131200000Y-38275000D01*
X131200000Y-36975000D01*
X131201204Y-36950496D01*
X131204804Y-36926227D01*
X131210765Y-36902429D01*
X131219030Y-36879329D01*
X131229520Y-36857151D01*
X131242133Y-36836107D01*
X131256747Y-36816402D01*
X131273223Y-36798223D01*
X131291402Y-36781747D01*
X131311107Y-36767133D01*
X131332151Y-36754520D01*
X131354329Y-36744030D01*
X131377429Y-36735765D01*
X131401227Y-36729804D01*
X131425496Y-36726204D01*
X131450000Y-36725000D01*
X137550000Y-36725000D01*
X137574504Y-36726204D01*
X137574504Y-36726204D01*
G37*
D18*
X134500000Y-37625000D03*
D12*
G36*
X137574504Y-31476204D02*
X137598773Y-31479804D01*
X137622571Y-31485765D01*
X137645671Y-31494030D01*
X137667849Y-31504520D01*
X137688893Y-31517133D01*
X137708598Y-31531747D01*
X137726777Y-31548223D01*
X137743253Y-31566402D01*
X137757867Y-31586107D01*
X137770480Y-31607151D01*
X137780970Y-31629329D01*
X137789235Y-31652429D01*
X137795196Y-31676227D01*
X137798796Y-31700496D01*
X137800000Y-31725000D01*
X137800000Y-33025000D01*
X137798796Y-33049504D01*
X137795196Y-33073773D01*
X137789235Y-33097571D01*
X137780970Y-33120671D01*
X137770480Y-33142849D01*
X137757867Y-33163893D01*
X137743253Y-33183598D01*
X137726777Y-33201777D01*
X137708598Y-33218253D01*
X137688893Y-33232867D01*
X137667849Y-33245480D01*
X137645671Y-33255970D01*
X137622571Y-33264235D01*
X137598773Y-33270196D01*
X137574504Y-33273796D01*
X137550000Y-33275000D01*
X131450000Y-33275000D01*
X131425496Y-33273796D01*
X131401227Y-33270196D01*
X131377429Y-33264235D01*
X131354329Y-33255970D01*
X131332151Y-33245480D01*
X131311107Y-33232867D01*
X131291402Y-33218253D01*
X131273223Y-33201777D01*
X131256747Y-33183598D01*
X131242133Y-33163893D01*
X131229520Y-33142849D01*
X131219030Y-33120671D01*
X131210765Y-33097571D01*
X131204804Y-33073773D01*
X131201204Y-33049504D01*
X131200000Y-33025000D01*
X131200000Y-31725000D01*
X131201204Y-31700496D01*
X131204804Y-31676227D01*
X131210765Y-31652429D01*
X131219030Y-31629329D01*
X131229520Y-31607151D01*
X131242133Y-31586107D01*
X131256747Y-31566402D01*
X131273223Y-31548223D01*
X131291402Y-31531747D01*
X131311107Y-31517133D01*
X131332151Y-31504520D01*
X131354329Y-31494030D01*
X131377429Y-31485765D01*
X131401227Y-31479804D01*
X131425496Y-31476204D01*
X131450000Y-31475000D01*
X137550000Y-31475000D01*
X137574504Y-31476204D01*
X137574504Y-31476204D01*
G37*
D18*
X134500000Y-32375000D03*
G04 #@! TD*
D12*
G04 #@! TO.C,C33*
G36*
X145074504Y-44726204D02*
X145098773Y-44729804D01*
X145122571Y-44735765D01*
X145145671Y-44744030D01*
X145167849Y-44754520D01*
X145188893Y-44767133D01*
X145208598Y-44781747D01*
X145226777Y-44798223D01*
X145243253Y-44816402D01*
X145257867Y-44836107D01*
X145270480Y-44857151D01*
X145280970Y-44879329D01*
X145289235Y-44902429D01*
X145295196Y-44926227D01*
X145298796Y-44950496D01*
X145300000Y-44975000D01*
X145300000Y-46275000D01*
X145298796Y-46299504D01*
X145295196Y-46323773D01*
X145289235Y-46347571D01*
X145280970Y-46370671D01*
X145270480Y-46392849D01*
X145257867Y-46413893D01*
X145243253Y-46433598D01*
X145226777Y-46451777D01*
X145208598Y-46468253D01*
X145188893Y-46482867D01*
X145167849Y-46495480D01*
X145145671Y-46505970D01*
X145122571Y-46514235D01*
X145098773Y-46520196D01*
X145074504Y-46523796D01*
X145050000Y-46525000D01*
X138950000Y-46525000D01*
X138925496Y-46523796D01*
X138901227Y-46520196D01*
X138877429Y-46514235D01*
X138854329Y-46505970D01*
X138832151Y-46495480D01*
X138811107Y-46482867D01*
X138791402Y-46468253D01*
X138773223Y-46451777D01*
X138756747Y-46433598D01*
X138742133Y-46413893D01*
X138729520Y-46392849D01*
X138719030Y-46370671D01*
X138710765Y-46347571D01*
X138704804Y-46323773D01*
X138701204Y-46299504D01*
X138700000Y-46275000D01*
X138700000Y-44975000D01*
X138701204Y-44950496D01*
X138704804Y-44926227D01*
X138710765Y-44902429D01*
X138719030Y-44879329D01*
X138729520Y-44857151D01*
X138742133Y-44836107D01*
X138756747Y-44816402D01*
X138773223Y-44798223D01*
X138791402Y-44781747D01*
X138811107Y-44767133D01*
X138832151Y-44754520D01*
X138854329Y-44744030D01*
X138877429Y-44735765D01*
X138901227Y-44729804D01*
X138925496Y-44726204D01*
X138950000Y-44725000D01*
X145050000Y-44725000D01*
X145074504Y-44726204D01*
X145074504Y-44726204D01*
G37*
D18*
X142000000Y-45625000D03*
D12*
G36*
X145074504Y-39476204D02*
X145098773Y-39479804D01*
X145122571Y-39485765D01*
X145145671Y-39494030D01*
X145167849Y-39504520D01*
X145188893Y-39517133D01*
X145208598Y-39531747D01*
X145226777Y-39548223D01*
X145243253Y-39566402D01*
X145257867Y-39586107D01*
X145270480Y-39607151D01*
X145280970Y-39629329D01*
X145289235Y-39652429D01*
X145295196Y-39676227D01*
X145298796Y-39700496D01*
X145300000Y-39725000D01*
X145300000Y-41025000D01*
X145298796Y-41049504D01*
X145295196Y-41073773D01*
X145289235Y-41097571D01*
X145280970Y-41120671D01*
X145270480Y-41142849D01*
X145257867Y-41163893D01*
X145243253Y-41183598D01*
X145226777Y-41201777D01*
X145208598Y-41218253D01*
X145188893Y-41232867D01*
X145167849Y-41245480D01*
X145145671Y-41255970D01*
X145122571Y-41264235D01*
X145098773Y-41270196D01*
X145074504Y-41273796D01*
X145050000Y-41275000D01*
X138950000Y-41275000D01*
X138925496Y-41273796D01*
X138901227Y-41270196D01*
X138877429Y-41264235D01*
X138854329Y-41255970D01*
X138832151Y-41245480D01*
X138811107Y-41232867D01*
X138791402Y-41218253D01*
X138773223Y-41201777D01*
X138756747Y-41183598D01*
X138742133Y-41163893D01*
X138729520Y-41142849D01*
X138719030Y-41120671D01*
X138710765Y-41097571D01*
X138704804Y-41073773D01*
X138701204Y-41049504D01*
X138700000Y-41025000D01*
X138700000Y-39725000D01*
X138701204Y-39700496D01*
X138704804Y-39676227D01*
X138710765Y-39652429D01*
X138719030Y-39629329D01*
X138729520Y-39607151D01*
X138742133Y-39586107D01*
X138756747Y-39566402D01*
X138773223Y-39548223D01*
X138791402Y-39531747D01*
X138811107Y-39517133D01*
X138832151Y-39504520D01*
X138854329Y-39494030D01*
X138877429Y-39485765D01*
X138901227Y-39479804D01*
X138925496Y-39476204D01*
X138950000Y-39475000D01*
X145050000Y-39475000D01*
X145074504Y-39476204D01*
X145074504Y-39476204D01*
G37*
D18*
X142000000Y-40375000D03*
G04 #@! TD*
D12*
G04 #@! TO.C,C34*
G36*
X122574504Y-36726204D02*
X122598773Y-36729804D01*
X122622571Y-36735765D01*
X122645671Y-36744030D01*
X122667849Y-36754520D01*
X122688893Y-36767133D01*
X122708598Y-36781747D01*
X122726777Y-36798223D01*
X122743253Y-36816402D01*
X122757867Y-36836107D01*
X122770480Y-36857151D01*
X122780970Y-36879329D01*
X122789235Y-36902429D01*
X122795196Y-36926227D01*
X122798796Y-36950496D01*
X122800000Y-36975000D01*
X122800000Y-38275000D01*
X122798796Y-38299504D01*
X122795196Y-38323773D01*
X122789235Y-38347571D01*
X122780970Y-38370671D01*
X122770480Y-38392849D01*
X122757867Y-38413893D01*
X122743253Y-38433598D01*
X122726777Y-38451777D01*
X122708598Y-38468253D01*
X122688893Y-38482867D01*
X122667849Y-38495480D01*
X122645671Y-38505970D01*
X122622571Y-38514235D01*
X122598773Y-38520196D01*
X122574504Y-38523796D01*
X122550000Y-38525000D01*
X116450000Y-38525000D01*
X116425496Y-38523796D01*
X116401227Y-38520196D01*
X116377429Y-38514235D01*
X116354329Y-38505970D01*
X116332151Y-38495480D01*
X116311107Y-38482867D01*
X116291402Y-38468253D01*
X116273223Y-38451777D01*
X116256747Y-38433598D01*
X116242133Y-38413893D01*
X116229520Y-38392849D01*
X116219030Y-38370671D01*
X116210765Y-38347571D01*
X116204804Y-38323773D01*
X116201204Y-38299504D01*
X116200000Y-38275000D01*
X116200000Y-36975000D01*
X116201204Y-36950496D01*
X116204804Y-36926227D01*
X116210765Y-36902429D01*
X116219030Y-36879329D01*
X116229520Y-36857151D01*
X116242133Y-36836107D01*
X116256747Y-36816402D01*
X116273223Y-36798223D01*
X116291402Y-36781747D01*
X116311107Y-36767133D01*
X116332151Y-36754520D01*
X116354329Y-36744030D01*
X116377429Y-36735765D01*
X116401227Y-36729804D01*
X116425496Y-36726204D01*
X116450000Y-36725000D01*
X122550000Y-36725000D01*
X122574504Y-36726204D01*
X122574504Y-36726204D01*
G37*
D18*
X119500000Y-37625000D03*
D12*
G36*
X122574504Y-31476204D02*
X122598773Y-31479804D01*
X122622571Y-31485765D01*
X122645671Y-31494030D01*
X122667849Y-31504520D01*
X122688893Y-31517133D01*
X122708598Y-31531747D01*
X122726777Y-31548223D01*
X122743253Y-31566402D01*
X122757867Y-31586107D01*
X122770480Y-31607151D01*
X122780970Y-31629329D01*
X122789235Y-31652429D01*
X122795196Y-31676227D01*
X122798796Y-31700496D01*
X122800000Y-31725000D01*
X122800000Y-33025000D01*
X122798796Y-33049504D01*
X122795196Y-33073773D01*
X122789235Y-33097571D01*
X122780970Y-33120671D01*
X122770480Y-33142849D01*
X122757867Y-33163893D01*
X122743253Y-33183598D01*
X122726777Y-33201777D01*
X122708598Y-33218253D01*
X122688893Y-33232867D01*
X122667849Y-33245480D01*
X122645671Y-33255970D01*
X122622571Y-33264235D01*
X122598773Y-33270196D01*
X122574504Y-33273796D01*
X122550000Y-33275000D01*
X116450000Y-33275000D01*
X116425496Y-33273796D01*
X116401227Y-33270196D01*
X116377429Y-33264235D01*
X116354329Y-33255970D01*
X116332151Y-33245480D01*
X116311107Y-33232867D01*
X116291402Y-33218253D01*
X116273223Y-33201777D01*
X116256747Y-33183598D01*
X116242133Y-33163893D01*
X116229520Y-33142849D01*
X116219030Y-33120671D01*
X116210765Y-33097571D01*
X116204804Y-33073773D01*
X116201204Y-33049504D01*
X116200000Y-33025000D01*
X116200000Y-31725000D01*
X116201204Y-31700496D01*
X116204804Y-31676227D01*
X116210765Y-31652429D01*
X116219030Y-31629329D01*
X116229520Y-31607151D01*
X116242133Y-31586107D01*
X116256747Y-31566402D01*
X116273223Y-31548223D01*
X116291402Y-31531747D01*
X116311107Y-31517133D01*
X116332151Y-31504520D01*
X116354329Y-31494030D01*
X116377429Y-31485765D01*
X116401227Y-31479804D01*
X116425496Y-31476204D01*
X116450000Y-31475000D01*
X122550000Y-31475000D01*
X122574504Y-31476204D01*
X122574504Y-31476204D01*
G37*
D18*
X119500000Y-32375000D03*
G04 #@! TD*
D12*
G04 #@! TO.C,C35*
G36*
X152574504Y-44726204D02*
X152598773Y-44729804D01*
X152622571Y-44735765D01*
X152645671Y-44744030D01*
X152667849Y-44754520D01*
X152688893Y-44767133D01*
X152708598Y-44781747D01*
X152726777Y-44798223D01*
X152743253Y-44816402D01*
X152757867Y-44836107D01*
X152770480Y-44857151D01*
X152780970Y-44879329D01*
X152789235Y-44902429D01*
X152795196Y-44926227D01*
X152798796Y-44950496D01*
X152800000Y-44975000D01*
X152800000Y-46275000D01*
X152798796Y-46299504D01*
X152795196Y-46323773D01*
X152789235Y-46347571D01*
X152780970Y-46370671D01*
X152770480Y-46392849D01*
X152757867Y-46413893D01*
X152743253Y-46433598D01*
X152726777Y-46451777D01*
X152708598Y-46468253D01*
X152688893Y-46482867D01*
X152667849Y-46495480D01*
X152645671Y-46505970D01*
X152622571Y-46514235D01*
X152598773Y-46520196D01*
X152574504Y-46523796D01*
X152550000Y-46525000D01*
X146450000Y-46525000D01*
X146425496Y-46523796D01*
X146401227Y-46520196D01*
X146377429Y-46514235D01*
X146354329Y-46505970D01*
X146332151Y-46495480D01*
X146311107Y-46482867D01*
X146291402Y-46468253D01*
X146273223Y-46451777D01*
X146256747Y-46433598D01*
X146242133Y-46413893D01*
X146229520Y-46392849D01*
X146219030Y-46370671D01*
X146210765Y-46347571D01*
X146204804Y-46323773D01*
X146201204Y-46299504D01*
X146200000Y-46275000D01*
X146200000Y-44975000D01*
X146201204Y-44950496D01*
X146204804Y-44926227D01*
X146210765Y-44902429D01*
X146219030Y-44879329D01*
X146229520Y-44857151D01*
X146242133Y-44836107D01*
X146256747Y-44816402D01*
X146273223Y-44798223D01*
X146291402Y-44781747D01*
X146311107Y-44767133D01*
X146332151Y-44754520D01*
X146354329Y-44744030D01*
X146377429Y-44735765D01*
X146401227Y-44729804D01*
X146425496Y-44726204D01*
X146450000Y-44725000D01*
X152550000Y-44725000D01*
X152574504Y-44726204D01*
X152574504Y-44726204D01*
G37*
D18*
X149500000Y-45625000D03*
D12*
G36*
X152574504Y-39476204D02*
X152598773Y-39479804D01*
X152622571Y-39485765D01*
X152645671Y-39494030D01*
X152667849Y-39504520D01*
X152688893Y-39517133D01*
X152708598Y-39531747D01*
X152726777Y-39548223D01*
X152743253Y-39566402D01*
X152757867Y-39586107D01*
X152770480Y-39607151D01*
X152780970Y-39629329D01*
X152789235Y-39652429D01*
X152795196Y-39676227D01*
X152798796Y-39700496D01*
X152800000Y-39725000D01*
X152800000Y-41025000D01*
X152798796Y-41049504D01*
X152795196Y-41073773D01*
X152789235Y-41097571D01*
X152780970Y-41120671D01*
X152770480Y-41142849D01*
X152757867Y-41163893D01*
X152743253Y-41183598D01*
X152726777Y-41201777D01*
X152708598Y-41218253D01*
X152688893Y-41232867D01*
X152667849Y-41245480D01*
X152645671Y-41255970D01*
X152622571Y-41264235D01*
X152598773Y-41270196D01*
X152574504Y-41273796D01*
X152550000Y-41275000D01*
X146450000Y-41275000D01*
X146425496Y-41273796D01*
X146401227Y-41270196D01*
X146377429Y-41264235D01*
X146354329Y-41255970D01*
X146332151Y-41245480D01*
X146311107Y-41232867D01*
X146291402Y-41218253D01*
X146273223Y-41201777D01*
X146256747Y-41183598D01*
X146242133Y-41163893D01*
X146229520Y-41142849D01*
X146219030Y-41120671D01*
X146210765Y-41097571D01*
X146204804Y-41073773D01*
X146201204Y-41049504D01*
X146200000Y-41025000D01*
X146200000Y-39725000D01*
X146201204Y-39700496D01*
X146204804Y-39676227D01*
X146210765Y-39652429D01*
X146219030Y-39629329D01*
X146229520Y-39607151D01*
X146242133Y-39586107D01*
X146256747Y-39566402D01*
X146273223Y-39548223D01*
X146291402Y-39531747D01*
X146311107Y-39517133D01*
X146332151Y-39504520D01*
X146354329Y-39494030D01*
X146377429Y-39485765D01*
X146401227Y-39479804D01*
X146425496Y-39476204D01*
X146450000Y-39475000D01*
X152550000Y-39475000D01*
X152574504Y-39476204D01*
X152574504Y-39476204D01*
G37*
D18*
X149500000Y-40375000D03*
G04 #@! TD*
D12*
G04 #@! TO.C,C26*
G36*
X122574504Y-55476204D02*
X122598773Y-55479804D01*
X122622571Y-55485765D01*
X122645671Y-55494030D01*
X122667849Y-55504520D01*
X122688893Y-55517133D01*
X122708598Y-55531747D01*
X122726777Y-55548223D01*
X122743253Y-55566402D01*
X122757867Y-55586107D01*
X122770480Y-55607151D01*
X122780970Y-55629329D01*
X122789235Y-55652429D01*
X122795196Y-55676227D01*
X122798796Y-55700496D01*
X122800000Y-55725000D01*
X122800000Y-57025000D01*
X122798796Y-57049504D01*
X122795196Y-57073773D01*
X122789235Y-57097571D01*
X122780970Y-57120671D01*
X122770480Y-57142849D01*
X122757867Y-57163893D01*
X122743253Y-57183598D01*
X122726777Y-57201777D01*
X122708598Y-57218253D01*
X122688893Y-57232867D01*
X122667849Y-57245480D01*
X122645671Y-57255970D01*
X122622571Y-57264235D01*
X122598773Y-57270196D01*
X122574504Y-57273796D01*
X122550000Y-57275000D01*
X116450000Y-57275000D01*
X116425496Y-57273796D01*
X116401227Y-57270196D01*
X116377429Y-57264235D01*
X116354329Y-57255970D01*
X116332151Y-57245480D01*
X116311107Y-57232867D01*
X116291402Y-57218253D01*
X116273223Y-57201777D01*
X116256747Y-57183598D01*
X116242133Y-57163893D01*
X116229520Y-57142849D01*
X116219030Y-57120671D01*
X116210765Y-57097571D01*
X116204804Y-57073773D01*
X116201204Y-57049504D01*
X116200000Y-57025000D01*
X116200000Y-55725000D01*
X116201204Y-55700496D01*
X116204804Y-55676227D01*
X116210765Y-55652429D01*
X116219030Y-55629329D01*
X116229520Y-55607151D01*
X116242133Y-55586107D01*
X116256747Y-55566402D01*
X116273223Y-55548223D01*
X116291402Y-55531747D01*
X116311107Y-55517133D01*
X116332151Y-55504520D01*
X116354329Y-55494030D01*
X116377429Y-55485765D01*
X116401227Y-55479804D01*
X116425496Y-55476204D01*
X116450000Y-55475000D01*
X122550000Y-55475000D01*
X122574504Y-55476204D01*
X122574504Y-55476204D01*
G37*
D18*
X119500000Y-56375000D03*
D12*
G36*
X122574504Y-60726204D02*
X122598773Y-60729804D01*
X122622571Y-60735765D01*
X122645671Y-60744030D01*
X122667849Y-60754520D01*
X122688893Y-60767133D01*
X122708598Y-60781747D01*
X122726777Y-60798223D01*
X122743253Y-60816402D01*
X122757867Y-60836107D01*
X122770480Y-60857151D01*
X122780970Y-60879329D01*
X122789235Y-60902429D01*
X122795196Y-60926227D01*
X122798796Y-60950496D01*
X122800000Y-60975000D01*
X122800000Y-62275000D01*
X122798796Y-62299504D01*
X122795196Y-62323773D01*
X122789235Y-62347571D01*
X122780970Y-62370671D01*
X122770480Y-62392849D01*
X122757867Y-62413893D01*
X122743253Y-62433598D01*
X122726777Y-62451777D01*
X122708598Y-62468253D01*
X122688893Y-62482867D01*
X122667849Y-62495480D01*
X122645671Y-62505970D01*
X122622571Y-62514235D01*
X122598773Y-62520196D01*
X122574504Y-62523796D01*
X122550000Y-62525000D01*
X116450000Y-62525000D01*
X116425496Y-62523796D01*
X116401227Y-62520196D01*
X116377429Y-62514235D01*
X116354329Y-62505970D01*
X116332151Y-62495480D01*
X116311107Y-62482867D01*
X116291402Y-62468253D01*
X116273223Y-62451777D01*
X116256747Y-62433598D01*
X116242133Y-62413893D01*
X116229520Y-62392849D01*
X116219030Y-62370671D01*
X116210765Y-62347571D01*
X116204804Y-62323773D01*
X116201204Y-62299504D01*
X116200000Y-62275000D01*
X116200000Y-60975000D01*
X116201204Y-60950496D01*
X116204804Y-60926227D01*
X116210765Y-60902429D01*
X116219030Y-60879329D01*
X116229520Y-60857151D01*
X116242133Y-60836107D01*
X116256747Y-60816402D01*
X116273223Y-60798223D01*
X116291402Y-60781747D01*
X116311107Y-60767133D01*
X116332151Y-60754520D01*
X116354329Y-60744030D01*
X116377429Y-60735765D01*
X116401227Y-60729804D01*
X116425496Y-60726204D01*
X116450000Y-60725000D01*
X122550000Y-60725000D01*
X122574504Y-60726204D01*
X122574504Y-60726204D01*
G37*
D18*
X119500000Y-61625000D03*
G04 #@! TD*
D12*
G04 #@! TO.C,C27*
G36*
X152574504Y-60726204D02*
X152598773Y-60729804D01*
X152622571Y-60735765D01*
X152645671Y-60744030D01*
X152667849Y-60754520D01*
X152688893Y-60767133D01*
X152708598Y-60781747D01*
X152726777Y-60798223D01*
X152743253Y-60816402D01*
X152757867Y-60836107D01*
X152770480Y-60857151D01*
X152780970Y-60879329D01*
X152789235Y-60902429D01*
X152795196Y-60926227D01*
X152798796Y-60950496D01*
X152800000Y-60975000D01*
X152800000Y-62275000D01*
X152798796Y-62299504D01*
X152795196Y-62323773D01*
X152789235Y-62347571D01*
X152780970Y-62370671D01*
X152770480Y-62392849D01*
X152757867Y-62413893D01*
X152743253Y-62433598D01*
X152726777Y-62451777D01*
X152708598Y-62468253D01*
X152688893Y-62482867D01*
X152667849Y-62495480D01*
X152645671Y-62505970D01*
X152622571Y-62514235D01*
X152598773Y-62520196D01*
X152574504Y-62523796D01*
X152550000Y-62525000D01*
X146450000Y-62525000D01*
X146425496Y-62523796D01*
X146401227Y-62520196D01*
X146377429Y-62514235D01*
X146354329Y-62505970D01*
X146332151Y-62495480D01*
X146311107Y-62482867D01*
X146291402Y-62468253D01*
X146273223Y-62451777D01*
X146256747Y-62433598D01*
X146242133Y-62413893D01*
X146229520Y-62392849D01*
X146219030Y-62370671D01*
X146210765Y-62347571D01*
X146204804Y-62323773D01*
X146201204Y-62299504D01*
X146200000Y-62275000D01*
X146200000Y-60975000D01*
X146201204Y-60950496D01*
X146204804Y-60926227D01*
X146210765Y-60902429D01*
X146219030Y-60879329D01*
X146229520Y-60857151D01*
X146242133Y-60836107D01*
X146256747Y-60816402D01*
X146273223Y-60798223D01*
X146291402Y-60781747D01*
X146311107Y-60767133D01*
X146332151Y-60754520D01*
X146354329Y-60744030D01*
X146377429Y-60735765D01*
X146401227Y-60729804D01*
X146425496Y-60726204D01*
X146450000Y-60725000D01*
X152550000Y-60725000D01*
X152574504Y-60726204D01*
X152574504Y-60726204D01*
G37*
D18*
X149500000Y-61625000D03*
D12*
G36*
X152574504Y-55476204D02*
X152598773Y-55479804D01*
X152622571Y-55485765D01*
X152645671Y-55494030D01*
X152667849Y-55504520D01*
X152688893Y-55517133D01*
X152708598Y-55531747D01*
X152726777Y-55548223D01*
X152743253Y-55566402D01*
X152757867Y-55586107D01*
X152770480Y-55607151D01*
X152780970Y-55629329D01*
X152789235Y-55652429D01*
X152795196Y-55676227D01*
X152798796Y-55700496D01*
X152800000Y-55725000D01*
X152800000Y-57025000D01*
X152798796Y-57049504D01*
X152795196Y-57073773D01*
X152789235Y-57097571D01*
X152780970Y-57120671D01*
X152770480Y-57142849D01*
X152757867Y-57163893D01*
X152743253Y-57183598D01*
X152726777Y-57201777D01*
X152708598Y-57218253D01*
X152688893Y-57232867D01*
X152667849Y-57245480D01*
X152645671Y-57255970D01*
X152622571Y-57264235D01*
X152598773Y-57270196D01*
X152574504Y-57273796D01*
X152550000Y-57275000D01*
X146450000Y-57275000D01*
X146425496Y-57273796D01*
X146401227Y-57270196D01*
X146377429Y-57264235D01*
X146354329Y-57255970D01*
X146332151Y-57245480D01*
X146311107Y-57232867D01*
X146291402Y-57218253D01*
X146273223Y-57201777D01*
X146256747Y-57183598D01*
X146242133Y-57163893D01*
X146229520Y-57142849D01*
X146219030Y-57120671D01*
X146210765Y-57097571D01*
X146204804Y-57073773D01*
X146201204Y-57049504D01*
X146200000Y-57025000D01*
X146200000Y-55725000D01*
X146201204Y-55700496D01*
X146204804Y-55676227D01*
X146210765Y-55652429D01*
X146219030Y-55629329D01*
X146229520Y-55607151D01*
X146242133Y-55586107D01*
X146256747Y-55566402D01*
X146273223Y-55548223D01*
X146291402Y-55531747D01*
X146311107Y-55517133D01*
X146332151Y-55504520D01*
X146354329Y-55494030D01*
X146377429Y-55485765D01*
X146401227Y-55479804D01*
X146425496Y-55476204D01*
X146450000Y-55475000D01*
X152550000Y-55475000D01*
X152574504Y-55476204D01*
X152574504Y-55476204D01*
G37*
D18*
X149500000Y-56375000D03*
G04 #@! TD*
D12*
G04 #@! TO.C,C31*
G36*
X152574504Y-52726204D02*
X152598773Y-52729804D01*
X152622571Y-52735765D01*
X152645671Y-52744030D01*
X152667849Y-52754520D01*
X152688893Y-52767133D01*
X152708598Y-52781747D01*
X152726777Y-52798223D01*
X152743253Y-52816402D01*
X152757867Y-52836107D01*
X152770480Y-52857151D01*
X152780970Y-52879329D01*
X152789235Y-52902429D01*
X152795196Y-52926227D01*
X152798796Y-52950496D01*
X152800000Y-52975000D01*
X152800000Y-54275000D01*
X152798796Y-54299504D01*
X152795196Y-54323773D01*
X152789235Y-54347571D01*
X152780970Y-54370671D01*
X152770480Y-54392849D01*
X152757867Y-54413893D01*
X152743253Y-54433598D01*
X152726777Y-54451777D01*
X152708598Y-54468253D01*
X152688893Y-54482867D01*
X152667849Y-54495480D01*
X152645671Y-54505970D01*
X152622571Y-54514235D01*
X152598773Y-54520196D01*
X152574504Y-54523796D01*
X152550000Y-54525000D01*
X146450000Y-54525000D01*
X146425496Y-54523796D01*
X146401227Y-54520196D01*
X146377429Y-54514235D01*
X146354329Y-54505970D01*
X146332151Y-54495480D01*
X146311107Y-54482867D01*
X146291402Y-54468253D01*
X146273223Y-54451777D01*
X146256747Y-54433598D01*
X146242133Y-54413893D01*
X146229520Y-54392849D01*
X146219030Y-54370671D01*
X146210765Y-54347571D01*
X146204804Y-54323773D01*
X146201204Y-54299504D01*
X146200000Y-54275000D01*
X146200000Y-52975000D01*
X146201204Y-52950496D01*
X146204804Y-52926227D01*
X146210765Y-52902429D01*
X146219030Y-52879329D01*
X146229520Y-52857151D01*
X146242133Y-52836107D01*
X146256747Y-52816402D01*
X146273223Y-52798223D01*
X146291402Y-52781747D01*
X146311107Y-52767133D01*
X146332151Y-52754520D01*
X146354329Y-52744030D01*
X146377429Y-52735765D01*
X146401227Y-52729804D01*
X146425496Y-52726204D01*
X146450000Y-52725000D01*
X152550000Y-52725000D01*
X152574504Y-52726204D01*
X152574504Y-52726204D01*
G37*
D18*
X149500000Y-53625000D03*
D12*
G36*
X152574504Y-47476204D02*
X152598773Y-47479804D01*
X152622571Y-47485765D01*
X152645671Y-47494030D01*
X152667849Y-47504520D01*
X152688893Y-47517133D01*
X152708598Y-47531747D01*
X152726777Y-47548223D01*
X152743253Y-47566402D01*
X152757867Y-47586107D01*
X152770480Y-47607151D01*
X152780970Y-47629329D01*
X152789235Y-47652429D01*
X152795196Y-47676227D01*
X152798796Y-47700496D01*
X152800000Y-47725000D01*
X152800000Y-49025000D01*
X152798796Y-49049504D01*
X152795196Y-49073773D01*
X152789235Y-49097571D01*
X152780970Y-49120671D01*
X152770480Y-49142849D01*
X152757867Y-49163893D01*
X152743253Y-49183598D01*
X152726777Y-49201777D01*
X152708598Y-49218253D01*
X152688893Y-49232867D01*
X152667849Y-49245480D01*
X152645671Y-49255970D01*
X152622571Y-49264235D01*
X152598773Y-49270196D01*
X152574504Y-49273796D01*
X152550000Y-49275000D01*
X146450000Y-49275000D01*
X146425496Y-49273796D01*
X146401227Y-49270196D01*
X146377429Y-49264235D01*
X146354329Y-49255970D01*
X146332151Y-49245480D01*
X146311107Y-49232867D01*
X146291402Y-49218253D01*
X146273223Y-49201777D01*
X146256747Y-49183598D01*
X146242133Y-49163893D01*
X146229520Y-49142849D01*
X146219030Y-49120671D01*
X146210765Y-49097571D01*
X146204804Y-49073773D01*
X146201204Y-49049504D01*
X146200000Y-49025000D01*
X146200000Y-47725000D01*
X146201204Y-47700496D01*
X146204804Y-47676227D01*
X146210765Y-47652429D01*
X146219030Y-47629329D01*
X146229520Y-47607151D01*
X146242133Y-47586107D01*
X146256747Y-47566402D01*
X146273223Y-47548223D01*
X146291402Y-47531747D01*
X146311107Y-47517133D01*
X146332151Y-47504520D01*
X146354329Y-47494030D01*
X146377429Y-47485765D01*
X146401227Y-47479804D01*
X146425496Y-47476204D01*
X146450000Y-47475000D01*
X152550000Y-47475000D01*
X152574504Y-47476204D01*
X152574504Y-47476204D01*
G37*
D18*
X149500000Y-48375000D03*
G04 #@! TD*
D12*
G04 #@! TO.C,C30*
G36*
X130074504Y-60726204D02*
X130098773Y-60729804D01*
X130122571Y-60735765D01*
X130145671Y-60744030D01*
X130167849Y-60754520D01*
X130188893Y-60767133D01*
X130208598Y-60781747D01*
X130226777Y-60798223D01*
X130243253Y-60816402D01*
X130257867Y-60836107D01*
X130270480Y-60857151D01*
X130280970Y-60879329D01*
X130289235Y-60902429D01*
X130295196Y-60926227D01*
X130298796Y-60950496D01*
X130300000Y-60975000D01*
X130300000Y-62275000D01*
X130298796Y-62299504D01*
X130295196Y-62323773D01*
X130289235Y-62347571D01*
X130280970Y-62370671D01*
X130270480Y-62392849D01*
X130257867Y-62413893D01*
X130243253Y-62433598D01*
X130226777Y-62451777D01*
X130208598Y-62468253D01*
X130188893Y-62482867D01*
X130167849Y-62495480D01*
X130145671Y-62505970D01*
X130122571Y-62514235D01*
X130098773Y-62520196D01*
X130074504Y-62523796D01*
X130050000Y-62525000D01*
X123950000Y-62525000D01*
X123925496Y-62523796D01*
X123901227Y-62520196D01*
X123877429Y-62514235D01*
X123854329Y-62505970D01*
X123832151Y-62495480D01*
X123811107Y-62482867D01*
X123791402Y-62468253D01*
X123773223Y-62451777D01*
X123756747Y-62433598D01*
X123742133Y-62413893D01*
X123729520Y-62392849D01*
X123719030Y-62370671D01*
X123710765Y-62347571D01*
X123704804Y-62323773D01*
X123701204Y-62299504D01*
X123700000Y-62275000D01*
X123700000Y-60975000D01*
X123701204Y-60950496D01*
X123704804Y-60926227D01*
X123710765Y-60902429D01*
X123719030Y-60879329D01*
X123729520Y-60857151D01*
X123742133Y-60836107D01*
X123756747Y-60816402D01*
X123773223Y-60798223D01*
X123791402Y-60781747D01*
X123811107Y-60767133D01*
X123832151Y-60754520D01*
X123854329Y-60744030D01*
X123877429Y-60735765D01*
X123901227Y-60729804D01*
X123925496Y-60726204D01*
X123950000Y-60725000D01*
X130050000Y-60725000D01*
X130074504Y-60726204D01*
X130074504Y-60726204D01*
G37*
D18*
X127000000Y-61625000D03*
D12*
G36*
X130074504Y-55476204D02*
X130098773Y-55479804D01*
X130122571Y-55485765D01*
X130145671Y-55494030D01*
X130167849Y-55504520D01*
X130188893Y-55517133D01*
X130208598Y-55531747D01*
X130226777Y-55548223D01*
X130243253Y-55566402D01*
X130257867Y-55586107D01*
X130270480Y-55607151D01*
X130280970Y-55629329D01*
X130289235Y-55652429D01*
X130295196Y-55676227D01*
X130298796Y-55700496D01*
X130300000Y-55725000D01*
X130300000Y-57025000D01*
X130298796Y-57049504D01*
X130295196Y-57073773D01*
X130289235Y-57097571D01*
X130280970Y-57120671D01*
X130270480Y-57142849D01*
X130257867Y-57163893D01*
X130243253Y-57183598D01*
X130226777Y-57201777D01*
X130208598Y-57218253D01*
X130188893Y-57232867D01*
X130167849Y-57245480D01*
X130145671Y-57255970D01*
X130122571Y-57264235D01*
X130098773Y-57270196D01*
X130074504Y-57273796D01*
X130050000Y-57275000D01*
X123950000Y-57275000D01*
X123925496Y-57273796D01*
X123901227Y-57270196D01*
X123877429Y-57264235D01*
X123854329Y-57255970D01*
X123832151Y-57245480D01*
X123811107Y-57232867D01*
X123791402Y-57218253D01*
X123773223Y-57201777D01*
X123756747Y-57183598D01*
X123742133Y-57163893D01*
X123729520Y-57142849D01*
X123719030Y-57120671D01*
X123710765Y-57097571D01*
X123704804Y-57073773D01*
X123701204Y-57049504D01*
X123700000Y-57025000D01*
X123700000Y-55725000D01*
X123701204Y-55700496D01*
X123704804Y-55676227D01*
X123710765Y-55652429D01*
X123719030Y-55629329D01*
X123729520Y-55607151D01*
X123742133Y-55586107D01*
X123756747Y-55566402D01*
X123773223Y-55548223D01*
X123791402Y-55531747D01*
X123811107Y-55517133D01*
X123832151Y-55504520D01*
X123854329Y-55494030D01*
X123877429Y-55485765D01*
X123901227Y-55479804D01*
X123925496Y-55476204D01*
X123950000Y-55475000D01*
X130050000Y-55475000D01*
X130074504Y-55476204D01*
X130074504Y-55476204D01*
G37*
D18*
X127000000Y-56375000D03*
G04 #@! TD*
D12*
G04 #@! TO.C,C28*
G36*
X145074504Y-55476204D02*
X145098773Y-55479804D01*
X145122571Y-55485765D01*
X145145671Y-55494030D01*
X145167849Y-55504520D01*
X145188893Y-55517133D01*
X145208598Y-55531747D01*
X145226777Y-55548223D01*
X145243253Y-55566402D01*
X145257867Y-55586107D01*
X145270480Y-55607151D01*
X145280970Y-55629329D01*
X145289235Y-55652429D01*
X145295196Y-55676227D01*
X145298796Y-55700496D01*
X145300000Y-55725000D01*
X145300000Y-57025000D01*
X145298796Y-57049504D01*
X145295196Y-57073773D01*
X145289235Y-57097571D01*
X145280970Y-57120671D01*
X145270480Y-57142849D01*
X145257867Y-57163893D01*
X145243253Y-57183598D01*
X145226777Y-57201777D01*
X145208598Y-57218253D01*
X145188893Y-57232867D01*
X145167849Y-57245480D01*
X145145671Y-57255970D01*
X145122571Y-57264235D01*
X145098773Y-57270196D01*
X145074504Y-57273796D01*
X145050000Y-57275000D01*
X138950000Y-57275000D01*
X138925496Y-57273796D01*
X138901227Y-57270196D01*
X138877429Y-57264235D01*
X138854329Y-57255970D01*
X138832151Y-57245480D01*
X138811107Y-57232867D01*
X138791402Y-57218253D01*
X138773223Y-57201777D01*
X138756747Y-57183598D01*
X138742133Y-57163893D01*
X138729520Y-57142849D01*
X138719030Y-57120671D01*
X138710765Y-57097571D01*
X138704804Y-57073773D01*
X138701204Y-57049504D01*
X138700000Y-57025000D01*
X138700000Y-55725000D01*
X138701204Y-55700496D01*
X138704804Y-55676227D01*
X138710765Y-55652429D01*
X138719030Y-55629329D01*
X138729520Y-55607151D01*
X138742133Y-55586107D01*
X138756747Y-55566402D01*
X138773223Y-55548223D01*
X138791402Y-55531747D01*
X138811107Y-55517133D01*
X138832151Y-55504520D01*
X138854329Y-55494030D01*
X138877429Y-55485765D01*
X138901227Y-55479804D01*
X138925496Y-55476204D01*
X138950000Y-55475000D01*
X145050000Y-55475000D01*
X145074504Y-55476204D01*
X145074504Y-55476204D01*
G37*
D18*
X142000000Y-56375000D03*
D12*
G36*
X145074504Y-60726204D02*
X145098773Y-60729804D01*
X145122571Y-60735765D01*
X145145671Y-60744030D01*
X145167849Y-60754520D01*
X145188893Y-60767133D01*
X145208598Y-60781747D01*
X145226777Y-60798223D01*
X145243253Y-60816402D01*
X145257867Y-60836107D01*
X145270480Y-60857151D01*
X145280970Y-60879329D01*
X145289235Y-60902429D01*
X145295196Y-60926227D01*
X145298796Y-60950496D01*
X145300000Y-60975000D01*
X145300000Y-62275000D01*
X145298796Y-62299504D01*
X145295196Y-62323773D01*
X145289235Y-62347571D01*
X145280970Y-62370671D01*
X145270480Y-62392849D01*
X145257867Y-62413893D01*
X145243253Y-62433598D01*
X145226777Y-62451777D01*
X145208598Y-62468253D01*
X145188893Y-62482867D01*
X145167849Y-62495480D01*
X145145671Y-62505970D01*
X145122571Y-62514235D01*
X145098773Y-62520196D01*
X145074504Y-62523796D01*
X145050000Y-62525000D01*
X138950000Y-62525000D01*
X138925496Y-62523796D01*
X138901227Y-62520196D01*
X138877429Y-62514235D01*
X138854329Y-62505970D01*
X138832151Y-62495480D01*
X138811107Y-62482867D01*
X138791402Y-62468253D01*
X138773223Y-62451777D01*
X138756747Y-62433598D01*
X138742133Y-62413893D01*
X138729520Y-62392849D01*
X138719030Y-62370671D01*
X138710765Y-62347571D01*
X138704804Y-62323773D01*
X138701204Y-62299504D01*
X138700000Y-62275000D01*
X138700000Y-60975000D01*
X138701204Y-60950496D01*
X138704804Y-60926227D01*
X138710765Y-60902429D01*
X138719030Y-60879329D01*
X138729520Y-60857151D01*
X138742133Y-60836107D01*
X138756747Y-60816402D01*
X138773223Y-60798223D01*
X138791402Y-60781747D01*
X138811107Y-60767133D01*
X138832151Y-60754520D01*
X138854329Y-60744030D01*
X138877429Y-60735765D01*
X138901227Y-60729804D01*
X138925496Y-60726204D01*
X138950000Y-60725000D01*
X145050000Y-60725000D01*
X145074504Y-60726204D01*
X145074504Y-60726204D01*
G37*
D18*
X142000000Y-61625000D03*
G04 #@! TD*
D12*
G04 #@! TO.C,C29*
G36*
X137574504Y-60726204D02*
X137598773Y-60729804D01*
X137622571Y-60735765D01*
X137645671Y-60744030D01*
X137667849Y-60754520D01*
X137688893Y-60767133D01*
X137708598Y-60781747D01*
X137726777Y-60798223D01*
X137743253Y-60816402D01*
X137757867Y-60836107D01*
X137770480Y-60857151D01*
X137780970Y-60879329D01*
X137789235Y-60902429D01*
X137795196Y-60926227D01*
X137798796Y-60950496D01*
X137800000Y-60975000D01*
X137800000Y-62275000D01*
X137798796Y-62299504D01*
X137795196Y-62323773D01*
X137789235Y-62347571D01*
X137780970Y-62370671D01*
X137770480Y-62392849D01*
X137757867Y-62413893D01*
X137743253Y-62433598D01*
X137726777Y-62451777D01*
X137708598Y-62468253D01*
X137688893Y-62482867D01*
X137667849Y-62495480D01*
X137645671Y-62505970D01*
X137622571Y-62514235D01*
X137598773Y-62520196D01*
X137574504Y-62523796D01*
X137550000Y-62525000D01*
X131450000Y-62525000D01*
X131425496Y-62523796D01*
X131401227Y-62520196D01*
X131377429Y-62514235D01*
X131354329Y-62505970D01*
X131332151Y-62495480D01*
X131311107Y-62482867D01*
X131291402Y-62468253D01*
X131273223Y-62451777D01*
X131256747Y-62433598D01*
X131242133Y-62413893D01*
X131229520Y-62392849D01*
X131219030Y-62370671D01*
X131210765Y-62347571D01*
X131204804Y-62323773D01*
X131201204Y-62299504D01*
X131200000Y-62275000D01*
X131200000Y-60975000D01*
X131201204Y-60950496D01*
X131204804Y-60926227D01*
X131210765Y-60902429D01*
X131219030Y-60879329D01*
X131229520Y-60857151D01*
X131242133Y-60836107D01*
X131256747Y-60816402D01*
X131273223Y-60798223D01*
X131291402Y-60781747D01*
X131311107Y-60767133D01*
X131332151Y-60754520D01*
X131354329Y-60744030D01*
X131377429Y-60735765D01*
X131401227Y-60729804D01*
X131425496Y-60726204D01*
X131450000Y-60725000D01*
X137550000Y-60725000D01*
X137574504Y-60726204D01*
X137574504Y-60726204D01*
G37*
D18*
X134500000Y-61625000D03*
D12*
G36*
X137574504Y-55476204D02*
X137598773Y-55479804D01*
X137622571Y-55485765D01*
X137645671Y-55494030D01*
X137667849Y-55504520D01*
X137688893Y-55517133D01*
X137708598Y-55531747D01*
X137726777Y-55548223D01*
X137743253Y-55566402D01*
X137757867Y-55586107D01*
X137770480Y-55607151D01*
X137780970Y-55629329D01*
X137789235Y-55652429D01*
X137795196Y-55676227D01*
X137798796Y-55700496D01*
X137800000Y-55725000D01*
X137800000Y-57025000D01*
X137798796Y-57049504D01*
X137795196Y-57073773D01*
X137789235Y-57097571D01*
X137780970Y-57120671D01*
X137770480Y-57142849D01*
X137757867Y-57163893D01*
X137743253Y-57183598D01*
X137726777Y-57201777D01*
X137708598Y-57218253D01*
X137688893Y-57232867D01*
X137667849Y-57245480D01*
X137645671Y-57255970D01*
X137622571Y-57264235D01*
X137598773Y-57270196D01*
X137574504Y-57273796D01*
X137550000Y-57275000D01*
X131450000Y-57275000D01*
X131425496Y-57273796D01*
X131401227Y-57270196D01*
X131377429Y-57264235D01*
X131354329Y-57255970D01*
X131332151Y-57245480D01*
X131311107Y-57232867D01*
X131291402Y-57218253D01*
X131273223Y-57201777D01*
X131256747Y-57183598D01*
X131242133Y-57163893D01*
X131229520Y-57142849D01*
X131219030Y-57120671D01*
X131210765Y-57097571D01*
X131204804Y-57073773D01*
X131201204Y-57049504D01*
X131200000Y-57025000D01*
X131200000Y-55725000D01*
X131201204Y-55700496D01*
X131204804Y-55676227D01*
X131210765Y-55652429D01*
X131219030Y-55629329D01*
X131229520Y-55607151D01*
X131242133Y-55586107D01*
X131256747Y-55566402D01*
X131273223Y-55548223D01*
X131291402Y-55531747D01*
X131311107Y-55517133D01*
X131332151Y-55504520D01*
X131354329Y-55494030D01*
X131377429Y-55485765D01*
X131401227Y-55479804D01*
X131425496Y-55476204D01*
X131450000Y-55475000D01*
X137550000Y-55475000D01*
X137574504Y-55476204D01*
X137574504Y-55476204D01*
G37*
D18*
X134500000Y-56375000D03*
G04 #@! TD*
D19*
G04 #@! TO.C,D6*
X113500000Y-44500000D03*
X113500000Y-49500000D03*
G04 #@! TD*
D20*
G04 #@! TO.C,U7*
X81795000Y-53325000D03*
X93465000Y-53325000D03*
X93465000Y-41655000D03*
X81795000Y-41655000D03*
X87630000Y-45685000D03*
X87630000Y-49295000D03*
G04 #@! TD*
D12*
G04 #@! TO.C,R5*
G36*
X73341691Y-40091660D02*
X73362926Y-40094810D01*
X73383750Y-40100026D01*
X73403962Y-40107258D01*
X73423368Y-40116437D01*
X73441781Y-40127473D01*
X73459024Y-40140261D01*
X73474930Y-40154677D01*
X73489346Y-40170583D01*
X73502134Y-40187826D01*
X73513170Y-40206239D01*
X73522349Y-40225645D01*
X73529581Y-40245857D01*
X73534797Y-40266681D01*
X73537947Y-40287916D01*
X73539000Y-40309357D01*
X73539000Y-40821857D01*
X73537947Y-40843298D01*
X73534797Y-40864533D01*
X73529581Y-40885357D01*
X73522349Y-40905569D01*
X73513170Y-40924975D01*
X73502134Y-40943388D01*
X73489346Y-40960631D01*
X73474930Y-40976537D01*
X73459024Y-40990953D01*
X73441781Y-41003741D01*
X73423368Y-41014777D01*
X73403962Y-41023956D01*
X73383750Y-41031188D01*
X73362926Y-41036404D01*
X73341691Y-41039554D01*
X73320250Y-41040607D01*
X72882750Y-41040607D01*
X72861309Y-41039554D01*
X72840074Y-41036404D01*
X72819250Y-41031188D01*
X72799038Y-41023956D01*
X72779632Y-41014777D01*
X72761219Y-41003741D01*
X72743976Y-40990953D01*
X72728070Y-40976537D01*
X72713654Y-40960631D01*
X72700866Y-40943388D01*
X72689830Y-40924975D01*
X72680651Y-40905569D01*
X72673419Y-40885357D01*
X72668203Y-40864533D01*
X72665053Y-40843298D01*
X72664000Y-40821857D01*
X72664000Y-40309357D01*
X72665053Y-40287916D01*
X72668203Y-40266681D01*
X72673419Y-40245857D01*
X72680651Y-40225645D01*
X72689830Y-40206239D01*
X72700866Y-40187826D01*
X72713654Y-40170583D01*
X72728070Y-40154677D01*
X72743976Y-40140261D01*
X72761219Y-40127473D01*
X72779632Y-40116437D01*
X72799038Y-40107258D01*
X72819250Y-40100026D01*
X72840074Y-40094810D01*
X72861309Y-40091660D01*
X72882750Y-40090607D01*
X73320250Y-40090607D01*
X73341691Y-40091660D01*
X73341691Y-40091660D01*
G37*
D13*
X73101500Y-40565607D03*
D12*
G36*
X74916691Y-40091660D02*
X74937926Y-40094810D01*
X74958750Y-40100026D01*
X74978962Y-40107258D01*
X74998368Y-40116437D01*
X75016781Y-40127473D01*
X75034024Y-40140261D01*
X75049930Y-40154677D01*
X75064346Y-40170583D01*
X75077134Y-40187826D01*
X75088170Y-40206239D01*
X75097349Y-40225645D01*
X75104581Y-40245857D01*
X75109797Y-40266681D01*
X75112947Y-40287916D01*
X75114000Y-40309357D01*
X75114000Y-40821857D01*
X75112947Y-40843298D01*
X75109797Y-40864533D01*
X75104581Y-40885357D01*
X75097349Y-40905569D01*
X75088170Y-40924975D01*
X75077134Y-40943388D01*
X75064346Y-40960631D01*
X75049930Y-40976537D01*
X75034024Y-40990953D01*
X75016781Y-41003741D01*
X74998368Y-41014777D01*
X74978962Y-41023956D01*
X74958750Y-41031188D01*
X74937926Y-41036404D01*
X74916691Y-41039554D01*
X74895250Y-41040607D01*
X74457750Y-41040607D01*
X74436309Y-41039554D01*
X74415074Y-41036404D01*
X74394250Y-41031188D01*
X74374038Y-41023956D01*
X74354632Y-41014777D01*
X74336219Y-41003741D01*
X74318976Y-40990953D01*
X74303070Y-40976537D01*
X74288654Y-40960631D01*
X74275866Y-40943388D01*
X74264830Y-40924975D01*
X74255651Y-40905569D01*
X74248419Y-40885357D01*
X74243203Y-40864533D01*
X74240053Y-40843298D01*
X74239000Y-40821857D01*
X74239000Y-40309357D01*
X74240053Y-40287916D01*
X74243203Y-40266681D01*
X74248419Y-40245857D01*
X74255651Y-40225645D01*
X74264830Y-40206239D01*
X74275866Y-40187826D01*
X74288654Y-40170583D01*
X74303070Y-40154677D01*
X74318976Y-40140261D01*
X74336219Y-40127473D01*
X74354632Y-40116437D01*
X74374038Y-40107258D01*
X74394250Y-40100026D01*
X74415074Y-40094810D01*
X74436309Y-40091660D01*
X74457750Y-40090607D01*
X74895250Y-40090607D01*
X74916691Y-40091660D01*
X74916691Y-40091660D01*
G37*
D13*
X74676500Y-40565607D03*
G04 #@! TD*
D12*
G04 #@! TO.C,R6*
G36*
X73341691Y-41841660D02*
X73362926Y-41844810D01*
X73383750Y-41850026D01*
X73403962Y-41857258D01*
X73423368Y-41866437D01*
X73441781Y-41877473D01*
X73459024Y-41890261D01*
X73474930Y-41904677D01*
X73489346Y-41920583D01*
X73502134Y-41937826D01*
X73513170Y-41956239D01*
X73522349Y-41975645D01*
X73529581Y-41995857D01*
X73534797Y-42016681D01*
X73537947Y-42037916D01*
X73539000Y-42059357D01*
X73539000Y-42571857D01*
X73537947Y-42593298D01*
X73534797Y-42614533D01*
X73529581Y-42635357D01*
X73522349Y-42655569D01*
X73513170Y-42674975D01*
X73502134Y-42693388D01*
X73489346Y-42710631D01*
X73474930Y-42726537D01*
X73459024Y-42740953D01*
X73441781Y-42753741D01*
X73423368Y-42764777D01*
X73403962Y-42773956D01*
X73383750Y-42781188D01*
X73362926Y-42786404D01*
X73341691Y-42789554D01*
X73320250Y-42790607D01*
X72882750Y-42790607D01*
X72861309Y-42789554D01*
X72840074Y-42786404D01*
X72819250Y-42781188D01*
X72799038Y-42773956D01*
X72779632Y-42764777D01*
X72761219Y-42753741D01*
X72743976Y-42740953D01*
X72728070Y-42726537D01*
X72713654Y-42710631D01*
X72700866Y-42693388D01*
X72689830Y-42674975D01*
X72680651Y-42655569D01*
X72673419Y-42635357D01*
X72668203Y-42614533D01*
X72665053Y-42593298D01*
X72664000Y-42571857D01*
X72664000Y-42059357D01*
X72665053Y-42037916D01*
X72668203Y-42016681D01*
X72673419Y-41995857D01*
X72680651Y-41975645D01*
X72689830Y-41956239D01*
X72700866Y-41937826D01*
X72713654Y-41920583D01*
X72728070Y-41904677D01*
X72743976Y-41890261D01*
X72761219Y-41877473D01*
X72779632Y-41866437D01*
X72799038Y-41857258D01*
X72819250Y-41850026D01*
X72840074Y-41844810D01*
X72861309Y-41841660D01*
X72882750Y-41840607D01*
X73320250Y-41840607D01*
X73341691Y-41841660D01*
X73341691Y-41841660D01*
G37*
D13*
X73101500Y-42315607D03*
D12*
G36*
X74916691Y-41841660D02*
X74937926Y-41844810D01*
X74958750Y-41850026D01*
X74978962Y-41857258D01*
X74998368Y-41866437D01*
X75016781Y-41877473D01*
X75034024Y-41890261D01*
X75049930Y-41904677D01*
X75064346Y-41920583D01*
X75077134Y-41937826D01*
X75088170Y-41956239D01*
X75097349Y-41975645D01*
X75104581Y-41995857D01*
X75109797Y-42016681D01*
X75112947Y-42037916D01*
X75114000Y-42059357D01*
X75114000Y-42571857D01*
X75112947Y-42593298D01*
X75109797Y-42614533D01*
X75104581Y-42635357D01*
X75097349Y-42655569D01*
X75088170Y-42674975D01*
X75077134Y-42693388D01*
X75064346Y-42710631D01*
X75049930Y-42726537D01*
X75034024Y-42740953D01*
X75016781Y-42753741D01*
X74998368Y-42764777D01*
X74978962Y-42773956D01*
X74958750Y-42781188D01*
X74937926Y-42786404D01*
X74916691Y-42789554D01*
X74895250Y-42790607D01*
X74457750Y-42790607D01*
X74436309Y-42789554D01*
X74415074Y-42786404D01*
X74394250Y-42781188D01*
X74374038Y-42773956D01*
X74354632Y-42764777D01*
X74336219Y-42753741D01*
X74318976Y-42740953D01*
X74303070Y-42726537D01*
X74288654Y-42710631D01*
X74275866Y-42693388D01*
X74264830Y-42674975D01*
X74255651Y-42655569D01*
X74248419Y-42635357D01*
X74243203Y-42614533D01*
X74240053Y-42593298D01*
X74239000Y-42571857D01*
X74239000Y-42059357D01*
X74240053Y-42037916D01*
X74243203Y-42016681D01*
X74248419Y-41995857D01*
X74255651Y-41975645D01*
X74264830Y-41956239D01*
X74275866Y-41937826D01*
X74288654Y-41920583D01*
X74303070Y-41904677D01*
X74318976Y-41890261D01*
X74336219Y-41877473D01*
X74354632Y-41866437D01*
X74374038Y-41857258D01*
X74394250Y-41850026D01*
X74415074Y-41844810D01*
X74436309Y-41841660D01*
X74457750Y-41840607D01*
X74895250Y-41840607D01*
X74916691Y-41841660D01*
X74916691Y-41841660D01*
G37*
D13*
X74676500Y-42315607D03*
G04 #@! TD*
D12*
G04 #@! TO.C,C10*
G36*
X79127691Y-47526053D02*
X79148926Y-47529203D01*
X79169750Y-47534419D01*
X79189962Y-47541651D01*
X79209368Y-47550830D01*
X79227781Y-47561866D01*
X79245024Y-47574654D01*
X79260930Y-47589070D01*
X79275346Y-47604976D01*
X79288134Y-47622219D01*
X79299170Y-47640632D01*
X79308349Y-47660038D01*
X79315581Y-47680250D01*
X79320797Y-47701074D01*
X79323947Y-47722309D01*
X79325000Y-47743750D01*
X79325000Y-48256250D01*
X79323947Y-48277691D01*
X79320797Y-48298926D01*
X79315581Y-48319750D01*
X79308349Y-48339962D01*
X79299170Y-48359368D01*
X79288134Y-48377781D01*
X79275346Y-48395024D01*
X79260930Y-48410930D01*
X79245024Y-48425346D01*
X79227781Y-48438134D01*
X79209368Y-48449170D01*
X79189962Y-48458349D01*
X79169750Y-48465581D01*
X79148926Y-48470797D01*
X79127691Y-48473947D01*
X79106250Y-48475000D01*
X78668750Y-48475000D01*
X78647309Y-48473947D01*
X78626074Y-48470797D01*
X78605250Y-48465581D01*
X78585038Y-48458349D01*
X78565632Y-48449170D01*
X78547219Y-48438134D01*
X78529976Y-48425346D01*
X78514070Y-48410930D01*
X78499654Y-48395024D01*
X78486866Y-48377781D01*
X78475830Y-48359368D01*
X78466651Y-48339962D01*
X78459419Y-48319750D01*
X78454203Y-48298926D01*
X78451053Y-48277691D01*
X78450000Y-48256250D01*
X78450000Y-47743750D01*
X78451053Y-47722309D01*
X78454203Y-47701074D01*
X78459419Y-47680250D01*
X78466651Y-47660038D01*
X78475830Y-47640632D01*
X78486866Y-47622219D01*
X78499654Y-47604976D01*
X78514070Y-47589070D01*
X78529976Y-47574654D01*
X78547219Y-47561866D01*
X78565632Y-47550830D01*
X78585038Y-47541651D01*
X78605250Y-47534419D01*
X78626074Y-47529203D01*
X78647309Y-47526053D01*
X78668750Y-47525000D01*
X79106250Y-47525000D01*
X79127691Y-47526053D01*
X79127691Y-47526053D01*
G37*
D13*
X78887500Y-48000000D03*
D12*
G36*
X77552691Y-47526053D02*
X77573926Y-47529203D01*
X77594750Y-47534419D01*
X77614962Y-47541651D01*
X77634368Y-47550830D01*
X77652781Y-47561866D01*
X77670024Y-47574654D01*
X77685930Y-47589070D01*
X77700346Y-47604976D01*
X77713134Y-47622219D01*
X77724170Y-47640632D01*
X77733349Y-47660038D01*
X77740581Y-47680250D01*
X77745797Y-47701074D01*
X77748947Y-47722309D01*
X77750000Y-47743750D01*
X77750000Y-48256250D01*
X77748947Y-48277691D01*
X77745797Y-48298926D01*
X77740581Y-48319750D01*
X77733349Y-48339962D01*
X77724170Y-48359368D01*
X77713134Y-48377781D01*
X77700346Y-48395024D01*
X77685930Y-48410930D01*
X77670024Y-48425346D01*
X77652781Y-48438134D01*
X77634368Y-48449170D01*
X77614962Y-48458349D01*
X77594750Y-48465581D01*
X77573926Y-48470797D01*
X77552691Y-48473947D01*
X77531250Y-48475000D01*
X77093750Y-48475000D01*
X77072309Y-48473947D01*
X77051074Y-48470797D01*
X77030250Y-48465581D01*
X77010038Y-48458349D01*
X76990632Y-48449170D01*
X76972219Y-48438134D01*
X76954976Y-48425346D01*
X76939070Y-48410930D01*
X76924654Y-48395024D01*
X76911866Y-48377781D01*
X76900830Y-48359368D01*
X76891651Y-48339962D01*
X76884419Y-48319750D01*
X76879203Y-48298926D01*
X76876053Y-48277691D01*
X76875000Y-48256250D01*
X76875000Y-47743750D01*
X76876053Y-47722309D01*
X76879203Y-47701074D01*
X76884419Y-47680250D01*
X76891651Y-47660038D01*
X76900830Y-47640632D01*
X76911866Y-47622219D01*
X76924654Y-47604976D01*
X76939070Y-47589070D01*
X76954976Y-47574654D01*
X76972219Y-47561866D01*
X76990632Y-47550830D01*
X77010038Y-47541651D01*
X77030250Y-47534419D01*
X77051074Y-47529203D01*
X77072309Y-47526053D01*
X77093750Y-47525000D01*
X77531250Y-47525000D01*
X77552691Y-47526053D01*
X77552691Y-47526053D01*
G37*
D13*
X77312500Y-48000000D03*
G04 #@! TD*
D12*
G04 #@! TO.C,C11*
G36*
X76452691Y-58776053D02*
X76473926Y-58779203D01*
X76494750Y-58784419D01*
X76514962Y-58791651D01*
X76534368Y-58800830D01*
X76552781Y-58811866D01*
X76570024Y-58824654D01*
X76585930Y-58839070D01*
X76600346Y-58854976D01*
X76613134Y-58872219D01*
X76624170Y-58890632D01*
X76633349Y-58910038D01*
X76640581Y-58930250D01*
X76645797Y-58951074D01*
X76648947Y-58972309D01*
X76650000Y-58993750D01*
X76650000Y-59506250D01*
X76648947Y-59527691D01*
X76645797Y-59548926D01*
X76640581Y-59569750D01*
X76633349Y-59589962D01*
X76624170Y-59609368D01*
X76613134Y-59627781D01*
X76600346Y-59645024D01*
X76585930Y-59660930D01*
X76570024Y-59675346D01*
X76552781Y-59688134D01*
X76534368Y-59699170D01*
X76514962Y-59708349D01*
X76494750Y-59715581D01*
X76473926Y-59720797D01*
X76452691Y-59723947D01*
X76431250Y-59725000D01*
X75993750Y-59725000D01*
X75972309Y-59723947D01*
X75951074Y-59720797D01*
X75930250Y-59715581D01*
X75910038Y-59708349D01*
X75890632Y-59699170D01*
X75872219Y-59688134D01*
X75854976Y-59675346D01*
X75839070Y-59660930D01*
X75824654Y-59645024D01*
X75811866Y-59627781D01*
X75800830Y-59609368D01*
X75791651Y-59589962D01*
X75784419Y-59569750D01*
X75779203Y-59548926D01*
X75776053Y-59527691D01*
X75775000Y-59506250D01*
X75775000Y-58993750D01*
X75776053Y-58972309D01*
X75779203Y-58951074D01*
X75784419Y-58930250D01*
X75791651Y-58910038D01*
X75800830Y-58890632D01*
X75811866Y-58872219D01*
X75824654Y-58854976D01*
X75839070Y-58839070D01*
X75854976Y-58824654D01*
X75872219Y-58811866D01*
X75890632Y-58800830D01*
X75910038Y-58791651D01*
X75930250Y-58784419D01*
X75951074Y-58779203D01*
X75972309Y-58776053D01*
X75993750Y-58775000D01*
X76431250Y-58775000D01*
X76452691Y-58776053D01*
X76452691Y-58776053D01*
G37*
D13*
X76212500Y-59250000D03*
D12*
G36*
X78027691Y-58776053D02*
X78048926Y-58779203D01*
X78069750Y-58784419D01*
X78089962Y-58791651D01*
X78109368Y-58800830D01*
X78127781Y-58811866D01*
X78145024Y-58824654D01*
X78160930Y-58839070D01*
X78175346Y-58854976D01*
X78188134Y-58872219D01*
X78199170Y-58890632D01*
X78208349Y-58910038D01*
X78215581Y-58930250D01*
X78220797Y-58951074D01*
X78223947Y-58972309D01*
X78225000Y-58993750D01*
X78225000Y-59506250D01*
X78223947Y-59527691D01*
X78220797Y-59548926D01*
X78215581Y-59569750D01*
X78208349Y-59589962D01*
X78199170Y-59609368D01*
X78188134Y-59627781D01*
X78175346Y-59645024D01*
X78160930Y-59660930D01*
X78145024Y-59675346D01*
X78127781Y-59688134D01*
X78109368Y-59699170D01*
X78089962Y-59708349D01*
X78069750Y-59715581D01*
X78048926Y-59720797D01*
X78027691Y-59723947D01*
X78006250Y-59725000D01*
X77568750Y-59725000D01*
X77547309Y-59723947D01*
X77526074Y-59720797D01*
X77505250Y-59715581D01*
X77485038Y-59708349D01*
X77465632Y-59699170D01*
X77447219Y-59688134D01*
X77429976Y-59675346D01*
X77414070Y-59660930D01*
X77399654Y-59645024D01*
X77386866Y-59627781D01*
X77375830Y-59609368D01*
X77366651Y-59589962D01*
X77359419Y-59569750D01*
X77354203Y-59548926D01*
X77351053Y-59527691D01*
X77350000Y-59506250D01*
X77350000Y-58993750D01*
X77351053Y-58972309D01*
X77354203Y-58951074D01*
X77359419Y-58930250D01*
X77366651Y-58910038D01*
X77375830Y-58890632D01*
X77386866Y-58872219D01*
X77399654Y-58854976D01*
X77414070Y-58839070D01*
X77429976Y-58824654D01*
X77447219Y-58811866D01*
X77465632Y-58800830D01*
X77485038Y-58791651D01*
X77505250Y-58784419D01*
X77526074Y-58779203D01*
X77547309Y-58776053D01*
X77568750Y-58775000D01*
X78006250Y-58775000D01*
X78027691Y-58776053D01*
X78027691Y-58776053D01*
G37*
D13*
X77787500Y-59250000D03*
G04 #@! TD*
D12*
G04 #@! TO.C,C13*
G36*
X73202691Y-58776053D02*
X73223926Y-58779203D01*
X73244750Y-58784419D01*
X73264962Y-58791651D01*
X73284368Y-58800830D01*
X73302781Y-58811866D01*
X73320024Y-58824654D01*
X73335930Y-58839070D01*
X73350346Y-58854976D01*
X73363134Y-58872219D01*
X73374170Y-58890632D01*
X73383349Y-58910038D01*
X73390581Y-58930250D01*
X73395797Y-58951074D01*
X73398947Y-58972309D01*
X73400000Y-58993750D01*
X73400000Y-59506250D01*
X73398947Y-59527691D01*
X73395797Y-59548926D01*
X73390581Y-59569750D01*
X73383349Y-59589962D01*
X73374170Y-59609368D01*
X73363134Y-59627781D01*
X73350346Y-59645024D01*
X73335930Y-59660930D01*
X73320024Y-59675346D01*
X73302781Y-59688134D01*
X73284368Y-59699170D01*
X73264962Y-59708349D01*
X73244750Y-59715581D01*
X73223926Y-59720797D01*
X73202691Y-59723947D01*
X73181250Y-59725000D01*
X72743750Y-59725000D01*
X72722309Y-59723947D01*
X72701074Y-59720797D01*
X72680250Y-59715581D01*
X72660038Y-59708349D01*
X72640632Y-59699170D01*
X72622219Y-59688134D01*
X72604976Y-59675346D01*
X72589070Y-59660930D01*
X72574654Y-59645024D01*
X72561866Y-59627781D01*
X72550830Y-59609368D01*
X72541651Y-59589962D01*
X72534419Y-59569750D01*
X72529203Y-59548926D01*
X72526053Y-59527691D01*
X72525000Y-59506250D01*
X72525000Y-58993750D01*
X72526053Y-58972309D01*
X72529203Y-58951074D01*
X72534419Y-58930250D01*
X72541651Y-58910038D01*
X72550830Y-58890632D01*
X72561866Y-58872219D01*
X72574654Y-58854976D01*
X72589070Y-58839070D01*
X72604976Y-58824654D01*
X72622219Y-58811866D01*
X72640632Y-58800830D01*
X72660038Y-58791651D01*
X72680250Y-58784419D01*
X72701074Y-58779203D01*
X72722309Y-58776053D01*
X72743750Y-58775000D01*
X73181250Y-58775000D01*
X73202691Y-58776053D01*
X73202691Y-58776053D01*
G37*
D13*
X72962500Y-59250000D03*
D12*
G36*
X74777691Y-58776053D02*
X74798926Y-58779203D01*
X74819750Y-58784419D01*
X74839962Y-58791651D01*
X74859368Y-58800830D01*
X74877781Y-58811866D01*
X74895024Y-58824654D01*
X74910930Y-58839070D01*
X74925346Y-58854976D01*
X74938134Y-58872219D01*
X74949170Y-58890632D01*
X74958349Y-58910038D01*
X74965581Y-58930250D01*
X74970797Y-58951074D01*
X74973947Y-58972309D01*
X74975000Y-58993750D01*
X74975000Y-59506250D01*
X74973947Y-59527691D01*
X74970797Y-59548926D01*
X74965581Y-59569750D01*
X74958349Y-59589962D01*
X74949170Y-59609368D01*
X74938134Y-59627781D01*
X74925346Y-59645024D01*
X74910930Y-59660930D01*
X74895024Y-59675346D01*
X74877781Y-59688134D01*
X74859368Y-59699170D01*
X74839962Y-59708349D01*
X74819750Y-59715581D01*
X74798926Y-59720797D01*
X74777691Y-59723947D01*
X74756250Y-59725000D01*
X74318750Y-59725000D01*
X74297309Y-59723947D01*
X74276074Y-59720797D01*
X74255250Y-59715581D01*
X74235038Y-59708349D01*
X74215632Y-59699170D01*
X74197219Y-59688134D01*
X74179976Y-59675346D01*
X74164070Y-59660930D01*
X74149654Y-59645024D01*
X74136866Y-59627781D01*
X74125830Y-59609368D01*
X74116651Y-59589962D01*
X74109419Y-59569750D01*
X74104203Y-59548926D01*
X74101053Y-59527691D01*
X74100000Y-59506250D01*
X74100000Y-58993750D01*
X74101053Y-58972309D01*
X74104203Y-58951074D01*
X74109419Y-58930250D01*
X74116651Y-58910038D01*
X74125830Y-58890632D01*
X74136866Y-58872219D01*
X74149654Y-58854976D01*
X74164070Y-58839070D01*
X74179976Y-58824654D01*
X74197219Y-58811866D01*
X74215632Y-58800830D01*
X74235038Y-58791651D01*
X74255250Y-58784419D01*
X74276074Y-58779203D01*
X74297309Y-58776053D01*
X74318750Y-58775000D01*
X74756250Y-58775000D01*
X74777691Y-58776053D01*
X74777691Y-58776053D01*
G37*
D13*
X74537500Y-59250000D03*
G04 #@! TD*
D12*
G04 #@! TO.C,C15*
G36*
X75344142Y-37866781D02*
X75367803Y-37870291D01*
X75391007Y-37876103D01*
X75413529Y-37884161D01*
X75435153Y-37894389D01*
X75455670Y-37906686D01*
X75474883Y-37920936D01*
X75492607Y-37937000D01*
X75508671Y-37954724D01*
X75522921Y-37973937D01*
X75535218Y-37994454D01*
X75545446Y-38016078D01*
X75553504Y-38038600D01*
X75559316Y-38061804D01*
X75562826Y-38085465D01*
X75564000Y-38109357D01*
X75564000Y-39021857D01*
X75562826Y-39045749D01*
X75559316Y-39069410D01*
X75553504Y-39092614D01*
X75545446Y-39115136D01*
X75535218Y-39136760D01*
X75522921Y-39157277D01*
X75508671Y-39176490D01*
X75492607Y-39194214D01*
X75474883Y-39210278D01*
X75455670Y-39224528D01*
X75435153Y-39236825D01*
X75413529Y-39247053D01*
X75391007Y-39255111D01*
X75367803Y-39260923D01*
X75344142Y-39264433D01*
X75320250Y-39265607D01*
X74832750Y-39265607D01*
X74808858Y-39264433D01*
X74785197Y-39260923D01*
X74761993Y-39255111D01*
X74739471Y-39247053D01*
X74717847Y-39236825D01*
X74697330Y-39224528D01*
X74678117Y-39210278D01*
X74660393Y-39194214D01*
X74644329Y-39176490D01*
X74630079Y-39157277D01*
X74617782Y-39136760D01*
X74607554Y-39115136D01*
X74599496Y-39092614D01*
X74593684Y-39069410D01*
X74590174Y-39045749D01*
X74589000Y-39021857D01*
X74589000Y-38109357D01*
X74590174Y-38085465D01*
X74593684Y-38061804D01*
X74599496Y-38038600D01*
X74607554Y-38016078D01*
X74617782Y-37994454D01*
X74630079Y-37973937D01*
X74644329Y-37954724D01*
X74660393Y-37937000D01*
X74678117Y-37920936D01*
X74697330Y-37906686D01*
X74717847Y-37894389D01*
X74739471Y-37884161D01*
X74761993Y-37876103D01*
X74785197Y-37870291D01*
X74808858Y-37866781D01*
X74832750Y-37865607D01*
X75320250Y-37865607D01*
X75344142Y-37866781D01*
X75344142Y-37866781D01*
G37*
D21*
X75076500Y-38565607D03*
D12*
G36*
X73469142Y-37866781D02*
X73492803Y-37870291D01*
X73516007Y-37876103D01*
X73538529Y-37884161D01*
X73560153Y-37894389D01*
X73580670Y-37906686D01*
X73599883Y-37920936D01*
X73617607Y-37937000D01*
X73633671Y-37954724D01*
X73647921Y-37973937D01*
X73660218Y-37994454D01*
X73670446Y-38016078D01*
X73678504Y-38038600D01*
X73684316Y-38061804D01*
X73687826Y-38085465D01*
X73689000Y-38109357D01*
X73689000Y-39021857D01*
X73687826Y-39045749D01*
X73684316Y-39069410D01*
X73678504Y-39092614D01*
X73670446Y-39115136D01*
X73660218Y-39136760D01*
X73647921Y-39157277D01*
X73633671Y-39176490D01*
X73617607Y-39194214D01*
X73599883Y-39210278D01*
X73580670Y-39224528D01*
X73560153Y-39236825D01*
X73538529Y-39247053D01*
X73516007Y-39255111D01*
X73492803Y-39260923D01*
X73469142Y-39264433D01*
X73445250Y-39265607D01*
X72957750Y-39265607D01*
X72933858Y-39264433D01*
X72910197Y-39260923D01*
X72886993Y-39255111D01*
X72864471Y-39247053D01*
X72842847Y-39236825D01*
X72822330Y-39224528D01*
X72803117Y-39210278D01*
X72785393Y-39194214D01*
X72769329Y-39176490D01*
X72755079Y-39157277D01*
X72742782Y-39136760D01*
X72732554Y-39115136D01*
X72724496Y-39092614D01*
X72718684Y-39069410D01*
X72715174Y-39045749D01*
X72714000Y-39021857D01*
X72714000Y-38109357D01*
X72715174Y-38085465D01*
X72718684Y-38061804D01*
X72724496Y-38038600D01*
X72732554Y-38016078D01*
X72742782Y-37994454D01*
X72755079Y-37973937D01*
X72769329Y-37954724D01*
X72785393Y-37937000D01*
X72803117Y-37920936D01*
X72822330Y-37906686D01*
X72842847Y-37894389D01*
X72864471Y-37884161D01*
X72886993Y-37876103D01*
X72910197Y-37870291D01*
X72933858Y-37866781D01*
X72957750Y-37865607D01*
X73445250Y-37865607D01*
X73469142Y-37866781D01*
X73469142Y-37866781D01*
G37*
D21*
X73201500Y-38565607D03*
G04 #@! TD*
D12*
G04 #@! TO.C,C21*
G36*
X105549504Y-52201204D02*
X105573773Y-52204804D01*
X105597571Y-52210765D01*
X105620671Y-52219030D01*
X105642849Y-52229520D01*
X105663893Y-52242133D01*
X105683598Y-52256747D01*
X105701777Y-52273223D01*
X105718253Y-52291402D01*
X105732867Y-52311107D01*
X105745480Y-52332151D01*
X105755970Y-52354329D01*
X105764235Y-52377429D01*
X105770196Y-52401227D01*
X105773796Y-52425496D01*
X105775000Y-52450000D01*
X105775000Y-58550000D01*
X105773796Y-58574504D01*
X105770196Y-58598773D01*
X105764235Y-58622571D01*
X105755970Y-58645671D01*
X105745480Y-58667849D01*
X105732867Y-58688893D01*
X105718253Y-58708598D01*
X105701777Y-58726777D01*
X105683598Y-58743253D01*
X105663893Y-58757867D01*
X105642849Y-58770480D01*
X105620671Y-58780970D01*
X105597571Y-58789235D01*
X105573773Y-58795196D01*
X105549504Y-58798796D01*
X105525000Y-58800000D01*
X104225000Y-58800000D01*
X104200496Y-58798796D01*
X104176227Y-58795196D01*
X104152429Y-58789235D01*
X104129329Y-58780970D01*
X104107151Y-58770480D01*
X104086107Y-58757867D01*
X104066402Y-58743253D01*
X104048223Y-58726777D01*
X104031747Y-58708598D01*
X104017133Y-58688893D01*
X104004520Y-58667849D01*
X103994030Y-58645671D01*
X103985765Y-58622571D01*
X103979804Y-58598773D01*
X103976204Y-58574504D01*
X103975000Y-58550000D01*
X103975000Y-52450000D01*
X103976204Y-52425496D01*
X103979804Y-52401227D01*
X103985765Y-52377429D01*
X103994030Y-52354329D01*
X104004520Y-52332151D01*
X104017133Y-52311107D01*
X104031747Y-52291402D01*
X104048223Y-52273223D01*
X104066402Y-52256747D01*
X104086107Y-52242133D01*
X104107151Y-52229520D01*
X104129329Y-52219030D01*
X104152429Y-52210765D01*
X104176227Y-52204804D01*
X104200496Y-52201204D01*
X104225000Y-52200000D01*
X105525000Y-52200000D01*
X105549504Y-52201204D01*
X105549504Y-52201204D01*
G37*
D18*
X104875000Y-55500000D03*
D12*
G36*
X110799504Y-52201204D02*
X110823773Y-52204804D01*
X110847571Y-52210765D01*
X110870671Y-52219030D01*
X110892849Y-52229520D01*
X110913893Y-52242133D01*
X110933598Y-52256747D01*
X110951777Y-52273223D01*
X110968253Y-52291402D01*
X110982867Y-52311107D01*
X110995480Y-52332151D01*
X111005970Y-52354329D01*
X111014235Y-52377429D01*
X111020196Y-52401227D01*
X111023796Y-52425496D01*
X111025000Y-52450000D01*
X111025000Y-58550000D01*
X111023796Y-58574504D01*
X111020196Y-58598773D01*
X111014235Y-58622571D01*
X111005970Y-58645671D01*
X110995480Y-58667849D01*
X110982867Y-58688893D01*
X110968253Y-58708598D01*
X110951777Y-58726777D01*
X110933598Y-58743253D01*
X110913893Y-58757867D01*
X110892849Y-58770480D01*
X110870671Y-58780970D01*
X110847571Y-58789235D01*
X110823773Y-58795196D01*
X110799504Y-58798796D01*
X110775000Y-58800000D01*
X109475000Y-58800000D01*
X109450496Y-58798796D01*
X109426227Y-58795196D01*
X109402429Y-58789235D01*
X109379329Y-58780970D01*
X109357151Y-58770480D01*
X109336107Y-58757867D01*
X109316402Y-58743253D01*
X109298223Y-58726777D01*
X109281747Y-58708598D01*
X109267133Y-58688893D01*
X109254520Y-58667849D01*
X109244030Y-58645671D01*
X109235765Y-58622571D01*
X109229804Y-58598773D01*
X109226204Y-58574504D01*
X109225000Y-58550000D01*
X109225000Y-52450000D01*
X109226204Y-52425496D01*
X109229804Y-52401227D01*
X109235765Y-52377429D01*
X109244030Y-52354329D01*
X109254520Y-52332151D01*
X109267133Y-52311107D01*
X109281747Y-52291402D01*
X109298223Y-52273223D01*
X109316402Y-52256747D01*
X109336107Y-52242133D01*
X109357151Y-52229520D01*
X109379329Y-52219030D01*
X109402429Y-52210765D01*
X109426227Y-52204804D01*
X109450496Y-52201204D01*
X109475000Y-52200000D01*
X110775000Y-52200000D01*
X110799504Y-52201204D01*
X110799504Y-52201204D01*
G37*
D18*
X110125000Y-55500000D03*
G04 #@! TD*
D12*
G04 #@! TO.C,C25*
G36*
X122574504Y-52726204D02*
X122598773Y-52729804D01*
X122622571Y-52735765D01*
X122645671Y-52744030D01*
X122667849Y-52754520D01*
X122688893Y-52767133D01*
X122708598Y-52781747D01*
X122726777Y-52798223D01*
X122743253Y-52816402D01*
X122757867Y-52836107D01*
X122770480Y-52857151D01*
X122780970Y-52879329D01*
X122789235Y-52902429D01*
X122795196Y-52926227D01*
X122798796Y-52950496D01*
X122800000Y-52975000D01*
X122800000Y-54275000D01*
X122798796Y-54299504D01*
X122795196Y-54323773D01*
X122789235Y-54347571D01*
X122780970Y-54370671D01*
X122770480Y-54392849D01*
X122757867Y-54413893D01*
X122743253Y-54433598D01*
X122726777Y-54451777D01*
X122708598Y-54468253D01*
X122688893Y-54482867D01*
X122667849Y-54495480D01*
X122645671Y-54505970D01*
X122622571Y-54514235D01*
X122598773Y-54520196D01*
X122574504Y-54523796D01*
X122550000Y-54525000D01*
X116450000Y-54525000D01*
X116425496Y-54523796D01*
X116401227Y-54520196D01*
X116377429Y-54514235D01*
X116354329Y-54505970D01*
X116332151Y-54495480D01*
X116311107Y-54482867D01*
X116291402Y-54468253D01*
X116273223Y-54451777D01*
X116256747Y-54433598D01*
X116242133Y-54413893D01*
X116229520Y-54392849D01*
X116219030Y-54370671D01*
X116210765Y-54347571D01*
X116204804Y-54323773D01*
X116201204Y-54299504D01*
X116200000Y-54275000D01*
X116200000Y-52975000D01*
X116201204Y-52950496D01*
X116204804Y-52926227D01*
X116210765Y-52902429D01*
X116219030Y-52879329D01*
X116229520Y-52857151D01*
X116242133Y-52836107D01*
X116256747Y-52816402D01*
X116273223Y-52798223D01*
X116291402Y-52781747D01*
X116311107Y-52767133D01*
X116332151Y-52754520D01*
X116354329Y-52744030D01*
X116377429Y-52735765D01*
X116401227Y-52729804D01*
X116425496Y-52726204D01*
X116450000Y-52725000D01*
X122550000Y-52725000D01*
X122574504Y-52726204D01*
X122574504Y-52726204D01*
G37*
D18*
X119500000Y-53625000D03*
D12*
G36*
X122574504Y-47476204D02*
X122598773Y-47479804D01*
X122622571Y-47485765D01*
X122645671Y-47494030D01*
X122667849Y-47504520D01*
X122688893Y-47517133D01*
X122708598Y-47531747D01*
X122726777Y-47548223D01*
X122743253Y-47566402D01*
X122757867Y-47586107D01*
X122770480Y-47607151D01*
X122780970Y-47629329D01*
X122789235Y-47652429D01*
X122795196Y-47676227D01*
X122798796Y-47700496D01*
X122800000Y-47725000D01*
X122800000Y-49025000D01*
X122798796Y-49049504D01*
X122795196Y-49073773D01*
X122789235Y-49097571D01*
X122780970Y-49120671D01*
X122770480Y-49142849D01*
X122757867Y-49163893D01*
X122743253Y-49183598D01*
X122726777Y-49201777D01*
X122708598Y-49218253D01*
X122688893Y-49232867D01*
X122667849Y-49245480D01*
X122645671Y-49255970D01*
X122622571Y-49264235D01*
X122598773Y-49270196D01*
X122574504Y-49273796D01*
X122550000Y-49275000D01*
X116450000Y-49275000D01*
X116425496Y-49273796D01*
X116401227Y-49270196D01*
X116377429Y-49264235D01*
X116354329Y-49255970D01*
X116332151Y-49245480D01*
X116311107Y-49232867D01*
X116291402Y-49218253D01*
X116273223Y-49201777D01*
X116256747Y-49183598D01*
X116242133Y-49163893D01*
X116229520Y-49142849D01*
X116219030Y-49120671D01*
X116210765Y-49097571D01*
X116204804Y-49073773D01*
X116201204Y-49049504D01*
X116200000Y-49025000D01*
X116200000Y-47725000D01*
X116201204Y-47700496D01*
X116204804Y-47676227D01*
X116210765Y-47652429D01*
X116219030Y-47629329D01*
X116229520Y-47607151D01*
X116242133Y-47586107D01*
X116256747Y-47566402D01*
X116273223Y-47548223D01*
X116291402Y-47531747D01*
X116311107Y-47517133D01*
X116332151Y-47504520D01*
X116354329Y-47494030D01*
X116377429Y-47485765D01*
X116401227Y-47479804D01*
X116425496Y-47476204D01*
X116450000Y-47475000D01*
X122550000Y-47475000D01*
X122574504Y-47476204D01*
X122574504Y-47476204D01*
G37*
D18*
X119500000Y-48375000D03*
G04 #@! TD*
D12*
G04 #@! TO.C,C19*
G36*
X102799504Y-52201204D02*
X102823773Y-52204804D01*
X102847571Y-52210765D01*
X102870671Y-52219030D01*
X102892849Y-52229520D01*
X102913893Y-52242133D01*
X102933598Y-52256747D01*
X102951777Y-52273223D01*
X102968253Y-52291402D01*
X102982867Y-52311107D01*
X102995480Y-52332151D01*
X103005970Y-52354329D01*
X103014235Y-52377429D01*
X103020196Y-52401227D01*
X103023796Y-52425496D01*
X103025000Y-52450000D01*
X103025000Y-58550000D01*
X103023796Y-58574504D01*
X103020196Y-58598773D01*
X103014235Y-58622571D01*
X103005970Y-58645671D01*
X102995480Y-58667849D01*
X102982867Y-58688893D01*
X102968253Y-58708598D01*
X102951777Y-58726777D01*
X102933598Y-58743253D01*
X102913893Y-58757867D01*
X102892849Y-58770480D01*
X102870671Y-58780970D01*
X102847571Y-58789235D01*
X102823773Y-58795196D01*
X102799504Y-58798796D01*
X102775000Y-58800000D01*
X101475000Y-58800000D01*
X101450496Y-58798796D01*
X101426227Y-58795196D01*
X101402429Y-58789235D01*
X101379329Y-58780970D01*
X101357151Y-58770480D01*
X101336107Y-58757867D01*
X101316402Y-58743253D01*
X101298223Y-58726777D01*
X101281747Y-58708598D01*
X101267133Y-58688893D01*
X101254520Y-58667849D01*
X101244030Y-58645671D01*
X101235765Y-58622571D01*
X101229804Y-58598773D01*
X101226204Y-58574504D01*
X101225000Y-58550000D01*
X101225000Y-52450000D01*
X101226204Y-52425496D01*
X101229804Y-52401227D01*
X101235765Y-52377429D01*
X101244030Y-52354329D01*
X101254520Y-52332151D01*
X101267133Y-52311107D01*
X101281747Y-52291402D01*
X101298223Y-52273223D01*
X101316402Y-52256747D01*
X101336107Y-52242133D01*
X101357151Y-52229520D01*
X101379329Y-52219030D01*
X101402429Y-52210765D01*
X101426227Y-52204804D01*
X101450496Y-52201204D01*
X101475000Y-52200000D01*
X102775000Y-52200000D01*
X102799504Y-52201204D01*
X102799504Y-52201204D01*
G37*
D18*
X102125000Y-55500000D03*
D12*
G36*
X97549504Y-52201204D02*
X97573773Y-52204804D01*
X97597571Y-52210765D01*
X97620671Y-52219030D01*
X97642849Y-52229520D01*
X97663893Y-52242133D01*
X97683598Y-52256747D01*
X97701777Y-52273223D01*
X97718253Y-52291402D01*
X97732867Y-52311107D01*
X97745480Y-52332151D01*
X97755970Y-52354329D01*
X97764235Y-52377429D01*
X97770196Y-52401227D01*
X97773796Y-52425496D01*
X97775000Y-52450000D01*
X97775000Y-58550000D01*
X97773796Y-58574504D01*
X97770196Y-58598773D01*
X97764235Y-58622571D01*
X97755970Y-58645671D01*
X97745480Y-58667849D01*
X97732867Y-58688893D01*
X97718253Y-58708598D01*
X97701777Y-58726777D01*
X97683598Y-58743253D01*
X97663893Y-58757867D01*
X97642849Y-58770480D01*
X97620671Y-58780970D01*
X97597571Y-58789235D01*
X97573773Y-58795196D01*
X97549504Y-58798796D01*
X97525000Y-58800000D01*
X96225000Y-58800000D01*
X96200496Y-58798796D01*
X96176227Y-58795196D01*
X96152429Y-58789235D01*
X96129329Y-58780970D01*
X96107151Y-58770480D01*
X96086107Y-58757867D01*
X96066402Y-58743253D01*
X96048223Y-58726777D01*
X96031747Y-58708598D01*
X96017133Y-58688893D01*
X96004520Y-58667849D01*
X95994030Y-58645671D01*
X95985765Y-58622571D01*
X95979804Y-58598773D01*
X95976204Y-58574504D01*
X95975000Y-58550000D01*
X95975000Y-52450000D01*
X95976204Y-52425496D01*
X95979804Y-52401227D01*
X95985765Y-52377429D01*
X95994030Y-52354329D01*
X96004520Y-52332151D01*
X96017133Y-52311107D01*
X96031747Y-52291402D01*
X96048223Y-52273223D01*
X96066402Y-52256747D01*
X96086107Y-52242133D01*
X96107151Y-52229520D01*
X96129329Y-52219030D01*
X96152429Y-52210765D01*
X96176227Y-52204804D01*
X96200496Y-52201204D01*
X96225000Y-52200000D01*
X97525000Y-52200000D01*
X97549504Y-52201204D01*
X97549504Y-52201204D01*
G37*
D18*
X96875000Y-55500000D03*
G04 #@! TD*
D12*
G04 #@! TO.C,C20*
G36*
X110799504Y-35201204D02*
X110823773Y-35204804D01*
X110847571Y-35210765D01*
X110870671Y-35219030D01*
X110892849Y-35229520D01*
X110913893Y-35242133D01*
X110933598Y-35256747D01*
X110951777Y-35273223D01*
X110968253Y-35291402D01*
X110982867Y-35311107D01*
X110995480Y-35332151D01*
X111005970Y-35354329D01*
X111014235Y-35377429D01*
X111020196Y-35401227D01*
X111023796Y-35425496D01*
X111025000Y-35450000D01*
X111025000Y-41550000D01*
X111023796Y-41574504D01*
X111020196Y-41598773D01*
X111014235Y-41622571D01*
X111005970Y-41645671D01*
X110995480Y-41667849D01*
X110982867Y-41688893D01*
X110968253Y-41708598D01*
X110951777Y-41726777D01*
X110933598Y-41743253D01*
X110913893Y-41757867D01*
X110892849Y-41770480D01*
X110870671Y-41780970D01*
X110847571Y-41789235D01*
X110823773Y-41795196D01*
X110799504Y-41798796D01*
X110775000Y-41800000D01*
X109475000Y-41800000D01*
X109450496Y-41798796D01*
X109426227Y-41795196D01*
X109402429Y-41789235D01*
X109379329Y-41780970D01*
X109357151Y-41770480D01*
X109336107Y-41757867D01*
X109316402Y-41743253D01*
X109298223Y-41726777D01*
X109281747Y-41708598D01*
X109267133Y-41688893D01*
X109254520Y-41667849D01*
X109244030Y-41645671D01*
X109235765Y-41622571D01*
X109229804Y-41598773D01*
X109226204Y-41574504D01*
X109225000Y-41550000D01*
X109225000Y-35450000D01*
X109226204Y-35425496D01*
X109229804Y-35401227D01*
X109235765Y-35377429D01*
X109244030Y-35354329D01*
X109254520Y-35332151D01*
X109267133Y-35311107D01*
X109281747Y-35291402D01*
X109298223Y-35273223D01*
X109316402Y-35256747D01*
X109336107Y-35242133D01*
X109357151Y-35229520D01*
X109379329Y-35219030D01*
X109402429Y-35210765D01*
X109426227Y-35204804D01*
X109450496Y-35201204D01*
X109475000Y-35200000D01*
X110775000Y-35200000D01*
X110799504Y-35201204D01*
X110799504Y-35201204D01*
G37*
D18*
X110125000Y-38500000D03*
D12*
G36*
X105549504Y-35201204D02*
X105573773Y-35204804D01*
X105597571Y-35210765D01*
X105620671Y-35219030D01*
X105642849Y-35229520D01*
X105663893Y-35242133D01*
X105683598Y-35256747D01*
X105701777Y-35273223D01*
X105718253Y-35291402D01*
X105732867Y-35311107D01*
X105745480Y-35332151D01*
X105755970Y-35354329D01*
X105764235Y-35377429D01*
X105770196Y-35401227D01*
X105773796Y-35425496D01*
X105775000Y-35450000D01*
X105775000Y-41550000D01*
X105773796Y-41574504D01*
X105770196Y-41598773D01*
X105764235Y-41622571D01*
X105755970Y-41645671D01*
X105745480Y-41667849D01*
X105732867Y-41688893D01*
X105718253Y-41708598D01*
X105701777Y-41726777D01*
X105683598Y-41743253D01*
X105663893Y-41757867D01*
X105642849Y-41770480D01*
X105620671Y-41780970D01*
X105597571Y-41789235D01*
X105573773Y-41795196D01*
X105549504Y-41798796D01*
X105525000Y-41800000D01*
X104225000Y-41800000D01*
X104200496Y-41798796D01*
X104176227Y-41795196D01*
X104152429Y-41789235D01*
X104129329Y-41780970D01*
X104107151Y-41770480D01*
X104086107Y-41757867D01*
X104066402Y-41743253D01*
X104048223Y-41726777D01*
X104031747Y-41708598D01*
X104017133Y-41688893D01*
X104004520Y-41667849D01*
X103994030Y-41645671D01*
X103985765Y-41622571D01*
X103979804Y-41598773D01*
X103976204Y-41574504D01*
X103975000Y-41550000D01*
X103975000Y-35450000D01*
X103976204Y-35425496D01*
X103979804Y-35401227D01*
X103985765Y-35377429D01*
X103994030Y-35354329D01*
X104004520Y-35332151D01*
X104017133Y-35311107D01*
X104031747Y-35291402D01*
X104048223Y-35273223D01*
X104066402Y-35256747D01*
X104086107Y-35242133D01*
X104107151Y-35229520D01*
X104129329Y-35219030D01*
X104152429Y-35210765D01*
X104176227Y-35204804D01*
X104200496Y-35201204D01*
X104225000Y-35200000D01*
X105525000Y-35200000D01*
X105549504Y-35201204D01*
X105549504Y-35201204D01*
G37*
D18*
X104875000Y-38500000D03*
G04 #@! TD*
D12*
G04 #@! TO.C,C24*
G36*
X130074504Y-52726204D02*
X130098773Y-52729804D01*
X130122571Y-52735765D01*
X130145671Y-52744030D01*
X130167849Y-52754520D01*
X130188893Y-52767133D01*
X130208598Y-52781747D01*
X130226777Y-52798223D01*
X130243253Y-52816402D01*
X130257867Y-52836107D01*
X130270480Y-52857151D01*
X130280970Y-52879329D01*
X130289235Y-52902429D01*
X130295196Y-52926227D01*
X130298796Y-52950496D01*
X130300000Y-52975000D01*
X130300000Y-54275000D01*
X130298796Y-54299504D01*
X130295196Y-54323773D01*
X130289235Y-54347571D01*
X130280970Y-54370671D01*
X130270480Y-54392849D01*
X130257867Y-54413893D01*
X130243253Y-54433598D01*
X130226777Y-54451777D01*
X130208598Y-54468253D01*
X130188893Y-54482867D01*
X130167849Y-54495480D01*
X130145671Y-54505970D01*
X130122571Y-54514235D01*
X130098773Y-54520196D01*
X130074504Y-54523796D01*
X130050000Y-54525000D01*
X123950000Y-54525000D01*
X123925496Y-54523796D01*
X123901227Y-54520196D01*
X123877429Y-54514235D01*
X123854329Y-54505970D01*
X123832151Y-54495480D01*
X123811107Y-54482867D01*
X123791402Y-54468253D01*
X123773223Y-54451777D01*
X123756747Y-54433598D01*
X123742133Y-54413893D01*
X123729520Y-54392849D01*
X123719030Y-54370671D01*
X123710765Y-54347571D01*
X123704804Y-54323773D01*
X123701204Y-54299504D01*
X123700000Y-54275000D01*
X123700000Y-52975000D01*
X123701204Y-52950496D01*
X123704804Y-52926227D01*
X123710765Y-52902429D01*
X123719030Y-52879329D01*
X123729520Y-52857151D01*
X123742133Y-52836107D01*
X123756747Y-52816402D01*
X123773223Y-52798223D01*
X123791402Y-52781747D01*
X123811107Y-52767133D01*
X123832151Y-52754520D01*
X123854329Y-52744030D01*
X123877429Y-52735765D01*
X123901227Y-52729804D01*
X123925496Y-52726204D01*
X123950000Y-52725000D01*
X130050000Y-52725000D01*
X130074504Y-52726204D01*
X130074504Y-52726204D01*
G37*
D18*
X127000000Y-53625000D03*
D12*
G36*
X130074504Y-47476204D02*
X130098773Y-47479804D01*
X130122571Y-47485765D01*
X130145671Y-47494030D01*
X130167849Y-47504520D01*
X130188893Y-47517133D01*
X130208598Y-47531747D01*
X130226777Y-47548223D01*
X130243253Y-47566402D01*
X130257867Y-47586107D01*
X130270480Y-47607151D01*
X130280970Y-47629329D01*
X130289235Y-47652429D01*
X130295196Y-47676227D01*
X130298796Y-47700496D01*
X130300000Y-47725000D01*
X130300000Y-49025000D01*
X130298796Y-49049504D01*
X130295196Y-49073773D01*
X130289235Y-49097571D01*
X130280970Y-49120671D01*
X130270480Y-49142849D01*
X130257867Y-49163893D01*
X130243253Y-49183598D01*
X130226777Y-49201777D01*
X130208598Y-49218253D01*
X130188893Y-49232867D01*
X130167849Y-49245480D01*
X130145671Y-49255970D01*
X130122571Y-49264235D01*
X130098773Y-49270196D01*
X130074504Y-49273796D01*
X130050000Y-49275000D01*
X123950000Y-49275000D01*
X123925496Y-49273796D01*
X123901227Y-49270196D01*
X123877429Y-49264235D01*
X123854329Y-49255970D01*
X123832151Y-49245480D01*
X123811107Y-49232867D01*
X123791402Y-49218253D01*
X123773223Y-49201777D01*
X123756747Y-49183598D01*
X123742133Y-49163893D01*
X123729520Y-49142849D01*
X123719030Y-49120671D01*
X123710765Y-49097571D01*
X123704804Y-49073773D01*
X123701204Y-49049504D01*
X123700000Y-49025000D01*
X123700000Y-47725000D01*
X123701204Y-47700496D01*
X123704804Y-47676227D01*
X123710765Y-47652429D01*
X123719030Y-47629329D01*
X123729520Y-47607151D01*
X123742133Y-47586107D01*
X123756747Y-47566402D01*
X123773223Y-47548223D01*
X123791402Y-47531747D01*
X123811107Y-47517133D01*
X123832151Y-47504520D01*
X123854329Y-47494030D01*
X123877429Y-47485765D01*
X123901227Y-47479804D01*
X123925496Y-47476204D01*
X123950000Y-47475000D01*
X130050000Y-47475000D01*
X130074504Y-47476204D01*
X130074504Y-47476204D01*
G37*
D18*
X127000000Y-48375000D03*
G04 #@! TD*
D12*
G04 #@! TO.C,C22*
G36*
X145074504Y-47476204D02*
X145098773Y-47479804D01*
X145122571Y-47485765D01*
X145145671Y-47494030D01*
X145167849Y-47504520D01*
X145188893Y-47517133D01*
X145208598Y-47531747D01*
X145226777Y-47548223D01*
X145243253Y-47566402D01*
X145257867Y-47586107D01*
X145270480Y-47607151D01*
X145280970Y-47629329D01*
X145289235Y-47652429D01*
X145295196Y-47676227D01*
X145298796Y-47700496D01*
X145300000Y-47725000D01*
X145300000Y-49025000D01*
X145298796Y-49049504D01*
X145295196Y-49073773D01*
X145289235Y-49097571D01*
X145280970Y-49120671D01*
X145270480Y-49142849D01*
X145257867Y-49163893D01*
X145243253Y-49183598D01*
X145226777Y-49201777D01*
X145208598Y-49218253D01*
X145188893Y-49232867D01*
X145167849Y-49245480D01*
X145145671Y-49255970D01*
X145122571Y-49264235D01*
X145098773Y-49270196D01*
X145074504Y-49273796D01*
X145050000Y-49275000D01*
X138950000Y-49275000D01*
X138925496Y-49273796D01*
X138901227Y-49270196D01*
X138877429Y-49264235D01*
X138854329Y-49255970D01*
X138832151Y-49245480D01*
X138811107Y-49232867D01*
X138791402Y-49218253D01*
X138773223Y-49201777D01*
X138756747Y-49183598D01*
X138742133Y-49163893D01*
X138729520Y-49142849D01*
X138719030Y-49120671D01*
X138710765Y-49097571D01*
X138704804Y-49073773D01*
X138701204Y-49049504D01*
X138700000Y-49025000D01*
X138700000Y-47725000D01*
X138701204Y-47700496D01*
X138704804Y-47676227D01*
X138710765Y-47652429D01*
X138719030Y-47629329D01*
X138729520Y-47607151D01*
X138742133Y-47586107D01*
X138756747Y-47566402D01*
X138773223Y-47548223D01*
X138791402Y-47531747D01*
X138811107Y-47517133D01*
X138832151Y-47504520D01*
X138854329Y-47494030D01*
X138877429Y-47485765D01*
X138901227Y-47479804D01*
X138925496Y-47476204D01*
X138950000Y-47475000D01*
X145050000Y-47475000D01*
X145074504Y-47476204D01*
X145074504Y-47476204D01*
G37*
D18*
X142000000Y-48375000D03*
D12*
G36*
X145074504Y-52726204D02*
X145098773Y-52729804D01*
X145122571Y-52735765D01*
X145145671Y-52744030D01*
X145167849Y-52754520D01*
X145188893Y-52767133D01*
X145208598Y-52781747D01*
X145226777Y-52798223D01*
X145243253Y-52816402D01*
X145257867Y-52836107D01*
X145270480Y-52857151D01*
X145280970Y-52879329D01*
X145289235Y-52902429D01*
X145295196Y-52926227D01*
X145298796Y-52950496D01*
X145300000Y-52975000D01*
X145300000Y-54275000D01*
X145298796Y-54299504D01*
X145295196Y-54323773D01*
X145289235Y-54347571D01*
X145280970Y-54370671D01*
X145270480Y-54392849D01*
X145257867Y-54413893D01*
X145243253Y-54433598D01*
X145226777Y-54451777D01*
X145208598Y-54468253D01*
X145188893Y-54482867D01*
X145167849Y-54495480D01*
X145145671Y-54505970D01*
X145122571Y-54514235D01*
X145098773Y-54520196D01*
X145074504Y-54523796D01*
X145050000Y-54525000D01*
X138950000Y-54525000D01*
X138925496Y-54523796D01*
X138901227Y-54520196D01*
X138877429Y-54514235D01*
X138854329Y-54505970D01*
X138832151Y-54495480D01*
X138811107Y-54482867D01*
X138791402Y-54468253D01*
X138773223Y-54451777D01*
X138756747Y-54433598D01*
X138742133Y-54413893D01*
X138729520Y-54392849D01*
X138719030Y-54370671D01*
X138710765Y-54347571D01*
X138704804Y-54323773D01*
X138701204Y-54299504D01*
X138700000Y-54275000D01*
X138700000Y-52975000D01*
X138701204Y-52950496D01*
X138704804Y-52926227D01*
X138710765Y-52902429D01*
X138719030Y-52879329D01*
X138729520Y-52857151D01*
X138742133Y-52836107D01*
X138756747Y-52816402D01*
X138773223Y-52798223D01*
X138791402Y-52781747D01*
X138811107Y-52767133D01*
X138832151Y-52754520D01*
X138854329Y-52744030D01*
X138877429Y-52735765D01*
X138901227Y-52729804D01*
X138925496Y-52726204D01*
X138950000Y-52725000D01*
X145050000Y-52725000D01*
X145074504Y-52726204D01*
X145074504Y-52726204D01*
G37*
D18*
X142000000Y-53625000D03*
G04 #@! TD*
D12*
G04 #@! TO.C,C18*
G36*
X97549504Y-35201204D02*
X97573773Y-35204804D01*
X97597571Y-35210765D01*
X97620671Y-35219030D01*
X97642849Y-35229520D01*
X97663893Y-35242133D01*
X97683598Y-35256747D01*
X97701777Y-35273223D01*
X97718253Y-35291402D01*
X97732867Y-35311107D01*
X97745480Y-35332151D01*
X97755970Y-35354329D01*
X97764235Y-35377429D01*
X97770196Y-35401227D01*
X97773796Y-35425496D01*
X97775000Y-35450000D01*
X97775000Y-41550000D01*
X97773796Y-41574504D01*
X97770196Y-41598773D01*
X97764235Y-41622571D01*
X97755970Y-41645671D01*
X97745480Y-41667849D01*
X97732867Y-41688893D01*
X97718253Y-41708598D01*
X97701777Y-41726777D01*
X97683598Y-41743253D01*
X97663893Y-41757867D01*
X97642849Y-41770480D01*
X97620671Y-41780970D01*
X97597571Y-41789235D01*
X97573773Y-41795196D01*
X97549504Y-41798796D01*
X97525000Y-41800000D01*
X96225000Y-41800000D01*
X96200496Y-41798796D01*
X96176227Y-41795196D01*
X96152429Y-41789235D01*
X96129329Y-41780970D01*
X96107151Y-41770480D01*
X96086107Y-41757867D01*
X96066402Y-41743253D01*
X96048223Y-41726777D01*
X96031747Y-41708598D01*
X96017133Y-41688893D01*
X96004520Y-41667849D01*
X95994030Y-41645671D01*
X95985765Y-41622571D01*
X95979804Y-41598773D01*
X95976204Y-41574504D01*
X95975000Y-41550000D01*
X95975000Y-35450000D01*
X95976204Y-35425496D01*
X95979804Y-35401227D01*
X95985765Y-35377429D01*
X95994030Y-35354329D01*
X96004520Y-35332151D01*
X96017133Y-35311107D01*
X96031747Y-35291402D01*
X96048223Y-35273223D01*
X96066402Y-35256747D01*
X96086107Y-35242133D01*
X96107151Y-35229520D01*
X96129329Y-35219030D01*
X96152429Y-35210765D01*
X96176227Y-35204804D01*
X96200496Y-35201204D01*
X96225000Y-35200000D01*
X97525000Y-35200000D01*
X97549504Y-35201204D01*
X97549504Y-35201204D01*
G37*
D18*
X96875000Y-38500000D03*
D12*
G36*
X102799504Y-35201204D02*
X102823773Y-35204804D01*
X102847571Y-35210765D01*
X102870671Y-35219030D01*
X102892849Y-35229520D01*
X102913893Y-35242133D01*
X102933598Y-35256747D01*
X102951777Y-35273223D01*
X102968253Y-35291402D01*
X102982867Y-35311107D01*
X102995480Y-35332151D01*
X103005970Y-35354329D01*
X103014235Y-35377429D01*
X103020196Y-35401227D01*
X103023796Y-35425496D01*
X103025000Y-35450000D01*
X103025000Y-41550000D01*
X103023796Y-41574504D01*
X103020196Y-41598773D01*
X103014235Y-41622571D01*
X103005970Y-41645671D01*
X102995480Y-41667849D01*
X102982867Y-41688893D01*
X102968253Y-41708598D01*
X102951777Y-41726777D01*
X102933598Y-41743253D01*
X102913893Y-41757867D01*
X102892849Y-41770480D01*
X102870671Y-41780970D01*
X102847571Y-41789235D01*
X102823773Y-41795196D01*
X102799504Y-41798796D01*
X102775000Y-41800000D01*
X101475000Y-41800000D01*
X101450496Y-41798796D01*
X101426227Y-41795196D01*
X101402429Y-41789235D01*
X101379329Y-41780970D01*
X101357151Y-41770480D01*
X101336107Y-41757867D01*
X101316402Y-41743253D01*
X101298223Y-41726777D01*
X101281747Y-41708598D01*
X101267133Y-41688893D01*
X101254520Y-41667849D01*
X101244030Y-41645671D01*
X101235765Y-41622571D01*
X101229804Y-41598773D01*
X101226204Y-41574504D01*
X101225000Y-41550000D01*
X101225000Y-35450000D01*
X101226204Y-35425496D01*
X101229804Y-35401227D01*
X101235765Y-35377429D01*
X101244030Y-35354329D01*
X101254520Y-35332151D01*
X101267133Y-35311107D01*
X101281747Y-35291402D01*
X101298223Y-35273223D01*
X101316402Y-35256747D01*
X101336107Y-35242133D01*
X101357151Y-35229520D01*
X101379329Y-35219030D01*
X101402429Y-35210765D01*
X101426227Y-35204804D01*
X101450496Y-35201204D01*
X101475000Y-35200000D01*
X102775000Y-35200000D01*
X102799504Y-35201204D01*
X102799504Y-35201204D01*
G37*
D18*
X102125000Y-38500000D03*
G04 #@! TD*
D12*
G04 #@! TO.C,C23*
G36*
X137574504Y-47476204D02*
X137598773Y-47479804D01*
X137622571Y-47485765D01*
X137645671Y-47494030D01*
X137667849Y-47504520D01*
X137688893Y-47517133D01*
X137708598Y-47531747D01*
X137726777Y-47548223D01*
X137743253Y-47566402D01*
X137757867Y-47586107D01*
X137770480Y-47607151D01*
X137780970Y-47629329D01*
X137789235Y-47652429D01*
X137795196Y-47676227D01*
X137798796Y-47700496D01*
X137800000Y-47725000D01*
X137800000Y-49025000D01*
X137798796Y-49049504D01*
X137795196Y-49073773D01*
X137789235Y-49097571D01*
X137780970Y-49120671D01*
X137770480Y-49142849D01*
X137757867Y-49163893D01*
X137743253Y-49183598D01*
X137726777Y-49201777D01*
X137708598Y-49218253D01*
X137688893Y-49232867D01*
X137667849Y-49245480D01*
X137645671Y-49255970D01*
X137622571Y-49264235D01*
X137598773Y-49270196D01*
X137574504Y-49273796D01*
X137550000Y-49275000D01*
X131450000Y-49275000D01*
X131425496Y-49273796D01*
X131401227Y-49270196D01*
X131377429Y-49264235D01*
X131354329Y-49255970D01*
X131332151Y-49245480D01*
X131311107Y-49232867D01*
X131291402Y-49218253D01*
X131273223Y-49201777D01*
X131256747Y-49183598D01*
X131242133Y-49163893D01*
X131229520Y-49142849D01*
X131219030Y-49120671D01*
X131210765Y-49097571D01*
X131204804Y-49073773D01*
X131201204Y-49049504D01*
X131200000Y-49025000D01*
X131200000Y-47725000D01*
X131201204Y-47700496D01*
X131204804Y-47676227D01*
X131210765Y-47652429D01*
X131219030Y-47629329D01*
X131229520Y-47607151D01*
X131242133Y-47586107D01*
X131256747Y-47566402D01*
X131273223Y-47548223D01*
X131291402Y-47531747D01*
X131311107Y-47517133D01*
X131332151Y-47504520D01*
X131354329Y-47494030D01*
X131377429Y-47485765D01*
X131401227Y-47479804D01*
X131425496Y-47476204D01*
X131450000Y-47475000D01*
X137550000Y-47475000D01*
X137574504Y-47476204D01*
X137574504Y-47476204D01*
G37*
D18*
X134500000Y-48375000D03*
D12*
G36*
X137574504Y-52726204D02*
X137598773Y-52729804D01*
X137622571Y-52735765D01*
X137645671Y-52744030D01*
X137667849Y-52754520D01*
X137688893Y-52767133D01*
X137708598Y-52781747D01*
X137726777Y-52798223D01*
X137743253Y-52816402D01*
X137757867Y-52836107D01*
X137770480Y-52857151D01*
X137780970Y-52879329D01*
X137789235Y-52902429D01*
X137795196Y-52926227D01*
X137798796Y-52950496D01*
X137800000Y-52975000D01*
X137800000Y-54275000D01*
X137798796Y-54299504D01*
X137795196Y-54323773D01*
X137789235Y-54347571D01*
X137780970Y-54370671D01*
X137770480Y-54392849D01*
X137757867Y-54413893D01*
X137743253Y-54433598D01*
X137726777Y-54451777D01*
X137708598Y-54468253D01*
X137688893Y-54482867D01*
X137667849Y-54495480D01*
X137645671Y-54505970D01*
X137622571Y-54514235D01*
X137598773Y-54520196D01*
X137574504Y-54523796D01*
X137550000Y-54525000D01*
X131450000Y-54525000D01*
X131425496Y-54523796D01*
X131401227Y-54520196D01*
X131377429Y-54514235D01*
X131354329Y-54505970D01*
X131332151Y-54495480D01*
X131311107Y-54482867D01*
X131291402Y-54468253D01*
X131273223Y-54451777D01*
X131256747Y-54433598D01*
X131242133Y-54413893D01*
X131229520Y-54392849D01*
X131219030Y-54370671D01*
X131210765Y-54347571D01*
X131204804Y-54323773D01*
X131201204Y-54299504D01*
X131200000Y-54275000D01*
X131200000Y-52975000D01*
X131201204Y-52950496D01*
X131204804Y-52926227D01*
X131210765Y-52902429D01*
X131219030Y-52879329D01*
X131229520Y-52857151D01*
X131242133Y-52836107D01*
X131256747Y-52816402D01*
X131273223Y-52798223D01*
X131291402Y-52781747D01*
X131311107Y-52767133D01*
X131332151Y-52754520D01*
X131354329Y-52744030D01*
X131377429Y-52735765D01*
X131401227Y-52729804D01*
X131425496Y-52726204D01*
X131450000Y-52725000D01*
X137550000Y-52725000D01*
X137574504Y-52726204D01*
X137574504Y-52726204D01*
G37*
D18*
X134500000Y-53625000D03*
G04 #@! TD*
D16*
G04 #@! TO.C,J3*
X172300000Y-35720000D03*
D17*
X167050000Y-40000000D03*
D16*
X172300000Y-44280000D03*
G04 #@! TD*
G04 #@! TO.C,J2*
X46250000Y-34720000D03*
D17*
X51500000Y-39000000D03*
D16*
X46250000Y-43280000D03*
G04 #@! TD*
D12*
G04 #@! TO.C,C16*
G36*
X75416691Y-36091660D02*
X75437926Y-36094810D01*
X75458750Y-36100026D01*
X75478962Y-36107258D01*
X75498368Y-36116437D01*
X75516781Y-36127473D01*
X75534024Y-36140261D01*
X75549930Y-36154677D01*
X75564346Y-36170583D01*
X75577134Y-36187826D01*
X75588170Y-36206239D01*
X75597349Y-36225645D01*
X75604581Y-36245857D01*
X75609797Y-36266681D01*
X75612947Y-36287916D01*
X75614000Y-36309357D01*
X75614000Y-36821857D01*
X75612947Y-36843298D01*
X75609797Y-36864533D01*
X75604581Y-36885357D01*
X75597349Y-36905569D01*
X75588170Y-36924975D01*
X75577134Y-36943388D01*
X75564346Y-36960631D01*
X75549930Y-36976537D01*
X75534024Y-36990953D01*
X75516781Y-37003741D01*
X75498368Y-37014777D01*
X75478962Y-37023956D01*
X75458750Y-37031188D01*
X75437926Y-37036404D01*
X75416691Y-37039554D01*
X75395250Y-37040607D01*
X74957750Y-37040607D01*
X74936309Y-37039554D01*
X74915074Y-37036404D01*
X74894250Y-37031188D01*
X74874038Y-37023956D01*
X74854632Y-37014777D01*
X74836219Y-37003741D01*
X74818976Y-36990953D01*
X74803070Y-36976537D01*
X74788654Y-36960631D01*
X74775866Y-36943388D01*
X74764830Y-36924975D01*
X74755651Y-36905569D01*
X74748419Y-36885357D01*
X74743203Y-36864533D01*
X74740053Y-36843298D01*
X74739000Y-36821857D01*
X74739000Y-36309357D01*
X74740053Y-36287916D01*
X74743203Y-36266681D01*
X74748419Y-36245857D01*
X74755651Y-36225645D01*
X74764830Y-36206239D01*
X74775866Y-36187826D01*
X74788654Y-36170583D01*
X74803070Y-36154677D01*
X74818976Y-36140261D01*
X74836219Y-36127473D01*
X74854632Y-36116437D01*
X74874038Y-36107258D01*
X74894250Y-36100026D01*
X74915074Y-36094810D01*
X74936309Y-36091660D01*
X74957750Y-36090607D01*
X75395250Y-36090607D01*
X75416691Y-36091660D01*
X75416691Y-36091660D01*
G37*
D13*
X75176500Y-36565607D03*
D12*
G36*
X73841691Y-36091660D02*
X73862926Y-36094810D01*
X73883750Y-36100026D01*
X73903962Y-36107258D01*
X73923368Y-36116437D01*
X73941781Y-36127473D01*
X73959024Y-36140261D01*
X73974930Y-36154677D01*
X73989346Y-36170583D01*
X74002134Y-36187826D01*
X74013170Y-36206239D01*
X74022349Y-36225645D01*
X74029581Y-36245857D01*
X74034797Y-36266681D01*
X74037947Y-36287916D01*
X74039000Y-36309357D01*
X74039000Y-36821857D01*
X74037947Y-36843298D01*
X74034797Y-36864533D01*
X74029581Y-36885357D01*
X74022349Y-36905569D01*
X74013170Y-36924975D01*
X74002134Y-36943388D01*
X73989346Y-36960631D01*
X73974930Y-36976537D01*
X73959024Y-36990953D01*
X73941781Y-37003741D01*
X73923368Y-37014777D01*
X73903962Y-37023956D01*
X73883750Y-37031188D01*
X73862926Y-37036404D01*
X73841691Y-37039554D01*
X73820250Y-37040607D01*
X73382750Y-37040607D01*
X73361309Y-37039554D01*
X73340074Y-37036404D01*
X73319250Y-37031188D01*
X73299038Y-37023956D01*
X73279632Y-37014777D01*
X73261219Y-37003741D01*
X73243976Y-36990953D01*
X73228070Y-36976537D01*
X73213654Y-36960631D01*
X73200866Y-36943388D01*
X73189830Y-36924975D01*
X73180651Y-36905569D01*
X73173419Y-36885357D01*
X73168203Y-36864533D01*
X73165053Y-36843298D01*
X73164000Y-36821857D01*
X73164000Y-36309357D01*
X73165053Y-36287916D01*
X73168203Y-36266681D01*
X73173419Y-36245857D01*
X73180651Y-36225645D01*
X73189830Y-36206239D01*
X73200866Y-36187826D01*
X73213654Y-36170583D01*
X73228070Y-36154677D01*
X73243976Y-36140261D01*
X73261219Y-36127473D01*
X73279632Y-36116437D01*
X73299038Y-36107258D01*
X73319250Y-36100026D01*
X73340074Y-36094810D01*
X73361309Y-36091660D01*
X73382750Y-36090607D01*
X73820250Y-36090607D01*
X73841691Y-36091660D01*
X73841691Y-36091660D01*
G37*
D13*
X73601500Y-36565607D03*
G04 #@! TD*
D12*
G04 #@! TO.C,C1*
G36*
X53027691Y-50601053D02*
X53048926Y-50604203D01*
X53069750Y-50609419D01*
X53089962Y-50616651D01*
X53109368Y-50625830D01*
X53127781Y-50636866D01*
X53145024Y-50649654D01*
X53160930Y-50664070D01*
X53175346Y-50679976D01*
X53188134Y-50697219D01*
X53199170Y-50715632D01*
X53208349Y-50735038D01*
X53215581Y-50755250D01*
X53220797Y-50776074D01*
X53223947Y-50797309D01*
X53225000Y-50818750D01*
X53225000Y-51256250D01*
X53223947Y-51277691D01*
X53220797Y-51298926D01*
X53215581Y-51319750D01*
X53208349Y-51339962D01*
X53199170Y-51359368D01*
X53188134Y-51377781D01*
X53175346Y-51395024D01*
X53160930Y-51410930D01*
X53145024Y-51425346D01*
X53127781Y-51438134D01*
X53109368Y-51449170D01*
X53089962Y-51458349D01*
X53069750Y-51465581D01*
X53048926Y-51470797D01*
X53027691Y-51473947D01*
X53006250Y-51475000D01*
X52493750Y-51475000D01*
X52472309Y-51473947D01*
X52451074Y-51470797D01*
X52430250Y-51465581D01*
X52410038Y-51458349D01*
X52390632Y-51449170D01*
X52372219Y-51438134D01*
X52354976Y-51425346D01*
X52339070Y-51410930D01*
X52324654Y-51395024D01*
X52311866Y-51377781D01*
X52300830Y-51359368D01*
X52291651Y-51339962D01*
X52284419Y-51319750D01*
X52279203Y-51298926D01*
X52276053Y-51277691D01*
X52275000Y-51256250D01*
X52275000Y-50818750D01*
X52276053Y-50797309D01*
X52279203Y-50776074D01*
X52284419Y-50755250D01*
X52291651Y-50735038D01*
X52300830Y-50715632D01*
X52311866Y-50697219D01*
X52324654Y-50679976D01*
X52339070Y-50664070D01*
X52354976Y-50649654D01*
X52372219Y-50636866D01*
X52390632Y-50625830D01*
X52410038Y-50616651D01*
X52430250Y-50609419D01*
X52451074Y-50604203D01*
X52472309Y-50601053D01*
X52493750Y-50600000D01*
X53006250Y-50600000D01*
X53027691Y-50601053D01*
X53027691Y-50601053D01*
G37*
D13*
X52750000Y-51037500D03*
D12*
G36*
X53027691Y-49026053D02*
X53048926Y-49029203D01*
X53069750Y-49034419D01*
X53089962Y-49041651D01*
X53109368Y-49050830D01*
X53127781Y-49061866D01*
X53145024Y-49074654D01*
X53160930Y-49089070D01*
X53175346Y-49104976D01*
X53188134Y-49122219D01*
X53199170Y-49140632D01*
X53208349Y-49160038D01*
X53215581Y-49180250D01*
X53220797Y-49201074D01*
X53223947Y-49222309D01*
X53225000Y-49243750D01*
X53225000Y-49681250D01*
X53223947Y-49702691D01*
X53220797Y-49723926D01*
X53215581Y-49744750D01*
X53208349Y-49764962D01*
X53199170Y-49784368D01*
X53188134Y-49802781D01*
X53175346Y-49820024D01*
X53160930Y-49835930D01*
X53145024Y-49850346D01*
X53127781Y-49863134D01*
X53109368Y-49874170D01*
X53089962Y-49883349D01*
X53069750Y-49890581D01*
X53048926Y-49895797D01*
X53027691Y-49898947D01*
X53006250Y-49900000D01*
X52493750Y-49900000D01*
X52472309Y-49898947D01*
X52451074Y-49895797D01*
X52430250Y-49890581D01*
X52410038Y-49883349D01*
X52390632Y-49874170D01*
X52372219Y-49863134D01*
X52354976Y-49850346D01*
X52339070Y-49835930D01*
X52324654Y-49820024D01*
X52311866Y-49802781D01*
X52300830Y-49784368D01*
X52291651Y-49764962D01*
X52284419Y-49744750D01*
X52279203Y-49723926D01*
X52276053Y-49702691D01*
X52275000Y-49681250D01*
X52275000Y-49243750D01*
X52276053Y-49222309D01*
X52279203Y-49201074D01*
X52284419Y-49180250D01*
X52291651Y-49160038D01*
X52300830Y-49140632D01*
X52311866Y-49122219D01*
X52324654Y-49104976D01*
X52339070Y-49089070D01*
X52354976Y-49074654D01*
X52372219Y-49061866D01*
X52390632Y-49050830D01*
X52410038Y-49041651D01*
X52430250Y-49034419D01*
X52451074Y-49029203D01*
X52472309Y-49026053D01*
X52493750Y-49025000D01*
X53006250Y-49025000D01*
X53027691Y-49026053D01*
X53027691Y-49026053D01*
G37*
D13*
X52750000Y-49462500D03*
G04 #@! TD*
D22*
G04 #@! TO.C,J1*
X48700000Y-53700000D03*
X48700000Y-54350000D03*
X48700000Y-55000000D03*
X48700000Y-55650000D03*
X48700000Y-56300000D03*
G04 #@! TD*
D23*
G04 #@! TO.C,D5*
X77639000Y-40218107D03*
D24*
X77639000Y-37867107D03*
G04 #@! TD*
D19*
G04 #@! TO.C,D3*
X105500000Y-49500000D03*
X105500000Y-44500000D03*
G04 #@! TD*
G04 #@! TO.C,D2*
X101500000Y-49500000D03*
X101500000Y-44500000D03*
G04 #@! TD*
G04 #@! TO.C,D1*
X97500000Y-49500000D03*
X97500000Y-44500000D03*
G04 #@! TD*
G04 #@! TO.C,D4*
X109500000Y-49500000D03*
X109500000Y-44500000D03*
G04 #@! TD*
D12*
G04 #@! TO.C,L1*
G36*
X51277691Y-50601053D02*
X51298926Y-50604203D01*
X51319750Y-50609419D01*
X51339962Y-50616651D01*
X51359368Y-50625830D01*
X51377781Y-50636866D01*
X51395024Y-50649654D01*
X51410930Y-50664070D01*
X51425346Y-50679976D01*
X51438134Y-50697219D01*
X51449170Y-50715632D01*
X51458349Y-50735038D01*
X51465581Y-50755250D01*
X51470797Y-50776074D01*
X51473947Y-50797309D01*
X51475000Y-50818750D01*
X51475000Y-51256250D01*
X51473947Y-51277691D01*
X51470797Y-51298926D01*
X51465581Y-51319750D01*
X51458349Y-51339962D01*
X51449170Y-51359368D01*
X51438134Y-51377781D01*
X51425346Y-51395024D01*
X51410930Y-51410930D01*
X51395024Y-51425346D01*
X51377781Y-51438134D01*
X51359368Y-51449170D01*
X51339962Y-51458349D01*
X51319750Y-51465581D01*
X51298926Y-51470797D01*
X51277691Y-51473947D01*
X51256250Y-51475000D01*
X50743750Y-51475000D01*
X50722309Y-51473947D01*
X50701074Y-51470797D01*
X50680250Y-51465581D01*
X50660038Y-51458349D01*
X50640632Y-51449170D01*
X50622219Y-51438134D01*
X50604976Y-51425346D01*
X50589070Y-51410930D01*
X50574654Y-51395024D01*
X50561866Y-51377781D01*
X50550830Y-51359368D01*
X50541651Y-51339962D01*
X50534419Y-51319750D01*
X50529203Y-51298926D01*
X50526053Y-51277691D01*
X50525000Y-51256250D01*
X50525000Y-50818750D01*
X50526053Y-50797309D01*
X50529203Y-50776074D01*
X50534419Y-50755250D01*
X50541651Y-50735038D01*
X50550830Y-50715632D01*
X50561866Y-50697219D01*
X50574654Y-50679976D01*
X50589070Y-50664070D01*
X50604976Y-50649654D01*
X50622219Y-50636866D01*
X50640632Y-50625830D01*
X50660038Y-50616651D01*
X50680250Y-50609419D01*
X50701074Y-50604203D01*
X50722309Y-50601053D01*
X50743750Y-50600000D01*
X51256250Y-50600000D01*
X51277691Y-50601053D01*
X51277691Y-50601053D01*
G37*
D13*
X51000000Y-51037500D03*
D12*
G36*
X51277691Y-49026053D02*
X51298926Y-49029203D01*
X51319750Y-49034419D01*
X51339962Y-49041651D01*
X51359368Y-49050830D01*
X51377781Y-49061866D01*
X51395024Y-49074654D01*
X51410930Y-49089070D01*
X51425346Y-49104976D01*
X51438134Y-49122219D01*
X51449170Y-49140632D01*
X51458349Y-49160038D01*
X51465581Y-49180250D01*
X51470797Y-49201074D01*
X51473947Y-49222309D01*
X51475000Y-49243750D01*
X51475000Y-49681250D01*
X51473947Y-49702691D01*
X51470797Y-49723926D01*
X51465581Y-49744750D01*
X51458349Y-49764962D01*
X51449170Y-49784368D01*
X51438134Y-49802781D01*
X51425346Y-49820024D01*
X51410930Y-49835930D01*
X51395024Y-49850346D01*
X51377781Y-49863134D01*
X51359368Y-49874170D01*
X51339962Y-49883349D01*
X51319750Y-49890581D01*
X51298926Y-49895797D01*
X51277691Y-49898947D01*
X51256250Y-49900000D01*
X50743750Y-49900000D01*
X50722309Y-49898947D01*
X50701074Y-49895797D01*
X50680250Y-49890581D01*
X50660038Y-49883349D01*
X50640632Y-49874170D01*
X50622219Y-49863134D01*
X50604976Y-49850346D01*
X50589070Y-49835930D01*
X50574654Y-49820024D01*
X50561866Y-49802781D01*
X50550830Y-49784368D01*
X50541651Y-49764962D01*
X50534419Y-49744750D01*
X50529203Y-49723926D01*
X50526053Y-49702691D01*
X50525000Y-49681250D01*
X50525000Y-49243750D01*
X50526053Y-49222309D01*
X50529203Y-49201074D01*
X50534419Y-49180250D01*
X50541651Y-49160038D01*
X50550830Y-49140632D01*
X50561866Y-49122219D01*
X50574654Y-49104976D01*
X50589070Y-49089070D01*
X50604976Y-49074654D01*
X50622219Y-49061866D01*
X50640632Y-49050830D01*
X50660038Y-49041651D01*
X50680250Y-49034419D01*
X50701074Y-49029203D01*
X50722309Y-49026053D01*
X50743750Y-49025000D01*
X51256250Y-49025000D01*
X51277691Y-49026053D01*
X51277691Y-49026053D01*
G37*
D13*
X51000000Y-49462500D03*
G04 #@! TD*
D12*
G04 #@! TO.C,L2*
G36*
X79113505Y-45641811D02*
X79137773Y-45645411D01*
X79161572Y-45651372D01*
X79184671Y-45659637D01*
X79206850Y-45670127D01*
X79227893Y-45682739D01*
X79247599Y-45697354D01*
X79265777Y-45713830D01*
X79282253Y-45732008D01*
X79296868Y-45751714D01*
X79309480Y-45772757D01*
X79319970Y-45794936D01*
X79328235Y-45818035D01*
X79334196Y-45841834D01*
X79337796Y-45866102D01*
X79339000Y-45890606D01*
X79339000Y-46515608D01*
X79337796Y-46540112D01*
X79334196Y-46564380D01*
X79328235Y-46588179D01*
X79319970Y-46611278D01*
X79309480Y-46633457D01*
X79296868Y-46654500D01*
X79282253Y-46674206D01*
X79265777Y-46692384D01*
X79247599Y-46708860D01*
X79227893Y-46723475D01*
X79206850Y-46736087D01*
X79184671Y-46746577D01*
X79161572Y-46754842D01*
X79137773Y-46760803D01*
X79113505Y-46764403D01*
X79089001Y-46765607D01*
X76188999Y-46765607D01*
X76164495Y-46764403D01*
X76140227Y-46760803D01*
X76116428Y-46754842D01*
X76093329Y-46746577D01*
X76071150Y-46736087D01*
X76050107Y-46723475D01*
X76030401Y-46708860D01*
X76012223Y-46692384D01*
X75995747Y-46674206D01*
X75981132Y-46654500D01*
X75968520Y-46633457D01*
X75958030Y-46611278D01*
X75949765Y-46588179D01*
X75943804Y-46564380D01*
X75940204Y-46540112D01*
X75939000Y-46515608D01*
X75939000Y-45890606D01*
X75940204Y-45866102D01*
X75943804Y-45841834D01*
X75949765Y-45818035D01*
X75958030Y-45794936D01*
X75968520Y-45772757D01*
X75981132Y-45751714D01*
X75995747Y-45732008D01*
X76012223Y-45713830D01*
X76030401Y-45697354D01*
X76050107Y-45682739D01*
X76071150Y-45670127D01*
X76093329Y-45659637D01*
X76116428Y-45651372D01*
X76140227Y-45645411D01*
X76164495Y-45641811D01*
X76188999Y-45640607D01*
X79089001Y-45640607D01*
X79113505Y-45641811D01*
X79113505Y-45641811D01*
G37*
D25*
X77639000Y-46203107D03*
D12*
G36*
X79113505Y-41366811D02*
X79137773Y-41370411D01*
X79161572Y-41376372D01*
X79184671Y-41384637D01*
X79206850Y-41395127D01*
X79227893Y-41407739D01*
X79247599Y-41422354D01*
X79265777Y-41438830D01*
X79282253Y-41457008D01*
X79296868Y-41476714D01*
X79309480Y-41497757D01*
X79319970Y-41519936D01*
X79328235Y-41543035D01*
X79334196Y-41566834D01*
X79337796Y-41591102D01*
X79339000Y-41615606D01*
X79339000Y-42240608D01*
X79337796Y-42265112D01*
X79334196Y-42289380D01*
X79328235Y-42313179D01*
X79319970Y-42336278D01*
X79309480Y-42358457D01*
X79296868Y-42379500D01*
X79282253Y-42399206D01*
X79265777Y-42417384D01*
X79247599Y-42433860D01*
X79227893Y-42448475D01*
X79206850Y-42461087D01*
X79184671Y-42471577D01*
X79161572Y-42479842D01*
X79137773Y-42485803D01*
X79113505Y-42489403D01*
X79089001Y-42490607D01*
X76188999Y-42490607D01*
X76164495Y-42489403D01*
X76140227Y-42485803D01*
X76116428Y-42479842D01*
X76093329Y-42471577D01*
X76071150Y-42461087D01*
X76050107Y-42448475D01*
X76030401Y-42433860D01*
X76012223Y-42417384D01*
X75995747Y-42399206D01*
X75981132Y-42379500D01*
X75968520Y-42358457D01*
X75958030Y-42336278D01*
X75949765Y-42313179D01*
X75943804Y-42289380D01*
X75940204Y-42265112D01*
X75939000Y-42240608D01*
X75939000Y-41615606D01*
X75940204Y-41591102D01*
X75943804Y-41566834D01*
X75949765Y-41543035D01*
X75958030Y-41519936D01*
X75968520Y-41497757D01*
X75981132Y-41476714D01*
X75995747Y-41457008D01*
X76012223Y-41438830D01*
X76030401Y-41422354D01*
X76050107Y-41407739D01*
X76071150Y-41395127D01*
X76093329Y-41384637D01*
X76116428Y-41376372D01*
X76140227Y-41370411D01*
X76164495Y-41366811D01*
X76188999Y-41365607D01*
X79089001Y-41365607D01*
X79113505Y-41366811D01*
X79113505Y-41366811D01*
G37*
D25*
X77639000Y-41928107D03*
G04 #@! TD*
D26*
G04 #@! TO.C,U1*
X60150000Y-58650000D03*
X60650000Y-58650000D03*
X61150000Y-58650000D03*
X61650000Y-58650000D03*
X62150000Y-58650000D03*
X62650000Y-58650000D03*
X63150000Y-58650000D03*
X63650000Y-58650000D03*
X64150000Y-58650000D03*
X64650000Y-58650000D03*
X65150000Y-58650000D03*
X65650000Y-58650000D03*
X66150000Y-58650000D03*
X66650000Y-58650000D03*
X67150000Y-58650000D03*
X67650000Y-58650000D03*
D27*
X69600000Y-56700000D03*
X69600000Y-56200000D03*
X69600000Y-55700000D03*
X69600000Y-55200000D03*
X69600000Y-54700000D03*
X69600000Y-54200000D03*
X69600000Y-53700000D03*
X69600000Y-53200000D03*
X69600000Y-52700000D03*
X69600000Y-52200000D03*
X69600000Y-51700000D03*
X69600000Y-51200000D03*
X69600000Y-50700000D03*
X69600000Y-50200000D03*
X69600000Y-49700000D03*
X69600000Y-49200000D03*
D26*
X67650000Y-47250000D03*
X67150000Y-47250000D03*
X66650000Y-47250000D03*
X66150000Y-47250000D03*
X65650000Y-47250000D03*
X65150000Y-47250000D03*
X64650000Y-47250000D03*
X64150000Y-47250000D03*
X63650000Y-47250000D03*
X63150000Y-47250000D03*
X62650000Y-47250000D03*
X62150000Y-47250000D03*
X61650000Y-47250000D03*
X61150000Y-47250000D03*
X60650000Y-47250000D03*
X60150000Y-47250000D03*
D27*
X58200000Y-49200000D03*
X58200000Y-49700000D03*
X58200000Y-50200000D03*
X58200000Y-50700000D03*
X58200000Y-51200000D03*
X58200000Y-51700000D03*
X58200000Y-52200000D03*
X58200000Y-52700000D03*
X58200000Y-53200000D03*
X58200000Y-53700000D03*
X58200000Y-54200000D03*
X58200000Y-54700000D03*
X58200000Y-55200000D03*
X58200000Y-55700000D03*
X58200000Y-56200000D03*
X58200000Y-56700000D03*
G04 #@! TD*
D28*
G04 #@! TO.C,U2*
X59675000Y-43950000D03*
X60325000Y-43950000D03*
X60975000Y-43950000D03*
X61625000Y-43950000D03*
X62275000Y-43950000D03*
X62925000Y-43950000D03*
X63575000Y-43950000D03*
X64225000Y-43950000D03*
X64875000Y-43950000D03*
X65525000Y-43950000D03*
X66175000Y-43950000D03*
X66825000Y-43950000D03*
X67475000Y-43950000D03*
X68125000Y-43950000D03*
X68125000Y-36750000D03*
X67475000Y-36750000D03*
X66825000Y-36750000D03*
X66175000Y-36750000D03*
X65525000Y-36750000D03*
X64875000Y-36750000D03*
X64225000Y-36750000D03*
X63575000Y-36750000D03*
X62925000Y-36750000D03*
X62275000Y-36750000D03*
X61625000Y-36750000D03*
X60975000Y-36750000D03*
X60325000Y-36750000D03*
X59675000Y-36750000D03*
G04 #@! TD*
D29*
G04 #@! TO.C,U3*
X74589000Y-44215607D03*
X73639000Y-44215607D03*
X72689000Y-44215607D03*
X72689000Y-46415607D03*
X74589000Y-46415607D03*
G04 #@! TD*
D30*
G04 #@! TO.C,Q1*
X81650000Y-38000000D03*
X81650000Y-38950000D03*
X81650000Y-37050000D03*
X83850000Y-37050000D03*
X83850000Y-38000000D03*
X83850000Y-38950000D03*
G04 #@! TD*
D12*
G04 #@! TO.C,R3*
G36*
X86452691Y-57526053D02*
X86473926Y-57529203D01*
X86494750Y-57534419D01*
X86514962Y-57541651D01*
X86534368Y-57550830D01*
X86552781Y-57561866D01*
X86570024Y-57574654D01*
X86585930Y-57589070D01*
X86600346Y-57604976D01*
X86613134Y-57622219D01*
X86624170Y-57640632D01*
X86633349Y-57660038D01*
X86640581Y-57680250D01*
X86645797Y-57701074D01*
X86648947Y-57722309D01*
X86650000Y-57743750D01*
X86650000Y-58256250D01*
X86648947Y-58277691D01*
X86645797Y-58298926D01*
X86640581Y-58319750D01*
X86633349Y-58339962D01*
X86624170Y-58359368D01*
X86613134Y-58377781D01*
X86600346Y-58395024D01*
X86585930Y-58410930D01*
X86570024Y-58425346D01*
X86552781Y-58438134D01*
X86534368Y-58449170D01*
X86514962Y-58458349D01*
X86494750Y-58465581D01*
X86473926Y-58470797D01*
X86452691Y-58473947D01*
X86431250Y-58475000D01*
X85993750Y-58475000D01*
X85972309Y-58473947D01*
X85951074Y-58470797D01*
X85930250Y-58465581D01*
X85910038Y-58458349D01*
X85890632Y-58449170D01*
X85872219Y-58438134D01*
X85854976Y-58425346D01*
X85839070Y-58410930D01*
X85824654Y-58395024D01*
X85811866Y-58377781D01*
X85800830Y-58359368D01*
X85791651Y-58339962D01*
X85784419Y-58319750D01*
X85779203Y-58298926D01*
X85776053Y-58277691D01*
X85775000Y-58256250D01*
X85775000Y-57743750D01*
X85776053Y-57722309D01*
X85779203Y-57701074D01*
X85784419Y-57680250D01*
X85791651Y-57660038D01*
X85800830Y-57640632D01*
X85811866Y-57622219D01*
X85824654Y-57604976D01*
X85839070Y-57589070D01*
X85854976Y-57574654D01*
X85872219Y-57561866D01*
X85890632Y-57550830D01*
X85910038Y-57541651D01*
X85930250Y-57534419D01*
X85951074Y-57529203D01*
X85972309Y-57526053D01*
X85993750Y-57525000D01*
X86431250Y-57525000D01*
X86452691Y-57526053D01*
X86452691Y-57526053D01*
G37*
D13*
X86212500Y-58000000D03*
D12*
G36*
X88027691Y-57526053D02*
X88048926Y-57529203D01*
X88069750Y-57534419D01*
X88089962Y-57541651D01*
X88109368Y-57550830D01*
X88127781Y-57561866D01*
X88145024Y-57574654D01*
X88160930Y-57589070D01*
X88175346Y-57604976D01*
X88188134Y-57622219D01*
X88199170Y-57640632D01*
X88208349Y-57660038D01*
X88215581Y-57680250D01*
X88220797Y-57701074D01*
X88223947Y-57722309D01*
X88225000Y-57743750D01*
X88225000Y-58256250D01*
X88223947Y-58277691D01*
X88220797Y-58298926D01*
X88215581Y-58319750D01*
X88208349Y-58339962D01*
X88199170Y-58359368D01*
X88188134Y-58377781D01*
X88175346Y-58395024D01*
X88160930Y-58410930D01*
X88145024Y-58425346D01*
X88127781Y-58438134D01*
X88109368Y-58449170D01*
X88089962Y-58458349D01*
X88069750Y-58465581D01*
X88048926Y-58470797D01*
X88027691Y-58473947D01*
X88006250Y-58475000D01*
X87568750Y-58475000D01*
X87547309Y-58473947D01*
X87526074Y-58470797D01*
X87505250Y-58465581D01*
X87485038Y-58458349D01*
X87465632Y-58449170D01*
X87447219Y-58438134D01*
X87429976Y-58425346D01*
X87414070Y-58410930D01*
X87399654Y-58395024D01*
X87386866Y-58377781D01*
X87375830Y-58359368D01*
X87366651Y-58339962D01*
X87359419Y-58319750D01*
X87354203Y-58298926D01*
X87351053Y-58277691D01*
X87350000Y-58256250D01*
X87350000Y-57743750D01*
X87351053Y-57722309D01*
X87354203Y-57701074D01*
X87359419Y-57680250D01*
X87366651Y-57660038D01*
X87375830Y-57640632D01*
X87386866Y-57622219D01*
X87399654Y-57604976D01*
X87414070Y-57589070D01*
X87429976Y-57574654D01*
X87447219Y-57561866D01*
X87465632Y-57550830D01*
X87485038Y-57541651D01*
X87505250Y-57534419D01*
X87526074Y-57529203D01*
X87547309Y-57526053D01*
X87568750Y-57525000D01*
X88006250Y-57525000D01*
X88027691Y-57526053D01*
X88027691Y-57526053D01*
G37*
D13*
X87787500Y-58000000D03*
G04 #@! TD*
D12*
G04 #@! TO.C,R7*
G36*
X54527691Y-34276053D02*
X54548926Y-34279203D01*
X54569750Y-34284419D01*
X54589962Y-34291651D01*
X54609368Y-34300830D01*
X54627781Y-34311866D01*
X54645024Y-34324654D01*
X54660930Y-34339070D01*
X54675346Y-34354976D01*
X54688134Y-34372219D01*
X54699170Y-34390632D01*
X54708349Y-34410038D01*
X54715581Y-34430250D01*
X54720797Y-34451074D01*
X54723947Y-34472309D01*
X54725000Y-34493750D01*
X54725000Y-35006250D01*
X54723947Y-35027691D01*
X54720797Y-35048926D01*
X54715581Y-35069750D01*
X54708349Y-35089962D01*
X54699170Y-35109368D01*
X54688134Y-35127781D01*
X54675346Y-35145024D01*
X54660930Y-35160930D01*
X54645024Y-35175346D01*
X54627781Y-35188134D01*
X54609368Y-35199170D01*
X54589962Y-35208349D01*
X54569750Y-35215581D01*
X54548926Y-35220797D01*
X54527691Y-35223947D01*
X54506250Y-35225000D01*
X54068750Y-35225000D01*
X54047309Y-35223947D01*
X54026074Y-35220797D01*
X54005250Y-35215581D01*
X53985038Y-35208349D01*
X53965632Y-35199170D01*
X53947219Y-35188134D01*
X53929976Y-35175346D01*
X53914070Y-35160930D01*
X53899654Y-35145024D01*
X53886866Y-35127781D01*
X53875830Y-35109368D01*
X53866651Y-35089962D01*
X53859419Y-35069750D01*
X53854203Y-35048926D01*
X53851053Y-35027691D01*
X53850000Y-35006250D01*
X53850000Y-34493750D01*
X53851053Y-34472309D01*
X53854203Y-34451074D01*
X53859419Y-34430250D01*
X53866651Y-34410038D01*
X53875830Y-34390632D01*
X53886866Y-34372219D01*
X53899654Y-34354976D01*
X53914070Y-34339070D01*
X53929976Y-34324654D01*
X53947219Y-34311866D01*
X53965632Y-34300830D01*
X53985038Y-34291651D01*
X54005250Y-34284419D01*
X54026074Y-34279203D01*
X54047309Y-34276053D01*
X54068750Y-34275000D01*
X54506250Y-34275000D01*
X54527691Y-34276053D01*
X54527691Y-34276053D01*
G37*
D13*
X54287500Y-34750000D03*
D12*
G36*
X52952691Y-34276053D02*
X52973926Y-34279203D01*
X52994750Y-34284419D01*
X53014962Y-34291651D01*
X53034368Y-34300830D01*
X53052781Y-34311866D01*
X53070024Y-34324654D01*
X53085930Y-34339070D01*
X53100346Y-34354976D01*
X53113134Y-34372219D01*
X53124170Y-34390632D01*
X53133349Y-34410038D01*
X53140581Y-34430250D01*
X53145797Y-34451074D01*
X53148947Y-34472309D01*
X53150000Y-34493750D01*
X53150000Y-35006250D01*
X53148947Y-35027691D01*
X53145797Y-35048926D01*
X53140581Y-35069750D01*
X53133349Y-35089962D01*
X53124170Y-35109368D01*
X53113134Y-35127781D01*
X53100346Y-35145024D01*
X53085930Y-35160930D01*
X53070024Y-35175346D01*
X53052781Y-35188134D01*
X53034368Y-35199170D01*
X53014962Y-35208349D01*
X52994750Y-35215581D01*
X52973926Y-35220797D01*
X52952691Y-35223947D01*
X52931250Y-35225000D01*
X52493750Y-35225000D01*
X52472309Y-35223947D01*
X52451074Y-35220797D01*
X52430250Y-35215581D01*
X52410038Y-35208349D01*
X52390632Y-35199170D01*
X52372219Y-35188134D01*
X52354976Y-35175346D01*
X52339070Y-35160930D01*
X52324654Y-35145024D01*
X52311866Y-35127781D01*
X52300830Y-35109368D01*
X52291651Y-35089962D01*
X52284419Y-35069750D01*
X52279203Y-35048926D01*
X52276053Y-35027691D01*
X52275000Y-35006250D01*
X52275000Y-34493750D01*
X52276053Y-34472309D01*
X52279203Y-34451074D01*
X52284419Y-34430250D01*
X52291651Y-34410038D01*
X52300830Y-34390632D01*
X52311866Y-34372219D01*
X52324654Y-34354976D01*
X52339070Y-34339070D01*
X52354976Y-34324654D01*
X52372219Y-34311866D01*
X52390632Y-34300830D01*
X52410038Y-34291651D01*
X52430250Y-34284419D01*
X52451074Y-34279203D01*
X52472309Y-34276053D01*
X52493750Y-34275000D01*
X52931250Y-34275000D01*
X52952691Y-34276053D01*
X52952691Y-34276053D01*
G37*
D13*
X52712500Y-34750000D03*
G04 #@! TD*
D12*
G04 #@! TO.C,R2*
G36*
X89952691Y-57526053D02*
X89973926Y-57529203D01*
X89994750Y-57534419D01*
X90014962Y-57541651D01*
X90034368Y-57550830D01*
X90052781Y-57561866D01*
X90070024Y-57574654D01*
X90085930Y-57589070D01*
X90100346Y-57604976D01*
X90113134Y-57622219D01*
X90124170Y-57640632D01*
X90133349Y-57660038D01*
X90140581Y-57680250D01*
X90145797Y-57701074D01*
X90148947Y-57722309D01*
X90150000Y-57743750D01*
X90150000Y-58256250D01*
X90148947Y-58277691D01*
X90145797Y-58298926D01*
X90140581Y-58319750D01*
X90133349Y-58339962D01*
X90124170Y-58359368D01*
X90113134Y-58377781D01*
X90100346Y-58395024D01*
X90085930Y-58410930D01*
X90070024Y-58425346D01*
X90052781Y-58438134D01*
X90034368Y-58449170D01*
X90014962Y-58458349D01*
X89994750Y-58465581D01*
X89973926Y-58470797D01*
X89952691Y-58473947D01*
X89931250Y-58475000D01*
X89493750Y-58475000D01*
X89472309Y-58473947D01*
X89451074Y-58470797D01*
X89430250Y-58465581D01*
X89410038Y-58458349D01*
X89390632Y-58449170D01*
X89372219Y-58438134D01*
X89354976Y-58425346D01*
X89339070Y-58410930D01*
X89324654Y-58395024D01*
X89311866Y-58377781D01*
X89300830Y-58359368D01*
X89291651Y-58339962D01*
X89284419Y-58319750D01*
X89279203Y-58298926D01*
X89276053Y-58277691D01*
X89275000Y-58256250D01*
X89275000Y-57743750D01*
X89276053Y-57722309D01*
X89279203Y-57701074D01*
X89284419Y-57680250D01*
X89291651Y-57660038D01*
X89300830Y-57640632D01*
X89311866Y-57622219D01*
X89324654Y-57604976D01*
X89339070Y-57589070D01*
X89354976Y-57574654D01*
X89372219Y-57561866D01*
X89390632Y-57550830D01*
X89410038Y-57541651D01*
X89430250Y-57534419D01*
X89451074Y-57529203D01*
X89472309Y-57526053D01*
X89493750Y-57525000D01*
X89931250Y-57525000D01*
X89952691Y-57526053D01*
X89952691Y-57526053D01*
G37*
D13*
X89712500Y-58000000D03*
D12*
G36*
X91527691Y-57526053D02*
X91548926Y-57529203D01*
X91569750Y-57534419D01*
X91589962Y-57541651D01*
X91609368Y-57550830D01*
X91627781Y-57561866D01*
X91645024Y-57574654D01*
X91660930Y-57589070D01*
X91675346Y-57604976D01*
X91688134Y-57622219D01*
X91699170Y-57640632D01*
X91708349Y-57660038D01*
X91715581Y-57680250D01*
X91720797Y-57701074D01*
X91723947Y-57722309D01*
X91725000Y-57743750D01*
X91725000Y-58256250D01*
X91723947Y-58277691D01*
X91720797Y-58298926D01*
X91715581Y-58319750D01*
X91708349Y-58339962D01*
X91699170Y-58359368D01*
X91688134Y-58377781D01*
X91675346Y-58395024D01*
X91660930Y-58410930D01*
X91645024Y-58425346D01*
X91627781Y-58438134D01*
X91609368Y-58449170D01*
X91589962Y-58458349D01*
X91569750Y-58465581D01*
X91548926Y-58470797D01*
X91527691Y-58473947D01*
X91506250Y-58475000D01*
X91068750Y-58475000D01*
X91047309Y-58473947D01*
X91026074Y-58470797D01*
X91005250Y-58465581D01*
X90985038Y-58458349D01*
X90965632Y-58449170D01*
X90947219Y-58438134D01*
X90929976Y-58425346D01*
X90914070Y-58410930D01*
X90899654Y-58395024D01*
X90886866Y-58377781D01*
X90875830Y-58359368D01*
X90866651Y-58339962D01*
X90859419Y-58319750D01*
X90854203Y-58298926D01*
X90851053Y-58277691D01*
X90850000Y-58256250D01*
X90850000Y-57743750D01*
X90851053Y-57722309D01*
X90854203Y-57701074D01*
X90859419Y-57680250D01*
X90866651Y-57660038D01*
X90875830Y-57640632D01*
X90886866Y-57622219D01*
X90899654Y-57604976D01*
X90914070Y-57589070D01*
X90929976Y-57574654D01*
X90947219Y-57561866D01*
X90965632Y-57550830D01*
X90985038Y-57541651D01*
X91005250Y-57534419D01*
X91026074Y-57529203D01*
X91047309Y-57526053D01*
X91068750Y-57525000D01*
X91506250Y-57525000D01*
X91527691Y-57526053D01*
X91527691Y-57526053D01*
G37*
D13*
X91287500Y-58000000D03*
G04 #@! TD*
M02*
