G04 #@! TF.GenerationSoftware,KiCad,Pcbnew,5.0.2-bee76a0~70~ubuntu18.04.1*
G04 #@! TF.CreationDate,2019-10-29T17:05:40+01:00*
G04 #@! TF.ProjectId,emfi,656d6669-2e6b-4696-9361-645f70636258,0.1*
G04 #@! TF.SameCoordinates,Original*
G04 #@! TF.FileFunction,Soldermask,Top*
G04 #@! TF.FilePolarity,Negative*
%FSLAX46Y46*%
G04 Gerber Fmt 4.6, Leading zero omitted, Abs format (unit mm)*
G04 Created by KiCad (PCBNEW 5.0.2-bee76a0~70~ubuntu18.04.1) date mar. 29 oct. 2019 17:05:40 CET*
%MOMM*%
%LPD*%
G01*
G04 APERTURE LIST*
%ADD10C,0.100000*%
G04 APERTURE END LIST*
D10*
G36*
X63379591Y-63053085D02*
X63413569Y-63063393D01*
X63444887Y-63080133D01*
X63472339Y-63102661D01*
X63494867Y-63130113D01*
X63511607Y-63161431D01*
X63521915Y-63195409D01*
X63526000Y-63236890D01*
X63526000Y-63838110D01*
X63521915Y-63879591D01*
X63511607Y-63913569D01*
X63494867Y-63944887D01*
X63472339Y-63972339D01*
X63444887Y-63994867D01*
X63413569Y-64011607D01*
X63379591Y-64021915D01*
X63338110Y-64026000D01*
X62661890Y-64026000D01*
X62620409Y-64021915D01*
X62586431Y-64011607D01*
X62555113Y-63994867D01*
X62527661Y-63972339D01*
X62505133Y-63944887D01*
X62488393Y-63913569D01*
X62478085Y-63879591D01*
X62474000Y-63838110D01*
X62474000Y-63236890D01*
X62478085Y-63195409D01*
X62488393Y-63161431D01*
X62505133Y-63130113D01*
X62527661Y-63102661D01*
X62555113Y-63080133D01*
X62586431Y-63063393D01*
X62620409Y-63053085D01*
X62661890Y-63049000D01*
X63338110Y-63049000D01*
X63379591Y-63053085D01*
X63379591Y-63053085D01*
G37*
G36*
X65129591Y-63053085D02*
X65163569Y-63063393D01*
X65194887Y-63080133D01*
X65222339Y-63102661D01*
X65244867Y-63130113D01*
X65261607Y-63161431D01*
X65271915Y-63195409D01*
X65276000Y-63236890D01*
X65276000Y-63838110D01*
X65271915Y-63879591D01*
X65261607Y-63913569D01*
X65244867Y-63944887D01*
X65222339Y-63972339D01*
X65194887Y-63994867D01*
X65163569Y-64011607D01*
X65129591Y-64021915D01*
X65088110Y-64026000D01*
X64411890Y-64026000D01*
X64370409Y-64021915D01*
X64336431Y-64011607D01*
X64305113Y-63994867D01*
X64277661Y-63972339D01*
X64255133Y-63944887D01*
X64238393Y-63913569D01*
X64228085Y-63879591D01*
X64224000Y-63838110D01*
X64224000Y-63236890D01*
X64228085Y-63195409D01*
X64238393Y-63161431D01*
X64255133Y-63130113D01*
X64277661Y-63102661D01*
X64305113Y-63080133D01*
X64336431Y-63063393D01*
X64370409Y-63053085D01*
X64411890Y-63049000D01*
X65088110Y-63049000D01*
X65129591Y-63053085D01*
X65129591Y-63053085D01*
G37*
G36*
X66879591Y-63053085D02*
X66913569Y-63063393D01*
X66944887Y-63080133D01*
X66972339Y-63102661D01*
X66994867Y-63130113D01*
X67011607Y-63161431D01*
X67021915Y-63195409D01*
X67026000Y-63236890D01*
X67026000Y-63838110D01*
X67021915Y-63879591D01*
X67011607Y-63913569D01*
X66994867Y-63944887D01*
X66972339Y-63972339D01*
X66944887Y-63994867D01*
X66913569Y-64011607D01*
X66879591Y-64021915D01*
X66838110Y-64026000D01*
X66161890Y-64026000D01*
X66120409Y-64021915D01*
X66086431Y-64011607D01*
X66055113Y-63994867D01*
X66027661Y-63972339D01*
X66005133Y-63944887D01*
X65988393Y-63913569D01*
X65978085Y-63879591D01*
X65974000Y-63838110D01*
X65974000Y-63236890D01*
X65978085Y-63195409D01*
X65988393Y-63161431D01*
X66005133Y-63130113D01*
X66027661Y-63102661D01*
X66055113Y-63080133D01*
X66086431Y-63063393D01*
X66120409Y-63053085D01*
X66161890Y-63049000D01*
X66838110Y-63049000D01*
X66879591Y-63053085D01*
X66879591Y-63053085D01*
G37*
G36*
X61629591Y-63053085D02*
X61663569Y-63063393D01*
X61694887Y-63080133D01*
X61722339Y-63102661D01*
X61744867Y-63130113D01*
X61761607Y-63161431D01*
X61771915Y-63195409D01*
X61776000Y-63236890D01*
X61776000Y-63838110D01*
X61771915Y-63879591D01*
X61761607Y-63913569D01*
X61744867Y-63944887D01*
X61722339Y-63972339D01*
X61694887Y-63994867D01*
X61663569Y-64011607D01*
X61629591Y-64021915D01*
X61588110Y-64026000D01*
X60911890Y-64026000D01*
X60870409Y-64021915D01*
X60836431Y-64011607D01*
X60805113Y-63994867D01*
X60777661Y-63972339D01*
X60755133Y-63944887D01*
X60738393Y-63913569D01*
X60728085Y-63879591D01*
X60724000Y-63838110D01*
X60724000Y-63236890D01*
X60728085Y-63195409D01*
X60738393Y-63161431D01*
X60755133Y-63130113D01*
X60777661Y-63102661D01*
X60805113Y-63080133D01*
X60836431Y-63063393D01*
X60870409Y-63053085D01*
X60911890Y-63049000D01*
X61588110Y-63049000D01*
X61629591Y-63053085D01*
X61629591Y-63053085D01*
G37*
G36*
X152710918Y-60677934D02*
X152743424Y-60687795D01*
X152773383Y-60703808D01*
X152799641Y-60725359D01*
X152821192Y-60751617D01*
X152837205Y-60781576D01*
X152847066Y-60814082D01*
X152851000Y-60854029D01*
X152851000Y-62395971D01*
X152847066Y-62435918D01*
X152837205Y-62468424D01*
X152821192Y-62498383D01*
X152799641Y-62524641D01*
X152773383Y-62546192D01*
X152743424Y-62562205D01*
X152710918Y-62572066D01*
X152670971Y-62576000D01*
X146329029Y-62576000D01*
X146289082Y-62572066D01*
X146256576Y-62562205D01*
X146226617Y-62546192D01*
X146200359Y-62524641D01*
X146178808Y-62498383D01*
X146162795Y-62468424D01*
X146152934Y-62435918D01*
X146149000Y-62395971D01*
X146149000Y-60854029D01*
X146152934Y-60814082D01*
X146162795Y-60781576D01*
X146178808Y-60751617D01*
X146200359Y-60725359D01*
X146226617Y-60703808D01*
X146256576Y-60687795D01*
X146289082Y-60677934D01*
X146329029Y-60674000D01*
X152670971Y-60674000D01*
X152710918Y-60677934D01*
X152710918Y-60677934D01*
G37*
G36*
X122710918Y-60677934D02*
X122743424Y-60687795D01*
X122773383Y-60703808D01*
X122799641Y-60725359D01*
X122821192Y-60751617D01*
X122837205Y-60781576D01*
X122847066Y-60814082D01*
X122851000Y-60854029D01*
X122851000Y-62395971D01*
X122847066Y-62435918D01*
X122837205Y-62468424D01*
X122821192Y-62498383D01*
X122799641Y-62524641D01*
X122773383Y-62546192D01*
X122743424Y-62562205D01*
X122710918Y-62572066D01*
X122670971Y-62576000D01*
X116329029Y-62576000D01*
X116289082Y-62572066D01*
X116256576Y-62562205D01*
X116226617Y-62546192D01*
X116200359Y-62524641D01*
X116178808Y-62498383D01*
X116162795Y-62468424D01*
X116152934Y-62435918D01*
X116149000Y-62395971D01*
X116149000Y-60854029D01*
X116152934Y-60814082D01*
X116162795Y-60781576D01*
X116178808Y-60751617D01*
X116200359Y-60725359D01*
X116226617Y-60703808D01*
X116256576Y-60687795D01*
X116289082Y-60677934D01*
X116329029Y-60674000D01*
X122670971Y-60674000D01*
X122710918Y-60677934D01*
X122710918Y-60677934D01*
G37*
G36*
X130210918Y-60677934D02*
X130243424Y-60687795D01*
X130273383Y-60703808D01*
X130299641Y-60725359D01*
X130321192Y-60751617D01*
X130337205Y-60781576D01*
X130347066Y-60814082D01*
X130351000Y-60854029D01*
X130351000Y-62395971D01*
X130347066Y-62435918D01*
X130337205Y-62468424D01*
X130321192Y-62498383D01*
X130299641Y-62524641D01*
X130273383Y-62546192D01*
X130243424Y-62562205D01*
X130210918Y-62572066D01*
X130170971Y-62576000D01*
X123829029Y-62576000D01*
X123789082Y-62572066D01*
X123756576Y-62562205D01*
X123726617Y-62546192D01*
X123700359Y-62524641D01*
X123678808Y-62498383D01*
X123662795Y-62468424D01*
X123652934Y-62435918D01*
X123649000Y-62395971D01*
X123649000Y-60854029D01*
X123652934Y-60814082D01*
X123662795Y-60781576D01*
X123678808Y-60751617D01*
X123700359Y-60725359D01*
X123726617Y-60703808D01*
X123756576Y-60687795D01*
X123789082Y-60677934D01*
X123829029Y-60674000D01*
X130170971Y-60674000D01*
X130210918Y-60677934D01*
X130210918Y-60677934D01*
G37*
G36*
X137710918Y-60677934D02*
X137743424Y-60687795D01*
X137773383Y-60703808D01*
X137799641Y-60725359D01*
X137821192Y-60751617D01*
X137837205Y-60781576D01*
X137847066Y-60814082D01*
X137851000Y-60854029D01*
X137851000Y-62395971D01*
X137847066Y-62435918D01*
X137837205Y-62468424D01*
X137821192Y-62498383D01*
X137799641Y-62524641D01*
X137773383Y-62546192D01*
X137743424Y-62562205D01*
X137710918Y-62572066D01*
X137670971Y-62576000D01*
X131329029Y-62576000D01*
X131289082Y-62572066D01*
X131256576Y-62562205D01*
X131226617Y-62546192D01*
X131200359Y-62524641D01*
X131178808Y-62498383D01*
X131162795Y-62468424D01*
X131152934Y-62435918D01*
X131149000Y-62395971D01*
X131149000Y-60854029D01*
X131152934Y-60814082D01*
X131162795Y-60781576D01*
X131178808Y-60751617D01*
X131200359Y-60725359D01*
X131226617Y-60703808D01*
X131256576Y-60687795D01*
X131289082Y-60677934D01*
X131329029Y-60674000D01*
X137670971Y-60674000D01*
X137710918Y-60677934D01*
X137710918Y-60677934D01*
G37*
G36*
X145210918Y-60677934D02*
X145243424Y-60687795D01*
X145273383Y-60703808D01*
X145299641Y-60725359D01*
X145321192Y-60751617D01*
X145337205Y-60781576D01*
X145347066Y-60814082D01*
X145351000Y-60854029D01*
X145351000Y-62395971D01*
X145347066Y-62435918D01*
X145337205Y-62468424D01*
X145321192Y-62498383D01*
X145299641Y-62524641D01*
X145273383Y-62546192D01*
X145243424Y-62562205D01*
X145210918Y-62572066D01*
X145170971Y-62576000D01*
X138829029Y-62576000D01*
X138789082Y-62572066D01*
X138756576Y-62562205D01*
X138726617Y-62546192D01*
X138700359Y-62524641D01*
X138678808Y-62498383D01*
X138662795Y-62468424D01*
X138652934Y-62435918D01*
X138649000Y-62395971D01*
X138649000Y-60854029D01*
X138652934Y-60814082D01*
X138662795Y-60781576D01*
X138678808Y-60751617D01*
X138700359Y-60725359D01*
X138726617Y-60703808D01*
X138756576Y-60687795D01*
X138789082Y-60677934D01*
X138829029Y-60674000D01*
X145170971Y-60674000D01*
X145210918Y-60677934D01*
X145210918Y-60677934D01*
G37*
G36*
X63379591Y-61478085D02*
X63413569Y-61488393D01*
X63444887Y-61505133D01*
X63472339Y-61527661D01*
X63494867Y-61555113D01*
X63511607Y-61586431D01*
X63521915Y-61620409D01*
X63526000Y-61661890D01*
X63526000Y-62263110D01*
X63521915Y-62304591D01*
X63511607Y-62338569D01*
X63494867Y-62369887D01*
X63472339Y-62397339D01*
X63444887Y-62419867D01*
X63413569Y-62436607D01*
X63379591Y-62446915D01*
X63338110Y-62451000D01*
X62661890Y-62451000D01*
X62620409Y-62446915D01*
X62586431Y-62436607D01*
X62555113Y-62419867D01*
X62527661Y-62397339D01*
X62505133Y-62369887D01*
X62488393Y-62338569D01*
X62478085Y-62304591D01*
X62474000Y-62263110D01*
X62474000Y-61661890D01*
X62478085Y-61620409D01*
X62488393Y-61586431D01*
X62505133Y-61555113D01*
X62527661Y-61527661D01*
X62555113Y-61505133D01*
X62586431Y-61488393D01*
X62620409Y-61478085D01*
X62661890Y-61474000D01*
X63338110Y-61474000D01*
X63379591Y-61478085D01*
X63379591Y-61478085D01*
G37*
G36*
X66879591Y-61478085D02*
X66913569Y-61488393D01*
X66944887Y-61505133D01*
X66972339Y-61527661D01*
X66994867Y-61555113D01*
X67011607Y-61586431D01*
X67021915Y-61620409D01*
X67026000Y-61661890D01*
X67026000Y-62263110D01*
X67021915Y-62304591D01*
X67011607Y-62338569D01*
X66994867Y-62369887D01*
X66972339Y-62397339D01*
X66944887Y-62419867D01*
X66913569Y-62436607D01*
X66879591Y-62446915D01*
X66838110Y-62451000D01*
X66161890Y-62451000D01*
X66120409Y-62446915D01*
X66086431Y-62436607D01*
X66055113Y-62419867D01*
X66027661Y-62397339D01*
X66005133Y-62369887D01*
X65988393Y-62338569D01*
X65978085Y-62304591D01*
X65974000Y-62263110D01*
X65974000Y-61661890D01*
X65978085Y-61620409D01*
X65988393Y-61586431D01*
X66005133Y-61555113D01*
X66027661Y-61527661D01*
X66055113Y-61505133D01*
X66086431Y-61488393D01*
X66120409Y-61478085D01*
X66161890Y-61474000D01*
X66838110Y-61474000D01*
X66879591Y-61478085D01*
X66879591Y-61478085D01*
G37*
G36*
X65129591Y-61478085D02*
X65163569Y-61488393D01*
X65194887Y-61505133D01*
X65222339Y-61527661D01*
X65244867Y-61555113D01*
X65261607Y-61586431D01*
X65271915Y-61620409D01*
X65276000Y-61661890D01*
X65276000Y-62263110D01*
X65271915Y-62304591D01*
X65261607Y-62338569D01*
X65244867Y-62369887D01*
X65222339Y-62397339D01*
X65194887Y-62419867D01*
X65163569Y-62436607D01*
X65129591Y-62446915D01*
X65088110Y-62451000D01*
X64411890Y-62451000D01*
X64370409Y-62446915D01*
X64336431Y-62436607D01*
X64305113Y-62419867D01*
X64277661Y-62397339D01*
X64255133Y-62369887D01*
X64238393Y-62338569D01*
X64228085Y-62304591D01*
X64224000Y-62263110D01*
X64224000Y-61661890D01*
X64228085Y-61620409D01*
X64238393Y-61586431D01*
X64255133Y-61555113D01*
X64277661Y-61527661D01*
X64305113Y-61505133D01*
X64336431Y-61488393D01*
X64370409Y-61478085D01*
X64411890Y-61474000D01*
X65088110Y-61474000D01*
X65129591Y-61478085D01*
X65129591Y-61478085D01*
G37*
G36*
X61629591Y-61478085D02*
X61663569Y-61488393D01*
X61694887Y-61505133D01*
X61722339Y-61527661D01*
X61744867Y-61555113D01*
X61761607Y-61586431D01*
X61771915Y-61620409D01*
X61776000Y-61661890D01*
X61776000Y-62263110D01*
X61771915Y-62304591D01*
X61761607Y-62338569D01*
X61744867Y-62369887D01*
X61722339Y-62397339D01*
X61694887Y-62419867D01*
X61663569Y-62436607D01*
X61629591Y-62446915D01*
X61588110Y-62451000D01*
X60911890Y-62451000D01*
X60870409Y-62446915D01*
X60836431Y-62436607D01*
X60805113Y-62419867D01*
X60777661Y-62397339D01*
X60755133Y-62369887D01*
X60738393Y-62338569D01*
X60728085Y-62304591D01*
X60724000Y-62263110D01*
X60724000Y-61661890D01*
X60728085Y-61620409D01*
X60738393Y-61586431D01*
X60755133Y-61555113D01*
X60777661Y-61527661D01*
X60805113Y-61505133D01*
X60836431Y-61488393D01*
X60870409Y-61478085D01*
X60911890Y-61474000D01*
X61588110Y-61474000D01*
X61629591Y-61478085D01*
X61629591Y-61478085D01*
G37*
G36*
X76554591Y-58728085D02*
X76588569Y-58738393D01*
X76619887Y-58755133D01*
X76647339Y-58777661D01*
X76669867Y-58805113D01*
X76686607Y-58836431D01*
X76696915Y-58870409D01*
X76701000Y-58911890D01*
X76701000Y-59588110D01*
X76696915Y-59629591D01*
X76686607Y-59663569D01*
X76669867Y-59694887D01*
X76647339Y-59722339D01*
X76619887Y-59744867D01*
X76588569Y-59761607D01*
X76554591Y-59771915D01*
X76513110Y-59776000D01*
X75911890Y-59776000D01*
X75870409Y-59771915D01*
X75836431Y-59761607D01*
X75805113Y-59744867D01*
X75777661Y-59722339D01*
X75755133Y-59694887D01*
X75738393Y-59663569D01*
X75728085Y-59629591D01*
X75724000Y-59588110D01*
X75724000Y-58911890D01*
X75728085Y-58870409D01*
X75738393Y-58836431D01*
X75755133Y-58805113D01*
X75777661Y-58777661D01*
X75805113Y-58755133D01*
X75836431Y-58738393D01*
X75870409Y-58728085D01*
X75911890Y-58724000D01*
X76513110Y-58724000D01*
X76554591Y-58728085D01*
X76554591Y-58728085D01*
G37*
G36*
X78129591Y-58728085D02*
X78163569Y-58738393D01*
X78194887Y-58755133D01*
X78222339Y-58777661D01*
X78244867Y-58805113D01*
X78261607Y-58836431D01*
X78271915Y-58870409D01*
X78276000Y-58911890D01*
X78276000Y-59588110D01*
X78271915Y-59629591D01*
X78261607Y-59663569D01*
X78244867Y-59694887D01*
X78222339Y-59722339D01*
X78194887Y-59744867D01*
X78163569Y-59761607D01*
X78129591Y-59771915D01*
X78088110Y-59776000D01*
X77486890Y-59776000D01*
X77445409Y-59771915D01*
X77411431Y-59761607D01*
X77380113Y-59744867D01*
X77352661Y-59722339D01*
X77330133Y-59694887D01*
X77313393Y-59663569D01*
X77303085Y-59629591D01*
X77299000Y-59588110D01*
X77299000Y-58911890D01*
X77303085Y-58870409D01*
X77313393Y-58836431D01*
X77330133Y-58805113D01*
X77352661Y-58777661D01*
X77380113Y-58755133D01*
X77411431Y-58738393D01*
X77445409Y-58728085D01*
X77486890Y-58724000D01*
X78088110Y-58724000D01*
X78129591Y-58728085D01*
X78129591Y-58728085D01*
G37*
G36*
X73304591Y-58728085D02*
X73338569Y-58738393D01*
X73369887Y-58755133D01*
X73397339Y-58777661D01*
X73419867Y-58805113D01*
X73436607Y-58836431D01*
X73446915Y-58870409D01*
X73451000Y-58911890D01*
X73451000Y-59588110D01*
X73446915Y-59629591D01*
X73436607Y-59663569D01*
X73419867Y-59694887D01*
X73397339Y-59722339D01*
X73369887Y-59744867D01*
X73338569Y-59761607D01*
X73304591Y-59771915D01*
X73263110Y-59776000D01*
X72661890Y-59776000D01*
X72620409Y-59771915D01*
X72586431Y-59761607D01*
X72555113Y-59744867D01*
X72527661Y-59722339D01*
X72505133Y-59694887D01*
X72488393Y-59663569D01*
X72478085Y-59629591D01*
X72474000Y-59588110D01*
X72474000Y-58911890D01*
X72478085Y-58870409D01*
X72488393Y-58836431D01*
X72505133Y-58805113D01*
X72527661Y-58777661D01*
X72555113Y-58755133D01*
X72586431Y-58738393D01*
X72620409Y-58728085D01*
X72661890Y-58724000D01*
X73263110Y-58724000D01*
X73304591Y-58728085D01*
X73304591Y-58728085D01*
G37*
G36*
X74879591Y-58728085D02*
X74913569Y-58738393D01*
X74944887Y-58755133D01*
X74972339Y-58777661D01*
X74994867Y-58805113D01*
X75011607Y-58836431D01*
X75021915Y-58870409D01*
X75026000Y-58911890D01*
X75026000Y-59588110D01*
X75021915Y-59629591D01*
X75011607Y-59663569D01*
X74994867Y-59694887D01*
X74972339Y-59722339D01*
X74944887Y-59744867D01*
X74913569Y-59761607D01*
X74879591Y-59771915D01*
X74838110Y-59776000D01*
X74236890Y-59776000D01*
X74195409Y-59771915D01*
X74161431Y-59761607D01*
X74130113Y-59744867D01*
X74102661Y-59722339D01*
X74080133Y-59694887D01*
X74063393Y-59663569D01*
X74053085Y-59629591D01*
X74049000Y-59588110D01*
X74049000Y-58911890D01*
X74053085Y-58870409D01*
X74063393Y-58836431D01*
X74080133Y-58805113D01*
X74102661Y-58777661D01*
X74130113Y-58755133D01*
X74161431Y-58738393D01*
X74195409Y-58728085D01*
X74236890Y-58724000D01*
X74838110Y-58724000D01*
X74879591Y-58728085D01*
X74879591Y-58728085D01*
G37*
G36*
X45297714Y-58258058D02*
X45297717Y-58258059D01*
X45415719Y-58293854D01*
X45415721Y-58293855D01*
X45524471Y-58351983D01*
X45619790Y-58430210D01*
X45698017Y-58525529D01*
X45723327Y-58572881D01*
X45756146Y-58634281D01*
X45772419Y-58687926D01*
X45791942Y-58752286D01*
X45804028Y-58875000D01*
X45791942Y-58997714D01*
X45756145Y-59115721D01*
X45698017Y-59224471D01*
X45619790Y-59319790D01*
X45524471Y-59398017D01*
X45524469Y-59398018D01*
X45415719Y-59456146D01*
X45319683Y-59485278D01*
X45297714Y-59491942D01*
X45205747Y-59501000D01*
X44494253Y-59501000D01*
X44402286Y-59491942D01*
X44380317Y-59485278D01*
X44284281Y-59456146D01*
X44175531Y-59398018D01*
X44175529Y-59398017D01*
X44080210Y-59319790D01*
X44001983Y-59224471D01*
X43943855Y-59115721D01*
X43908058Y-58997714D01*
X43895972Y-58875000D01*
X43908058Y-58752286D01*
X43927581Y-58687926D01*
X43943854Y-58634281D01*
X43976673Y-58572881D01*
X44001983Y-58525529D01*
X44080210Y-58430210D01*
X44175529Y-58351983D01*
X44284279Y-58293855D01*
X44284281Y-58293854D01*
X44402283Y-58258059D01*
X44402286Y-58258058D01*
X44494253Y-58249000D01*
X45205747Y-58249000D01*
X45297714Y-58258058D01*
X45297714Y-58258058D01*
G37*
G36*
X47688413Y-57055525D02*
X47763456Y-57078290D01*
X47773425Y-57081314D01*
X47851774Y-57123193D01*
X47920448Y-57179552D01*
X47976807Y-57248226D01*
X48018686Y-57326575D01*
X48018687Y-57326579D01*
X48044475Y-57411587D01*
X48053182Y-57500000D01*
X48044475Y-57588413D01*
X48022185Y-57661890D01*
X48018686Y-57673425D01*
X47994726Y-57718250D01*
X47976807Y-57751775D01*
X47958871Y-57773629D01*
X47927850Y-57811429D01*
X47914239Y-57831798D01*
X47904862Y-57854437D01*
X47900081Y-57878471D01*
X47900081Y-57902975D01*
X47904861Y-57927008D01*
X47914238Y-57949648D01*
X47927852Y-57970022D01*
X47945179Y-57987350D01*
X47965553Y-58000964D01*
X47988192Y-58010341D01*
X48012226Y-58015122D01*
X48036730Y-58015122D01*
X48060763Y-58010342D01*
X48069212Y-58006843D01*
X48076599Y-58004602D01*
X48076601Y-58004601D01*
X48222878Y-57960229D01*
X48222881Y-57960228D01*
X48336882Y-57949000D01*
X48963118Y-57949000D01*
X49077119Y-57960228D01*
X49077122Y-57960229D01*
X49223399Y-58004601D01*
X49223401Y-58004602D01*
X49358210Y-58076659D01*
X49476369Y-58173631D01*
X49573341Y-58291790D01*
X49598100Y-58338110D01*
X49645399Y-58426601D01*
X49650946Y-58444887D01*
X49689772Y-58572881D01*
X49704754Y-58725000D01*
X49689772Y-58877119D01*
X49645398Y-59023401D01*
X49573341Y-59158210D01*
X49476369Y-59276369D01*
X49358210Y-59373341D01*
X49312043Y-59398018D01*
X49223399Y-59445399D01*
X49104352Y-59481511D01*
X49077119Y-59489772D01*
X48963118Y-59501000D01*
X48336882Y-59501000D01*
X48222881Y-59489772D01*
X48195648Y-59481511D01*
X48076601Y-59445399D01*
X47987957Y-59398018D01*
X47941790Y-59373341D01*
X47823631Y-59276369D01*
X47726659Y-59158210D01*
X47654602Y-59023401D01*
X47610228Y-58877119D01*
X47595246Y-58725000D01*
X47610228Y-58572881D01*
X47649054Y-58444887D01*
X47654601Y-58426601D01*
X47701900Y-58338110D01*
X47726659Y-58291790D01*
X47823632Y-58173630D01*
X47860105Y-58143696D01*
X47877432Y-58126369D01*
X47891046Y-58105994D01*
X47900423Y-58083355D01*
X47905203Y-58059322D01*
X47905203Y-58034817D01*
X47900422Y-58010784D01*
X47891044Y-57988145D01*
X47877430Y-57967771D01*
X47860103Y-57950444D01*
X47839728Y-57936830D01*
X47817089Y-57927453D01*
X47793056Y-57922673D01*
X47768551Y-57922673D01*
X47744524Y-57927453D01*
X47723489Y-57933833D01*
X47688411Y-57944475D01*
X47622158Y-57951000D01*
X47577842Y-57951000D01*
X47511587Y-57944475D01*
X47436544Y-57921710D01*
X47426575Y-57918686D01*
X47348226Y-57876807D01*
X47279552Y-57820448D01*
X47223193Y-57751774D01*
X47181314Y-57673425D01*
X47177815Y-57661890D01*
X47155525Y-57588413D01*
X47146818Y-57500000D01*
X47155525Y-57411587D01*
X47181313Y-57326579D01*
X47181314Y-57326575D01*
X47223193Y-57248226D01*
X47279552Y-57179552D01*
X47348226Y-57123193D01*
X47426575Y-57081314D01*
X47436544Y-57078290D01*
X47511587Y-57055525D01*
X47577842Y-57049000D01*
X47622158Y-57049000D01*
X47688413Y-57055525D01*
X47688413Y-57055525D01*
G37*
G36*
X67826000Y-59201000D02*
X59974000Y-59201000D01*
X59974000Y-58099000D01*
X67826000Y-58099000D01*
X67826000Y-59201000D01*
X67826000Y-59201000D01*
G37*
G36*
X168631552Y-57126331D02*
X168713625Y-57160327D01*
X168713626Y-57160328D01*
X168713629Y-57160329D01*
X168785866Y-57208597D01*
X168787500Y-57209689D01*
X168850311Y-57272500D01*
X168850313Y-57272503D01*
X168850314Y-57272504D01*
X168899671Y-57346371D01*
X168909175Y-57369315D01*
X168935072Y-57431836D01*
X168946624Y-57453447D01*
X168962169Y-57472389D01*
X168981111Y-57487934D01*
X169002722Y-57499485D01*
X169026171Y-57506598D01*
X169050557Y-57509000D01*
X175551000Y-57509000D01*
X175551000Y-59051000D01*
X169049000Y-59051000D01*
X169049000Y-57950587D01*
X169046598Y-57926201D01*
X169039485Y-57902752D01*
X169027934Y-57881141D01*
X169012388Y-57862199D01*
X168993446Y-57846653D01*
X168971835Y-57835102D01*
X168948386Y-57827989D01*
X168924000Y-57825587D01*
X168899614Y-57827989D01*
X168876165Y-57835102D01*
X168854554Y-57846653D01*
X168835612Y-57862199D01*
X168787500Y-57910311D01*
X168787497Y-57910313D01*
X168787496Y-57910314D01*
X168713629Y-57959671D01*
X168713626Y-57959672D01*
X168713625Y-57959673D01*
X168631552Y-57993669D01*
X168544421Y-58011000D01*
X168455579Y-58011000D01*
X168368448Y-57993669D01*
X168286375Y-57959673D01*
X168286374Y-57959672D01*
X168286371Y-57959671D01*
X168212504Y-57910314D01*
X168212503Y-57910313D01*
X168212500Y-57910311D01*
X168149689Y-57847500D01*
X168149123Y-57846653D01*
X168100329Y-57773629D01*
X168100327Y-57773625D01*
X168066331Y-57691552D01*
X168049000Y-57604421D01*
X168049000Y-57515579D01*
X168066331Y-57428448D01*
X168100327Y-57346375D01*
X168100328Y-57346374D01*
X168100329Y-57346371D01*
X168149686Y-57272504D01*
X168149687Y-57272503D01*
X168149689Y-57272500D01*
X168212500Y-57209689D01*
X168214134Y-57208597D01*
X168286371Y-57160329D01*
X168286374Y-57160328D01*
X168286375Y-57160327D01*
X168368448Y-57126331D01*
X168455579Y-57109000D01*
X168544421Y-57109000D01*
X168631552Y-57126331D01*
X168631552Y-57126331D01*
G37*
G36*
X102935918Y-52152934D02*
X102968424Y-52162795D01*
X102998383Y-52178808D01*
X103024641Y-52200359D01*
X103046192Y-52226617D01*
X103062205Y-52256576D01*
X103072066Y-52289082D01*
X103076000Y-52329029D01*
X103076000Y-58670971D01*
X103072066Y-58710918D01*
X103062205Y-58743424D01*
X103046192Y-58773383D01*
X103024641Y-58799641D01*
X102998383Y-58821192D01*
X102968424Y-58837205D01*
X102935918Y-58847066D01*
X102895971Y-58851000D01*
X101354029Y-58851000D01*
X101314082Y-58847066D01*
X101281576Y-58837205D01*
X101251617Y-58821192D01*
X101225359Y-58799641D01*
X101203808Y-58773383D01*
X101187795Y-58743424D01*
X101177934Y-58710918D01*
X101174000Y-58670971D01*
X101174000Y-52329029D01*
X101177934Y-52289082D01*
X101187795Y-52256576D01*
X101203808Y-52226617D01*
X101225359Y-52200359D01*
X101251617Y-52178808D01*
X101281576Y-52162795D01*
X101314082Y-52152934D01*
X101354029Y-52149000D01*
X102895971Y-52149000D01*
X102935918Y-52152934D01*
X102935918Y-52152934D01*
G37*
G36*
X105685918Y-52152934D02*
X105718424Y-52162795D01*
X105748383Y-52178808D01*
X105774641Y-52200359D01*
X105796192Y-52226617D01*
X105812205Y-52256576D01*
X105822066Y-52289082D01*
X105826000Y-52329029D01*
X105826000Y-58670971D01*
X105822066Y-58710918D01*
X105812205Y-58743424D01*
X105796192Y-58773383D01*
X105774641Y-58799641D01*
X105748383Y-58821192D01*
X105718424Y-58837205D01*
X105685918Y-58847066D01*
X105645971Y-58851000D01*
X104104029Y-58851000D01*
X104064082Y-58847066D01*
X104031576Y-58837205D01*
X104001617Y-58821192D01*
X103975359Y-58799641D01*
X103953808Y-58773383D01*
X103937795Y-58743424D01*
X103927934Y-58710918D01*
X103924000Y-58670971D01*
X103924000Y-52329029D01*
X103927934Y-52289082D01*
X103937795Y-52256576D01*
X103953808Y-52226617D01*
X103975359Y-52200359D01*
X104001617Y-52178808D01*
X104031576Y-52162795D01*
X104064082Y-52152934D01*
X104104029Y-52149000D01*
X105645971Y-52149000D01*
X105685918Y-52152934D01*
X105685918Y-52152934D01*
G37*
G36*
X110935918Y-52152934D02*
X110968424Y-52162795D01*
X110998383Y-52178808D01*
X111024641Y-52200359D01*
X111046192Y-52226617D01*
X111062205Y-52256576D01*
X111072066Y-52289082D01*
X111076000Y-52329029D01*
X111076000Y-58670971D01*
X111072066Y-58710918D01*
X111062205Y-58743424D01*
X111046192Y-58773383D01*
X111024641Y-58799641D01*
X110998383Y-58821192D01*
X110968424Y-58837205D01*
X110935918Y-58847066D01*
X110895971Y-58851000D01*
X109354029Y-58851000D01*
X109314082Y-58847066D01*
X109281576Y-58837205D01*
X109251617Y-58821192D01*
X109225359Y-58799641D01*
X109203808Y-58773383D01*
X109187795Y-58743424D01*
X109177934Y-58710918D01*
X109174000Y-58670971D01*
X109174000Y-52329029D01*
X109177934Y-52289082D01*
X109187795Y-52256576D01*
X109203808Y-52226617D01*
X109225359Y-52200359D01*
X109251617Y-52178808D01*
X109281576Y-52162795D01*
X109314082Y-52152934D01*
X109354029Y-52149000D01*
X110895971Y-52149000D01*
X110935918Y-52152934D01*
X110935918Y-52152934D01*
G37*
G36*
X97685918Y-52152934D02*
X97718424Y-52162795D01*
X97748383Y-52178808D01*
X97774641Y-52200359D01*
X97796192Y-52226617D01*
X97812205Y-52256576D01*
X97822066Y-52289082D01*
X97826000Y-52329029D01*
X97826000Y-58670971D01*
X97822066Y-58710918D01*
X97812205Y-58743424D01*
X97796192Y-58773383D01*
X97774641Y-58799641D01*
X97748383Y-58821192D01*
X97718424Y-58837205D01*
X97685918Y-58847066D01*
X97645971Y-58851000D01*
X96104029Y-58851000D01*
X96064082Y-58847066D01*
X96031576Y-58837205D01*
X96001617Y-58821192D01*
X95975359Y-58799641D01*
X95953808Y-58773383D01*
X95937795Y-58743424D01*
X95927934Y-58710918D01*
X95924000Y-58670971D01*
X95924000Y-52329029D01*
X95927934Y-52289082D01*
X95937795Y-52256576D01*
X95953808Y-52226617D01*
X95975359Y-52200359D01*
X96001617Y-52178808D01*
X96031576Y-52162795D01*
X96064082Y-52152934D01*
X96104029Y-52149000D01*
X97645971Y-52149000D01*
X97685918Y-52152934D01*
X97685918Y-52152934D01*
G37*
G36*
X86554591Y-57478085D02*
X86588569Y-57488393D01*
X86619887Y-57505133D01*
X86647339Y-57527661D01*
X86669867Y-57555113D01*
X86686607Y-57586431D01*
X86696915Y-57620409D01*
X86701000Y-57661890D01*
X86701000Y-58338110D01*
X86696915Y-58379591D01*
X86686607Y-58413569D01*
X86669867Y-58444887D01*
X86647339Y-58472339D01*
X86619887Y-58494867D01*
X86588569Y-58511607D01*
X86554591Y-58521915D01*
X86513110Y-58526000D01*
X85911890Y-58526000D01*
X85870409Y-58521915D01*
X85836431Y-58511607D01*
X85805113Y-58494867D01*
X85777661Y-58472339D01*
X85755133Y-58444887D01*
X85738393Y-58413569D01*
X85728085Y-58379591D01*
X85724000Y-58338110D01*
X85724000Y-57661890D01*
X85728085Y-57620409D01*
X85738393Y-57586431D01*
X85755133Y-57555113D01*
X85777661Y-57527661D01*
X85805113Y-57505133D01*
X85836431Y-57488393D01*
X85870409Y-57478085D01*
X85911890Y-57474000D01*
X86513110Y-57474000D01*
X86554591Y-57478085D01*
X86554591Y-57478085D01*
G37*
G36*
X88129591Y-57478085D02*
X88163569Y-57488393D01*
X88194887Y-57505133D01*
X88222339Y-57527661D01*
X88244867Y-57555113D01*
X88261607Y-57586431D01*
X88271915Y-57620409D01*
X88276000Y-57661890D01*
X88276000Y-58338110D01*
X88271915Y-58379591D01*
X88261607Y-58413569D01*
X88244867Y-58444887D01*
X88222339Y-58472339D01*
X88194887Y-58494867D01*
X88163569Y-58511607D01*
X88129591Y-58521915D01*
X88088110Y-58526000D01*
X87486890Y-58526000D01*
X87445409Y-58521915D01*
X87411431Y-58511607D01*
X87380113Y-58494867D01*
X87352661Y-58472339D01*
X87330133Y-58444887D01*
X87313393Y-58413569D01*
X87303085Y-58379591D01*
X87299000Y-58338110D01*
X87299000Y-57661890D01*
X87303085Y-57620409D01*
X87313393Y-57586431D01*
X87330133Y-57555113D01*
X87352661Y-57527661D01*
X87380113Y-57505133D01*
X87411431Y-57488393D01*
X87445409Y-57478085D01*
X87486890Y-57474000D01*
X88088110Y-57474000D01*
X88129591Y-57478085D01*
X88129591Y-57478085D01*
G37*
G36*
X91629591Y-57478085D02*
X91663569Y-57488393D01*
X91694887Y-57505133D01*
X91722339Y-57527661D01*
X91744867Y-57555113D01*
X91761607Y-57586431D01*
X91771915Y-57620409D01*
X91776000Y-57661890D01*
X91776000Y-58338110D01*
X91771915Y-58379591D01*
X91761607Y-58413569D01*
X91744867Y-58444887D01*
X91722339Y-58472339D01*
X91694887Y-58494867D01*
X91663569Y-58511607D01*
X91629591Y-58521915D01*
X91588110Y-58526000D01*
X90986890Y-58526000D01*
X90945409Y-58521915D01*
X90911431Y-58511607D01*
X90880113Y-58494867D01*
X90852661Y-58472339D01*
X90830133Y-58444887D01*
X90813393Y-58413569D01*
X90803085Y-58379591D01*
X90799000Y-58338110D01*
X90799000Y-57661890D01*
X90803085Y-57620409D01*
X90813393Y-57586431D01*
X90830133Y-57555113D01*
X90852661Y-57527661D01*
X90880113Y-57505133D01*
X90911431Y-57488393D01*
X90945409Y-57478085D01*
X90986890Y-57474000D01*
X91588110Y-57474000D01*
X91629591Y-57478085D01*
X91629591Y-57478085D01*
G37*
G36*
X90054591Y-57478085D02*
X90088569Y-57488393D01*
X90119887Y-57505133D01*
X90147339Y-57527661D01*
X90169867Y-57555113D01*
X90186607Y-57586431D01*
X90196915Y-57620409D01*
X90201000Y-57661890D01*
X90201000Y-58338110D01*
X90196915Y-58379591D01*
X90186607Y-58413569D01*
X90169867Y-58444887D01*
X90147339Y-58472339D01*
X90119887Y-58494867D01*
X90088569Y-58511607D01*
X90054591Y-58521915D01*
X90013110Y-58526000D01*
X89411890Y-58526000D01*
X89370409Y-58521915D01*
X89336431Y-58511607D01*
X89305113Y-58494867D01*
X89277661Y-58472339D01*
X89255133Y-58444887D01*
X89238393Y-58413569D01*
X89228085Y-58379591D01*
X89224000Y-58338110D01*
X89224000Y-57661890D01*
X89228085Y-57620409D01*
X89238393Y-57586431D01*
X89255133Y-57555113D01*
X89277661Y-57527661D01*
X89305113Y-57505133D01*
X89336431Y-57488393D01*
X89370409Y-57478085D01*
X89411890Y-57474000D01*
X90013110Y-57474000D01*
X90054591Y-57478085D01*
X90054591Y-57478085D01*
G37*
G36*
X74001000Y-57951000D02*
X72399000Y-57951000D01*
X72399000Y-55849000D01*
X74001000Y-55849000D01*
X74001000Y-57951000D01*
X74001000Y-57951000D01*
G37*
G36*
X78601000Y-57951000D02*
X76999000Y-57951000D01*
X76999000Y-55849000D01*
X78601000Y-55849000D01*
X78601000Y-57951000D01*
X78601000Y-57951000D01*
G37*
G36*
X76301000Y-57951000D02*
X74699000Y-57951000D01*
X74699000Y-55849000D01*
X76301000Y-55849000D01*
X76301000Y-57951000D01*
X76301000Y-57951000D01*
G37*
G36*
X122710918Y-55427934D02*
X122743424Y-55437795D01*
X122773383Y-55453808D01*
X122799641Y-55475359D01*
X122821192Y-55501617D01*
X122837205Y-55531576D01*
X122847066Y-55564082D01*
X122851000Y-55604029D01*
X122851000Y-57145971D01*
X122847066Y-57185918D01*
X122837205Y-57218424D01*
X122821192Y-57248383D01*
X122799641Y-57274641D01*
X122773383Y-57296192D01*
X122743424Y-57312205D01*
X122710918Y-57322066D01*
X122670971Y-57326000D01*
X116329029Y-57326000D01*
X116289082Y-57322066D01*
X116256576Y-57312205D01*
X116226617Y-57296192D01*
X116200359Y-57274641D01*
X116178808Y-57248383D01*
X116162795Y-57218424D01*
X116152934Y-57185918D01*
X116149000Y-57145971D01*
X116149000Y-55604029D01*
X116152934Y-55564082D01*
X116162795Y-55531576D01*
X116178808Y-55501617D01*
X116200359Y-55475359D01*
X116226617Y-55453808D01*
X116256576Y-55437795D01*
X116289082Y-55427934D01*
X116329029Y-55424000D01*
X122670971Y-55424000D01*
X122710918Y-55427934D01*
X122710918Y-55427934D01*
G37*
G36*
X152710918Y-55427934D02*
X152743424Y-55437795D01*
X152773383Y-55453808D01*
X152799641Y-55475359D01*
X152821192Y-55501617D01*
X152837205Y-55531576D01*
X152847066Y-55564082D01*
X152851000Y-55604029D01*
X152851000Y-57145971D01*
X152847066Y-57185918D01*
X152837205Y-57218424D01*
X152821192Y-57248383D01*
X152799641Y-57274641D01*
X152773383Y-57296192D01*
X152743424Y-57312205D01*
X152710918Y-57322066D01*
X152670971Y-57326000D01*
X146329029Y-57326000D01*
X146289082Y-57322066D01*
X146256576Y-57312205D01*
X146226617Y-57296192D01*
X146200359Y-57274641D01*
X146178808Y-57248383D01*
X146162795Y-57218424D01*
X146152934Y-57185918D01*
X146149000Y-57145971D01*
X146149000Y-55604029D01*
X146152934Y-55564082D01*
X146162795Y-55531576D01*
X146178808Y-55501617D01*
X146200359Y-55475359D01*
X146226617Y-55453808D01*
X146256576Y-55437795D01*
X146289082Y-55427934D01*
X146329029Y-55424000D01*
X152670971Y-55424000D01*
X152710918Y-55427934D01*
X152710918Y-55427934D01*
G37*
G36*
X145210918Y-55427934D02*
X145243424Y-55437795D01*
X145273383Y-55453808D01*
X145299641Y-55475359D01*
X145321192Y-55501617D01*
X145337205Y-55531576D01*
X145347066Y-55564082D01*
X145351000Y-55604029D01*
X145351000Y-57145971D01*
X145347066Y-57185918D01*
X145337205Y-57218424D01*
X145321192Y-57248383D01*
X145299641Y-57274641D01*
X145273383Y-57296192D01*
X145243424Y-57312205D01*
X145210918Y-57322066D01*
X145170971Y-57326000D01*
X138829029Y-57326000D01*
X138789082Y-57322066D01*
X138756576Y-57312205D01*
X138726617Y-57296192D01*
X138700359Y-57274641D01*
X138678808Y-57248383D01*
X138662795Y-57218424D01*
X138652934Y-57185918D01*
X138649000Y-57145971D01*
X138649000Y-55604029D01*
X138652934Y-55564082D01*
X138662795Y-55531576D01*
X138678808Y-55501617D01*
X138700359Y-55475359D01*
X138726617Y-55453808D01*
X138756576Y-55437795D01*
X138789082Y-55427934D01*
X138829029Y-55424000D01*
X145170971Y-55424000D01*
X145210918Y-55427934D01*
X145210918Y-55427934D01*
G37*
G36*
X137710918Y-55427934D02*
X137743424Y-55437795D01*
X137773383Y-55453808D01*
X137799641Y-55475359D01*
X137821192Y-55501617D01*
X137837205Y-55531576D01*
X137847066Y-55564082D01*
X137851000Y-55604029D01*
X137851000Y-57145971D01*
X137847066Y-57185918D01*
X137837205Y-57218424D01*
X137821192Y-57248383D01*
X137799641Y-57274641D01*
X137773383Y-57296192D01*
X137743424Y-57312205D01*
X137710918Y-57322066D01*
X137670971Y-57326000D01*
X131329029Y-57326000D01*
X131289082Y-57322066D01*
X131256576Y-57312205D01*
X131226617Y-57296192D01*
X131200359Y-57274641D01*
X131178808Y-57248383D01*
X131162795Y-57218424D01*
X131152934Y-57185918D01*
X131149000Y-57145971D01*
X131149000Y-55604029D01*
X131152934Y-55564082D01*
X131162795Y-55531576D01*
X131178808Y-55501617D01*
X131200359Y-55475359D01*
X131226617Y-55453808D01*
X131256576Y-55437795D01*
X131289082Y-55427934D01*
X131329029Y-55424000D01*
X137670971Y-55424000D01*
X137710918Y-55427934D01*
X137710918Y-55427934D01*
G37*
G36*
X130210918Y-55427934D02*
X130243424Y-55437795D01*
X130273383Y-55453808D01*
X130299641Y-55475359D01*
X130321192Y-55501617D01*
X130337205Y-55531576D01*
X130347066Y-55564082D01*
X130351000Y-55604029D01*
X130351000Y-57145971D01*
X130347066Y-57185918D01*
X130337205Y-57218424D01*
X130321192Y-57248383D01*
X130299641Y-57274641D01*
X130273383Y-57296192D01*
X130243424Y-57312205D01*
X130210918Y-57322066D01*
X130170971Y-57326000D01*
X123829029Y-57326000D01*
X123789082Y-57322066D01*
X123756576Y-57312205D01*
X123726617Y-57296192D01*
X123700359Y-57274641D01*
X123678808Y-57248383D01*
X123662795Y-57218424D01*
X123652934Y-57185918D01*
X123649000Y-57145971D01*
X123649000Y-55604029D01*
X123652934Y-55564082D01*
X123662795Y-55531576D01*
X123678808Y-55501617D01*
X123700359Y-55475359D01*
X123726617Y-55453808D01*
X123756576Y-55437795D01*
X123789082Y-55427934D01*
X123829029Y-55424000D01*
X130170971Y-55424000D01*
X130210918Y-55427934D01*
X130210918Y-55427934D01*
G37*
G36*
X56201000Y-57101000D02*
X54399000Y-57101000D01*
X54399000Y-55299000D01*
X56201000Y-55299000D01*
X56201000Y-57101000D01*
X56201000Y-57101000D01*
G37*
G36*
X70151000Y-56876000D02*
X69049000Y-56876000D01*
X69049000Y-49024000D01*
X70151000Y-49024000D01*
X70151000Y-56876000D01*
X70151000Y-56876000D01*
G37*
G36*
X58751000Y-56876000D02*
X57649000Y-56876000D01*
X57649000Y-49024000D01*
X58751000Y-49024000D01*
X58751000Y-56876000D01*
X58751000Y-56876000D01*
G37*
G36*
X49401000Y-56576000D02*
X47999000Y-56576000D01*
X47999000Y-53424000D01*
X49401000Y-53424000D01*
X49401000Y-56576000D01*
X49401000Y-56576000D01*
G37*
G36*
X82147527Y-51813736D02*
X82247410Y-51833604D01*
X82529674Y-51950521D01*
X82783705Y-52120259D01*
X82999741Y-52336295D01*
X83169479Y-52590326D01*
X83286396Y-52872590D01*
X83293285Y-52907222D01*
X83346000Y-53172238D01*
X83346000Y-53477762D01*
X83309750Y-53660000D01*
X83286396Y-53777410D01*
X83169479Y-54059674D01*
X82999741Y-54313705D01*
X82783705Y-54529741D01*
X82529674Y-54699479D01*
X82247410Y-54816396D01*
X82147527Y-54836264D01*
X81947762Y-54876000D01*
X81642238Y-54876000D01*
X81442473Y-54836264D01*
X81342590Y-54816396D01*
X81060326Y-54699479D01*
X80806295Y-54529741D01*
X80590259Y-54313705D01*
X80420521Y-54059674D01*
X80303604Y-53777410D01*
X80280250Y-53660000D01*
X80244000Y-53477762D01*
X80244000Y-53172238D01*
X80296715Y-52907222D01*
X80303604Y-52872590D01*
X80420521Y-52590326D01*
X80590259Y-52336295D01*
X80806295Y-52120259D01*
X81060326Y-51950521D01*
X81342590Y-51833604D01*
X81442473Y-51813736D01*
X81642238Y-51774000D01*
X81947762Y-51774000D01*
X82147527Y-51813736D01*
X82147527Y-51813736D01*
G37*
G36*
X93817527Y-51813736D02*
X93917410Y-51833604D01*
X94199674Y-51950521D01*
X94453705Y-52120259D01*
X94669741Y-52336295D01*
X94839479Y-52590326D01*
X94956396Y-52872590D01*
X94963285Y-52907222D01*
X95016000Y-53172238D01*
X95016000Y-53477762D01*
X94979750Y-53660000D01*
X94956396Y-53777410D01*
X94839479Y-54059674D01*
X94669741Y-54313705D01*
X94453705Y-54529741D01*
X94199674Y-54699479D01*
X93917410Y-54816396D01*
X93817527Y-54836264D01*
X93617762Y-54876000D01*
X93312238Y-54876000D01*
X93112473Y-54836264D01*
X93012590Y-54816396D01*
X92730326Y-54699479D01*
X92476295Y-54529741D01*
X92260259Y-54313705D01*
X92090521Y-54059674D01*
X91973604Y-53777410D01*
X91950250Y-53660000D01*
X91914000Y-53477762D01*
X91914000Y-53172238D01*
X91966715Y-52907222D01*
X91973604Y-52872590D01*
X92090521Y-52590326D01*
X92260259Y-52336295D01*
X92476295Y-52120259D01*
X92730326Y-51950521D01*
X93012590Y-51833604D01*
X93112473Y-51813736D01*
X93312238Y-51774000D01*
X93617762Y-51774000D01*
X93817527Y-51813736D01*
X93817527Y-51813736D01*
G37*
G36*
X152710918Y-52677934D02*
X152743424Y-52687795D01*
X152773383Y-52703808D01*
X152799641Y-52725359D01*
X152821192Y-52751617D01*
X152837205Y-52781576D01*
X152847066Y-52814082D01*
X152851000Y-52854029D01*
X152851000Y-54395971D01*
X152847066Y-54435918D01*
X152837205Y-54468424D01*
X152821192Y-54498383D01*
X152799641Y-54524641D01*
X152773383Y-54546192D01*
X152743424Y-54562205D01*
X152710918Y-54572066D01*
X152670971Y-54576000D01*
X146329029Y-54576000D01*
X146289082Y-54572066D01*
X146256576Y-54562205D01*
X146226617Y-54546192D01*
X146200359Y-54524641D01*
X146178808Y-54498383D01*
X146162795Y-54468424D01*
X146152934Y-54435918D01*
X146149000Y-54395971D01*
X146149000Y-52854029D01*
X146152934Y-52814082D01*
X146162795Y-52781576D01*
X146178808Y-52751617D01*
X146200359Y-52725359D01*
X146226617Y-52703808D01*
X146256576Y-52687795D01*
X146289082Y-52677934D01*
X146329029Y-52674000D01*
X152670971Y-52674000D01*
X152710918Y-52677934D01*
X152710918Y-52677934D01*
G37*
G36*
X122710918Y-52677934D02*
X122743424Y-52687795D01*
X122773383Y-52703808D01*
X122799641Y-52725359D01*
X122821192Y-52751617D01*
X122837205Y-52781576D01*
X122847066Y-52814082D01*
X122851000Y-52854029D01*
X122851000Y-54395971D01*
X122847066Y-54435918D01*
X122837205Y-54468424D01*
X122821192Y-54498383D01*
X122799641Y-54524641D01*
X122773383Y-54546192D01*
X122743424Y-54562205D01*
X122710918Y-54572066D01*
X122670971Y-54576000D01*
X116329029Y-54576000D01*
X116289082Y-54572066D01*
X116256576Y-54562205D01*
X116226617Y-54546192D01*
X116200359Y-54524641D01*
X116178808Y-54498383D01*
X116162795Y-54468424D01*
X116152934Y-54435918D01*
X116149000Y-54395971D01*
X116149000Y-52854029D01*
X116152934Y-52814082D01*
X116162795Y-52781576D01*
X116178808Y-52751617D01*
X116200359Y-52725359D01*
X116226617Y-52703808D01*
X116256576Y-52687795D01*
X116289082Y-52677934D01*
X116329029Y-52674000D01*
X122670971Y-52674000D01*
X122710918Y-52677934D01*
X122710918Y-52677934D01*
G37*
G36*
X130210918Y-52677934D02*
X130243424Y-52687795D01*
X130273383Y-52703808D01*
X130299641Y-52725359D01*
X130321192Y-52751617D01*
X130337205Y-52781576D01*
X130347066Y-52814082D01*
X130351000Y-52854029D01*
X130351000Y-54395971D01*
X130347066Y-54435918D01*
X130337205Y-54468424D01*
X130321192Y-54498383D01*
X130299641Y-54524641D01*
X130273383Y-54546192D01*
X130243424Y-54562205D01*
X130210918Y-54572066D01*
X130170971Y-54576000D01*
X123829029Y-54576000D01*
X123789082Y-54572066D01*
X123756576Y-54562205D01*
X123726617Y-54546192D01*
X123700359Y-54524641D01*
X123678808Y-54498383D01*
X123662795Y-54468424D01*
X123652934Y-54435918D01*
X123649000Y-54395971D01*
X123649000Y-52854029D01*
X123652934Y-52814082D01*
X123662795Y-52781576D01*
X123678808Y-52751617D01*
X123700359Y-52725359D01*
X123726617Y-52703808D01*
X123756576Y-52687795D01*
X123789082Y-52677934D01*
X123829029Y-52674000D01*
X130170971Y-52674000D01*
X130210918Y-52677934D01*
X130210918Y-52677934D01*
G37*
G36*
X137710918Y-52677934D02*
X137743424Y-52687795D01*
X137773383Y-52703808D01*
X137799641Y-52725359D01*
X137821192Y-52751617D01*
X137837205Y-52781576D01*
X137847066Y-52814082D01*
X137851000Y-52854029D01*
X137851000Y-54395971D01*
X137847066Y-54435918D01*
X137837205Y-54468424D01*
X137821192Y-54498383D01*
X137799641Y-54524641D01*
X137773383Y-54546192D01*
X137743424Y-54562205D01*
X137710918Y-54572066D01*
X137670971Y-54576000D01*
X131329029Y-54576000D01*
X131289082Y-54572066D01*
X131256576Y-54562205D01*
X131226617Y-54546192D01*
X131200359Y-54524641D01*
X131178808Y-54498383D01*
X131162795Y-54468424D01*
X131152934Y-54435918D01*
X131149000Y-54395971D01*
X131149000Y-52854029D01*
X131152934Y-52814082D01*
X131162795Y-52781576D01*
X131178808Y-52751617D01*
X131200359Y-52725359D01*
X131226617Y-52703808D01*
X131256576Y-52687795D01*
X131289082Y-52677934D01*
X131329029Y-52674000D01*
X137670971Y-52674000D01*
X137710918Y-52677934D01*
X137710918Y-52677934D01*
G37*
G36*
X145210918Y-52677934D02*
X145243424Y-52687795D01*
X145273383Y-52703808D01*
X145299641Y-52725359D01*
X145321192Y-52751617D01*
X145337205Y-52781576D01*
X145347066Y-52814082D01*
X145351000Y-52854029D01*
X145351000Y-54395971D01*
X145347066Y-54435918D01*
X145337205Y-54468424D01*
X145321192Y-54498383D01*
X145299641Y-54524641D01*
X145273383Y-54546192D01*
X145243424Y-54562205D01*
X145210918Y-54572066D01*
X145170971Y-54576000D01*
X138829029Y-54576000D01*
X138789082Y-54572066D01*
X138756576Y-54562205D01*
X138726617Y-54546192D01*
X138700359Y-54524641D01*
X138678808Y-54498383D01*
X138662795Y-54468424D01*
X138652934Y-54435918D01*
X138649000Y-54395971D01*
X138649000Y-52854029D01*
X138652934Y-52814082D01*
X138662795Y-52781576D01*
X138678808Y-52751617D01*
X138700359Y-52725359D01*
X138726617Y-52703808D01*
X138756576Y-52687795D01*
X138789082Y-52677934D01*
X138829029Y-52674000D01*
X145170971Y-52674000D01*
X145210918Y-52677934D01*
X145210918Y-52677934D01*
G37*
G36*
X55410442Y-52765518D02*
X55476627Y-52772037D01*
X55589853Y-52806384D01*
X55646467Y-52823557D01*
X55785087Y-52897652D01*
X55802991Y-52907222D01*
X55816961Y-52918687D01*
X55940186Y-53019814D01*
X56023448Y-53121271D01*
X56052778Y-53157009D01*
X56052779Y-53157011D01*
X56136443Y-53313533D01*
X56136443Y-53313534D01*
X56187963Y-53483373D01*
X56205359Y-53660000D01*
X56187963Y-53836627D01*
X56176019Y-53876000D01*
X56136443Y-54006467D01*
X56127071Y-54024000D01*
X56052778Y-54162991D01*
X56023448Y-54198729D01*
X55940186Y-54300186D01*
X55847805Y-54376000D01*
X55802991Y-54412778D01*
X55802989Y-54412779D01*
X55646467Y-54496443D01*
X55589853Y-54513616D01*
X55476627Y-54547963D01*
X55410442Y-54554482D01*
X55344260Y-54561000D01*
X55255740Y-54561000D01*
X55189558Y-54554482D01*
X55123373Y-54547963D01*
X55010147Y-54513616D01*
X54953533Y-54496443D01*
X54797011Y-54412779D01*
X54797009Y-54412778D01*
X54752195Y-54376000D01*
X54659814Y-54300186D01*
X54576552Y-54198729D01*
X54547222Y-54162991D01*
X54472929Y-54024000D01*
X54463557Y-54006467D01*
X54423981Y-53876000D01*
X54412037Y-53836627D01*
X54394641Y-53660000D01*
X54412037Y-53483373D01*
X54463557Y-53313534D01*
X54463557Y-53313533D01*
X54547221Y-53157011D01*
X54547222Y-53157009D01*
X54576552Y-53121271D01*
X54659814Y-53019814D01*
X54783039Y-52918687D01*
X54797009Y-52907222D01*
X54814913Y-52897652D01*
X54953533Y-52823557D01*
X55010147Y-52806384D01*
X55123373Y-52772037D01*
X55189557Y-52765519D01*
X55255740Y-52759000D01*
X55344260Y-52759000D01*
X55410442Y-52765518D01*
X55410442Y-52765518D01*
G37*
G36*
X168351000Y-54551000D02*
X165749000Y-54551000D01*
X165749000Y-53449000D01*
X168351000Y-53449000D01*
X168351000Y-54551000D01*
X168351000Y-54551000D01*
G37*
G36*
X163051000Y-53751000D02*
X158449000Y-53751000D01*
X158449000Y-51149000D01*
X163051000Y-51149000D01*
X163051000Y-53751000D01*
X163051000Y-53751000D01*
G37*
G36*
X49077119Y-50510228D02*
X49077122Y-50510229D01*
X49223399Y-50554601D01*
X49223401Y-50554602D01*
X49358210Y-50626659D01*
X49476369Y-50723631D01*
X49573341Y-50841790D01*
X49645398Y-50976599D01*
X49689772Y-51122881D01*
X49704754Y-51275000D01*
X49689772Y-51427119D01*
X49689771Y-51427122D01*
X49646494Y-51569790D01*
X49645398Y-51573401D01*
X49573341Y-51708210D01*
X49476369Y-51826369D01*
X49358210Y-51923341D01*
X49358208Y-51923342D01*
X49223399Y-51995399D01*
X49166509Y-52012656D01*
X49077119Y-52039772D01*
X48963118Y-52051000D01*
X48336882Y-52051000D01*
X48222881Y-52039772D01*
X48133491Y-52012656D01*
X48076601Y-51995399D01*
X48076599Y-51995398D01*
X48069208Y-51993156D01*
X48060754Y-51989655D01*
X48036721Y-51984877D01*
X48012216Y-51984879D01*
X47988183Y-51989662D01*
X47965545Y-51999041D01*
X47945172Y-52012656D01*
X47927846Y-52029985D01*
X47914234Y-52050361D01*
X47904858Y-52073001D01*
X47900080Y-52097034D01*
X47900082Y-52121539D01*
X47904865Y-52145572D01*
X47914244Y-52168210D01*
X47927850Y-52188571D01*
X47951496Y-52217385D01*
X47976807Y-52248225D01*
X47986523Y-52266403D01*
X48018686Y-52326575D01*
X48018687Y-52326579D01*
X48044475Y-52411587D01*
X48053182Y-52500000D01*
X48044475Y-52588413D01*
X48021710Y-52663456D01*
X48018686Y-52673425D01*
X47976807Y-52751774D01*
X47920448Y-52820448D01*
X47851774Y-52876807D01*
X47773425Y-52918686D01*
X47763456Y-52921710D01*
X47688413Y-52944475D01*
X47622158Y-52951000D01*
X47577842Y-52951000D01*
X47511587Y-52944475D01*
X47436544Y-52921710D01*
X47426575Y-52918686D01*
X47348226Y-52876807D01*
X47279552Y-52820448D01*
X47223193Y-52751774D01*
X47181314Y-52673425D01*
X47178290Y-52663456D01*
X47155525Y-52588413D01*
X47146818Y-52500000D01*
X47155525Y-52411587D01*
X47181313Y-52326579D01*
X47181314Y-52326575D01*
X47223193Y-52248226D01*
X47279552Y-52179552D01*
X47348226Y-52123193D01*
X47426575Y-52081314D01*
X47439719Y-52077327D01*
X47511587Y-52055525D01*
X47577842Y-52049000D01*
X47622158Y-52049000D01*
X47688411Y-52055525D01*
X47723489Y-52066167D01*
X47744524Y-52072547D01*
X47768551Y-52077327D01*
X47793055Y-52077327D01*
X47817089Y-52072547D01*
X47839728Y-52063170D01*
X47860103Y-52049556D01*
X47877430Y-52032230D01*
X47891044Y-52011855D01*
X47900422Y-51989216D01*
X47905203Y-51965183D01*
X47905203Y-51940679D01*
X47900423Y-51916645D01*
X47891046Y-51894006D01*
X47877432Y-51873631D01*
X47860105Y-51856304D01*
X47823632Y-51826370D01*
X47726659Y-51708210D01*
X47654602Y-51573401D01*
X47653507Y-51569790D01*
X47610229Y-51427122D01*
X47610228Y-51427119D01*
X47595246Y-51275000D01*
X47610228Y-51122881D01*
X47654602Y-50976599D01*
X47726659Y-50841790D01*
X47823631Y-50723631D01*
X47941790Y-50626659D01*
X48076599Y-50554602D01*
X48076601Y-50554601D01*
X48222878Y-50510229D01*
X48222881Y-50510228D01*
X48336882Y-50499000D01*
X48963118Y-50499000D01*
X49077119Y-50510228D01*
X49077119Y-50510228D01*
G37*
G36*
X45297714Y-50508058D02*
X45319683Y-50514722D01*
X45415719Y-50543854D01*
X45415721Y-50543855D01*
X45524471Y-50601983D01*
X45619790Y-50680210D01*
X45698017Y-50775529D01*
X45756145Y-50884279D01*
X45791942Y-51002286D01*
X45804028Y-51125000D01*
X45791942Y-51247714D01*
X45756145Y-51365721D01*
X45698017Y-51474471D01*
X45619790Y-51569790D01*
X45524471Y-51648017D01*
X45524469Y-51648018D01*
X45415719Y-51706146D01*
X45319683Y-51735278D01*
X45297714Y-51741942D01*
X45205747Y-51751000D01*
X44494253Y-51751000D01*
X44402286Y-51741942D01*
X44380317Y-51735278D01*
X44284281Y-51706146D01*
X44175531Y-51648018D01*
X44175529Y-51648017D01*
X44080210Y-51569790D01*
X44001983Y-51474471D01*
X43943855Y-51365721D01*
X43908058Y-51247714D01*
X43895972Y-51125000D01*
X43908058Y-51002286D01*
X43943855Y-50884279D01*
X44001983Y-50775529D01*
X44080210Y-50680210D01*
X44175529Y-50601983D01*
X44284279Y-50543855D01*
X44284281Y-50543854D01*
X44380317Y-50514722D01*
X44402286Y-50508058D01*
X44494253Y-50499000D01*
X45205747Y-50499000D01*
X45297714Y-50508058D01*
X45297714Y-50508058D01*
G37*
G36*
X77451000Y-51651000D02*
X73549000Y-51651000D01*
X73549000Y-49549000D01*
X77451000Y-49549000D01*
X77451000Y-51651000D01*
X77451000Y-51651000D01*
G37*
G36*
X53129591Y-50553085D02*
X53163569Y-50563393D01*
X53194887Y-50580133D01*
X53222339Y-50602661D01*
X53244867Y-50630113D01*
X53261607Y-50661431D01*
X53271915Y-50695409D01*
X53276000Y-50736890D01*
X53276000Y-51338110D01*
X53271915Y-51379591D01*
X53261607Y-51413569D01*
X53244867Y-51444887D01*
X53222339Y-51472339D01*
X53194887Y-51494867D01*
X53163569Y-51511607D01*
X53129591Y-51521915D01*
X53088110Y-51526000D01*
X52411890Y-51526000D01*
X52370409Y-51521915D01*
X52336431Y-51511607D01*
X52305113Y-51494867D01*
X52277661Y-51472339D01*
X52255133Y-51444887D01*
X52238393Y-51413569D01*
X52228085Y-51379591D01*
X52224000Y-51338110D01*
X52224000Y-50736890D01*
X52228085Y-50695409D01*
X52238393Y-50661431D01*
X52255133Y-50630113D01*
X52277661Y-50602661D01*
X52305113Y-50580133D01*
X52336431Y-50563393D01*
X52370409Y-50553085D01*
X52411890Y-50549000D01*
X53088110Y-50549000D01*
X53129591Y-50553085D01*
X53129591Y-50553085D01*
G37*
G36*
X51379591Y-50553085D02*
X51413569Y-50563393D01*
X51444887Y-50580133D01*
X51472339Y-50602661D01*
X51494867Y-50630113D01*
X51511607Y-50661431D01*
X51521915Y-50695409D01*
X51526000Y-50736890D01*
X51526000Y-51338110D01*
X51521915Y-51379591D01*
X51511607Y-51413569D01*
X51494867Y-51444887D01*
X51472339Y-51472339D01*
X51444887Y-51494867D01*
X51413569Y-51511607D01*
X51379591Y-51521915D01*
X51338110Y-51526000D01*
X50661890Y-51526000D01*
X50620409Y-51521915D01*
X50586431Y-51511607D01*
X50555113Y-51494867D01*
X50527661Y-51472339D01*
X50505133Y-51444887D01*
X50488393Y-51413569D01*
X50478085Y-51379591D01*
X50474000Y-51338110D01*
X50474000Y-50736890D01*
X50478085Y-50695409D01*
X50488393Y-50661431D01*
X50505133Y-50630113D01*
X50527661Y-50602661D01*
X50555113Y-50580133D01*
X50586431Y-50563393D01*
X50620409Y-50553085D01*
X50661890Y-50549000D01*
X51338110Y-50549000D01*
X51379591Y-50553085D01*
X51379591Y-50553085D01*
G37*
G36*
X102451000Y-51301000D02*
X100549000Y-51301000D01*
X100549000Y-47699000D01*
X102451000Y-47699000D01*
X102451000Y-51301000D01*
X102451000Y-51301000D01*
G37*
G36*
X114451000Y-51301000D02*
X112549000Y-51301000D01*
X112549000Y-47699000D01*
X114451000Y-47699000D01*
X114451000Y-51301000D01*
X114451000Y-51301000D01*
G37*
G36*
X110451000Y-51301000D02*
X108549000Y-51301000D01*
X108549000Y-47699000D01*
X110451000Y-47699000D01*
X110451000Y-51301000D01*
X110451000Y-51301000D01*
G37*
G36*
X106451000Y-51301000D02*
X104549000Y-51301000D01*
X104549000Y-47699000D01*
X106451000Y-47699000D01*
X106451000Y-51301000D01*
X106451000Y-51301000D01*
G37*
G36*
X98451000Y-51301000D02*
X96549000Y-51301000D01*
X96549000Y-47699000D01*
X98451000Y-47699000D01*
X98451000Y-51301000D01*
X98451000Y-51301000D01*
G37*
G36*
X175551000Y-50491000D02*
X169050557Y-50491000D01*
X169026171Y-50493402D01*
X169002722Y-50500515D01*
X168981111Y-50512066D01*
X168962169Y-50527612D01*
X168946623Y-50546554D01*
X168935072Y-50568164D01*
X168913377Y-50620539D01*
X168899671Y-50653629D01*
X168850314Y-50727496D01*
X168850311Y-50727500D01*
X168787500Y-50790311D01*
X168787497Y-50790313D01*
X168787496Y-50790314D01*
X168713629Y-50839671D01*
X168713626Y-50839672D01*
X168713625Y-50839673D01*
X168631552Y-50873669D01*
X168544421Y-50891000D01*
X168455579Y-50891000D01*
X168368448Y-50873669D01*
X168286375Y-50839673D01*
X168286374Y-50839672D01*
X168286371Y-50839671D01*
X168212504Y-50790314D01*
X168212503Y-50790313D01*
X168212500Y-50790311D01*
X168149689Y-50727500D01*
X168149686Y-50727496D01*
X168100329Y-50653629D01*
X168090588Y-50630113D01*
X168066331Y-50571552D01*
X168049000Y-50484421D01*
X168049000Y-50395579D01*
X168066331Y-50308448D01*
X168100327Y-50226375D01*
X168100328Y-50226374D01*
X168100329Y-50226371D01*
X168149686Y-50152504D01*
X168149687Y-50152503D01*
X168149689Y-50152500D01*
X168212500Y-50089689D01*
X168212504Y-50089686D01*
X168286371Y-50040329D01*
X168286374Y-50040328D01*
X168286375Y-50040327D01*
X168368448Y-50006331D01*
X168455579Y-49989000D01*
X168544421Y-49989000D01*
X168631552Y-50006331D01*
X168713625Y-50040327D01*
X168713626Y-50040328D01*
X168713629Y-50040329D01*
X168787496Y-50089686D01*
X168787500Y-50089689D01*
X168835612Y-50137801D01*
X168854554Y-50153347D01*
X168876165Y-50164898D01*
X168899614Y-50172011D01*
X168924000Y-50174413D01*
X168948386Y-50172011D01*
X168971835Y-50164898D01*
X168993446Y-50153347D01*
X169012388Y-50137801D01*
X169027934Y-50118859D01*
X169039485Y-50097248D01*
X169046598Y-50073799D01*
X169049000Y-50049413D01*
X169049000Y-48949000D01*
X175551000Y-48949000D01*
X175551000Y-50491000D01*
X175551000Y-50491000D01*
G37*
G36*
X87982527Y-47783736D02*
X88082410Y-47803604D01*
X88364674Y-47920521D01*
X88618705Y-48090259D01*
X88834741Y-48306295D01*
X89004479Y-48560326D01*
X89121396Y-48842590D01*
X89121396Y-48842591D01*
X89175258Y-49113370D01*
X89181000Y-49142240D01*
X89181000Y-49447760D01*
X89121396Y-49747410D01*
X89004479Y-50029674D01*
X88834741Y-50283705D01*
X88618705Y-50499741D01*
X88364674Y-50669479D01*
X88082410Y-50786396D01*
X87982527Y-50806264D01*
X87782762Y-50846000D01*
X87477238Y-50846000D01*
X87277473Y-50806264D01*
X87177590Y-50786396D01*
X86895326Y-50669479D01*
X86641295Y-50499741D01*
X86425259Y-50283705D01*
X86255521Y-50029674D01*
X86138604Y-49747410D01*
X86079000Y-49447760D01*
X86079000Y-49142240D01*
X86084743Y-49113370D01*
X86138604Y-48842591D01*
X86138604Y-48842590D01*
X86255521Y-48560326D01*
X86425259Y-48306295D01*
X86641295Y-48090259D01*
X86895326Y-47920521D01*
X87177590Y-47803604D01*
X87277473Y-47783736D01*
X87477238Y-47744000D01*
X87782762Y-47744000D01*
X87982527Y-47783736D01*
X87982527Y-47783736D01*
G37*
G36*
X51379591Y-48978085D02*
X51413569Y-48988393D01*
X51444887Y-49005133D01*
X51472339Y-49027661D01*
X51494867Y-49055113D01*
X51511607Y-49086431D01*
X51521915Y-49120409D01*
X51526000Y-49161890D01*
X51526000Y-49763110D01*
X51521915Y-49804591D01*
X51511607Y-49838569D01*
X51494867Y-49869887D01*
X51472339Y-49897339D01*
X51444887Y-49919867D01*
X51413569Y-49936607D01*
X51379591Y-49946915D01*
X51338110Y-49951000D01*
X50661890Y-49951000D01*
X50620409Y-49946915D01*
X50586431Y-49936607D01*
X50555113Y-49919867D01*
X50527661Y-49897339D01*
X50505133Y-49869887D01*
X50488393Y-49838569D01*
X50478085Y-49804591D01*
X50474000Y-49763110D01*
X50474000Y-49161890D01*
X50478085Y-49120409D01*
X50488393Y-49086431D01*
X50505133Y-49055113D01*
X50527661Y-49027661D01*
X50555113Y-49005133D01*
X50586431Y-48988393D01*
X50620409Y-48978085D01*
X50661890Y-48974000D01*
X51338110Y-48974000D01*
X51379591Y-48978085D01*
X51379591Y-48978085D01*
G37*
G36*
X53129591Y-48978085D02*
X53163569Y-48988393D01*
X53194887Y-49005133D01*
X53222339Y-49027661D01*
X53244867Y-49055113D01*
X53261607Y-49086431D01*
X53271915Y-49120409D01*
X53276000Y-49161890D01*
X53276000Y-49763110D01*
X53271915Y-49804591D01*
X53261607Y-49838569D01*
X53244867Y-49869887D01*
X53222339Y-49897339D01*
X53194887Y-49919867D01*
X53163569Y-49936607D01*
X53129591Y-49946915D01*
X53088110Y-49951000D01*
X52411890Y-49951000D01*
X52370409Y-49946915D01*
X52336431Y-49936607D01*
X52305113Y-49919867D01*
X52277661Y-49897339D01*
X52255133Y-49869887D01*
X52238393Y-49838569D01*
X52228085Y-49804591D01*
X52224000Y-49763110D01*
X52224000Y-49161890D01*
X52228085Y-49120409D01*
X52238393Y-49086431D01*
X52255133Y-49055113D01*
X52277661Y-49027661D01*
X52305113Y-49005133D01*
X52336431Y-48988393D01*
X52370409Y-48978085D01*
X52411890Y-48974000D01*
X53088110Y-48974000D01*
X53129591Y-48978085D01*
X53129591Y-48978085D01*
G37*
G36*
X122710918Y-47427934D02*
X122743424Y-47437795D01*
X122773383Y-47453808D01*
X122799641Y-47475359D01*
X122821192Y-47501617D01*
X122837205Y-47531576D01*
X122847066Y-47564082D01*
X122851000Y-47604029D01*
X122851000Y-49145971D01*
X122847066Y-49185918D01*
X122837205Y-49218424D01*
X122821192Y-49248383D01*
X122799641Y-49274641D01*
X122773383Y-49296192D01*
X122743424Y-49312205D01*
X122710918Y-49322066D01*
X122670971Y-49326000D01*
X116329029Y-49326000D01*
X116289082Y-49322066D01*
X116256576Y-49312205D01*
X116226617Y-49296192D01*
X116200359Y-49274641D01*
X116178808Y-49248383D01*
X116162795Y-49218424D01*
X116152934Y-49185918D01*
X116149000Y-49145971D01*
X116149000Y-47604029D01*
X116152934Y-47564082D01*
X116162795Y-47531576D01*
X116178808Y-47501617D01*
X116200359Y-47475359D01*
X116226617Y-47453808D01*
X116256576Y-47437795D01*
X116289082Y-47427934D01*
X116329029Y-47424000D01*
X122670971Y-47424000D01*
X122710918Y-47427934D01*
X122710918Y-47427934D01*
G37*
G36*
X130210918Y-47427934D02*
X130243424Y-47437795D01*
X130273383Y-47453808D01*
X130299641Y-47475359D01*
X130321192Y-47501617D01*
X130337205Y-47531576D01*
X130347066Y-47564082D01*
X130351000Y-47604029D01*
X130351000Y-49145971D01*
X130347066Y-49185918D01*
X130337205Y-49218424D01*
X130321192Y-49248383D01*
X130299641Y-49274641D01*
X130273383Y-49296192D01*
X130243424Y-49312205D01*
X130210918Y-49322066D01*
X130170971Y-49326000D01*
X123829029Y-49326000D01*
X123789082Y-49322066D01*
X123756576Y-49312205D01*
X123726617Y-49296192D01*
X123700359Y-49274641D01*
X123678808Y-49248383D01*
X123662795Y-49218424D01*
X123652934Y-49185918D01*
X123649000Y-49145971D01*
X123649000Y-47604029D01*
X123652934Y-47564082D01*
X123662795Y-47531576D01*
X123678808Y-47501617D01*
X123700359Y-47475359D01*
X123726617Y-47453808D01*
X123756576Y-47437795D01*
X123789082Y-47427934D01*
X123829029Y-47424000D01*
X130170971Y-47424000D01*
X130210918Y-47427934D01*
X130210918Y-47427934D01*
G37*
G36*
X145210918Y-47427934D02*
X145243424Y-47437795D01*
X145273383Y-47453808D01*
X145299641Y-47475359D01*
X145321192Y-47501617D01*
X145337205Y-47531576D01*
X145347066Y-47564082D01*
X145351000Y-47604029D01*
X145351000Y-49145971D01*
X145347066Y-49185918D01*
X145337205Y-49218424D01*
X145321192Y-49248383D01*
X145299641Y-49274641D01*
X145273383Y-49296192D01*
X145243424Y-49312205D01*
X145210918Y-49322066D01*
X145170971Y-49326000D01*
X138829029Y-49326000D01*
X138789082Y-49322066D01*
X138756576Y-49312205D01*
X138726617Y-49296192D01*
X138700359Y-49274641D01*
X138678808Y-49248383D01*
X138662795Y-49218424D01*
X138652934Y-49185918D01*
X138649000Y-49145971D01*
X138649000Y-47604029D01*
X138652934Y-47564082D01*
X138662795Y-47531576D01*
X138678808Y-47501617D01*
X138700359Y-47475359D01*
X138726617Y-47453808D01*
X138756576Y-47437795D01*
X138789082Y-47427934D01*
X138829029Y-47424000D01*
X145170971Y-47424000D01*
X145210918Y-47427934D01*
X145210918Y-47427934D01*
G37*
G36*
X137710918Y-47427934D02*
X137743424Y-47437795D01*
X137773383Y-47453808D01*
X137799641Y-47475359D01*
X137821192Y-47501617D01*
X137837205Y-47531576D01*
X137847066Y-47564082D01*
X137851000Y-47604029D01*
X137851000Y-49145971D01*
X137847066Y-49185918D01*
X137837205Y-49218424D01*
X137821192Y-49248383D01*
X137799641Y-49274641D01*
X137773383Y-49296192D01*
X137743424Y-49312205D01*
X137710918Y-49322066D01*
X137670971Y-49326000D01*
X131329029Y-49326000D01*
X131289082Y-49322066D01*
X131256576Y-49312205D01*
X131226617Y-49296192D01*
X131200359Y-49274641D01*
X131178808Y-49248383D01*
X131162795Y-49218424D01*
X131152934Y-49185918D01*
X131149000Y-49145971D01*
X131149000Y-47604029D01*
X131152934Y-47564082D01*
X131162795Y-47531576D01*
X131178808Y-47501617D01*
X131200359Y-47475359D01*
X131226617Y-47453808D01*
X131256576Y-47437795D01*
X131289082Y-47427934D01*
X131329029Y-47424000D01*
X137670971Y-47424000D01*
X137710918Y-47427934D01*
X137710918Y-47427934D01*
G37*
G36*
X152710918Y-47427934D02*
X152743424Y-47437795D01*
X152773383Y-47453808D01*
X152799641Y-47475359D01*
X152821192Y-47501617D01*
X152837205Y-47531576D01*
X152847066Y-47564082D01*
X152851000Y-47604029D01*
X152851000Y-49145971D01*
X152847066Y-49185918D01*
X152837205Y-49218424D01*
X152821192Y-49248383D01*
X152799641Y-49274641D01*
X152773383Y-49296192D01*
X152743424Y-49312205D01*
X152710918Y-49322066D01*
X152670971Y-49326000D01*
X146329029Y-49326000D01*
X146289082Y-49322066D01*
X146256576Y-49312205D01*
X146226617Y-49296192D01*
X146200359Y-49274641D01*
X146178808Y-49248383D01*
X146162795Y-49218424D01*
X146152934Y-49185918D01*
X146149000Y-49145971D01*
X146149000Y-47604029D01*
X146152934Y-47564082D01*
X146162795Y-47531576D01*
X146178808Y-47501617D01*
X146200359Y-47475359D01*
X146226617Y-47453808D01*
X146256576Y-47437795D01*
X146289082Y-47427934D01*
X146329029Y-47424000D01*
X152670971Y-47424000D01*
X152710918Y-47427934D01*
X152710918Y-47427934D01*
G37*
G36*
X79229591Y-47478085D02*
X79263569Y-47488393D01*
X79294887Y-47505133D01*
X79322339Y-47527661D01*
X79344867Y-47555113D01*
X79361607Y-47586431D01*
X79371915Y-47620409D01*
X79376000Y-47661890D01*
X79376000Y-48338110D01*
X79371915Y-48379591D01*
X79361607Y-48413569D01*
X79344867Y-48444887D01*
X79322339Y-48472339D01*
X79294887Y-48494867D01*
X79263569Y-48511607D01*
X79229591Y-48521915D01*
X79188110Y-48526000D01*
X78586890Y-48526000D01*
X78545409Y-48521915D01*
X78511431Y-48511607D01*
X78480113Y-48494867D01*
X78452661Y-48472339D01*
X78430133Y-48444887D01*
X78413393Y-48413569D01*
X78403085Y-48379591D01*
X78399000Y-48338110D01*
X78399000Y-47661890D01*
X78403085Y-47620409D01*
X78413393Y-47586431D01*
X78430133Y-47555113D01*
X78452661Y-47527661D01*
X78480113Y-47505133D01*
X78511431Y-47488393D01*
X78545409Y-47478085D01*
X78586890Y-47474000D01*
X79188110Y-47474000D01*
X79229591Y-47478085D01*
X79229591Y-47478085D01*
G37*
G36*
X77654591Y-47478085D02*
X77688569Y-47488393D01*
X77719887Y-47505133D01*
X77747339Y-47527661D01*
X77769867Y-47555113D01*
X77786607Y-47586431D01*
X77796915Y-47620409D01*
X77801000Y-47661890D01*
X77801000Y-48338110D01*
X77796915Y-48379591D01*
X77786607Y-48413569D01*
X77769867Y-48444887D01*
X77747339Y-48472339D01*
X77719887Y-48494867D01*
X77688569Y-48511607D01*
X77654591Y-48521915D01*
X77613110Y-48526000D01*
X77011890Y-48526000D01*
X76970409Y-48521915D01*
X76936431Y-48511607D01*
X76905113Y-48494867D01*
X76877661Y-48472339D01*
X76855133Y-48444887D01*
X76838393Y-48413569D01*
X76828085Y-48379591D01*
X76824000Y-48338110D01*
X76824000Y-47661890D01*
X76828085Y-47620409D01*
X76838393Y-47586431D01*
X76855133Y-47555113D01*
X76877661Y-47527661D01*
X76905113Y-47505133D01*
X76936431Y-47488393D01*
X76970409Y-47478085D01*
X77011890Y-47474000D01*
X77613110Y-47474000D01*
X77654591Y-47478085D01*
X77654591Y-47478085D01*
G37*
G36*
X161861689Y-45703706D02*
X162005040Y-45717825D01*
X162250280Y-45792218D01*
X162250282Y-45792219D01*
X162476296Y-45913026D01*
X162674397Y-46075603D01*
X162836974Y-46273704D01*
X162914997Y-46419674D01*
X162957782Y-46499720D01*
X163032175Y-46744960D01*
X163057294Y-47000000D01*
X163032175Y-47255040D01*
X162960114Y-47492592D01*
X162957781Y-47500282D01*
X162836974Y-47726296D01*
X162674397Y-47924397D01*
X162476296Y-48086974D01*
X162250282Y-48207781D01*
X162250280Y-48207782D01*
X162005040Y-48282175D01*
X161861689Y-48296294D01*
X161813906Y-48301000D01*
X159686094Y-48301000D01*
X159638311Y-48296294D01*
X159494960Y-48282175D01*
X159249720Y-48207782D01*
X159249718Y-48207781D01*
X159023704Y-48086974D01*
X158825603Y-47924397D01*
X158663026Y-47726296D01*
X158542219Y-47500282D01*
X158539886Y-47492592D01*
X158467825Y-47255040D01*
X158442706Y-47000000D01*
X158467825Y-46744960D01*
X158542218Y-46499720D01*
X158585003Y-46419674D01*
X158663026Y-46273704D01*
X158825603Y-46075603D01*
X159023704Y-45913026D01*
X159249718Y-45792219D01*
X159249720Y-45792218D01*
X159494960Y-45717825D01*
X159638311Y-45703706D01*
X159686094Y-45699000D01*
X161813906Y-45699000D01*
X161861689Y-45703706D01*
X161861689Y-45703706D01*
G37*
G36*
X67826000Y-47801000D02*
X59974000Y-47801000D01*
X59974000Y-46699000D01*
X67826000Y-46699000D01*
X67826000Y-47801000D01*
X67826000Y-47801000D01*
G37*
G36*
X87982527Y-44173736D02*
X88082410Y-44193604D01*
X88364674Y-44310521D01*
X88618705Y-44480259D01*
X88834741Y-44696295D01*
X89004479Y-44950326D01*
X89121396Y-45232590D01*
X89181000Y-45532240D01*
X89181000Y-45837760D01*
X89121396Y-46137410D01*
X89004479Y-46419674D01*
X88834741Y-46673705D01*
X88618705Y-46889741D01*
X88364674Y-47059479D01*
X88082410Y-47176396D01*
X87982527Y-47196264D01*
X87782762Y-47236000D01*
X87477238Y-47236000D01*
X87277473Y-47196264D01*
X87177590Y-47176396D01*
X86895326Y-47059479D01*
X86641295Y-46889741D01*
X86425259Y-46673705D01*
X86255521Y-46419674D01*
X86138604Y-46137410D01*
X86079000Y-45837760D01*
X86079000Y-45532240D01*
X86138604Y-45232590D01*
X86255521Y-44950326D01*
X86425259Y-44696295D01*
X86641295Y-44480259D01*
X86895326Y-44310521D01*
X87177590Y-44193604D01*
X87277473Y-44173736D01*
X87477238Y-44134000D01*
X87782762Y-44134000D01*
X87982527Y-44173736D01*
X87982527Y-44173736D01*
G37*
G36*
X74965000Y-46996607D02*
X74213000Y-46996607D01*
X74213000Y-45834607D01*
X74965000Y-45834607D01*
X74965000Y-46996607D01*
X74965000Y-46996607D01*
G37*
G36*
X73065000Y-46996607D02*
X72313000Y-46996607D01*
X72313000Y-45834607D01*
X73065000Y-45834607D01*
X73065000Y-46996607D01*
X73065000Y-46996607D01*
G37*
G36*
X79226308Y-45594105D02*
X79264317Y-45605635D01*
X79299348Y-45624360D01*
X79330050Y-45649557D01*
X79355247Y-45680259D01*
X79373972Y-45715290D01*
X79385502Y-45753299D01*
X79390000Y-45798969D01*
X79390000Y-46607245D01*
X79385502Y-46652915D01*
X79373972Y-46690924D01*
X79355247Y-46725955D01*
X79330050Y-46756657D01*
X79299348Y-46781854D01*
X79264317Y-46800579D01*
X79226308Y-46812109D01*
X79180638Y-46816607D01*
X76097362Y-46816607D01*
X76051692Y-46812109D01*
X76013683Y-46800579D01*
X75978652Y-46781854D01*
X75947950Y-46756657D01*
X75922753Y-46725955D01*
X75904028Y-46690924D01*
X75892498Y-46652915D01*
X75888000Y-46607245D01*
X75888000Y-45798969D01*
X75892498Y-45753299D01*
X75904028Y-45715290D01*
X75922753Y-45680259D01*
X75947950Y-45649557D01*
X75978652Y-45624360D01*
X76013683Y-45605635D01*
X76051692Y-45594105D01*
X76097362Y-45589607D01*
X79180638Y-45589607D01*
X79226308Y-45594105D01*
X79226308Y-45594105D01*
G37*
G36*
X137710918Y-44677934D02*
X137743424Y-44687795D01*
X137773383Y-44703808D01*
X137799641Y-44725359D01*
X137821192Y-44751617D01*
X137837205Y-44781576D01*
X137847066Y-44814082D01*
X137851000Y-44854029D01*
X137851000Y-46395971D01*
X137847066Y-46435918D01*
X137837205Y-46468424D01*
X137821192Y-46498383D01*
X137799641Y-46524641D01*
X137773383Y-46546192D01*
X137743424Y-46562205D01*
X137710918Y-46572066D01*
X137670971Y-46576000D01*
X131329029Y-46576000D01*
X131289082Y-46572066D01*
X131256576Y-46562205D01*
X131226617Y-46546192D01*
X131200359Y-46524641D01*
X131178808Y-46498383D01*
X131162795Y-46468424D01*
X131152934Y-46435918D01*
X131149000Y-46395971D01*
X131149000Y-44854029D01*
X131152934Y-44814082D01*
X131162795Y-44781576D01*
X131178808Y-44751617D01*
X131200359Y-44725359D01*
X131226617Y-44703808D01*
X131256576Y-44687795D01*
X131289082Y-44677934D01*
X131329029Y-44674000D01*
X137670971Y-44674000D01*
X137710918Y-44677934D01*
X137710918Y-44677934D01*
G37*
G36*
X145210918Y-44677934D02*
X145243424Y-44687795D01*
X145273383Y-44703808D01*
X145299641Y-44725359D01*
X145321192Y-44751617D01*
X145337205Y-44781576D01*
X145347066Y-44814082D01*
X145351000Y-44854029D01*
X145351000Y-46395971D01*
X145347066Y-46435918D01*
X145337205Y-46468424D01*
X145321192Y-46498383D01*
X145299641Y-46524641D01*
X145273383Y-46546192D01*
X145243424Y-46562205D01*
X145210918Y-46572066D01*
X145170971Y-46576000D01*
X138829029Y-46576000D01*
X138789082Y-46572066D01*
X138756576Y-46562205D01*
X138726617Y-46546192D01*
X138700359Y-46524641D01*
X138678808Y-46498383D01*
X138662795Y-46468424D01*
X138652934Y-46435918D01*
X138649000Y-46395971D01*
X138649000Y-44854029D01*
X138652934Y-44814082D01*
X138662795Y-44781576D01*
X138678808Y-44751617D01*
X138700359Y-44725359D01*
X138726617Y-44703808D01*
X138756576Y-44687795D01*
X138789082Y-44677934D01*
X138829029Y-44674000D01*
X145170971Y-44674000D01*
X145210918Y-44677934D01*
X145210918Y-44677934D01*
G37*
G36*
X152710918Y-44677934D02*
X152743424Y-44687795D01*
X152773383Y-44703808D01*
X152799641Y-44725359D01*
X152821192Y-44751617D01*
X152837205Y-44781576D01*
X152847066Y-44814082D01*
X152851000Y-44854029D01*
X152851000Y-46395971D01*
X152847066Y-46435918D01*
X152837205Y-46468424D01*
X152821192Y-46498383D01*
X152799641Y-46524641D01*
X152773383Y-46546192D01*
X152743424Y-46562205D01*
X152710918Y-46572066D01*
X152670971Y-46576000D01*
X146329029Y-46576000D01*
X146289082Y-46572066D01*
X146256576Y-46562205D01*
X146226617Y-46546192D01*
X146200359Y-46524641D01*
X146178808Y-46498383D01*
X146162795Y-46468424D01*
X146152934Y-46435918D01*
X146149000Y-46395971D01*
X146149000Y-44854029D01*
X146152934Y-44814082D01*
X146162795Y-44781576D01*
X146178808Y-44751617D01*
X146200359Y-44725359D01*
X146226617Y-44703808D01*
X146256576Y-44687795D01*
X146289082Y-44677934D01*
X146329029Y-44674000D01*
X152670971Y-44674000D01*
X152710918Y-44677934D01*
X152710918Y-44677934D01*
G37*
G36*
X122710918Y-44677934D02*
X122743424Y-44687795D01*
X122773383Y-44703808D01*
X122799641Y-44725359D01*
X122821192Y-44751617D01*
X122837205Y-44781576D01*
X122847066Y-44814082D01*
X122851000Y-44854029D01*
X122851000Y-46395971D01*
X122847066Y-46435918D01*
X122837205Y-46468424D01*
X122821192Y-46498383D01*
X122799641Y-46524641D01*
X122773383Y-46546192D01*
X122743424Y-46562205D01*
X122710918Y-46572066D01*
X122670971Y-46576000D01*
X116329029Y-46576000D01*
X116289082Y-46572066D01*
X116256576Y-46562205D01*
X116226617Y-46546192D01*
X116200359Y-46524641D01*
X116178808Y-46498383D01*
X116162795Y-46468424D01*
X116152934Y-46435918D01*
X116149000Y-46395971D01*
X116149000Y-44854029D01*
X116152934Y-44814082D01*
X116162795Y-44781576D01*
X116178808Y-44751617D01*
X116200359Y-44725359D01*
X116226617Y-44703808D01*
X116256576Y-44687795D01*
X116289082Y-44677934D01*
X116329029Y-44674000D01*
X122670971Y-44674000D01*
X122710918Y-44677934D01*
X122710918Y-44677934D01*
G37*
G36*
X130210918Y-44677934D02*
X130243424Y-44687795D01*
X130273383Y-44703808D01*
X130299641Y-44725359D01*
X130321192Y-44751617D01*
X130337205Y-44781576D01*
X130347066Y-44814082D01*
X130351000Y-44854029D01*
X130351000Y-46395971D01*
X130347066Y-46435918D01*
X130337205Y-46468424D01*
X130321192Y-46498383D01*
X130299641Y-46524641D01*
X130273383Y-46546192D01*
X130243424Y-46562205D01*
X130210918Y-46572066D01*
X130170971Y-46576000D01*
X123829029Y-46576000D01*
X123789082Y-46572066D01*
X123756576Y-46562205D01*
X123726617Y-46546192D01*
X123700359Y-46524641D01*
X123678808Y-46498383D01*
X123662795Y-46468424D01*
X123652934Y-46435918D01*
X123649000Y-46395971D01*
X123649000Y-44854029D01*
X123652934Y-44814082D01*
X123662795Y-44781576D01*
X123678808Y-44751617D01*
X123700359Y-44725359D01*
X123726617Y-44703808D01*
X123756576Y-44687795D01*
X123789082Y-44677934D01*
X123829029Y-44674000D01*
X130170971Y-44674000D01*
X130210918Y-44677934D01*
X130210918Y-44677934D01*
G37*
G36*
X114451000Y-46301000D02*
X112549000Y-46301000D01*
X112549000Y-42699000D01*
X114451000Y-42699000D01*
X114451000Y-46301000D01*
X114451000Y-46301000D01*
G37*
G36*
X102451000Y-46301000D02*
X100549000Y-46301000D01*
X100549000Y-42699000D01*
X102451000Y-42699000D01*
X102451000Y-46301000D01*
X102451000Y-46301000D01*
G37*
G36*
X98451000Y-46301000D02*
X96549000Y-46301000D01*
X96549000Y-42699000D01*
X98451000Y-42699000D01*
X98451000Y-46301000D01*
X98451000Y-46301000D01*
G37*
G36*
X106451000Y-46301000D02*
X104549000Y-46301000D01*
X104549000Y-42699000D01*
X106451000Y-42699000D01*
X106451000Y-46301000D01*
X106451000Y-46301000D01*
G37*
G36*
X110451000Y-46301000D02*
X108549000Y-46301000D01*
X108549000Y-42699000D01*
X110451000Y-42699000D01*
X110451000Y-46301000D01*
X110451000Y-46301000D01*
G37*
G36*
X168631552Y-43126331D02*
X168713625Y-43160327D01*
X168713626Y-43160328D01*
X168713629Y-43160329D01*
X168787496Y-43209686D01*
X168787500Y-43209689D01*
X168850311Y-43272500D01*
X168850313Y-43272503D01*
X168850314Y-43272504D01*
X168899671Y-43346371D01*
X168909175Y-43369315D01*
X168935072Y-43431836D01*
X168946624Y-43453447D01*
X168962169Y-43472389D01*
X168981111Y-43487934D01*
X169002722Y-43499485D01*
X169026171Y-43506598D01*
X169050557Y-43509000D01*
X175551000Y-43509000D01*
X175551000Y-45051000D01*
X169049000Y-45051000D01*
X169049000Y-43950587D01*
X169046598Y-43926201D01*
X169039485Y-43902752D01*
X169027934Y-43881141D01*
X169012388Y-43862199D01*
X168993446Y-43846653D01*
X168971835Y-43835102D01*
X168948386Y-43827989D01*
X168924000Y-43825587D01*
X168899614Y-43827989D01*
X168876165Y-43835102D01*
X168854554Y-43846653D01*
X168835612Y-43862199D01*
X168787500Y-43910311D01*
X168787497Y-43910313D01*
X168787496Y-43910314D01*
X168713629Y-43959671D01*
X168713626Y-43959672D01*
X168713625Y-43959673D01*
X168631552Y-43993669D01*
X168544421Y-44011000D01*
X168455579Y-44011000D01*
X168368448Y-43993669D01*
X168286375Y-43959673D01*
X168286374Y-43959672D01*
X168286371Y-43959671D01*
X168212504Y-43910314D01*
X168212503Y-43910313D01*
X168212500Y-43910311D01*
X168149689Y-43847500D01*
X168149123Y-43846653D01*
X168100329Y-43773629D01*
X168100327Y-43773625D01*
X168066331Y-43691552D01*
X168049000Y-43604421D01*
X168049000Y-43515579D01*
X168066331Y-43428448D01*
X168100327Y-43346375D01*
X168100328Y-43346374D01*
X168100329Y-43346371D01*
X168149686Y-43272504D01*
X168149687Y-43272503D01*
X168149689Y-43272500D01*
X168212500Y-43209689D01*
X168212504Y-43209686D01*
X168286371Y-43160329D01*
X168286374Y-43160328D01*
X168286375Y-43160327D01*
X168368448Y-43126331D01*
X168455579Y-43109000D01*
X168544421Y-43109000D01*
X168631552Y-43126331D01*
X168631552Y-43126331D01*
G37*
G36*
X68401000Y-44876000D02*
X59399000Y-44876000D01*
X59399000Y-43024000D01*
X68401000Y-43024000D01*
X68401000Y-44876000D01*
X68401000Y-44876000D01*
G37*
G36*
X74965000Y-44796607D02*
X72313000Y-44796607D01*
X72313000Y-43634607D01*
X74965000Y-43634607D01*
X74965000Y-44796607D01*
X74965000Y-44796607D01*
G37*
G36*
X50181552Y-42126331D02*
X50263625Y-42160327D01*
X50263626Y-42160328D01*
X50263629Y-42160329D01*
X50337496Y-42209686D01*
X50337500Y-42209689D01*
X50400311Y-42272500D01*
X50400313Y-42272503D01*
X50400314Y-42272504D01*
X50449671Y-42346371D01*
X50449672Y-42346374D01*
X50449673Y-42346375D01*
X50483669Y-42428448D01*
X50501000Y-42515579D01*
X50501000Y-42604421D01*
X50483669Y-42691552D01*
X50456235Y-42757782D01*
X50449671Y-42773629D01*
X50404249Y-42841607D01*
X50400311Y-42847500D01*
X50337500Y-42910311D01*
X50337497Y-42910313D01*
X50337496Y-42910314D01*
X50263629Y-42959671D01*
X50263626Y-42959672D01*
X50263625Y-42959673D01*
X50181552Y-42993669D01*
X50094421Y-43011000D01*
X50005579Y-43011000D01*
X49918448Y-42993669D01*
X49836375Y-42959673D01*
X49836374Y-42959672D01*
X49836371Y-42959671D01*
X49762504Y-42910314D01*
X49762503Y-42910313D01*
X49762500Y-42910311D01*
X49714388Y-42862199D01*
X49695446Y-42846653D01*
X49673835Y-42835102D01*
X49650386Y-42827989D01*
X49626000Y-42825587D01*
X49601614Y-42827989D01*
X49578165Y-42835102D01*
X49556554Y-42846653D01*
X49537612Y-42862199D01*
X49522066Y-42881141D01*
X49510515Y-42902752D01*
X49503402Y-42926201D01*
X49501000Y-42950587D01*
X49501000Y-44051000D01*
X42999000Y-44051000D01*
X42999000Y-42509000D01*
X49499443Y-42509000D01*
X49523829Y-42506598D01*
X49547278Y-42499485D01*
X49568889Y-42487934D01*
X49587831Y-42472388D01*
X49603377Y-42453446D01*
X49614928Y-42431836D01*
X49640825Y-42369315D01*
X49650329Y-42346371D01*
X49699686Y-42272504D01*
X49699687Y-42272503D01*
X49699689Y-42272500D01*
X49762500Y-42209689D01*
X49762504Y-42209686D01*
X49836371Y-42160329D01*
X49836374Y-42160328D01*
X49836375Y-42160327D01*
X49918448Y-42126331D01*
X50005579Y-42109000D01*
X50094421Y-42109000D01*
X50181552Y-42126331D01*
X50181552Y-42126331D01*
G37*
G36*
X93817527Y-40143736D02*
X93917410Y-40163604D01*
X94199674Y-40280521D01*
X94453705Y-40450259D01*
X94669741Y-40666295D01*
X94839479Y-40920326D01*
X94956396Y-41202590D01*
X94974770Y-41294963D01*
X95016000Y-41502238D01*
X95016000Y-41807762D01*
X94998019Y-41898159D01*
X94956396Y-42107410D01*
X94839479Y-42389674D01*
X94669741Y-42643705D01*
X94453705Y-42859741D01*
X94199674Y-43029479D01*
X93917410Y-43146396D01*
X93847374Y-43160327D01*
X93617762Y-43206000D01*
X93312238Y-43206000D01*
X93082626Y-43160327D01*
X93012590Y-43146396D01*
X92730326Y-43029479D01*
X92476295Y-42859741D01*
X92260259Y-42643705D01*
X92090521Y-42389674D01*
X91973604Y-42107410D01*
X91931981Y-41898159D01*
X91914000Y-41807762D01*
X91914000Y-41502238D01*
X91955230Y-41294963D01*
X91973604Y-41202590D01*
X92090521Y-40920326D01*
X92260259Y-40666295D01*
X92476295Y-40450259D01*
X92730326Y-40280521D01*
X93012590Y-40163604D01*
X93112473Y-40143736D01*
X93312238Y-40104000D01*
X93617762Y-40104000D01*
X93817527Y-40143736D01*
X93817527Y-40143736D01*
G37*
G36*
X82147527Y-40143736D02*
X82247410Y-40163604D01*
X82529674Y-40280521D01*
X82783705Y-40450259D01*
X82999741Y-40666295D01*
X83169479Y-40920326D01*
X83286396Y-41202590D01*
X83304770Y-41294963D01*
X83346000Y-41502238D01*
X83346000Y-41807762D01*
X83328019Y-41898159D01*
X83286396Y-42107410D01*
X83169479Y-42389674D01*
X82999741Y-42643705D01*
X82783705Y-42859741D01*
X82529674Y-43029479D01*
X82247410Y-43146396D01*
X82177374Y-43160327D01*
X81947762Y-43206000D01*
X81642238Y-43206000D01*
X81412626Y-43160327D01*
X81342590Y-43146396D01*
X81060326Y-43029479D01*
X80806295Y-42859741D01*
X80590259Y-42643705D01*
X80420521Y-42389674D01*
X80303604Y-42107410D01*
X80261981Y-41898159D01*
X80244000Y-41807762D01*
X80244000Y-41502238D01*
X80285230Y-41294963D01*
X80303604Y-41202590D01*
X80420521Y-40920326D01*
X80590259Y-40666295D01*
X80806295Y-40450259D01*
X81060326Y-40280521D01*
X81342590Y-40163604D01*
X81442473Y-40143736D01*
X81642238Y-40104000D01*
X81947762Y-40104000D01*
X82147527Y-40143736D01*
X82147527Y-40143736D01*
G37*
G36*
X161861689Y-40253706D02*
X162005040Y-40267825D01*
X162250280Y-40342218D01*
X162250282Y-40342219D01*
X162476296Y-40463026D01*
X162674397Y-40625603D01*
X162836974Y-40823704D01*
X162922149Y-40983055D01*
X162957782Y-41049720D01*
X163032175Y-41294960D01*
X163057294Y-41550000D01*
X163032175Y-41805040D01*
X162957782Y-42050280D01*
X162957781Y-42050282D01*
X162836974Y-42276296D01*
X162674397Y-42474397D01*
X162476296Y-42636974D01*
X162303798Y-42729176D01*
X162250280Y-42757782D01*
X162005040Y-42832175D01*
X161861689Y-42846294D01*
X161813906Y-42851000D01*
X159686094Y-42851000D01*
X159638311Y-42846294D01*
X159494960Y-42832175D01*
X159249720Y-42757782D01*
X159196202Y-42729176D01*
X159023704Y-42636974D01*
X158825603Y-42474397D01*
X158663026Y-42276296D01*
X158542219Y-42050282D01*
X158542218Y-42050280D01*
X158467825Y-41805040D01*
X158442706Y-41550000D01*
X158467825Y-41294960D01*
X158542218Y-41049720D01*
X158577851Y-40983055D01*
X158663026Y-40823704D01*
X158825603Y-40625603D01*
X159023704Y-40463026D01*
X159249718Y-40342219D01*
X159249720Y-40342218D01*
X159494960Y-40267825D01*
X159638311Y-40253706D01*
X159686094Y-40249000D01*
X161813906Y-40249000D01*
X161861689Y-40253706D01*
X161861689Y-40253706D01*
G37*
G36*
X75018591Y-41793692D02*
X75052569Y-41804000D01*
X75083887Y-41820740D01*
X75111339Y-41843268D01*
X75133867Y-41870720D01*
X75150607Y-41902038D01*
X75160915Y-41936016D01*
X75165000Y-41977497D01*
X75165000Y-42653717D01*
X75160915Y-42695198D01*
X75150607Y-42729176D01*
X75133867Y-42760494D01*
X75111339Y-42787946D01*
X75083887Y-42810474D01*
X75052569Y-42827214D01*
X75018591Y-42837522D01*
X74977110Y-42841607D01*
X74375890Y-42841607D01*
X74334409Y-42837522D01*
X74300431Y-42827214D01*
X74269113Y-42810474D01*
X74241661Y-42787946D01*
X74219133Y-42760494D01*
X74202393Y-42729176D01*
X74192085Y-42695198D01*
X74188000Y-42653717D01*
X74188000Y-41977497D01*
X74192085Y-41936016D01*
X74202393Y-41902038D01*
X74219133Y-41870720D01*
X74241661Y-41843268D01*
X74269113Y-41820740D01*
X74300431Y-41804000D01*
X74334409Y-41793692D01*
X74375890Y-41789607D01*
X74977110Y-41789607D01*
X75018591Y-41793692D01*
X75018591Y-41793692D01*
G37*
G36*
X73443591Y-41793692D02*
X73477569Y-41804000D01*
X73508887Y-41820740D01*
X73536339Y-41843268D01*
X73558867Y-41870720D01*
X73575607Y-41902038D01*
X73585915Y-41936016D01*
X73590000Y-41977497D01*
X73590000Y-42653717D01*
X73585915Y-42695198D01*
X73575607Y-42729176D01*
X73558867Y-42760494D01*
X73536339Y-42787946D01*
X73508887Y-42810474D01*
X73477569Y-42827214D01*
X73443591Y-42837522D01*
X73402110Y-42841607D01*
X72800890Y-42841607D01*
X72759409Y-42837522D01*
X72725431Y-42827214D01*
X72694113Y-42810474D01*
X72666661Y-42787946D01*
X72644133Y-42760494D01*
X72627393Y-42729176D01*
X72617085Y-42695198D01*
X72613000Y-42653717D01*
X72613000Y-41977497D01*
X72617085Y-41936016D01*
X72627393Y-41902038D01*
X72644133Y-41870720D01*
X72666661Y-41843268D01*
X72694113Y-41820740D01*
X72725431Y-41804000D01*
X72759409Y-41793692D01*
X72800890Y-41789607D01*
X73402110Y-41789607D01*
X73443591Y-41793692D01*
X73443591Y-41793692D01*
G37*
G36*
X79226308Y-41319105D02*
X79264317Y-41330635D01*
X79299348Y-41349360D01*
X79330050Y-41374557D01*
X79355247Y-41405259D01*
X79373972Y-41440290D01*
X79385502Y-41478299D01*
X79390000Y-41523969D01*
X79390000Y-42332245D01*
X79385502Y-42377915D01*
X79373972Y-42415924D01*
X79355247Y-42450955D01*
X79330050Y-42481657D01*
X79299348Y-42506854D01*
X79264317Y-42525579D01*
X79226308Y-42537109D01*
X79180638Y-42541607D01*
X76097362Y-42541607D01*
X76051692Y-42537109D01*
X76013683Y-42525579D01*
X75978652Y-42506854D01*
X75947950Y-42481657D01*
X75922753Y-42450955D01*
X75904028Y-42415924D01*
X75892498Y-42377915D01*
X75888000Y-42332245D01*
X75888000Y-41523969D01*
X75892498Y-41478299D01*
X75904028Y-41440290D01*
X75922753Y-41405259D01*
X75947950Y-41374557D01*
X75978652Y-41349360D01*
X76013683Y-41330635D01*
X76051692Y-41319105D01*
X76097362Y-41314607D01*
X79180638Y-41314607D01*
X79226308Y-41319105D01*
X79226308Y-41319105D01*
G37*
G36*
X110935918Y-35152934D02*
X110968424Y-35162795D01*
X110998383Y-35178808D01*
X111024641Y-35200359D01*
X111046192Y-35226617D01*
X111062205Y-35256576D01*
X111072066Y-35289082D01*
X111076000Y-35329029D01*
X111076000Y-41670971D01*
X111072066Y-41710918D01*
X111062205Y-41743424D01*
X111046192Y-41773383D01*
X111024641Y-41799641D01*
X110998383Y-41821192D01*
X110968424Y-41837205D01*
X110935918Y-41847066D01*
X110895971Y-41851000D01*
X109354029Y-41851000D01*
X109314082Y-41847066D01*
X109281576Y-41837205D01*
X109251617Y-41821192D01*
X109225359Y-41799641D01*
X109203808Y-41773383D01*
X109187795Y-41743424D01*
X109177934Y-41710918D01*
X109174000Y-41670971D01*
X109174000Y-35329029D01*
X109177934Y-35289082D01*
X109187795Y-35256576D01*
X109203808Y-35226617D01*
X109225359Y-35200359D01*
X109251617Y-35178808D01*
X109281576Y-35162795D01*
X109314082Y-35152934D01*
X109354029Y-35149000D01*
X110895971Y-35149000D01*
X110935918Y-35152934D01*
X110935918Y-35152934D01*
G37*
G36*
X97685918Y-35152934D02*
X97718424Y-35162795D01*
X97748383Y-35178808D01*
X97774641Y-35200359D01*
X97796192Y-35226617D01*
X97812205Y-35256576D01*
X97822066Y-35289082D01*
X97826000Y-35329029D01*
X97826000Y-41670971D01*
X97822066Y-41710918D01*
X97812205Y-41743424D01*
X97796192Y-41773383D01*
X97774641Y-41799641D01*
X97748383Y-41821192D01*
X97718424Y-41837205D01*
X97685918Y-41847066D01*
X97645971Y-41851000D01*
X96104029Y-41851000D01*
X96064082Y-41847066D01*
X96031576Y-41837205D01*
X96001617Y-41821192D01*
X95975359Y-41799641D01*
X95953808Y-41773383D01*
X95937795Y-41743424D01*
X95927934Y-41710918D01*
X95924000Y-41670971D01*
X95924000Y-35329029D01*
X95927934Y-35289082D01*
X95937795Y-35256576D01*
X95953808Y-35226617D01*
X95975359Y-35200359D01*
X96001617Y-35178808D01*
X96031576Y-35162795D01*
X96064082Y-35152934D01*
X96104029Y-35149000D01*
X97645971Y-35149000D01*
X97685918Y-35152934D01*
X97685918Y-35152934D01*
G37*
G36*
X102935918Y-35152934D02*
X102968424Y-35162795D01*
X102998383Y-35178808D01*
X103024641Y-35200359D01*
X103046192Y-35226617D01*
X103062205Y-35256576D01*
X103072066Y-35289082D01*
X103076000Y-35329029D01*
X103076000Y-41670971D01*
X103072066Y-41710918D01*
X103062205Y-41743424D01*
X103046192Y-41773383D01*
X103024641Y-41799641D01*
X102998383Y-41821192D01*
X102968424Y-41837205D01*
X102935918Y-41847066D01*
X102895971Y-41851000D01*
X101354029Y-41851000D01*
X101314082Y-41847066D01*
X101281576Y-41837205D01*
X101251617Y-41821192D01*
X101225359Y-41799641D01*
X101203808Y-41773383D01*
X101187795Y-41743424D01*
X101177934Y-41710918D01*
X101174000Y-41670971D01*
X101174000Y-35329029D01*
X101177934Y-35289082D01*
X101187795Y-35256576D01*
X101203808Y-35226617D01*
X101225359Y-35200359D01*
X101251617Y-35178808D01*
X101281576Y-35162795D01*
X101314082Y-35152934D01*
X101354029Y-35149000D01*
X102895971Y-35149000D01*
X102935918Y-35152934D01*
X102935918Y-35152934D01*
G37*
G36*
X105685918Y-35152934D02*
X105718424Y-35162795D01*
X105748383Y-35178808D01*
X105774641Y-35200359D01*
X105796192Y-35226617D01*
X105812205Y-35256576D01*
X105822066Y-35289082D01*
X105826000Y-35329029D01*
X105826000Y-41670971D01*
X105822066Y-41710918D01*
X105812205Y-41743424D01*
X105796192Y-41773383D01*
X105774641Y-41799641D01*
X105748383Y-41821192D01*
X105718424Y-41837205D01*
X105685918Y-41847066D01*
X105645971Y-41851000D01*
X104104029Y-41851000D01*
X104064082Y-41847066D01*
X104031576Y-41837205D01*
X104001617Y-41821192D01*
X103975359Y-41799641D01*
X103953808Y-41773383D01*
X103937795Y-41743424D01*
X103927934Y-41710918D01*
X103924000Y-41670971D01*
X103924000Y-35329029D01*
X103927934Y-35289082D01*
X103937795Y-35256576D01*
X103953808Y-35226617D01*
X103975359Y-35200359D01*
X104001617Y-35178808D01*
X104031576Y-35162795D01*
X104064082Y-35152934D01*
X104104029Y-35149000D01*
X105645971Y-35149000D01*
X105685918Y-35152934D01*
X105685918Y-35152934D01*
G37*
G36*
X130210918Y-39427934D02*
X130243424Y-39437795D01*
X130273383Y-39453808D01*
X130299641Y-39475359D01*
X130321192Y-39501617D01*
X130337205Y-39531576D01*
X130347066Y-39564082D01*
X130351000Y-39604029D01*
X130351000Y-41145971D01*
X130347066Y-41185918D01*
X130337205Y-41218424D01*
X130321192Y-41248383D01*
X130299641Y-41274641D01*
X130273383Y-41296192D01*
X130243424Y-41312205D01*
X130210918Y-41322066D01*
X130170971Y-41326000D01*
X123829029Y-41326000D01*
X123789082Y-41322066D01*
X123756576Y-41312205D01*
X123726617Y-41296192D01*
X123700359Y-41274641D01*
X123678808Y-41248383D01*
X123662795Y-41218424D01*
X123652934Y-41185918D01*
X123649000Y-41145971D01*
X123649000Y-39604029D01*
X123652934Y-39564082D01*
X123662795Y-39531576D01*
X123678808Y-39501617D01*
X123700359Y-39475359D01*
X123726617Y-39453808D01*
X123756576Y-39437795D01*
X123789082Y-39427934D01*
X123829029Y-39424000D01*
X130170971Y-39424000D01*
X130210918Y-39427934D01*
X130210918Y-39427934D01*
G37*
G36*
X152710918Y-39427934D02*
X152743424Y-39437795D01*
X152773383Y-39453808D01*
X152799641Y-39475359D01*
X152821192Y-39501617D01*
X152837205Y-39531576D01*
X152847066Y-39564082D01*
X152851000Y-39604029D01*
X152851000Y-41145971D01*
X152847066Y-41185918D01*
X152837205Y-41218424D01*
X152821192Y-41248383D01*
X152799641Y-41274641D01*
X152773383Y-41296192D01*
X152743424Y-41312205D01*
X152710918Y-41322066D01*
X152670971Y-41326000D01*
X146329029Y-41326000D01*
X146289082Y-41322066D01*
X146256576Y-41312205D01*
X146226617Y-41296192D01*
X146200359Y-41274641D01*
X146178808Y-41248383D01*
X146162795Y-41218424D01*
X146152934Y-41185918D01*
X146149000Y-41145971D01*
X146149000Y-39604029D01*
X146152934Y-39564082D01*
X146162795Y-39531576D01*
X146178808Y-39501617D01*
X146200359Y-39475359D01*
X146226617Y-39453808D01*
X146256576Y-39437795D01*
X146289082Y-39427934D01*
X146329029Y-39424000D01*
X152670971Y-39424000D01*
X152710918Y-39427934D01*
X152710918Y-39427934D01*
G37*
G36*
X145210918Y-39427934D02*
X145243424Y-39437795D01*
X145273383Y-39453808D01*
X145299641Y-39475359D01*
X145321192Y-39501617D01*
X145337205Y-39531576D01*
X145347066Y-39564082D01*
X145351000Y-39604029D01*
X145351000Y-41145971D01*
X145347066Y-41185918D01*
X145337205Y-41218424D01*
X145321192Y-41248383D01*
X145299641Y-41274641D01*
X145273383Y-41296192D01*
X145243424Y-41312205D01*
X145210918Y-41322066D01*
X145170971Y-41326000D01*
X138829029Y-41326000D01*
X138789082Y-41322066D01*
X138756576Y-41312205D01*
X138726617Y-41296192D01*
X138700359Y-41274641D01*
X138678808Y-41248383D01*
X138662795Y-41218424D01*
X138652934Y-41185918D01*
X138649000Y-41145971D01*
X138649000Y-39604029D01*
X138652934Y-39564082D01*
X138662795Y-39531576D01*
X138678808Y-39501617D01*
X138700359Y-39475359D01*
X138726617Y-39453808D01*
X138756576Y-39437795D01*
X138789082Y-39427934D01*
X138829029Y-39424000D01*
X145170971Y-39424000D01*
X145210918Y-39427934D01*
X145210918Y-39427934D01*
G37*
G36*
X137710918Y-39427934D02*
X137743424Y-39437795D01*
X137773383Y-39453808D01*
X137799641Y-39475359D01*
X137821192Y-39501617D01*
X137837205Y-39531576D01*
X137847066Y-39564082D01*
X137851000Y-39604029D01*
X137851000Y-41145971D01*
X137847066Y-41185918D01*
X137837205Y-41218424D01*
X137821192Y-41248383D01*
X137799641Y-41274641D01*
X137773383Y-41296192D01*
X137743424Y-41312205D01*
X137710918Y-41322066D01*
X137670971Y-41326000D01*
X131329029Y-41326000D01*
X131289082Y-41322066D01*
X131256576Y-41312205D01*
X131226617Y-41296192D01*
X131200359Y-41274641D01*
X131178808Y-41248383D01*
X131162795Y-41218424D01*
X131152934Y-41185918D01*
X131149000Y-41145971D01*
X131149000Y-39604029D01*
X131152934Y-39564082D01*
X131162795Y-39531576D01*
X131178808Y-39501617D01*
X131200359Y-39475359D01*
X131226617Y-39453808D01*
X131256576Y-39437795D01*
X131289082Y-39427934D01*
X131329029Y-39424000D01*
X137670971Y-39424000D01*
X137710918Y-39427934D01*
X137710918Y-39427934D01*
G37*
G36*
X122710918Y-39427934D02*
X122743424Y-39437795D01*
X122773383Y-39453808D01*
X122799641Y-39475359D01*
X122821192Y-39501617D01*
X122837205Y-39531576D01*
X122847066Y-39564082D01*
X122851000Y-39604029D01*
X122851000Y-41145971D01*
X122847066Y-41185918D01*
X122837205Y-41218424D01*
X122821192Y-41248383D01*
X122799641Y-41274641D01*
X122773383Y-41296192D01*
X122743424Y-41312205D01*
X122710918Y-41322066D01*
X122670971Y-41326000D01*
X116329029Y-41326000D01*
X116289082Y-41322066D01*
X116256576Y-41312205D01*
X116226617Y-41296192D01*
X116200359Y-41274641D01*
X116178808Y-41248383D01*
X116162795Y-41218424D01*
X116152934Y-41185918D01*
X116149000Y-41145971D01*
X116149000Y-39604029D01*
X116152934Y-39564082D01*
X116162795Y-39531576D01*
X116178808Y-39501617D01*
X116200359Y-39475359D01*
X116226617Y-39453808D01*
X116256576Y-39437795D01*
X116289082Y-39427934D01*
X116329029Y-39424000D01*
X122670971Y-39424000D01*
X122710918Y-39427934D01*
X122710918Y-39427934D01*
G37*
G36*
X75018591Y-40043692D02*
X75052569Y-40054000D01*
X75083887Y-40070740D01*
X75111339Y-40093268D01*
X75133867Y-40120720D01*
X75150607Y-40152038D01*
X75160915Y-40186016D01*
X75165000Y-40227497D01*
X75165000Y-40903717D01*
X75160915Y-40945198D01*
X75150607Y-40979176D01*
X75133867Y-41010494D01*
X75111339Y-41037946D01*
X75083887Y-41060474D01*
X75052569Y-41077214D01*
X75018591Y-41087522D01*
X74977110Y-41091607D01*
X74375890Y-41091607D01*
X74334409Y-41087522D01*
X74300431Y-41077214D01*
X74269113Y-41060474D01*
X74241661Y-41037946D01*
X74219133Y-41010494D01*
X74202393Y-40979176D01*
X74192085Y-40945198D01*
X74188000Y-40903717D01*
X74188000Y-40227497D01*
X74192085Y-40186016D01*
X74202393Y-40152038D01*
X74219133Y-40120720D01*
X74241661Y-40093268D01*
X74269113Y-40070740D01*
X74300431Y-40054000D01*
X74334409Y-40043692D01*
X74375890Y-40039607D01*
X74977110Y-40039607D01*
X75018591Y-40043692D01*
X75018591Y-40043692D01*
G37*
G36*
X73443591Y-40043692D02*
X73477569Y-40054000D01*
X73508887Y-40070740D01*
X73536339Y-40093268D01*
X73558867Y-40120720D01*
X73575607Y-40152038D01*
X73585915Y-40186016D01*
X73590000Y-40227497D01*
X73590000Y-40903717D01*
X73585915Y-40945198D01*
X73575607Y-40979176D01*
X73558867Y-41010494D01*
X73536339Y-41037946D01*
X73508887Y-41060474D01*
X73477569Y-41077214D01*
X73443591Y-41087522D01*
X73402110Y-41091607D01*
X72800890Y-41091607D01*
X72759409Y-41087522D01*
X72725431Y-41077214D01*
X72694113Y-41060474D01*
X72666661Y-41037946D01*
X72644133Y-41010494D01*
X72627393Y-40979176D01*
X72617085Y-40945198D01*
X72613000Y-40903717D01*
X72613000Y-40227497D01*
X72617085Y-40186016D01*
X72627393Y-40152038D01*
X72644133Y-40120720D01*
X72666661Y-40093268D01*
X72694113Y-40070740D01*
X72725431Y-40054000D01*
X72759409Y-40043692D01*
X72800890Y-40039607D01*
X73402110Y-40039607D01*
X73443591Y-40043692D01*
X73443591Y-40043692D01*
G37*
G36*
X78325000Y-40650107D02*
X76953000Y-40650107D01*
X76953000Y-39786107D01*
X78325000Y-39786107D01*
X78325000Y-40650107D01*
X78325000Y-40650107D01*
G37*
G36*
X168351000Y-40551000D02*
X165749000Y-40551000D01*
X165749000Y-39449000D01*
X168351000Y-39449000D01*
X168351000Y-40551000D01*
X168351000Y-40551000D01*
G37*
G36*
X54676000Y-39901000D02*
X53924000Y-39901000D01*
X53924000Y-38099000D01*
X54676000Y-38099000D01*
X54676000Y-39901000D01*
X54676000Y-39901000D01*
G37*
G36*
X56576000Y-39901000D02*
X55824000Y-39901000D01*
X55824000Y-39399000D01*
X56576000Y-39399000D01*
X56576000Y-39901000D01*
X56576000Y-39901000D01*
G37*
G36*
X52801000Y-39551000D02*
X50199000Y-39551000D01*
X50199000Y-38449000D01*
X52801000Y-38449000D01*
X52801000Y-39551000D01*
X52801000Y-39551000D01*
G37*
G36*
X84431000Y-39326000D02*
X83269000Y-39326000D01*
X83269000Y-36674000D01*
X84431000Y-36674000D01*
X84431000Y-39326000D01*
X84431000Y-39326000D01*
G37*
G36*
X82231000Y-39326000D02*
X81069000Y-39326000D01*
X81069000Y-36674000D01*
X82231000Y-36674000D01*
X82231000Y-39326000D01*
X82231000Y-39326000D01*
G37*
G36*
X73573466Y-37819172D02*
X73612137Y-37830903D01*
X73647779Y-37849955D01*
X73679017Y-37875590D01*
X73704652Y-37906828D01*
X73723704Y-37942470D01*
X73735435Y-37981141D01*
X73740000Y-38027495D01*
X73740000Y-39103719D01*
X73735435Y-39150073D01*
X73723704Y-39188744D01*
X73704652Y-39224386D01*
X73679017Y-39255624D01*
X73647779Y-39281259D01*
X73612137Y-39300311D01*
X73573466Y-39312042D01*
X73527112Y-39316607D01*
X72875888Y-39316607D01*
X72829534Y-39312042D01*
X72790863Y-39300311D01*
X72755221Y-39281259D01*
X72723983Y-39255624D01*
X72698348Y-39224386D01*
X72679296Y-39188744D01*
X72667565Y-39150073D01*
X72663000Y-39103719D01*
X72663000Y-38027495D01*
X72667565Y-37981141D01*
X72679296Y-37942470D01*
X72698348Y-37906828D01*
X72723983Y-37875590D01*
X72755221Y-37849955D01*
X72790863Y-37830903D01*
X72829534Y-37819172D01*
X72875888Y-37814607D01*
X73527112Y-37814607D01*
X73573466Y-37819172D01*
X73573466Y-37819172D01*
G37*
G36*
X75448466Y-37819172D02*
X75487137Y-37830903D01*
X75522779Y-37849955D01*
X75554017Y-37875590D01*
X75579652Y-37906828D01*
X75598704Y-37942470D01*
X75610435Y-37981141D01*
X75615000Y-38027495D01*
X75615000Y-39103719D01*
X75610435Y-39150073D01*
X75598704Y-39188744D01*
X75579652Y-39224386D01*
X75554017Y-39255624D01*
X75522779Y-39281259D01*
X75487137Y-39300311D01*
X75448466Y-39312042D01*
X75402112Y-39316607D01*
X74750888Y-39316607D01*
X74704534Y-39312042D01*
X74665863Y-39300311D01*
X74630221Y-39281259D01*
X74598983Y-39255624D01*
X74573348Y-39224386D01*
X74554296Y-39188744D01*
X74542565Y-39150073D01*
X74538000Y-39103719D01*
X74538000Y-38027495D01*
X74542565Y-37981141D01*
X74554296Y-37942470D01*
X74573348Y-37906828D01*
X74598983Y-37875590D01*
X74630221Y-37849955D01*
X74665863Y-37830903D01*
X74704534Y-37819172D01*
X74750888Y-37814607D01*
X75402112Y-37814607D01*
X75448466Y-37819172D01*
X75448466Y-37819172D01*
G37*
G36*
X78960000Y-39253107D02*
X76318000Y-39253107D01*
X76318000Y-36481107D01*
X78960000Y-36481107D01*
X78960000Y-39253107D01*
X78960000Y-39253107D01*
G37*
G36*
X88530443Y-36855519D02*
X88596627Y-36862037D01*
X88677699Y-36886630D01*
X88766467Y-36913557D01*
X88876439Y-36972339D01*
X88922991Y-36997222D01*
X88940519Y-37011607D01*
X89060186Y-37109814D01*
X89143448Y-37211271D01*
X89172778Y-37247009D01*
X89172779Y-37247011D01*
X89256443Y-37403533D01*
X89256443Y-37403534D01*
X89307963Y-37573373D01*
X89325359Y-37750000D01*
X89307963Y-37926627D01*
X89303157Y-37942470D01*
X89256443Y-38096467D01*
X89255089Y-38099000D01*
X89172778Y-38252991D01*
X89143448Y-38288729D01*
X89060186Y-38390186D01*
X88964851Y-38468424D01*
X88922991Y-38502778D01*
X88922989Y-38502779D01*
X88766467Y-38586443D01*
X88718478Y-38601000D01*
X88596627Y-38637963D01*
X88530442Y-38644482D01*
X88464260Y-38651000D01*
X88375740Y-38651000D01*
X88309558Y-38644482D01*
X88243373Y-38637963D01*
X88121522Y-38601000D01*
X88073533Y-38586443D01*
X87917011Y-38502779D01*
X87917009Y-38502778D01*
X87875149Y-38468424D01*
X87779814Y-38390186D01*
X87696552Y-38288729D01*
X87667222Y-38252991D01*
X87584911Y-38099000D01*
X87583557Y-38096467D01*
X87536843Y-37942470D01*
X87532037Y-37926627D01*
X87514641Y-37750000D01*
X87532037Y-37573373D01*
X87583557Y-37403534D01*
X87583557Y-37403533D01*
X87667221Y-37247011D01*
X87667222Y-37247009D01*
X87696552Y-37211271D01*
X87779814Y-37109814D01*
X87899481Y-37011607D01*
X87917009Y-36997222D01*
X87963561Y-36972339D01*
X88073533Y-36913557D01*
X88162301Y-36886630D01*
X88243373Y-36862037D01*
X88309557Y-36855519D01*
X88375740Y-36849000D01*
X88464260Y-36849000D01*
X88530443Y-36855519D01*
X88530443Y-36855519D01*
G37*
G36*
X94401000Y-38651000D02*
X92599000Y-38651000D01*
X92599000Y-36849000D01*
X94401000Y-36849000D01*
X94401000Y-38651000D01*
X94401000Y-38651000D01*
G37*
G36*
X91070443Y-36855519D02*
X91136627Y-36862037D01*
X91217699Y-36886630D01*
X91306467Y-36913557D01*
X91416439Y-36972339D01*
X91462991Y-36997222D01*
X91480519Y-37011607D01*
X91600186Y-37109814D01*
X91683448Y-37211271D01*
X91712778Y-37247009D01*
X91712779Y-37247011D01*
X91796443Y-37403533D01*
X91796443Y-37403534D01*
X91847963Y-37573373D01*
X91865359Y-37750000D01*
X91847963Y-37926627D01*
X91843157Y-37942470D01*
X91796443Y-38096467D01*
X91795089Y-38099000D01*
X91712778Y-38252991D01*
X91683448Y-38288729D01*
X91600186Y-38390186D01*
X91504851Y-38468424D01*
X91462991Y-38502778D01*
X91462989Y-38502779D01*
X91306467Y-38586443D01*
X91258478Y-38601000D01*
X91136627Y-38637963D01*
X91070442Y-38644482D01*
X91004260Y-38651000D01*
X90915740Y-38651000D01*
X90849558Y-38644482D01*
X90783373Y-38637963D01*
X90661522Y-38601000D01*
X90613533Y-38586443D01*
X90457011Y-38502779D01*
X90457009Y-38502778D01*
X90415149Y-38468424D01*
X90319814Y-38390186D01*
X90236552Y-38288729D01*
X90207222Y-38252991D01*
X90124911Y-38099000D01*
X90123557Y-38096467D01*
X90076843Y-37942470D01*
X90072037Y-37926627D01*
X90054641Y-37750000D01*
X90072037Y-37573373D01*
X90123557Y-37403534D01*
X90123557Y-37403533D01*
X90207221Y-37247011D01*
X90207222Y-37247009D01*
X90236552Y-37211271D01*
X90319814Y-37109814D01*
X90439481Y-37011607D01*
X90457009Y-36997222D01*
X90503561Y-36972339D01*
X90613533Y-36913557D01*
X90702301Y-36886630D01*
X90783373Y-36862037D01*
X90849557Y-36855519D01*
X90915740Y-36849000D01*
X91004260Y-36849000D01*
X91070443Y-36855519D01*
X91070443Y-36855519D01*
G37*
G36*
X56576000Y-38601000D02*
X55824000Y-38601000D01*
X55824000Y-38099000D01*
X56576000Y-38099000D01*
X56576000Y-38601000D01*
X56576000Y-38601000D01*
G37*
G36*
X122710918Y-36677934D02*
X122743424Y-36687795D01*
X122773383Y-36703808D01*
X122799641Y-36725359D01*
X122821192Y-36751617D01*
X122837205Y-36781576D01*
X122847066Y-36814082D01*
X122851000Y-36854029D01*
X122851000Y-38395971D01*
X122847066Y-38435918D01*
X122837205Y-38468424D01*
X122821192Y-38498383D01*
X122799641Y-38524641D01*
X122773383Y-38546192D01*
X122743424Y-38562205D01*
X122710918Y-38572066D01*
X122670971Y-38576000D01*
X116329029Y-38576000D01*
X116289082Y-38572066D01*
X116256576Y-38562205D01*
X116226617Y-38546192D01*
X116200359Y-38524641D01*
X116178808Y-38498383D01*
X116162795Y-38468424D01*
X116152934Y-38435918D01*
X116149000Y-38395971D01*
X116149000Y-36854029D01*
X116152934Y-36814082D01*
X116162795Y-36781576D01*
X116178808Y-36751617D01*
X116200359Y-36725359D01*
X116226617Y-36703808D01*
X116256576Y-36687795D01*
X116289082Y-36677934D01*
X116329029Y-36674000D01*
X122670971Y-36674000D01*
X122710918Y-36677934D01*
X122710918Y-36677934D01*
G37*
G36*
X137710918Y-36677934D02*
X137743424Y-36687795D01*
X137773383Y-36703808D01*
X137799641Y-36725359D01*
X137821192Y-36751617D01*
X137837205Y-36781576D01*
X137847066Y-36814082D01*
X137851000Y-36854029D01*
X137851000Y-38395971D01*
X137847066Y-38435918D01*
X137837205Y-38468424D01*
X137821192Y-38498383D01*
X137799641Y-38524641D01*
X137773383Y-38546192D01*
X137743424Y-38562205D01*
X137710918Y-38572066D01*
X137670971Y-38576000D01*
X131329029Y-38576000D01*
X131289082Y-38572066D01*
X131256576Y-38562205D01*
X131226617Y-38546192D01*
X131200359Y-38524641D01*
X131178808Y-38498383D01*
X131162795Y-38468424D01*
X131152934Y-38435918D01*
X131149000Y-38395971D01*
X131149000Y-36854029D01*
X131152934Y-36814082D01*
X131162795Y-36781576D01*
X131178808Y-36751617D01*
X131200359Y-36725359D01*
X131226617Y-36703808D01*
X131256576Y-36687795D01*
X131289082Y-36677934D01*
X131329029Y-36674000D01*
X137670971Y-36674000D01*
X137710918Y-36677934D01*
X137710918Y-36677934D01*
G37*
G36*
X145210918Y-36677934D02*
X145243424Y-36687795D01*
X145273383Y-36703808D01*
X145299641Y-36725359D01*
X145321192Y-36751617D01*
X145337205Y-36781576D01*
X145347066Y-36814082D01*
X145351000Y-36854029D01*
X145351000Y-38395971D01*
X145347066Y-38435918D01*
X145337205Y-38468424D01*
X145321192Y-38498383D01*
X145299641Y-38524641D01*
X145273383Y-38546192D01*
X145243424Y-38562205D01*
X145210918Y-38572066D01*
X145170971Y-38576000D01*
X138829029Y-38576000D01*
X138789082Y-38572066D01*
X138756576Y-38562205D01*
X138726617Y-38546192D01*
X138700359Y-38524641D01*
X138678808Y-38498383D01*
X138662795Y-38468424D01*
X138652934Y-38435918D01*
X138649000Y-38395971D01*
X138649000Y-36854029D01*
X138652934Y-36814082D01*
X138662795Y-36781576D01*
X138678808Y-36751617D01*
X138700359Y-36725359D01*
X138726617Y-36703808D01*
X138756576Y-36687795D01*
X138789082Y-36677934D01*
X138829029Y-36674000D01*
X145170971Y-36674000D01*
X145210918Y-36677934D01*
X145210918Y-36677934D01*
G37*
G36*
X130210918Y-36677934D02*
X130243424Y-36687795D01*
X130273383Y-36703808D01*
X130299641Y-36725359D01*
X130321192Y-36751617D01*
X130337205Y-36781576D01*
X130347066Y-36814082D01*
X130351000Y-36854029D01*
X130351000Y-38395971D01*
X130347066Y-38435918D01*
X130337205Y-38468424D01*
X130321192Y-38498383D01*
X130299641Y-38524641D01*
X130273383Y-38546192D01*
X130243424Y-38562205D01*
X130210918Y-38572066D01*
X130170971Y-38576000D01*
X123829029Y-38576000D01*
X123789082Y-38572066D01*
X123756576Y-38562205D01*
X123726617Y-38546192D01*
X123700359Y-38524641D01*
X123678808Y-38498383D01*
X123662795Y-38468424D01*
X123652934Y-38435918D01*
X123649000Y-38395971D01*
X123649000Y-36854029D01*
X123652934Y-36814082D01*
X123662795Y-36781576D01*
X123678808Y-36751617D01*
X123700359Y-36725359D01*
X123726617Y-36703808D01*
X123756576Y-36687795D01*
X123789082Y-36677934D01*
X123829029Y-36674000D01*
X130170971Y-36674000D01*
X130210918Y-36677934D01*
X130210918Y-36677934D01*
G37*
G36*
X152710918Y-36677934D02*
X152743424Y-36687795D01*
X152773383Y-36703808D01*
X152799641Y-36725359D01*
X152821192Y-36751617D01*
X152837205Y-36781576D01*
X152847066Y-36814082D01*
X152851000Y-36854029D01*
X152851000Y-38395971D01*
X152847066Y-38435918D01*
X152837205Y-38468424D01*
X152821192Y-38498383D01*
X152799641Y-38524641D01*
X152773383Y-38546192D01*
X152743424Y-38562205D01*
X152710918Y-38572066D01*
X152670971Y-38576000D01*
X146329029Y-38576000D01*
X146289082Y-38572066D01*
X146256576Y-38562205D01*
X146226617Y-38546192D01*
X146200359Y-38524641D01*
X146178808Y-38498383D01*
X146162795Y-38468424D01*
X146152934Y-38435918D01*
X146149000Y-38395971D01*
X146149000Y-36854029D01*
X146152934Y-36814082D01*
X146162795Y-36781576D01*
X146178808Y-36751617D01*
X146200359Y-36725359D01*
X146226617Y-36703808D01*
X146256576Y-36687795D01*
X146289082Y-36677934D01*
X146329029Y-36674000D01*
X152670971Y-36674000D01*
X152710918Y-36677934D01*
X152710918Y-36677934D01*
G37*
G36*
X68401000Y-37676000D02*
X59399000Y-37676000D01*
X59399000Y-35824000D01*
X68401000Y-35824000D01*
X68401000Y-37676000D01*
X68401000Y-37676000D01*
G37*
G36*
X75518591Y-36043692D02*
X75552569Y-36054000D01*
X75583887Y-36070740D01*
X75611339Y-36093268D01*
X75633867Y-36120720D01*
X75650607Y-36152038D01*
X75660915Y-36186016D01*
X75665000Y-36227497D01*
X75665000Y-36903717D01*
X75660915Y-36945198D01*
X75650607Y-36979176D01*
X75633867Y-37010494D01*
X75611339Y-37037946D01*
X75583887Y-37060474D01*
X75552569Y-37077214D01*
X75518591Y-37087522D01*
X75477110Y-37091607D01*
X74875890Y-37091607D01*
X74834409Y-37087522D01*
X74800431Y-37077214D01*
X74769113Y-37060474D01*
X74741661Y-37037946D01*
X74719133Y-37010494D01*
X74702393Y-36979176D01*
X74692085Y-36945198D01*
X74688000Y-36903717D01*
X74688000Y-36227497D01*
X74692085Y-36186016D01*
X74702393Y-36152038D01*
X74719133Y-36120720D01*
X74741661Y-36093268D01*
X74769113Y-36070740D01*
X74800431Y-36054000D01*
X74834409Y-36043692D01*
X74875890Y-36039607D01*
X75477110Y-36039607D01*
X75518591Y-36043692D01*
X75518591Y-36043692D01*
G37*
G36*
X73943591Y-36043692D02*
X73977569Y-36054000D01*
X74008887Y-36070740D01*
X74036339Y-36093268D01*
X74058867Y-36120720D01*
X74075607Y-36152038D01*
X74085915Y-36186016D01*
X74090000Y-36227497D01*
X74090000Y-36903717D01*
X74085915Y-36945198D01*
X74075607Y-36979176D01*
X74058867Y-37010494D01*
X74036339Y-37037946D01*
X74008887Y-37060474D01*
X73977569Y-37077214D01*
X73943591Y-37087522D01*
X73902110Y-37091607D01*
X73300890Y-37091607D01*
X73259409Y-37087522D01*
X73225431Y-37077214D01*
X73194113Y-37060474D01*
X73166661Y-37037946D01*
X73144133Y-37010494D01*
X73127393Y-36979176D01*
X73117085Y-36945198D01*
X73113000Y-36903717D01*
X73113000Y-36227497D01*
X73117085Y-36186016D01*
X73127393Y-36152038D01*
X73144133Y-36120720D01*
X73166661Y-36093268D01*
X73194113Y-36070740D01*
X73225431Y-36054000D01*
X73259409Y-36043692D01*
X73300890Y-36039607D01*
X73902110Y-36039607D01*
X73943591Y-36043692D01*
X73943591Y-36043692D01*
G37*
G36*
X56379591Y-35978085D02*
X56413569Y-35988393D01*
X56444887Y-36005133D01*
X56472339Y-36027661D01*
X56494867Y-36055113D01*
X56511607Y-36086431D01*
X56521915Y-36120409D01*
X56526000Y-36161890D01*
X56526000Y-36838110D01*
X56521915Y-36879591D01*
X56511607Y-36913569D01*
X56494867Y-36944887D01*
X56472339Y-36972339D01*
X56444887Y-36994867D01*
X56413569Y-37011607D01*
X56379591Y-37021915D01*
X56338110Y-37026000D01*
X55736890Y-37026000D01*
X55695409Y-37021915D01*
X55661431Y-37011607D01*
X55630113Y-36994867D01*
X55602661Y-36972339D01*
X55580133Y-36944887D01*
X55563393Y-36913569D01*
X55553085Y-36879591D01*
X55549000Y-36838110D01*
X55549000Y-36161890D01*
X55553085Y-36120409D01*
X55563393Y-36086431D01*
X55580133Y-36055113D01*
X55602661Y-36027661D01*
X55630113Y-36005133D01*
X55661431Y-35988393D01*
X55695409Y-35978085D01*
X55736890Y-35974000D01*
X56338110Y-35974000D01*
X56379591Y-35978085D01*
X56379591Y-35978085D01*
G37*
G36*
X54804591Y-35978085D02*
X54838569Y-35988393D01*
X54869887Y-36005133D01*
X54897339Y-36027661D01*
X54919867Y-36055113D01*
X54936607Y-36086431D01*
X54946915Y-36120409D01*
X54951000Y-36161890D01*
X54951000Y-36838110D01*
X54946915Y-36879591D01*
X54936607Y-36913569D01*
X54919867Y-36944887D01*
X54897339Y-36972339D01*
X54869887Y-36994867D01*
X54838569Y-37011607D01*
X54804591Y-37021915D01*
X54763110Y-37026000D01*
X54161890Y-37026000D01*
X54120409Y-37021915D01*
X54086431Y-37011607D01*
X54055113Y-36994867D01*
X54027661Y-36972339D01*
X54005133Y-36944887D01*
X53988393Y-36913569D01*
X53978085Y-36879591D01*
X53974000Y-36838110D01*
X53974000Y-36161890D01*
X53978085Y-36120409D01*
X53988393Y-36086431D01*
X54005133Y-36055113D01*
X54027661Y-36027661D01*
X54055113Y-36005133D01*
X54086431Y-35988393D01*
X54120409Y-35978085D01*
X54161890Y-35974000D01*
X54763110Y-35974000D01*
X54804591Y-35978085D01*
X54804591Y-35978085D01*
G37*
G36*
X175551000Y-36491000D02*
X169050557Y-36491000D01*
X169026171Y-36493402D01*
X169002722Y-36500515D01*
X168981111Y-36512066D01*
X168962169Y-36527612D01*
X168946623Y-36546554D01*
X168935072Y-36568164D01*
X168909175Y-36630685D01*
X168899671Y-36653629D01*
X168851742Y-36725359D01*
X168850311Y-36727500D01*
X168787500Y-36790311D01*
X168787497Y-36790313D01*
X168787496Y-36790314D01*
X168713629Y-36839671D01*
X168713626Y-36839672D01*
X168713625Y-36839673D01*
X168631552Y-36873669D01*
X168544421Y-36891000D01*
X168455579Y-36891000D01*
X168368448Y-36873669D01*
X168286375Y-36839673D01*
X168286374Y-36839672D01*
X168286371Y-36839671D01*
X168212504Y-36790314D01*
X168212503Y-36790313D01*
X168212500Y-36790311D01*
X168149689Y-36727500D01*
X168148258Y-36725359D01*
X168100329Y-36653629D01*
X168100327Y-36653625D01*
X168066331Y-36571552D01*
X168049000Y-36484421D01*
X168049000Y-36395579D01*
X168066331Y-36308448D01*
X168100327Y-36226375D01*
X168100328Y-36226374D01*
X168100329Y-36226371D01*
X168149686Y-36152504D01*
X168149687Y-36152503D01*
X168149689Y-36152500D01*
X168212500Y-36089689D01*
X168212504Y-36089686D01*
X168286371Y-36040329D01*
X168286374Y-36040328D01*
X168286375Y-36040327D01*
X168368448Y-36006331D01*
X168455579Y-35989000D01*
X168544421Y-35989000D01*
X168631552Y-36006331D01*
X168713625Y-36040327D01*
X168713626Y-36040328D01*
X168713629Y-36040329D01*
X168787496Y-36089686D01*
X168787500Y-36089689D01*
X168835612Y-36137801D01*
X168854554Y-36153347D01*
X168876165Y-36164898D01*
X168899614Y-36172011D01*
X168924000Y-36174413D01*
X168948386Y-36172011D01*
X168971835Y-36164898D01*
X168993446Y-36153347D01*
X169012388Y-36137801D01*
X169027934Y-36118859D01*
X169039485Y-36097248D01*
X169046598Y-36073799D01*
X169049000Y-36049413D01*
X169049000Y-34949000D01*
X175551000Y-34949000D01*
X175551000Y-36491000D01*
X175551000Y-36491000D01*
G37*
G36*
X49501000Y-35049413D02*
X49503402Y-35073799D01*
X49510515Y-35097248D01*
X49522066Y-35118859D01*
X49537612Y-35137801D01*
X49556554Y-35153347D01*
X49578165Y-35164898D01*
X49601614Y-35172011D01*
X49626000Y-35174413D01*
X49650386Y-35172011D01*
X49673835Y-35164898D01*
X49695446Y-35153347D01*
X49714388Y-35137801D01*
X49762500Y-35089689D01*
X49764863Y-35088110D01*
X49836371Y-35040329D01*
X49836374Y-35040328D01*
X49836375Y-35040327D01*
X49918448Y-35006331D01*
X50005579Y-34989000D01*
X50094421Y-34989000D01*
X50181552Y-35006331D01*
X50263625Y-35040327D01*
X50263626Y-35040328D01*
X50263629Y-35040329D01*
X50335137Y-35088110D01*
X50337500Y-35089689D01*
X50400311Y-35152500D01*
X50400313Y-35152503D01*
X50400314Y-35152504D01*
X50449671Y-35226371D01*
X50449671Y-35226372D01*
X50449673Y-35226375D01*
X50483669Y-35308448D01*
X50501000Y-35395579D01*
X50501000Y-35484421D01*
X50483669Y-35571552D01*
X50449673Y-35653625D01*
X50449671Y-35653629D01*
X50400314Y-35727496D01*
X50400311Y-35727500D01*
X50337500Y-35790311D01*
X50337497Y-35790313D01*
X50337496Y-35790314D01*
X50263629Y-35839671D01*
X50263626Y-35839672D01*
X50263625Y-35839673D01*
X50181552Y-35873669D01*
X50094421Y-35891000D01*
X50005579Y-35891000D01*
X49918448Y-35873669D01*
X49836375Y-35839673D01*
X49836374Y-35839672D01*
X49836371Y-35839671D01*
X49762504Y-35790314D01*
X49762503Y-35790313D01*
X49762500Y-35790311D01*
X49699689Y-35727500D01*
X49699686Y-35727496D01*
X49650329Y-35653629D01*
X49640825Y-35630685D01*
X49614928Y-35568164D01*
X49603376Y-35546553D01*
X49587831Y-35527611D01*
X49568889Y-35512066D01*
X49547278Y-35500515D01*
X49523829Y-35493402D01*
X49499443Y-35491000D01*
X42999000Y-35491000D01*
X42999000Y-33949000D01*
X49501000Y-33949000D01*
X49501000Y-35049413D01*
X49501000Y-35049413D01*
G37*
G36*
X54629591Y-34228085D02*
X54663569Y-34238393D01*
X54694887Y-34255133D01*
X54722339Y-34277661D01*
X54744867Y-34305113D01*
X54761607Y-34336431D01*
X54771915Y-34370409D01*
X54776000Y-34411890D01*
X54776000Y-35088110D01*
X54771915Y-35129591D01*
X54761607Y-35163569D01*
X54744867Y-35194887D01*
X54722339Y-35222339D01*
X54694887Y-35244867D01*
X54663569Y-35261607D01*
X54629591Y-35271915D01*
X54588110Y-35276000D01*
X53986890Y-35276000D01*
X53945409Y-35271915D01*
X53911431Y-35261607D01*
X53880113Y-35244867D01*
X53852661Y-35222339D01*
X53830133Y-35194887D01*
X53813393Y-35163569D01*
X53803085Y-35129591D01*
X53799000Y-35088110D01*
X53799000Y-34411890D01*
X53803085Y-34370409D01*
X53813393Y-34336431D01*
X53830133Y-34305113D01*
X53852661Y-34277661D01*
X53880113Y-34255133D01*
X53911431Y-34238393D01*
X53945409Y-34228085D01*
X53986890Y-34224000D01*
X54588110Y-34224000D01*
X54629591Y-34228085D01*
X54629591Y-34228085D01*
G37*
G36*
X53054591Y-34228085D02*
X53088569Y-34238393D01*
X53119887Y-34255133D01*
X53147339Y-34277661D01*
X53169867Y-34305113D01*
X53186607Y-34336431D01*
X53196915Y-34370409D01*
X53201000Y-34411890D01*
X53201000Y-35088110D01*
X53196915Y-35129591D01*
X53186607Y-35163569D01*
X53169867Y-35194887D01*
X53147339Y-35222339D01*
X53119887Y-35244867D01*
X53088569Y-35261607D01*
X53054591Y-35271915D01*
X53013110Y-35276000D01*
X52411890Y-35276000D01*
X52370409Y-35271915D01*
X52336431Y-35261607D01*
X52305113Y-35244867D01*
X52277661Y-35222339D01*
X52255133Y-35194887D01*
X52238393Y-35163569D01*
X52228085Y-35129591D01*
X52224000Y-35088110D01*
X52224000Y-34411890D01*
X52228085Y-34370409D01*
X52238393Y-34336431D01*
X52255133Y-34305113D01*
X52277661Y-34277661D01*
X52305113Y-34255133D01*
X52336431Y-34238393D01*
X52370409Y-34228085D01*
X52411890Y-34224000D01*
X53013110Y-34224000D01*
X53054591Y-34228085D01*
X53054591Y-34228085D01*
G37*
G36*
X159301000Y-34951000D02*
X155699000Y-34951000D01*
X155699000Y-33049000D01*
X159301000Y-33049000D01*
X159301000Y-34951000D01*
X159301000Y-34951000D01*
G37*
G36*
X164301000Y-34951000D02*
X160699000Y-34951000D01*
X160699000Y-33049000D01*
X164301000Y-33049000D01*
X164301000Y-34951000D01*
X164301000Y-34951000D01*
G37*
G36*
X130210918Y-31427934D02*
X130243424Y-31437795D01*
X130273383Y-31453808D01*
X130299641Y-31475359D01*
X130321192Y-31501617D01*
X130337205Y-31531576D01*
X130347066Y-31564082D01*
X130351000Y-31604029D01*
X130351000Y-33145971D01*
X130347066Y-33185918D01*
X130337205Y-33218424D01*
X130321192Y-33248383D01*
X130299641Y-33274641D01*
X130273383Y-33296192D01*
X130243424Y-33312205D01*
X130210918Y-33322066D01*
X130170971Y-33326000D01*
X123829029Y-33326000D01*
X123789082Y-33322066D01*
X123756576Y-33312205D01*
X123726617Y-33296192D01*
X123700359Y-33274641D01*
X123678808Y-33248383D01*
X123662795Y-33218424D01*
X123652934Y-33185918D01*
X123649000Y-33145971D01*
X123649000Y-31604029D01*
X123652934Y-31564082D01*
X123662795Y-31531576D01*
X123678808Y-31501617D01*
X123700359Y-31475359D01*
X123726617Y-31453808D01*
X123756576Y-31437795D01*
X123789082Y-31427934D01*
X123829029Y-31424000D01*
X130170971Y-31424000D01*
X130210918Y-31427934D01*
X130210918Y-31427934D01*
G37*
G36*
X122710918Y-31427934D02*
X122743424Y-31437795D01*
X122773383Y-31453808D01*
X122799641Y-31475359D01*
X122821192Y-31501617D01*
X122837205Y-31531576D01*
X122847066Y-31564082D01*
X122851000Y-31604029D01*
X122851000Y-33145971D01*
X122847066Y-33185918D01*
X122837205Y-33218424D01*
X122821192Y-33248383D01*
X122799641Y-33274641D01*
X122773383Y-33296192D01*
X122743424Y-33312205D01*
X122710918Y-33322066D01*
X122670971Y-33326000D01*
X116329029Y-33326000D01*
X116289082Y-33322066D01*
X116256576Y-33312205D01*
X116226617Y-33296192D01*
X116200359Y-33274641D01*
X116178808Y-33248383D01*
X116162795Y-33218424D01*
X116152934Y-33185918D01*
X116149000Y-33145971D01*
X116149000Y-31604029D01*
X116152934Y-31564082D01*
X116162795Y-31531576D01*
X116178808Y-31501617D01*
X116200359Y-31475359D01*
X116226617Y-31453808D01*
X116256576Y-31437795D01*
X116289082Y-31427934D01*
X116329029Y-31424000D01*
X122670971Y-31424000D01*
X122710918Y-31427934D01*
X122710918Y-31427934D01*
G37*
G36*
X152710918Y-31427934D02*
X152743424Y-31437795D01*
X152773383Y-31453808D01*
X152799641Y-31475359D01*
X152821192Y-31501617D01*
X152837205Y-31531576D01*
X152847066Y-31564082D01*
X152851000Y-31604029D01*
X152851000Y-33145971D01*
X152847066Y-33185918D01*
X152837205Y-33218424D01*
X152821192Y-33248383D01*
X152799641Y-33274641D01*
X152773383Y-33296192D01*
X152743424Y-33312205D01*
X152710918Y-33322066D01*
X152670971Y-33326000D01*
X146329029Y-33326000D01*
X146289082Y-33322066D01*
X146256576Y-33312205D01*
X146226617Y-33296192D01*
X146200359Y-33274641D01*
X146178808Y-33248383D01*
X146162795Y-33218424D01*
X146152934Y-33185918D01*
X146149000Y-33145971D01*
X146149000Y-31604029D01*
X146152934Y-31564082D01*
X146162795Y-31531576D01*
X146178808Y-31501617D01*
X146200359Y-31475359D01*
X146226617Y-31453808D01*
X146256576Y-31437795D01*
X146289082Y-31427934D01*
X146329029Y-31424000D01*
X152670971Y-31424000D01*
X152710918Y-31427934D01*
X152710918Y-31427934D01*
G37*
G36*
X137710918Y-31427934D02*
X137743424Y-31437795D01*
X137773383Y-31453808D01*
X137799641Y-31475359D01*
X137821192Y-31501617D01*
X137837205Y-31531576D01*
X137847066Y-31564082D01*
X137851000Y-31604029D01*
X137851000Y-33145971D01*
X137847066Y-33185918D01*
X137837205Y-33218424D01*
X137821192Y-33248383D01*
X137799641Y-33274641D01*
X137773383Y-33296192D01*
X137743424Y-33312205D01*
X137710918Y-33322066D01*
X137670971Y-33326000D01*
X131329029Y-33326000D01*
X131289082Y-33322066D01*
X131256576Y-33312205D01*
X131226617Y-33296192D01*
X131200359Y-33274641D01*
X131178808Y-33248383D01*
X131162795Y-33218424D01*
X131152934Y-33185918D01*
X131149000Y-33145971D01*
X131149000Y-31604029D01*
X131152934Y-31564082D01*
X131162795Y-31531576D01*
X131178808Y-31501617D01*
X131200359Y-31475359D01*
X131226617Y-31453808D01*
X131256576Y-31437795D01*
X131289082Y-31427934D01*
X131329029Y-31424000D01*
X137670971Y-31424000D01*
X137710918Y-31427934D01*
X137710918Y-31427934D01*
G37*
G36*
X145210918Y-31427934D02*
X145243424Y-31437795D01*
X145273383Y-31453808D01*
X145299641Y-31475359D01*
X145321192Y-31501617D01*
X145337205Y-31531576D01*
X145347066Y-31564082D01*
X145351000Y-31604029D01*
X145351000Y-33145971D01*
X145347066Y-33185918D01*
X145337205Y-33218424D01*
X145321192Y-33248383D01*
X145299641Y-33274641D01*
X145273383Y-33296192D01*
X145243424Y-33312205D01*
X145210918Y-33322066D01*
X145170971Y-33326000D01*
X138829029Y-33326000D01*
X138789082Y-33322066D01*
X138756576Y-33312205D01*
X138726617Y-33296192D01*
X138700359Y-33274641D01*
X138678808Y-33248383D01*
X138662795Y-33218424D01*
X138652934Y-33185918D01*
X138649000Y-33145971D01*
X138649000Y-31604029D01*
X138652934Y-31564082D01*
X138662795Y-31531576D01*
X138678808Y-31501617D01*
X138700359Y-31475359D01*
X138726617Y-31453808D01*
X138756576Y-31437795D01*
X138789082Y-31427934D01*
X138829029Y-31424000D01*
X145170971Y-31424000D01*
X145210918Y-31427934D01*
X145210918Y-31427934D01*
G37*
M02*
