M48
;DRILL file {KiCad 5.0.2-bee76a0~70~ubuntu18.04.1} date mar. 29 oct. 2019 17:05:42 CET
;FORMAT={-:-/ absolute / inch / decimal}
FMAT,2
INCH,TZ
T1C0.0157
T2C0.0217
T3C0.0335
T4C0.0394
T5C0.0591
%
G90
G05
T1
X1.7323Y-1.1811
X1.7323Y-1.2205
X1.7323Y-1.2598
X1.7323Y-1.2992
X1.7323Y-1.7717
X1.7323Y-1.811
X1.7323Y-1.8504
X1.7323Y-1.8898
X1.7323Y-1.9291
X1.7323Y-2.4016
X1.7323Y-2.4409
X1.7323Y-2.4803
X1.7323Y-2.5197
X1.7717Y-1.1417
X1.7717Y-2.5591
X1.811Y-1.1417
X1.811Y-2.5591
X1.8504Y-1.1417
X1.8504Y-2.5591
X1.8898Y-1.1417
X1.8898Y-2.5591
X1.9291Y-1.1417
X1.9291Y-2.5591
X1.9685Y-1.1417
X1.9685Y-2.5591
X1.9783Y-2.2146
X2.0079Y-1.1417
X2.0079Y-2.5591
X2.0472Y-1.1417
X2.0472Y-2.5591
X2.0768Y-1.8996
X2.0866Y-1.1417
X2.0866Y-1.7323
X2.0866Y-2.5591
X2.0965Y-1.437
X2.126Y-1.1417
X2.126Y-2.5591
X2.1457Y-1.811
X2.1654Y-1.1417
X2.1654Y-2.5591
X2.1949Y-1.6535
X2.2047Y-1.1417
X2.2047Y-2.5591
X2.2441Y-1.1417
X2.2441Y-2.5591
X2.2539Y-1.4567
X2.2835Y-1.1417
X2.2835Y-2.5591
X2.3228Y-1.1417
X2.3228Y-2.5591
X2.3366Y-2.1535
X2.3514Y-1.8158
X2.3583Y-1.9055
X2.3622Y-1.1417
X2.3622Y-2.5591
X2.3701Y-2.2638
X2.3996Y-1.9055
X2.4016Y-1.1417
X2.4016Y-2.5591
X2.4311Y-1.6634
X2.4409Y-1.1417
X2.4409Y-2.5591
X2.4764Y-2.2638
X2.4803Y-1.1417
X2.4803Y-2.3917
X2.4803Y-2.5591
X2.5098Y-1.9291
X2.5098Y-2.0866
X2.5177Y-2.2638
X2.5197Y-1.1417
X2.5197Y-2.5591
X2.5394Y-1.6535
X2.5492Y-1.5059
X2.5591Y-1.1417
X2.5591Y-2.5591
X2.5984Y-1.1417
X2.5984Y-2.5591
X2.6043Y-2.2638
X2.6181Y-2.3917
X2.6319Y-1.5059
X2.6378Y-1.1417
X2.6378Y-2.5591
X2.6673Y-2.0866
X2.6772Y-1.1417
X2.6772Y-2.5591
X2.6949Y-1.9528
X2.6949Y-2.002
X2.6988Y-2.2618
X2.7028Y-1.8957
X2.7165Y-1.1417
X2.7165Y-2.5591
X2.7559Y-1.1417
X2.7559Y-2.5591
X2.7953Y-1.1417
X2.7953Y-1.4665
X2.7953Y-2.5591
X2.8244Y-1.7854
X2.8346Y-1.1417
X2.8346Y-2.5591
X2.874Y-1.1417
X2.874Y-2.5591
X2.8996Y-1.7854
X2.9134Y-1.1417
X2.9134Y-2.5591
X2.9429Y-1.8898
X2.9528Y-1.1417
X2.9528Y-2.5591
X2.9921Y-1.1417
X2.9921Y-2.5591
X2.998Y-1.8898
X3.0217Y-2.126
X3.0315Y-1.1417
X3.0315Y-2.5591
X3.0709Y-1.1417
X3.0709Y-2.5591
X3.1102Y-1.1417
X3.1102Y-2.5591
X3.1496Y-1.1417
X3.1496Y-2.5591
X3.189Y-1.1417
X3.189Y-2.5591
X3.2283Y-1.1417
X3.2283Y-2.5591
X3.2677Y-1.1417
X3.2677Y-2.5591
X3.3071Y-1.1417
X3.3071Y-1.2165
X3.3071Y-1.3032
X3.3071Y-1.6142
X3.3071Y-1.6929
X3.3071Y-1.7717
X3.3071Y-1.8504
X3.3071Y-1.9291
X3.3071Y-2.0079
X3.3071Y-2.0866
X3.3071Y-2.2441
X3.3071Y-2.3228
X3.3071Y-2.4803
X3.3071Y-2.5591
X3.3465Y-1.1417
X3.3465Y-2.5591
X3.3563Y-1.4567
X3.3858Y-1.1417
X3.3858Y-2.5591
X3.4252Y-1.1417
X3.4252Y-2.5591
X3.435Y-1.2598
X3.4646Y-1.1417
X3.4646Y-2.5591
X3.5039Y-1.1417
X3.5039Y-2.5591
X3.5433Y-1.1417
X3.5433Y-2.5591
X3.5827Y-1.1417
X3.5827Y-2.5591
X3.622Y-1.1417
X3.622Y-2.5591
X3.6614Y-1.1417
X3.6614Y-2.5591
X3.7008Y-1.1417
X3.7008Y-2.5591
X3.7205Y-2.2835
X3.7402Y-1.1417
X3.7402Y-2.5591
X3.7795Y-1.1417
X3.7795Y-2.5591
X3.8189Y-1.1417
X3.8189Y-2.5591
X3.8583Y-1.1417
X3.8583Y-2.5591
X3.8976Y-1.1417
X3.8976Y-2.5591
X3.937Y-1.1417
X3.937Y-2.5591
X3.9764Y-1.1417
X3.9764Y-2.5591
X4.0157Y-1.1417
X4.0157Y-2.5591
X4.0551Y-1.1417
X4.0551Y-2.5591
X4.0945Y-1.1417
X4.0945Y-2.5591
X4.1339Y-1.1417
X4.1339Y-2.5591
X4.1732Y-1.1417
X4.1732Y-2.5591
X4.2126Y-1.1417
X4.2126Y-2.5591
X4.252Y-1.1417
X4.252Y-2.5591
X4.2913Y-1.1417
X4.2913Y-2.5591
X4.3307Y-1.1417
X4.3307Y-2.5591
X4.3701Y-1.1417
X4.3701Y-2.5591
X4.4094Y-1.1417
X4.4094Y-2.5591
X4.4488Y-1.1417
X4.4488Y-2.5591
X4.4882Y-1.1417
X4.4882Y-2.5591
X4.5079Y-2.2244
X4.5276Y-1.1417
X4.5276Y-2.5591
X4.5669Y-1.1417
X4.5669Y-2.5591
X4.6063Y-1.1417
X4.6063Y-2.5591
X4.6457Y-1.1417
X4.6457Y-2.5591
X4.685Y-1.1417
X4.685Y-2.5591
X4.7244Y-1.1417
X4.7244Y-2.5591
X4.7638Y-1.1417
X4.7638Y-2.5591
X4.8031Y-1.1417
X4.8031Y-2.5591
X4.8425Y-1.1417
X4.8425Y-2.5591
X4.8819Y-1.1417
X4.8819Y-2.5591
X4.9213Y-1.1417
X4.9213Y-2.5591
X4.9606Y-1.1417
X4.9606Y-2.5591
X5.Y-1.1417
X5.Y-2.5591
X5.0394Y-1.1417
X5.0394Y-2.5591
X5.0787Y-1.1417
X5.0787Y-2.5591
X5.1181Y-1.1417
X5.1181Y-2.5591
X5.1575Y-1.1417
X5.1575Y-2.5591
X5.1969Y-1.1417
X5.1969Y-2.5591
X5.2362Y-1.1417
X5.2362Y-2.5591
X5.2756Y-1.1417
X5.2756Y-2.5591
X5.315Y-1.1417
X5.315Y-2.5591
X5.3543Y-1.1417
X5.3543Y-2.5591
X5.3937Y-1.1417
X5.3937Y-2.5591
X5.4331Y-1.1417
X5.4331Y-2.5591
X5.4724Y-1.1417
X5.4724Y-2.5591
X5.5118Y-1.1417
X5.5118Y-2.5591
X5.5512Y-1.1417
X5.5512Y-2.5591
X5.5906Y-1.1417
X5.5906Y-2.5591
X5.6299Y-1.1417
X5.6299Y-2.5591
X5.6693Y-1.1417
X5.6693Y-2.5591
X5.7087Y-1.1417
X5.7087Y-2.5591
X5.748Y-1.1417
X5.748Y-2.5591
X5.7874Y-1.1417
X5.7874Y-2.5591
X5.8268Y-1.1417
X5.8268Y-2.5591
X5.8661Y-1.1417
X5.8661Y-2.5591
X5.9055Y-1.1417
X5.9055Y-2.5591
X5.9449Y-1.1417
X5.9449Y-2.5591
X5.9843Y-1.1417
X5.9843Y-2.5591
X6.0236Y-1.1417
X6.0236Y-2.5591
X6.063Y-1.1417
X6.063Y-2.5591
X6.1024Y-1.1417
X6.1024Y-2.5591
X6.1417Y-1.1417
X6.1417Y-2.5591
X6.1811Y-1.1417
X6.1811Y-2.5591
X6.2205Y-1.1417
X6.2205Y-2.5591
X6.2598Y-1.1417
X6.2598Y-2.5591
X6.2992Y-1.1417
X6.2992Y-2.5591
X6.3386Y-1.1417
X6.3386Y-2.5591
X6.378Y-1.1417
X6.378Y-2.5591
X6.4173Y-1.1417
X6.4173Y-2.5591
X6.4567Y-1.1417
X6.4567Y-2.5591
X6.4961Y-1.1417
X6.4961Y-2.5591
X6.5354Y-1.1417
X6.5354Y-2.5591
X6.5748Y-1.1417
X6.5748Y-1.4862
X6.5748Y-1.6634
X6.5748Y-2.0374
X6.5748Y-2.2146
X6.5748Y-2.5591
X6.6142Y-1.1417
X6.6142Y-2.5591
X6.6535Y-1.1417
X6.6535Y-2.5591
X6.6929Y-1.1811
X6.6929Y-2.5197
X6.7323Y-1.2205
X6.7323Y-2.4803
X6.7717Y-1.2598
X6.7717Y-2.4409
X6.811Y-1.2992
X6.811Y-2.4016
X6.8504Y-1.3386
X6.8504Y-1.811
X6.8504Y-1.8504
X6.8504Y-1.8898
X6.8504Y-2.3622
T4
X2.1772Y-2.1126
X2.1772Y-2.2126
X3.4811Y-1.4862
X3.5811Y-1.4862
X3.6811Y-1.4862
T5
X6.3287Y-1.6358
X6.3287Y-1.8504
X6.3287Y-2.065
T2
X1.7785Y-2.0128G85X1.753Y-2.0128
G05
X1.7785Y-2.3179G85X1.753Y-2.3179
G05
T3
X1.9262Y-2.0187G85X1.9045Y-2.0187
G05
X1.9262Y-2.312G85X1.9045Y-2.312
G05
T0
M30
