G04 #@! TF.GenerationSoftware,KiCad,Pcbnew,7.99.0-unknown-099e5dd9e7~172~ubuntu22.04.1*
G04 #@! TF.CreationDate,2023-11-16T11:57:36+01:00*
G04 #@! TF.ProjectId,emfi,656d6669-2e6b-4696-9361-645f70636258,0.1*
G04 #@! TF.SameCoordinates,Original*
G04 #@! TF.FileFunction,Soldermask,Bot*
G04 #@! TF.FilePolarity,Negative*
%FSLAX46Y46*%
G04 Gerber Fmt 4.6, Leading zero omitted, Abs format (unit mm)*
G04 Created by KiCad (PCBNEW 7.99.0-unknown-099e5dd9e7~172~ubuntu22.04.1) date 2023-11-16 11:57:36*
%MOMM*%
%LPD*%
G01*
G04 APERTURE LIST*
G04 Aperture macros list*
%AMRoundRect*
0 Rectangle with rounded corners*
0 $1 Rounding radius*
0 $2 $3 $4 $5 $6 $7 $8 $9 X,Y pos of 4 corners*
0 Add a 4 corners polygon primitive as box body*
4,1,4,$2,$3,$4,$5,$6,$7,$8,$9,$2,$3,0*
0 Add four circle primitives for the rounded corners*
1,1,$1+$1,$2,$3*
1,1,$1+$1,$4,$5*
1,1,$1+$1,$6,$7*
1,1,$1+$1,$8,$9*
0 Add four rect primitives between the rounded corners*
20,1,$1+$1,$2,$3,$4,$5,0*
20,1,$1+$1,$4,$5,$6,$7,0*
20,1,$1+$1,$6,$7,$8,$9,0*
20,1,$1+$1,$8,$9,$2,$3,0*%
G04 Aperture macros list end*
%ADD10R,1.700000X1.700000*%
%ADD11O,1.700000X1.700000*%
%ADD12C,0.800000*%
%ADD13O,0.800000X0.800000*%
%ADD14O,1.800000X1.150000*%
%ADD15O,2.000000X1.450000*%
%ADD16RoundRect,0.218750X-0.218750X-0.256250X0.218750X-0.256250X0.218750X0.256250X-0.218750X0.256250X0*%
%ADD17RoundRect,0.218750X0.256250X-0.218750X0.256250X0.218750X-0.256250X0.218750X-0.256250X-0.218750X0*%
%ADD18RoundRect,0.218750X-0.256250X0.218750X-0.256250X-0.218750X0.256250X-0.218750X0.256250X0.218750X0*%
%ADD19RoundRect,0.218750X0.218750X0.256250X-0.218750X0.256250X-0.218750X-0.256250X0.218750X-0.256250X0*%
%ADD20R,1.500000X2.000000*%
%ADD21R,3.800000X2.000000*%
%ADD22R,1.550000X0.600000*%
%ADD23R,4.500000X2.500000*%
%ADD24O,4.500000X2.500000*%
G04 APERTURE END LIST*
D10*
X93500000Y-37750000D03*
D11*
X90960000Y-37750000D03*
X88420000Y-37750000D03*
D10*
X55300000Y-56200000D03*
D11*
X55300000Y-53660000D03*
D12*
X50050000Y-35440000D03*
X50050000Y-42560000D03*
D13*
X47600000Y-52500000D03*
X47600000Y-57500000D03*
D14*
X44850000Y-58875000D03*
D15*
X48650000Y-58725000D03*
X48650000Y-51275000D03*
D14*
X44850000Y-51125000D03*
D12*
X168500000Y-36440000D03*
X168500000Y-43560000D03*
X168500000Y-50440000D03*
X168500000Y-57560000D03*
D16*
X76212500Y-59250000D03*
X77787500Y-59250000D03*
X72962500Y-59250000D03*
X74537500Y-59250000D03*
X65762500Y-51250000D03*
X67337500Y-51250000D03*
D17*
X61500000Y-56387500D03*
X61500000Y-54812500D03*
X63050000Y-56387500D03*
X63050000Y-54812500D03*
D18*
X66800000Y-39412500D03*
X66800000Y-40987500D03*
D19*
X67337500Y-48150000D03*
X65762500Y-48150000D03*
D17*
X67700000Y-56387500D03*
X67700000Y-54812500D03*
D19*
X67337500Y-49700000D03*
X65762500Y-49700000D03*
D18*
X61200000Y-49562500D03*
X61200000Y-51137500D03*
D17*
X66150000Y-56387500D03*
X66150000Y-54812500D03*
D18*
X59650000Y-49562500D03*
X59650000Y-51137500D03*
D19*
X61537500Y-53300000D03*
X59962500Y-53300000D03*
D17*
X164250000Y-41537500D03*
X164250000Y-39962500D03*
D20*
X77811079Y-56914277D03*
X75511079Y-56914277D03*
D21*
X75511079Y-50614277D03*
D20*
X73211079Y-56914277D03*
D22*
X157050000Y-37905000D03*
X157050000Y-36635000D03*
X157050000Y-35365000D03*
X157050000Y-34095000D03*
X162450000Y-34095000D03*
X162450000Y-35365000D03*
X162450000Y-36635000D03*
X162450000Y-37905000D03*
D18*
X71000000Y-38712500D03*
X71000000Y-40287500D03*
D23*
X160750000Y-41550000D03*
D24*
X160750000Y-47000000D03*
X160750000Y-52450000D03*
M02*
