G04 #@! TF.GenerationSoftware,KiCad,Pcbnew,5.0.2-bee76a0~70~ubuntu18.04.1*
G04 #@! TF.CreationDate,2019-10-29T17:05:40+01:00*
G04 #@! TF.ProjectId,emfi,656d6669-2e6b-4696-9361-645f70636258,0.1*
G04 #@! TF.SameCoordinates,Original*
G04 #@! TF.FileFunction,Legend,Top*
G04 #@! TF.FilePolarity,Positive*
%FSLAX46Y46*%
G04 Gerber Fmt 4.6, Leading zero omitted, Abs format (unit mm)*
G04 Created by KiCad (PCBNEW 5.0.2-bee76a0~70~ubuntu18.04.1) date mar. 29 oct. 2019 17:05:40 CET*
%MOMM*%
%LPD*%
G01*
G04 APERTURE LIST*
%ADD10C,0.300000*%
%ADD11C,0.125000*%
%ADD12C,0.120000*%
%ADD13C,0.010000*%
%ADD14C,0.150000*%
G04 APERTURE END LIST*
D10*
X157250000Y-61653571D02*
X157250000Y-60153571D01*
X157607142Y-60153571D01*
X157821428Y-60225000D01*
X157964285Y-60367857D01*
X158035714Y-60510714D01*
X158107142Y-60796428D01*
X158107142Y-61010714D01*
X158035714Y-61296428D01*
X157964285Y-61439285D01*
X157821428Y-61582142D01*
X157607142Y-61653571D01*
X157250000Y-61653571D01*
X158678571Y-61225000D02*
X159392857Y-61225000D01*
X158535714Y-61653571D02*
X159035714Y-60153571D01*
X159535714Y-61653571D01*
X160035714Y-61653571D02*
X160035714Y-60153571D01*
X160892857Y-61653571D01*
X160892857Y-60153571D01*
X162392857Y-60225000D02*
X162250000Y-60153571D01*
X162035714Y-60153571D01*
X161821428Y-60225000D01*
X161678571Y-60367857D01*
X161607142Y-60510714D01*
X161535714Y-60796428D01*
X161535714Y-61010714D01*
X161607142Y-61296428D01*
X161678571Y-61439285D01*
X161821428Y-61582142D01*
X162035714Y-61653571D01*
X162178571Y-61653571D01*
X162392857Y-61582142D01*
X162464285Y-61510714D01*
X162464285Y-61010714D01*
X162178571Y-61010714D01*
X163107142Y-60867857D02*
X163607142Y-60867857D01*
X163821428Y-61653571D02*
X163107142Y-61653571D01*
X163107142Y-60153571D01*
X163821428Y-60153571D01*
X165321428Y-61653571D02*
X164821428Y-60939285D01*
X164464285Y-61653571D02*
X164464285Y-60153571D01*
X165035714Y-60153571D01*
X165178571Y-60225000D01*
X165250000Y-60296428D01*
X165321428Y-60439285D01*
X165321428Y-60653571D01*
X165250000Y-60796428D01*
X165178571Y-60867857D01*
X165035714Y-60939285D01*
X164464285Y-60939285D01*
X153678571Y-64203571D02*
X153678571Y-62703571D01*
X153678571Y-63417857D02*
X154535714Y-63417857D01*
X154535714Y-64203571D02*
X154535714Y-62703571D01*
X155250000Y-64203571D02*
X155250000Y-62703571D01*
X156750000Y-62775000D02*
X156607142Y-62703571D01*
X156392857Y-62703571D01*
X156178571Y-62775000D01*
X156035714Y-62917857D01*
X155964285Y-63060714D01*
X155892857Y-63346428D01*
X155892857Y-63560714D01*
X155964285Y-63846428D01*
X156035714Y-63989285D01*
X156178571Y-64132142D01*
X156392857Y-64203571D01*
X156535714Y-64203571D01*
X156750000Y-64132142D01*
X156821428Y-64060714D01*
X156821428Y-63560714D01*
X156535714Y-63560714D01*
X157464285Y-64203571D02*
X157464285Y-62703571D01*
X157464285Y-63417857D02*
X158321428Y-63417857D01*
X158321428Y-64203571D02*
X158321428Y-62703571D01*
X159964285Y-62703571D02*
X160464285Y-64203571D01*
X160964285Y-62703571D01*
X161750000Y-62703571D02*
X162035714Y-62703571D01*
X162178571Y-62775000D01*
X162321428Y-62917857D01*
X162392857Y-63203571D01*
X162392857Y-63703571D01*
X162321428Y-63989285D01*
X162178571Y-64132142D01*
X162035714Y-64203571D01*
X161750000Y-64203571D01*
X161607142Y-64132142D01*
X161464285Y-63989285D01*
X161392857Y-63703571D01*
X161392857Y-63203571D01*
X161464285Y-62917857D01*
X161607142Y-62775000D01*
X161750000Y-62703571D01*
X163750000Y-64203571D02*
X163035714Y-64203571D01*
X163035714Y-62703571D01*
X164035714Y-62703571D02*
X164892857Y-62703571D01*
X164464285Y-64203571D02*
X164464285Y-62703571D01*
X165321428Y-63775000D02*
X166035714Y-63775000D01*
X165178571Y-64203571D02*
X165678571Y-62703571D01*
X166178571Y-64203571D01*
X167464285Y-62775000D02*
X167321428Y-62703571D01*
X167107142Y-62703571D01*
X166892857Y-62775000D01*
X166750000Y-62917857D01*
X166678571Y-63060714D01*
X166607142Y-63346428D01*
X166607142Y-63560714D01*
X166678571Y-63846428D01*
X166750000Y-63989285D01*
X166892857Y-64132142D01*
X167107142Y-64203571D01*
X167250000Y-64203571D01*
X167464285Y-64132142D01*
X167535714Y-64060714D01*
X167535714Y-63560714D01*
X167250000Y-63560714D01*
X168178571Y-63417857D02*
X168678571Y-63417857D01*
X168892857Y-64203571D02*
X168178571Y-64203571D01*
X168178571Y-62703571D01*
X168892857Y-62703571D01*
X99500000Y-31403571D02*
X99500000Y-29903571D01*
X99857142Y-29903571D01*
X100071428Y-29975000D01*
X100214285Y-30117857D01*
X100285714Y-30260714D01*
X100357142Y-30546428D01*
X100357142Y-30760714D01*
X100285714Y-31046428D01*
X100214285Y-31189285D01*
X100071428Y-31332142D01*
X99857142Y-31403571D01*
X99500000Y-31403571D01*
X100928571Y-30975000D02*
X101642857Y-30975000D01*
X100785714Y-31403571D02*
X101285714Y-29903571D01*
X101785714Y-31403571D01*
X102285714Y-31403571D02*
X102285714Y-29903571D01*
X103142857Y-31403571D01*
X103142857Y-29903571D01*
X104642857Y-29975000D02*
X104500000Y-29903571D01*
X104285714Y-29903571D01*
X104071428Y-29975000D01*
X103928571Y-30117857D01*
X103857142Y-30260714D01*
X103785714Y-30546428D01*
X103785714Y-30760714D01*
X103857142Y-31046428D01*
X103928571Y-31189285D01*
X104071428Y-31332142D01*
X104285714Y-31403571D01*
X104428571Y-31403571D01*
X104642857Y-31332142D01*
X104714285Y-31260714D01*
X104714285Y-30760714D01*
X104428571Y-30760714D01*
X105357142Y-30617857D02*
X105857142Y-30617857D01*
X106071428Y-31403571D02*
X105357142Y-31403571D01*
X105357142Y-29903571D01*
X106071428Y-29903571D01*
X107571428Y-31403571D02*
X107071428Y-30689285D01*
X106714285Y-31403571D02*
X106714285Y-29903571D01*
X107285714Y-29903571D01*
X107428571Y-29975000D01*
X107500000Y-30046428D01*
X107571428Y-30189285D01*
X107571428Y-30403571D01*
X107500000Y-30546428D01*
X107428571Y-30617857D01*
X107285714Y-30689285D01*
X106714285Y-30689285D01*
X95928571Y-33953571D02*
X95928571Y-32453571D01*
X95928571Y-33167857D02*
X96785714Y-33167857D01*
X96785714Y-33953571D02*
X96785714Y-32453571D01*
X97500000Y-33953571D02*
X97500000Y-32453571D01*
X99000000Y-32525000D02*
X98857142Y-32453571D01*
X98642857Y-32453571D01*
X98428571Y-32525000D01*
X98285714Y-32667857D01*
X98214285Y-32810714D01*
X98142857Y-33096428D01*
X98142857Y-33310714D01*
X98214285Y-33596428D01*
X98285714Y-33739285D01*
X98428571Y-33882142D01*
X98642857Y-33953571D01*
X98785714Y-33953571D01*
X99000000Y-33882142D01*
X99071428Y-33810714D01*
X99071428Y-33310714D01*
X98785714Y-33310714D01*
X99714285Y-33953571D02*
X99714285Y-32453571D01*
X99714285Y-33167857D02*
X100571428Y-33167857D01*
X100571428Y-33953571D02*
X100571428Y-32453571D01*
X102214285Y-32453571D02*
X102714285Y-33953571D01*
X103214285Y-32453571D01*
X104000000Y-32453571D02*
X104285714Y-32453571D01*
X104428571Y-32525000D01*
X104571428Y-32667857D01*
X104642857Y-32953571D01*
X104642857Y-33453571D01*
X104571428Y-33739285D01*
X104428571Y-33882142D01*
X104285714Y-33953571D01*
X104000000Y-33953571D01*
X103857142Y-33882142D01*
X103714285Y-33739285D01*
X103642857Y-33453571D01*
X103642857Y-32953571D01*
X103714285Y-32667857D01*
X103857142Y-32525000D01*
X104000000Y-32453571D01*
X106000000Y-33953571D02*
X105285714Y-33953571D01*
X105285714Y-32453571D01*
X106285714Y-32453571D02*
X107142857Y-32453571D01*
X106714285Y-33953571D02*
X106714285Y-32453571D01*
X107571428Y-33525000D02*
X108285714Y-33525000D01*
X107428571Y-33953571D02*
X107928571Y-32453571D01*
X108428571Y-33953571D01*
X109714285Y-32525000D02*
X109571428Y-32453571D01*
X109357142Y-32453571D01*
X109142857Y-32525000D01*
X109000000Y-32667857D01*
X108928571Y-32810714D01*
X108857142Y-33096428D01*
X108857142Y-33310714D01*
X108928571Y-33596428D01*
X109000000Y-33739285D01*
X109142857Y-33882142D01*
X109357142Y-33953571D01*
X109500000Y-33953571D01*
X109714285Y-33882142D01*
X109785714Y-33810714D01*
X109785714Y-33310714D01*
X109500000Y-33310714D01*
X110428571Y-33167857D02*
X110928571Y-33167857D01*
X111142857Y-33953571D02*
X110428571Y-33953571D01*
X110428571Y-32453571D01*
X111142857Y-32453571D01*
X99500000Y-61653571D02*
X99500000Y-60153571D01*
X99857142Y-60153571D01*
X100071428Y-60225000D01*
X100214285Y-60367857D01*
X100285714Y-60510714D01*
X100357142Y-60796428D01*
X100357142Y-61010714D01*
X100285714Y-61296428D01*
X100214285Y-61439285D01*
X100071428Y-61582142D01*
X99857142Y-61653571D01*
X99500000Y-61653571D01*
X100928571Y-61225000D02*
X101642857Y-61225000D01*
X100785714Y-61653571D02*
X101285714Y-60153571D01*
X101785714Y-61653571D01*
X102285714Y-61653571D02*
X102285714Y-60153571D01*
X103142857Y-61653571D01*
X103142857Y-60153571D01*
X104642857Y-60225000D02*
X104500000Y-60153571D01*
X104285714Y-60153571D01*
X104071428Y-60225000D01*
X103928571Y-60367857D01*
X103857142Y-60510714D01*
X103785714Y-60796428D01*
X103785714Y-61010714D01*
X103857142Y-61296428D01*
X103928571Y-61439285D01*
X104071428Y-61582142D01*
X104285714Y-61653571D01*
X104428571Y-61653571D01*
X104642857Y-61582142D01*
X104714285Y-61510714D01*
X104714285Y-61010714D01*
X104428571Y-61010714D01*
X105357142Y-60867857D02*
X105857142Y-60867857D01*
X106071428Y-61653571D02*
X105357142Y-61653571D01*
X105357142Y-60153571D01*
X106071428Y-60153571D01*
X107571428Y-61653571D02*
X107071428Y-60939285D01*
X106714285Y-61653571D02*
X106714285Y-60153571D01*
X107285714Y-60153571D01*
X107428571Y-60225000D01*
X107500000Y-60296428D01*
X107571428Y-60439285D01*
X107571428Y-60653571D01*
X107500000Y-60796428D01*
X107428571Y-60867857D01*
X107285714Y-60939285D01*
X106714285Y-60939285D01*
X95928571Y-64203571D02*
X95928571Y-62703571D01*
X95928571Y-63417857D02*
X96785714Y-63417857D01*
X96785714Y-64203571D02*
X96785714Y-62703571D01*
X97500000Y-64203571D02*
X97500000Y-62703571D01*
X99000000Y-62775000D02*
X98857142Y-62703571D01*
X98642857Y-62703571D01*
X98428571Y-62775000D01*
X98285714Y-62917857D01*
X98214285Y-63060714D01*
X98142857Y-63346428D01*
X98142857Y-63560714D01*
X98214285Y-63846428D01*
X98285714Y-63989285D01*
X98428571Y-64132142D01*
X98642857Y-64203571D01*
X98785714Y-64203571D01*
X99000000Y-64132142D01*
X99071428Y-64060714D01*
X99071428Y-63560714D01*
X98785714Y-63560714D01*
X99714285Y-64203571D02*
X99714285Y-62703571D01*
X99714285Y-63417857D02*
X100571428Y-63417857D01*
X100571428Y-64203571D02*
X100571428Y-62703571D01*
X102214285Y-62703571D02*
X102714285Y-64203571D01*
X103214285Y-62703571D01*
X104000000Y-62703571D02*
X104285714Y-62703571D01*
X104428571Y-62775000D01*
X104571428Y-62917857D01*
X104642857Y-63203571D01*
X104642857Y-63703571D01*
X104571428Y-63989285D01*
X104428571Y-64132142D01*
X104285714Y-64203571D01*
X104000000Y-64203571D01*
X103857142Y-64132142D01*
X103714285Y-63989285D01*
X103642857Y-63703571D01*
X103642857Y-63203571D01*
X103714285Y-62917857D01*
X103857142Y-62775000D01*
X104000000Y-62703571D01*
X106000000Y-64203571D02*
X105285714Y-64203571D01*
X105285714Y-62703571D01*
X106285714Y-62703571D02*
X107142857Y-62703571D01*
X106714285Y-64203571D02*
X106714285Y-62703571D01*
X107571428Y-63775000D02*
X108285714Y-63775000D01*
X107428571Y-64203571D02*
X107928571Y-62703571D01*
X108428571Y-64203571D01*
X109714285Y-62775000D02*
X109571428Y-62703571D01*
X109357142Y-62703571D01*
X109142857Y-62775000D01*
X109000000Y-62917857D01*
X108928571Y-63060714D01*
X108857142Y-63346428D01*
X108857142Y-63560714D01*
X108928571Y-63846428D01*
X109000000Y-63989285D01*
X109142857Y-64132142D01*
X109357142Y-64203571D01*
X109500000Y-64203571D01*
X109714285Y-64132142D01*
X109785714Y-64060714D01*
X109785714Y-63560714D01*
X109500000Y-63560714D01*
X110428571Y-63417857D02*
X110928571Y-63417857D01*
X111142857Y-64203571D02*
X110428571Y-64203571D01*
X110428571Y-62703571D01*
X111142857Y-62703571D01*
X45464285Y-32107142D02*
X45678571Y-32178571D01*
X46035714Y-32178571D01*
X46178571Y-32107142D01*
X46250000Y-32035714D01*
X46321428Y-31892857D01*
X46321428Y-31750000D01*
X46250000Y-31607142D01*
X46178571Y-31535714D01*
X46035714Y-31464285D01*
X45750000Y-31392857D01*
X45607142Y-31321428D01*
X45535714Y-31250000D01*
X45464285Y-31107142D01*
X45464285Y-30964285D01*
X45535714Y-30821428D01*
X45607142Y-30750000D01*
X45750000Y-30678571D01*
X46107142Y-30678571D01*
X46321428Y-30750000D01*
X46964285Y-32178571D02*
X46964285Y-31178571D01*
X46964285Y-30678571D02*
X46892857Y-30750000D01*
X46964285Y-30821428D01*
X47035714Y-30750000D01*
X46964285Y-30678571D01*
X46964285Y-30821428D01*
X47892857Y-32178571D02*
X47750000Y-32107142D01*
X47678571Y-31964285D01*
X47678571Y-30678571D01*
X48464285Y-32178571D02*
X48464285Y-31178571D01*
X48464285Y-30678571D02*
X48392857Y-30750000D01*
X48464285Y-30821428D01*
X48535714Y-30750000D01*
X48464285Y-30678571D01*
X48464285Y-30821428D01*
X49821428Y-32107142D02*
X49678571Y-32178571D01*
X49392857Y-32178571D01*
X49250000Y-32107142D01*
X49178571Y-32035714D01*
X49107142Y-31892857D01*
X49107142Y-31464285D01*
X49178571Y-31321428D01*
X49250000Y-31250000D01*
X49392857Y-31178571D01*
X49678571Y-31178571D01*
X49821428Y-31250000D01*
X50678571Y-32178571D02*
X50535714Y-32107142D01*
X50464285Y-32035714D01*
X50392857Y-31892857D01*
X50392857Y-31464285D01*
X50464285Y-31321428D01*
X50535714Y-31250000D01*
X50678571Y-31178571D01*
X50892857Y-31178571D01*
X51035714Y-31250000D01*
X51107142Y-31321428D01*
X51178571Y-31464285D01*
X51178571Y-31892857D01*
X51107142Y-32035714D01*
X51035714Y-32107142D01*
X50892857Y-32178571D01*
X50678571Y-32178571D01*
X51821428Y-31178571D02*
X51821428Y-32178571D01*
X51821428Y-31321428D02*
X51892857Y-31250000D01*
X52035714Y-31178571D01*
X52250000Y-31178571D01*
X52392857Y-31250000D01*
X52464285Y-31392857D01*
X52464285Y-32178571D01*
X52964285Y-30678571D02*
X53821428Y-30678571D01*
X53392857Y-32178571D02*
X53392857Y-30678571D01*
X54535714Y-32178571D02*
X54392857Y-32107142D01*
X54321428Y-32035714D01*
X54250000Y-31892857D01*
X54250000Y-31464285D01*
X54321428Y-31321428D01*
X54392857Y-31250000D01*
X54535714Y-31178571D01*
X54750000Y-31178571D01*
X54892857Y-31250000D01*
X54964285Y-31321428D01*
X55035714Y-31464285D01*
X55035714Y-31892857D01*
X54964285Y-32035714D01*
X54892857Y-32107142D01*
X54750000Y-32178571D01*
X54535714Y-32178571D01*
X56321428Y-32178571D02*
X56321428Y-31392857D01*
X56250000Y-31250000D01*
X56107142Y-31178571D01*
X55821428Y-31178571D01*
X55678571Y-31250000D01*
X56321428Y-32107142D02*
X56178571Y-32178571D01*
X55821428Y-32178571D01*
X55678571Y-32107142D01*
X55607142Y-31964285D01*
X55607142Y-31821428D01*
X55678571Y-31678571D01*
X55821428Y-31607142D01*
X56178571Y-31607142D01*
X56321428Y-31535714D01*
X56964285Y-32107142D02*
X57107142Y-32178571D01*
X57392857Y-32178571D01*
X57535714Y-32107142D01*
X57607142Y-31964285D01*
X57607142Y-31892857D01*
X57535714Y-31750000D01*
X57392857Y-31678571D01*
X57178571Y-31678571D01*
X57035714Y-31607142D01*
X56964285Y-31464285D01*
X56964285Y-31392857D01*
X57035714Y-31250000D01*
X57178571Y-31178571D01*
X57392857Y-31178571D01*
X57535714Y-31250000D01*
X58035714Y-31178571D02*
X58607142Y-31178571D01*
X58250000Y-30678571D02*
X58250000Y-31964285D01*
X58321428Y-32107142D01*
X58464285Y-32178571D01*
X58607142Y-32178571D01*
X59678571Y-32107142D02*
X59535714Y-32178571D01*
X59250000Y-32178571D01*
X59107142Y-32107142D01*
X59035714Y-31964285D01*
X59035714Y-31392857D01*
X59107142Y-31250000D01*
X59250000Y-31178571D01*
X59535714Y-31178571D01*
X59678571Y-31250000D01*
X59750000Y-31392857D01*
X59750000Y-31535714D01*
X59035714Y-31678571D01*
X60392857Y-32178571D02*
X60392857Y-31178571D01*
X60392857Y-31464285D02*
X60464285Y-31321428D01*
X60535714Y-31250000D01*
X60678571Y-31178571D01*
X60821428Y-31178571D01*
X62321428Y-31178571D02*
X62678571Y-32178571D01*
X63035714Y-31178571D01*
X63892857Y-30678571D02*
X64035714Y-30678571D01*
X64178571Y-30750000D01*
X64250000Y-30821428D01*
X64321428Y-30964285D01*
X64392857Y-31250000D01*
X64392857Y-31607142D01*
X64321428Y-31892857D01*
X64250000Y-32035714D01*
X64178571Y-32107142D01*
X64035714Y-32178571D01*
X63892857Y-32178571D01*
X63750000Y-32107142D01*
X63678571Y-32035714D01*
X63607142Y-31892857D01*
X63535714Y-31607142D01*
X63535714Y-31250000D01*
X63607142Y-30964285D01*
X63678571Y-30821428D01*
X63750000Y-30750000D01*
X63892857Y-30678571D01*
X65035714Y-32035714D02*
X65107142Y-32107142D01*
X65035714Y-32178571D01*
X64964285Y-32107142D01*
X65035714Y-32035714D01*
X65035714Y-32178571D01*
X66535714Y-32178571D02*
X65678571Y-32178571D01*
X66107142Y-32178571D02*
X66107142Y-30678571D01*
X65964285Y-30892857D01*
X65821428Y-31035714D01*
X65678571Y-31107142D01*
D11*
X111500000Y-51750000D02*
X107250000Y-51750000D01*
X111500000Y-54000000D02*
X111500000Y-51750000D01*
X115750000Y-54000000D02*
X111500000Y-54000000D01*
D12*
G04 #@! TO.C,U4*
X78910000Y-51840000D02*
X77650000Y-51840000D01*
X72090000Y-51840000D02*
X73350000Y-51840000D01*
X78910000Y-55600000D02*
X78910000Y-51840000D01*
X72090000Y-57850000D02*
X72090000Y-51840000D01*
G04 #@! TO.C,C42*
X55087221Y-35990000D02*
X55412779Y-35990000D01*
X55087221Y-37010000D02*
X55412779Y-37010000D01*
G04 #@! TO.C,U8*
X55950000Y-37840000D02*
X54050000Y-37840000D01*
X54550000Y-40160000D02*
X55950000Y-40160000D01*
G04 #@! TO.C,D9*
X155600000Y-32350000D02*
X155600000Y-35650000D01*
X155600000Y-35650000D02*
X162500000Y-35650000D01*
X155600000Y-32350000D02*
X162500000Y-32350000D01*
D13*
G04 #@! TO.C,LOGO1*
G36*
X54394903Y-61500000D02*
X56395600Y-61500000D01*
X56395367Y-61534925D01*
X56390507Y-61562166D01*
X56377722Y-61605083D01*
X56359371Y-61656130D01*
X56350727Y-61677800D01*
X56263797Y-61858814D01*
X56152773Y-62038665D01*
X56018949Y-62215510D01*
X55863621Y-62387504D01*
X55824906Y-62426266D01*
X55617539Y-62612391D01*
X55393433Y-62779996D01*
X55153902Y-62928430D01*
X54900262Y-63057039D01*
X54633827Y-63165169D01*
X54355914Y-63252167D01*
X54067836Y-63317381D01*
X54010293Y-63327553D01*
X53957730Y-63335444D01*
X53892725Y-63343700D01*
X53819507Y-63351950D01*
X53742307Y-63359819D01*
X53665353Y-63366935D01*
X53592876Y-63372926D01*
X53529106Y-63377417D01*
X53478272Y-63380037D01*
X53444605Y-63380412D01*
X53432462Y-63378502D01*
X53425787Y-63366767D01*
X53407936Y-63334801D01*
X53380016Y-63284605D01*
X53343134Y-63218180D01*
X53298398Y-63137528D01*
X53246914Y-63044649D01*
X53189790Y-62941545D01*
X53128133Y-62830217D01*
X53063050Y-62712667D01*
X52995649Y-62590894D01*
X52927037Y-62466902D01*
X52858320Y-62342689D01*
X52790607Y-62220259D01*
X52725004Y-62101612D01*
X52662619Y-61988749D01*
X52604559Y-61883672D01*
X52551931Y-61788382D01*
X52505842Y-61704879D01*
X52467400Y-61635165D01*
X52437711Y-61581241D01*
X52417884Y-61545109D01*
X52409025Y-61528770D01*
X52408924Y-61528575D01*
X52394206Y-61500001D01*
X54394903Y-61500000D01*
X54394903Y-61500000D01*
G37*
X54394903Y-61500000D02*
X56395600Y-61500000D01*
X56395367Y-61534925D01*
X56390507Y-61562166D01*
X56377722Y-61605083D01*
X56359371Y-61656130D01*
X56350727Y-61677800D01*
X56263797Y-61858814D01*
X56152773Y-62038665D01*
X56018949Y-62215510D01*
X55863621Y-62387504D01*
X55824906Y-62426266D01*
X55617539Y-62612391D01*
X55393433Y-62779996D01*
X55153902Y-62928430D01*
X54900262Y-63057039D01*
X54633827Y-63165169D01*
X54355914Y-63252167D01*
X54067836Y-63317381D01*
X54010293Y-63327553D01*
X53957730Y-63335444D01*
X53892725Y-63343700D01*
X53819507Y-63351950D01*
X53742307Y-63359819D01*
X53665353Y-63366935D01*
X53592876Y-63372926D01*
X53529106Y-63377417D01*
X53478272Y-63380037D01*
X53444605Y-63380412D01*
X53432462Y-63378502D01*
X53425787Y-63366767D01*
X53407936Y-63334801D01*
X53380016Y-63284605D01*
X53343134Y-63218180D01*
X53298398Y-63137528D01*
X53246914Y-63044649D01*
X53189790Y-62941545D01*
X53128133Y-62830217D01*
X53063050Y-62712667D01*
X52995649Y-62590894D01*
X52927037Y-62466902D01*
X52858320Y-62342689D01*
X52790607Y-62220259D01*
X52725004Y-62101612D01*
X52662619Y-61988749D01*
X52604559Y-61883672D01*
X52551931Y-61788382D01*
X52505842Y-61704879D01*
X52467400Y-61635165D01*
X52437711Y-61581241D01*
X52417884Y-61545109D01*
X52409025Y-61528770D01*
X52408924Y-61528575D01*
X52394206Y-61500001D01*
X54394903Y-61500000D01*
G36*
X53844237Y-60585764D02*
X53871905Y-60525522D01*
X53918017Y-60466822D01*
X53981291Y-60412417D01*
X54060447Y-60365057D01*
X54064000Y-60363312D01*
X54114309Y-60340961D01*
X54164025Y-60324316D01*
X54217688Y-60312807D01*
X54279840Y-60305867D01*
X54355022Y-60302924D01*
X54447775Y-60303410D01*
X54525290Y-60305475D01*
X54744130Y-60312550D01*
X54509650Y-60829200D01*
X54262000Y-60823284D01*
X54162088Y-60820216D01*
X54083805Y-60815860D01*
X54023388Y-60809467D01*
X53977070Y-60800290D01*
X53941087Y-60787578D01*
X53911674Y-60770583D01*
X53885067Y-60748556D01*
X53884716Y-60748227D01*
X53849361Y-60699868D01*
X53836296Y-60644796D01*
X53844237Y-60585764D01*
X53844237Y-60585764D01*
G37*
X53844237Y-60585764D02*
X53871905Y-60525522D01*
X53918017Y-60466822D01*
X53981291Y-60412417D01*
X54060447Y-60365057D01*
X54064000Y-60363312D01*
X54114309Y-60340961D01*
X54164025Y-60324316D01*
X54217688Y-60312807D01*
X54279840Y-60305867D01*
X54355022Y-60302924D01*
X54447775Y-60303410D01*
X54525290Y-60305475D01*
X54744130Y-60312550D01*
X54509650Y-60829200D01*
X54262000Y-60823284D01*
X54162088Y-60820216D01*
X54083805Y-60815860D01*
X54023388Y-60809467D01*
X53977070Y-60800290D01*
X53941087Y-60787578D01*
X53911674Y-60770583D01*
X53885067Y-60748556D01*
X53884716Y-60748227D01*
X53849361Y-60699868D01*
X53836296Y-60644796D01*
X53844237Y-60585764D01*
G36*
X51893073Y-61474230D02*
X51910307Y-61441499D01*
X51937772Y-61390286D01*
X51974440Y-61322462D01*
X52019283Y-61239903D01*
X52071270Y-61144480D01*
X52129374Y-61038067D01*
X52192565Y-60922537D01*
X52259815Y-60799763D01*
X52330094Y-60671619D01*
X52402375Y-60539977D01*
X52475627Y-60406711D01*
X52548822Y-60273694D01*
X52620932Y-60142798D01*
X52690927Y-60015898D01*
X52757778Y-59894866D01*
X52820457Y-59781576D01*
X52877935Y-59677901D01*
X52929183Y-59585713D01*
X52973172Y-59506886D01*
X53008873Y-59443293D01*
X53027241Y-59410850D01*
X53051960Y-59370179D01*
X53073009Y-59340552D01*
X53086764Y-59326919D01*
X53088887Y-59326672D01*
X53102744Y-59336646D01*
X53131041Y-59359767D01*
X53169994Y-59392720D01*
X53215820Y-59432186D01*
X53264737Y-59474849D01*
X53312961Y-59517391D01*
X53356708Y-59556496D01*
X53392195Y-59588847D01*
X53415640Y-59611125D01*
X53423320Y-59619894D01*
X53417221Y-59631782D01*
X53399674Y-59664228D01*
X53371584Y-59715599D01*
X53333853Y-59784256D01*
X53287385Y-59868566D01*
X53233082Y-59966891D01*
X53171848Y-60077595D01*
X53104586Y-60199044D01*
X53032199Y-60329600D01*
X52955591Y-60467629D01*
X52904170Y-60560200D01*
X52385500Y-61493650D01*
X52136300Y-61497094D01*
X52041004Y-61497867D01*
X51969762Y-61497172D01*
X51921267Y-61494953D01*
X51894213Y-61491156D01*
X51887100Y-61486606D01*
X51893073Y-61474230D01*
X51893073Y-61474230D01*
G37*
X51893073Y-61474230D02*
X51910307Y-61441499D01*
X51937772Y-61390286D01*
X51974440Y-61322462D01*
X52019283Y-61239903D01*
X52071270Y-61144480D01*
X52129374Y-61038067D01*
X52192565Y-60922537D01*
X52259815Y-60799763D01*
X52330094Y-60671619D01*
X52402375Y-60539977D01*
X52475627Y-60406711D01*
X52548822Y-60273694D01*
X52620932Y-60142798D01*
X52690927Y-60015898D01*
X52757778Y-59894866D01*
X52820457Y-59781576D01*
X52877935Y-59677901D01*
X52929183Y-59585713D01*
X52973172Y-59506886D01*
X53008873Y-59443293D01*
X53027241Y-59410850D01*
X53051960Y-59370179D01*
X53073009Y-59340552D01*
X53086764Y-59326919D01*
X53088887Y-59326672D01*
X53102744Y-59336646D01*
X53131041Y-59359767D01*
X53169994Y-59392720D01*
X53215820Y-59432186D01*
X53264737Y-59474849D01*
X53312961Y-59517391D01*
X53356708Y-59556496D01*
X53392195Y-59588847D01*
X53415640Y-59611125D01*
X53423320Y-59619894D01*
X53417221Y-59631782D01*
X53399674Y-59664228D01*
X53371584Y-59715599D01*
X53333853Y-59784256D01*
X53287385Y-59868566D01*
X53233082Y-59966891D01*
X53171848Y-60077595D01*
X53104586Y-60199044D01*
X53032199Y-60329600D01*
X52955591Y-60467629D01*
X52904170Y-60560200D01*
X52385500Y-61493650D01*
X52136300Y-61497094D01*
X52041004Y-61497867D01*
X51969762Y-61497172D01*
X51921267Y-61494953D01*
X51894213Y-61491156D01*
X51887100Y-61486606D01*
X51893073Y-61474230D01*
G36*
X51231167Y-61503057D02*
X51355854Y-61502598D01*
X51472775Y-61502532D01*
X51579484Y-61502833D01*
X51673533Y-61503478D01*
X51752476Y-61504443D01*
X51813865Y-61505702D01*
X51855253Y-61507234D01*
X51874194Y-61509012D01*
X51875084Y-61509407D01*
X51882460Y-61521845D01*
X51901037Y-61554681D01*
X51929787Y-61606052D01*
X51967683Y-61674092D01*
X52013696Y-61756937D01*
X52066799Y-61852724D01*
X52125964Y-61959588D01*
X52190163Y-62075665D01*
X52258368Y-62199091D01*
X52329552Y-62328001D01*
X52402686Y-62460532D01*
X52476743Y-62594818D01*
X52550695Y-62728997D01*
X52623514Y-62861203D01*
X52694173Y-62989572D01*
X52761642Y-63112241D01*
X52824896Y-63227345D01*
X52882905Y-63333019D01*
X52934642Y-63427400D01*
X52979080Y-63508624D01*
X53015189Y-63574825D01*
X53041943Y-63624141D01*
X53058314Y-63654706D01*
X53063259Y-63664444D01*
X53063098Y-63669006D01*
X53057468Y-63672823D01*
X53044350Y-63675959D01*
X53021727Y-63678481D01*
X52987582Y-63680453D01*
X52939897Y-63681941D01*
X52876656Y-63683009D01*
X52795841Y-63683724D01*
X52695434Y-63684151D01*
X52573419Y-63684354D01*
X52446681Y-63684400D01*
X51822445Y-63684400D01*
X51794058Y-63655825D01*
X51777818Y-63634545D01*
X51753614Y-63596795D01*
X51724078Y-63547346D01*
X51691842Y-63490969D01*
X51659539Y-63432435D01*
X51629801Y-63376514D01*
X51605260Y-63327978D01*
X51588549Y-63291596D01*
X51582300Y-63272140D01*
X51582299Y-63272041D01*
X51585402Y-63264760D01*
X51596988Y-63259519D01*
X51620475Y-63255999D01*
X51659279Y-63253884D01*
X51716819Y-63252857D01*
X51791850Y-63252600D01*
X51861588Y-63252150D01*
X51921496Y-63250902D01*
X51967389Y-63249015D01*
X51995081Y-63246645D01*
X52001400Y-63244729D01*
X51995564Y-63231652D01*
X51979314Y-63199910D01*
X51954532Y-63153059D01*
X51923102Y-63094659D01*
X51886908Y-63028266D01*
X51883925Y-63022827D01*
X51766450Y-62808797D01*
X51556550Y-62808449D01*
X51472819Y-62807787D01*
X51410957Y-62805933D01*
X51367452Y-62802607D01*
X51338789Y-62797527D01*
X51321455Y-62790414D01*
X51320205Y-62789577D01*
X51304339Y-62771763D01*
X51280640Y-62736939D01*
X51251600Y-62689671D01*
X51219710Y-62634523D01*
X51187461Y-62576059D01*
X51157344Y-62518844D01*
X51131851Y-62467443D01*
X51113472Y-62426421D01*
X51104699Y-62400340D01*
X51104605Y-62394534D01*
X51111742Y-62387483D01*
X51129162Y-62382436D01*
X51160263Y-62379098D01*
X51208443Y-62377176D01*
X51277101Y-62376374D01*
X51315201Y-62376300D01*
X51383831Y-62375740D01*
X51442523Y-62374190D01*
X51487046Y-62371850D01*
X51513167Y-62368917D01*
X51518273Y-62366775D01*
X51512175Y-62353198D01*
X51495522Y-62321117D01*
X51470255Y-62274142D01*
X51438317Y-62215881D01*
X51401649Y-62149945D01*
X51400392Y-62147700D01*
X51283037Y-61938150D01*
X51064781Y-61931800D01*
X50981898Y-61928988D01*
X50920832Y-61925811D01*
X50877999Y-61921866D01*
X50849816Y-61916752D01*
X50832699Y-61910067D01*
X50826143Y-61905028D01*
X50813372Y-61887438D01*
X50790954Y-61851705D01*
X50761381Y-61801998D01*
X50727147Y-61742485D01*
X50700776Y-61695478D01*
X50595791Y-61506350D01*
X51231167Y-61503057D01*
X51231167Y-61503057D01*
G37*
X51231167Y-61503057D02*
X51355854Y-61502598D01*
X51472775Y-61502532D01*
X51579484Y-61502833D01*
X51673533Y-61503478D01*
X51752476Y-61504443D01*
X51813865Y-61505702D01*
X51855253Y-61507234D01*
X51874194Y-61509012D01*
X51875084Y-61509407D01*
X51882460Y-61521845D01*
X51901037Y-61554681D01*
X51929787Y-61606052D01*
X51967683Y-61674092D01*
X52013696Y-61756937D01*
X52066799Y-61852724D01*
X52125964Y-61959588D01*
X52190163Y-62075665D01*
X52258368Y-62199091D01*
X52329552Y-62328001D01*
X52402686Y-62460532D01*
X52476743Y-62594818D01*
X52550695Y-62728997D01*
X52623514Y-62861203D01*
X52694173Y-62989572D01*
X52761642Y-63112241D01*
X52824896Y-63227345D01*
X52882905Y-63333019D01*
X52934642Y-63427400D01*
X52979080Y-63508624D01*
X53015189Y-63574825D01*
X53041943Y-63624141D01*
X53058314Y-63654706D01*
X53063259Y-63664444D01*
X53063098Y-63669006D01*
X53057468Y-63672823D01*
X53044350Y-63675959D01*
X53021727Y-63678481D01*
X52987582Y-63680453D01*
X52939897Y-63681941D01*
X52876656Y-63683009D01*
X52795841Y-63683724D01*
X52695434Y-63684151D01*
X52573419Y-63684354D01*
X52446681Y-63684400D01*
X51822445Y-63684400D01*
X51794058Y-63655825D01*
X51777818Y-63634545D01*
X51753614Y-63596795D01*
X51724078Y-63547346D01*
X51691842Y-63490969D01*
X51659539Y-63432435D01*
X51629801Y-63376514D01*
X51605260Y-63327978D01*
X51588549Y-63291596D01*
X51582300Y-63272140D01*
X51582299Y-63272041D01*
X51585402Y-63264760D01*
X51596988Y-63259519D01*
X51620475Y-63255999D01*
X51659279Y-63253884D01*
X51716819Y-63252857D01*
X51791850Y-63252600D01*
X51861588Y-63252150D01*
X51921496Y-63250902D01*
X51967389Y-63249015D01*
X51995081Y-63246645D01*
X52001400Y-63244729D01*
X51995564Y-63231652D01*
X51979314Y-63199910D01*
X51954532Y-63153059D01*
X51923102Y-63094659D01*
X51886908Y-63028266D01*
X51883925Y-63022827D01*
X51766450Y-62808797D01*
X51556550Y-62808449D01*
X51472819Y-62807787D01*
X51410957Y-62805933D01*
X51367452Y-62802607D01*
X51338789Y-62797527D01*
X51321455Y-62790414D01*
X51320205Y-62789577D01*
X51304339Y-62771763D01*
X51280640Y-62736939D01*
X51251600Y-62689671D01*
X51219710Y-62634523D01*
X51187461Y-62576059D01*
X51157344Y-62518844D01*
X51131851Y-62467443D01*
X51113472Y-62426421D01*
X51104699Y-62400340D01*
X51104605Y-62394534D01*
X51111742Y-62387483D01*
X51129162Y-62382436D01*
X51160263Y-62379098D01*
X51208443Y-62377176D01*
X51277101Y-62376374D01*
X51315201Y-62376300D01*
X51383831Y-62375740D01*
X51442523Y-62374190D01*
X51487046Y-62371850D01*
X51513167Y-62368917D01*
X51518273Y-62366775D01*
X51512175Y-62353198D01*
X51495522Y-62321117D01*
X51470255Y-62274142D01*
X51438317Y-62215881D01*
X51401649Y-62149945D01*
X51400392Y-62147700D01*
X51283037Y-61938150D01*
X51064781Y-61931800D01*
X50981898Y-61928988D01*
X50920832Y-61925811D01*
X50877999Y-61921866D01*
X50849816Y-61916752D01*
X50832699Y-61910067D01*
X50826143Y-61905028D01*
X50813372Y-61887438D01*
X50790954Y-61851705D01*
X50761381Y-61801998D01*
X50727147Y-61742485D01*
X50700776Y-61695478D01*
X50595791Y-61506350D01*
X51231167Y-61503057D01*
G36*
X51321460Y-60185837D02*
X51337863Y-60155983D01*
X51362950Y-60110590D01*
X51394883Y-60052983D01*
X51431824Y-59986486D01*
X51440861Y-59970237D01*
X51566123Y-59745071D01*
X51780085Y-59746793D01*
X51850894Y-59747545D01*
X51912200Y-59748541D01*
X51959775Y-59749685D01*
X51989395Y-59750880D01*
X51997297Y-59751764D01*
X51992497Y-59763350D01*
X51977205Y-59793709D01*
X51953232Y-59839395D01*
X51922391Y-59896958D01*
X51886492Y-59962952D01*
X51882475Y-59970282D01*
X51764404Y-60185550D01*
X51539982Y-60191900D01*
X51467681Y-60193870D01*
X51405065Y-60195430D01*
X51356177Y-60196492D01*
X51325057Y-60196967D01*
X51315580Y-60196827D01*
X51321460Y-60185837D01*
X51321460Y-60185837D01*
G37*
X51321460Y-60185837D02*
X51337863Y-60155983D01*
X51362950Y-60110590D01*
X51394883Y-60052983D01*
X51431824Y-59986486D01*
X51440861Y-59970237D01*
X51566123Y-59745071D01*
X51780085Y-59746793D01*
X51850894Y-59747545D01*
X51912200Y-59748541D01*
X51959775Y-59749685D01*
X51989395Y-59750880D01*
X51997297Y-59751764D01*
X51992497Y-59763350D01*
X51977205Y-59793709D01*
X51953232Y-59839395D01*
X51922391Y-59896958D01*
X51886492Y-59962952D01*
X51882475Y-59970282D01*
X51764404Y-60185550D01*
X51539982Y-60191900D01*
X51467681Y-60193870D01*
X51405065Y-60195430D01*
X51356177Y-60196492D01*
X51325057Y-60196967D01*
X51315580Y-60196827D01*
X51321460Y-60185837D01*
G36*
X50838901Y-61060718D02*
X50855395Y-61029256D01*
X50880665Y-60982354D01*
X50912895Y-60923374D01*
X50950269Y-60855678D01*
X50962782Y-60833148D01*
X51012200Y-60745790D01*
X51050952Y-60680660D01*
X51079448Y-60637125D01*
X51098096Y-60614555D01*
X51106556Y-60611421D01*
X51123534Y-60615628D01*
X51161200Y-60619620D01*
X51214841Y-60623063D01*
X51279745Y-60625621D01*
X51319185Y-60626541D01*
X51517824Y-60630050D01*
X51284102Y-61055500D01*
X51091127Y-61055500D01*
X51021077Y-61056298D01*
X50957833Y-61058492D01*
X50906796Y-61061788D01*
X50873363Y-61065887D01*
X50865576Y-61067886D01*
X50842032Y-61074697D01*
X50833000Y-61073380D01*
X50838901Y-61060718D01*
X50838901Y-61060718D01*
G37*
X50838901Y-61060718D02*
X50855395Y-61029256D01*
X50880665Y-60982354D01*
X50912895Y-60923374D01*
X50950269Y-60855678D01*
X50962782Y-60833148D01*
X51012200Y-60745790D01*
X51050952Y-60680660D01*
X51079448Y-60637125D01*
X51098096Y-60614555D01*
X51106556Y-60611421D01*
X51123534Y-60615628D01*
X51161200Y-60619620D01*
X51214841Y-60623063D01*
X51279745Y-60625621D01*
X51319185Y-60626541D01*
X51517824Y-60630050D01*
X51284102Y-61055500D01*
X51091127Y-61055500D01*
X51021077Y-61056298D01*
X50957833Y-61058492D01*
X50906796Y-61061788D01*
X50873363Y-61065887D01*
X50865576Y-61067886D01*
X50842032Y-61074697D01*
X50833000Y-61073380D01*
X50838901Y-61060718D01*
D12*
G04 #@! TO.C,R10*
X65260000Y-62912779D02*
X65260000Y-62587221D01*
X64240000Y-62912779D02*
X64240000Y-62587221D01*
G04 #@! TO.C,R8*
X60740000Y-62912779D02*
X60740000Y-62587221D01*
X61760000Y-62912779D02*
X61760000Y-62587221D01*
G04 #@! TO.C,D7*
X62265000Y-61265000D02*
X62265000Y-63550000D01*
X63735000Y-61265000D02*
X62265000Y-61265000D01*
X63735000Y-63550000D02*
X63735000Y-61265000D01*
G04 #@! TO.C,D8*
X67235000Y-63550000D02*
X67235000Y-61265000D01*
X67235000Y-61265000D02*
X65765000Y-61265000D01*
X65765000Y-61265000D02*
X65765000Y-63550000D01*
G04 #@! TO.C,C36*
X146215000Y-33477631D02*
X146215000Y-36522369D01*
X152785000Y-33477631D02*
X152785000Y-36522369D01*
G04 #@! TO.C,C39*
X123715000Y-44522369D02*
X123715000Y-41477631D01*
X130285000Y-44522369D02*
X130285000Y-41477631D01*
G04 #@! TO.C,C40*
X122785000Y-44522369D02*
X122785000Y-41477631D01*
X116215000Y-44522369D02*
X116215000Y-41477631D01*
G04 #@! TO.C,C41*
X145285000Y-33477631D02*
X145285000Y-36522369D01*
X138715000Y-33477631D02*
X138715000Y-36522369D01*
G04 #@! TO.C,C37*
X137785000Y-44522369D02*
X137785000Y-41477631D01*
X131215000Y-44522369D02*
X131215000Y-41477631D01*
G04 #@! TO.C,C32*
X130285000Y-33477631D02*
X130285000Y-36522369D01*
X123715000Y-33477631D02*
X123715000Y-36522369D01*
G04 #@! TO.C,C38*
X131215000Y-33477631D02*
X131215000Y-36522369D01*
X137785000Y-33477631D02*
X137785000Y-36522369D01*
G04 #@! TO.C,C33*
X138715000Y-44522369D02*
X138715000Y-41477631D01*
X145285000Y-44522369D02*
X145285000Y-41477631D01*
G04 #@! TO.C,C34*
X116215000Y-33477631D02*
X116215000Y-36522369D01*
X122785000Y-33477631D02*
X122785000Y-36522369D01*
G04 #@! TO.C,C35*
X146215000Y-44522369D02*
X146215000Y-41477631D01*
X152785000Y-44522369D02*
X152785000Y-41477631D01*
G04 #@! TO.C,C26*
X122785000Y-60522369D02*
X122785000Y-57477631D01*
X116215000Y-60522369D02*
X116215000Y-57477631D01*
G04 #@! TO.C,C27*
X146215000Y-60522369D02*
X146215000Y-57477631D01*
X152785000Y-60522369D02*
X152785000Y-57477631D01*
G04 #@! TO.C,C31*
X146215000Y-49477631D02*
X146215000Y-52522369D01*
X152785000Y-49477631D02*
X152785000Y-52522369D01*
G04 #@! TO.C,C30*
X123715000Y-60522369D02*
X123715000Y-57477631D01*
X130285000Y-60522369D02*
X130285000Y-57477631D01*
G04 #@! TO.C,C28*
X145285000Y-60522369D02*
X145285000Y-57477631D01*
X138715000Y-60522369D02*
X138715000Y-57477631D01*
G04 #@! TO.C,C29*
X131215000Y-60522369D02*
X131215000Y-57477631D01*
X137785000Y-60522369D02*
X137785000Y-57477631D01*
G04 #@! TO.C,D6*
X115150000Y-42600000D02*
X111850000Y-42600000D01*
X111850000Y-42600000D02*
X111850000Y-49500000D01*
X115150000Y-42600000D02*
X115150000Y-49500000D01*
D14*
G04 #@! TO.C,U7*
X80130000Y-54990000D02*
X80130000Y-39990000D01*
X80130000Y-39990000D02*
X95130000Y-39990000D01*
X95130000Y-39990000D02*
X95130000Y-54990000D01*
X95130000Y-54990000D02*
X80130000Y-54990000D01*
D12*
G04 #@! TO.C,R5*
X74051779Y-40055607D02*
X73726221Y-40055607D01*
X74051779Y-41075607D02*
X73726221Y-41075607D01*
G04 #@! TO.C,R6*
X73726221Y-41805607D02*
X74051779Y-41805607D01*
X73726221Y-42825607D02*
X74051779Y-42825607D01*
G04 #@! TO.C,J5*
X94830000Y-36420000D02*
X94830000Y-37750000D01*
X93500000Y-36420000D02*
X94830000Y-36420000D01*
X92230000Y-36420000D02*
X92230000Y-39080000D01*
X92230000Y-39080000D02*
X87090000Y-39080000D01*
X92230000Y-36420000D02*
X87090000Y-36420000D01*
X87090000Y-36420000D02*
X87090000Y-39080000D01*
G04 #@! TO.C,C10*
X78262779Y-48510000D02*
X77937221Y-48510000D01*
X78262779Y-47490000D02*
X77937221Y-47490000D01*
G04 #@! TO.C,C11*
X77162779Y-58740000D02*
X76837221Y-58740000D01*
X77162779Y-59760000D02*
X76837221Y-59760000D01*
G04 #@! TO.C,C13*
X73912779Y-58740000D02*
X73587221Y-58740000D01*
X73912779Y-59760000D02*
X73587221Y-59760000D01*
G04 #@! TO.C,C15*
X74397578Y-39275607D02*
X73880422Y-39275607D01*
X74397578Y-37855607D02*
X73880422Y-37855607D01*
G04 #@! TO.C,C21*
X109022369Y-52215000D02*
X105977631Y-52215000D01*
X109022369Y-58785000D02*
X105977631Y-58785000D01*
G04 #@! TO.C,C25*
X116215000Y-49477631D02*
X116215000Y-52522369D01*
X122785000Y-49477631D02*
X122785000Y-52522369D01*
G04 #@! TO.C,C19*
X97977631Y-58785000D02*
X101022369Y-58785000D01*
X97977631Y-52215000D02*
X101022369Y-52215000D01*
G04 #@! TO.C,C20*
X109022369Y-41785000D02*
X105977631Y-41785000D01*
X109022369Y-35215000D02*
X105977631Y-35215000D01*
G04 #@! TO.C,C24*
X123715000Y-49477631D02*
X123715000Y-52522369D01*
X130285000Y-49477631D02*
X130285000Y-52522369D01*
G04 #@! TO.C,C22*
X145285000Y-49477631D02*
X145285000Y-52522369D01*
X138715000Y-49477631D02*
X138715000Y-52522369D01*
G04 #@! TO.C,C18*
X101022369Y-35215000D02*
X97977631Y-35215000D01*
X101022369Y-41785000D02*
X97977631Y-41785000D01*
G04 #@! TO.C,C23*
X137785000Y-49477631D02*
X137785000Y-52522369D01*
X131215000Y-49477631D02*
X131215000Y-52522369D01*
G04 #@! TO.C,C16*
X74226221Y-37075607D02*
X74551779Y-37075607D01*
X74226221Y-36055607D02*
X74551779Y-36055607D01*
G04 #@! TO.C,C1*
X52240000Y-50087221D02*
X52240000Y-50412779D01*
X53260000Y-50087221D02*
X53260000Y-50412779D01*
G04 #@! TO.C,J4*
X56630000Y-52330000D02*
X53970000Y-52330000D01*
X56630000Y-54930000D02*
X56630000Y-52330000D01*
X53970000Y-54930000D02*
X53970000Y-52330000D01*
X56630000Y-54930000D02*
X53970000Y-54930000D01*
X56630000Y-56200000D02*
X56630000Y-57530000D01*
X56630000Y-57530000D02*
X55300000Y-57530000D01*
D14*
G04 #@! TO.C,J1*
X47450000Y-50850000D02*
X46050000Y-50850000D01*
X43650000Y-50850000D02*
X43500000Y-50850000D01*
X43500000Y-50850000D02*
X43500000Y-51150000D01*
X43500000Y-51150000D02*
X43050000Y-51150000D01*
X43050000Y-58850000D02*
X43500000Y-58850000D01*
X43500000Y-58850000D02*
X43500000Y-59150000D01*
X43500000Y-59150000D02*
X43650000Y-59150000D01*
X46050000Y-59150000D02*
X47450000Y-59150000D01*
X49625000Y-53925000D02*
X49625000Y-53200000D01*
X49625000Y-53200000D02*
X49200000Y-53200000D01*
X49200000Y-53200000D02*
X49200000Y-52200000D01*
X49200000Y-56800000D02*
X49200000Y-57800000D01*
D12*
G04 #@! TO.C,D5*
X77254000Y-39665607D02*
X77254000Y-39365607D01*
X78024000Y-39665607D02*
X78024000Y-39365607D01*
G04 #@! TO.C,D3*
X107150000Y-42600000D02*
X107150000Y-49500000D01*
X103850000Y-42600000D02*
X103850000Y-49500000D01*
X107150000Y-42600000D02*
X103850000Y-42600000D01*
G04 #@! TO.C,D2*
X99850000Y-51400000D02*
X103150000Y-51400000D01*
X103150000Y-51400000D02*
X103150000Y-44500000D01*
X99850000Y-51400000D02*
X99850000Y-44500000D01*
G04 #@! TO.C,D1*
X99150000Y-42600000D02*
X99150000Y-49500000D01*
X95850000Y-42600000D02*
X95850000Y-49500000D01*
X99150000Y-42600000D02*
X95850000Y-42600000D01*
G04 #@! TO.C,D4*
X107850000Y-51400000D02*
X111150000Y-51400000D01*
X111150000Y-51400000D02*
X111150000Y-44500000D01*
X107850000Y-51400000D02*
X107850000Y-44500000D01*
G04 #@! TO.C,L1*
X50490000Y-50412779D02*
X50490000Y-50087221D01*
X51510000Y-50412779D02*
X51510000Y-50087221D01*
G04 #@! TO.C,L2*
X75929000Y-45451859D02*
X75929000Y-42679355D01*
X79349000Y-45451859D02*
X79349000Y-42679355D01*
D14*
G04 #@! TO.C,U1*
X58725000Y-58125000D02*
X59725000Y-58125000D01*
X58725000Y-47775000D02*
X59800000Y-47775000D01*
X69075000Y-47775000D02*
X68000000Y-47775000D01*
X69075000Y-58125000D02*
X68000000Y-58125000D01*
X58725000Y-58125000D02*
X58725000Y-57050000D01*
X69075000Y-58125000D02*
X69075000Y-57050000D01*
X69075000Y-47775000D02*
X69075000Y-48850000D01*
X58725000Y-47775000D02*
X58725000Y-48850000D01*
X59725000Y-58125000D02*
X59725000Y-59150000D01*
G04 #@! TO.C,U2*
X58575000Y-43225000D02*
X59150000Y-43225000D01*
X58575000Y-37475000D02*
X59225000Y-37475000D01*
X69225000Y-37475000D02*
X68575000Y-37475000D01*
X69225000Y-43225000D02*
X68575000Y-43225000D01*
X58575000Y-43225000D02*
X58575000Y-37475000D01*
X69225000Y-43225000D02*
X69225000Y-37475000D01*
X59150000Y-43225000D02*
X59150000Y-44825000D01*
D12*
G04 #@! TO.C,U3*
X72029000Y-44415607D02*
X72029000Y-46215607D01*
X75249000Y-46215607D02*
X75249000Y-43765607D01*
G04 #@! TO.C,Q1*
X81850000Y-39610000D02*
X84300000Y-39610000D01*
X83650000Y-36390000D02*
X81850000Y-36390000D01*
G04 #@! TO.C,R3*
X87162779Y-57490000D02*
X86837221Y-57490000D01*
X87162779Y-58510000D02*
X86837221Y-58510000D01*
G04 #@! TO.C,R7*
X53337221Y-35260000D02*
X53662779Y-35260000D01*
X53337221Y-34240000D02*
X53662779Y-34240000D01*
G04 #@! TO.C,R2*
X90662779Y-57490000D02*
X90337221Y-57490000D01*
X90662779Y-58510000D02*
X90337221Y-58510000D01*
G04 #@! TO.C,U4*
D14*
X70452380Y-54511904D02*
X71261904Y-54511904D01*
X71357142Y-54464285D01*
X71404761Y-54416666D01*
X71452380Y-54321428D01*
X71452380Y-54130952D01*
X71404761Y-54035714D01*
X71357142Y-53988095D01*
X71261904Y-53940476D01*
X70452380Y-53940476D01*
X70785714Y-53035714D02*
X71452380Y-53035714D01*
X70404761Y-53273809D02*
X71119047Y-53511904D01*
X71119047Y-52892857D01*
G04 #@! TO.C,C42*
D11*
X55767857Y-35267857D02*
X55732142Y-35303571D01*
X55625000Y-35339285D01*
X55553571Y-35339285D01*
X55446428Y-35303571D01*
X55375000Y-35232142D01*
X55339285Y-35160714D01*
X55303571Y-35017857D01*
X55303571Y-34910714D01*
X55339285Y-34767857D01*
X55375000Y-34696428D01*
X55446428Y-34625000D01*
X55553571Y-34589285D01*
X55625000Y-34589285D01*
X55732142Y-34625000D01*
X55767857Y-34660714D01*
X56410714Y-34839285D02*
X56410714Y-35339285D01*
X56232142Y-34553571D02*
X56053571Y-35089285D01*
X56517857Y-35089285D01*
X56767857Y-34660714D02*
X56803571Y-34625000D01*
X56875000Y-34589285D01*
X57053571Y-34589285D01*
X57125000Y-34625000D01*
X57160714Y-34660714D01*
X57196428Y-34732142D01*
X57196428Y-34803571D01*
X57160714Y-34910714D01*
X56732142Y-35339285D01*
X57196428Y-35339285D01*
G04 #@! TO.C,U8*
X54678571Y-40589285D02*
X54678571Y-41196428D01*
X54714285Y-41267857D01*
X54750000Y-41303571D01*
X54821428Y-41339285D01*
X54964285Y-41339285D01*
X55035714Y-41303571D01*
X55071428Y-41267857D01*
X55107142Y-41196428D01*
X55107142Y-40589285D01*
X55571428Y-40910714D02*
X55500000Y-40875000D01*
X55464285Y-40839285D01*
X55428571Y-40767857D01*
X55428571Y-40732142D01*
X55464285Y-40660714D01*
X55500000Y-40625000D01*
X55571428Y-40589285D01*
X55714285Y-40589285D01*
X55785714Y-40625000D01*
X55821428Y-40660714D01*
X55857142Y-40732142D01*
X55857142Y-40767857D01*
X55821428Y-40839285D01*
X55785714Y-40875000D01*
X55714285Y-40910714D01*
X55571428Y-40910714D01*
X55500000Y-40946428D01*
X55464285Y-40982142D01*
X55428571Y-41053571D01*
X55428571Y-41196428D01*
X55464285Y-41267857D01*
X55500000Y-41303571D01*
X55571428Y-41339285D01*
X55714285Y-41339285D01*
X55785714Y-41303571D01*
X55821428Y-41267857D01*
X55857142Y-41196428D01*
X55857142Y-41053571D01*
X55821428Y-40982142D01*
X55785714Y-40946428D01*
X55714285Y-40910714D01*
G04 #@! TO.C,D9*
D14*
X159261904Y-31952380D02*
X159261904Y-30952380D01*
X159500000Y-30952380D01*
X159642857Y-31000000D01*
X159738095Y-31095238D01*
X159785714Y-31190476D01*
X159833333Y-31380952D01*
X159833333Y-31523809D01*
X159785714Y-31714285D01*
X159738095Y-31809523D01*
X159642857Y-31904761D01*
X159500000Y-31952380D01*
X159261904Y-31952380D01*
X160309523Y-31952380D02*
X160500000Y-31952380D01*
X160595238Y-31904761D01*
X160642857Y-31857142D01*
X160738095Y-31714285D01*
X160785714Y-31523809D01*
X160785714Y-31142857D01*
X160738095Y-31047619D01*
X160690476Y-31000000D01*
X160595238Y-30952380D01*
X160404761Y-30952380D01*
X160309523Y-31000000D01*
X160261904Y-31047619D01*
X160214285Y-31142857D01*
X160214285Y-31380952D01*
X160261904Y-31476190D01*
X160309523Y-31523809D01*
X160404761Y-31571428D01*
X160595238Y-31571428D01*
X160690476Y-31523809D01*
X160738095Y-31476190D01*
X160785714Y-31380952D01*
G04 #@! TO.C,J6*
D11*
X168250000Y-59839285D02*
X168250000Y-60375000D01*
X168214285Y-60482142D01*
X168142857Y-60553571D01*
X168035714Y-60589285D01*
X167964285Y-60589285D01*
X168928571Y-59839285D02*
X168785714Y-59839285D01*
X168714285Y-59875000D01*
X168678571Y-59910714D01*
X168607142Y-60017857D01*
X168571428Y-60160714D01*
X168571428Y-60446428D01*
X168607142Y-60517857D01*
X168642857Y-60553571D01*
X168714285Y-60589285D01*
X168857142Y-60589285D01*
X168928571Y-60553571D01*
X168964285Y-60517857D01*
X169000000Y-60446428D01*
X169000000Y-60267857D01*
X168964285Y-60196428D01*
X168928571Y-60160714D01*
X168857142Y-60125000D01*
X168714285Y-60125000D01*
X168642857Y-60160714D01*
X168607142Y-60196428D01*
X168571428Y-60267857D01*
G04 #@! TO.C,R10*
X64267857Y-60839285D02*
X64017857Y-60482142D01*
X63839285Y-60839285D02*
X63839285Y-60089285D01*
X64125000Y-60089285D01*
X64196428Y-60125000D01*
X64232142Y-60160714D01*
X64267857Y-60232142D01*
X64267857Y-60339285D01*
X64232142Y-60410714D01*
X64196428Y-60446428D01*
X64125000Y-60482142D01*
X63839285Y-60482142D01*
X64982142Y-60839285D02*
X64553571Y-60839285D01*
X64767857Y-60839285D02*
X64767857Y-60089285D01*
X64696428Y-60196428D01*
X64625000Y-60267857D01*
X64553571Y-60303571D01*
X65446428Y-60089285D02*
X65517857Y-60089285D01*
X65589285Y-60125000D01*
X65625000Y-60160714D01*
X65660714Y-60232142D01*
X65696428Y-60375000D01*
X65696428Y-60553571D01*
X65660714Y-60696428D01*
X65625000Y-60767857D01*
X65589285Y-60803571D01*
X65517857Y-60839285D01*
X65446428Y-60839285D01*
X65375000Y-60803571D01*
X65339285Y-60767857D01*
X65303571Y-60696428D01*
X65267857Y-60553571D01*
X65267857Y-60375000D01*
X65303571Y-60232142D01*
X65339285Y-60160714D01*
X65375000Y-60125000D01*
X65446428Y-60089285D01*
G04 #@! TO.C,R8*
X61125000Y-60839285D02*
X60875000Y-60482142D01*
X60696428Y-60839285D02*
X60696428Y-60089285D01*
X60982142Y-60089285D01*
X61053571Y-60125000D01*
X61089285Y-60160714D01*
X61125000Y-60232142D01*
X61125000Y-60339285D01*
X61089285Y-60410714D01*
X61053571Y-60446428D01*
X60982142Y-60482142D01*
X60696428Y-60482142D01*
X61553571Y-60410714D02*
X61482142Y-60375000D01*
X61446428Y-60339285D01*
X61410714Y-60267857D01*
X61410714Y-60232142D01*
X61446428Y-60160714D01*
X61482142Y-60125000D01*
X61553571Y-60089285D01*
X61696428Y-60089285D01*
X61767857Y-60125000D01*
X61803571Y-60160714D01*
X61839285Y-60232142D01*
X61839285Y-60267857D01*
X61803571Y-60339285D01*
X61767857Y-60375000D01*
X61696428Y-60410714D01*
X61553571Y-60410714D01*
X61482142Y-60446428D01*
X61446428Y-60482142D01*
X61410714Y-60553571D01*
X61410714Y-60696428D01*
X61446428Y-60767857D01*
X61482142Y-60803571D01*
X61553571Y-60839285D01*
X61696428Y-60839285D01*
X61767857Y-60803571D01*
X61803571Y-60767857D01*
X61839285Y-60696428D01*
X61839285Y-60553571D01*
X61803571Y-60482142D01*
X61767857Y-60446428D01*
X61696428Y-60410714D01*
G04 #@! TO.C,D7*
X62446428Y-60339285D02*
X62446428Y-59589285D01*
X62625000Y-59589285D01*
X62732142Y-59625000D01*
X62803571Y-59696428D01*
X62839285Y-59767857D01*
X62875000Y-59910714D01*
X62875000Y-60017857D01*
X62839285Y-60160714D01*
X62803571Y-60232142D01*
X62732142Y-60303571D01*
X62625000Y-60339285D01*
X62446428Y-60339285D01*
X63125000Y-59589285D02*
X63625000Y-59589285D01*
X63303571Y-60339285D01*
G04 #@! TO.C,D8*
X65946428Y-60339285D02*
X65946428Y-59589285D01*
X66125000Y-59589285D01*
X66232142Y-59625000D01*
X66303571Y-59696428D01*
X66339285Y-59767857D01*
X66375000Y-59910714D01*
X66375000Y-60017857D01*
X66339285Y-60160714D01*
X66303571Y-60232142D01*
X66232142Y-60303571D01*
X66125000Y-60339285D01*
X65946428Y-60339285D01*
X66803571Y-59910714D02*
X66732142Y-59875000D01*
X66696428Y-59839285D01*
X66660714Y-59767857D01*
X66660714Y-59732142D01*
X66696428Y-59660714D01*
X66732142Y-59625000D01*
X66803571Y-59589285D01*
X66946428Y-59589285D01*
X67017857Y-59625000D01*
X67053571Y-59660714D01*
X67089285Y-59732142D01*
X67089285Y-59767857D01*
X67053571Y-59839285D01*
X67017857Y-59875000D01*
X66946428Y-59910714D01*
X66803571Y-59910714D01*
X66732142Y-59946428D01*
X66696428Y-59982142D01*
X66660714Y-60053571D01*
X66660714Y-60196428D01*
X66696428Y-60267857D01*
X66732142Y-60303571D01*
X66803571Y-60339285D01*
X66946428Y-60339285D01*
X67017857Y-60303571D01*
X67053571Y-60267857D01*
X67089285Y-60196428D01*
X67089285Y-60053571D01*
X67053571Y-59982142D01*
X67017857Y-59946428D01*
X66946428Y-59910714D01*
G04 #@! TO.C,C36*
X149017857Y-30767857D02*
X148982142Y-30803571D01*
X148875000Y-30839285D01*
X148803571Y-30839285D01*
X148696428Y-30803571D01*
X148625000Y-30732142D01*
X148589285Y-30660714D01*
X148553571Y-30517857D01*
X148553571Y-30410714D01*
X148589285Y-30267857D01*
X148625000Y-30196428D01*
X148696428Y-30125000D01*
X148803571Y-30089285D01*
X148875000Y-30089285D01*
X148982142Y-30125000D01*
X149017857Y-30160714D01*
X149267857Y-30089285D02*
X149732142Y-30089285D01*
X149482142Y-30375000D01*
X149589285Y-30375000D01*
X149660714Y-30410714D01*
X149696428Y-30446428D01*
X149732142Y-30517857D01*
X149732142Y-30696428D01*
X149696428Y-30767857D01*
X149660714Y-30803571D01*
X149589285Y-30839285D01*
X149375000Y-30839285D01*
X149303571Y-30803571D01*
X149267857Y-30767857D01*
X150375000Y-30089285D02*
X150232142Y-30089285D01*
X150160714Y-30125000D01*
X150125000Y-30160714D01*
X150053571Y-30267857D01*
X150017857Y-30410714D01*
X150017857Y-30696428D01*
X150053571Y-30767857D01*
X150089285Y-30803571D01*
X150160714Y-30839285D01*
X150303571Y-30839285D01*
X150375000Y-30803571D01*
X150410714Y-30767857D01*
X150446428Y-30696428D01*
X150446428Y-30517857D01*
X150410714Y-30446428D01*
X150375000Y-30410714D01*
X150303571Y-30375000D01*
X150160714Y-30375000D01*
X150089285Y-30410714D01*
X150053571Y-30446428D01*
X150017857Y-30517857D01*
G04 #@! TO.C,C39*
X155267857Y-44482142D02*
X155303571Y-44517857D01*
X155339285Y-44625000D01*
X155339285Y-44696428D01*
X155303571Y-44803571D01*
X155232142Y-44875000D01*
X155160714Y-44910714D01*
X155017857Y-44946428D01*
X154910714Y-44946428D01*
X154767857Y-44910714D01*
X154696428Y-44875000D01*
X154625000Y-44803571D01*
X154589285Y-44696428D01*
X154589285Y-44625000D01*
X154625000Y-44517857D01*
X154660714Y-44482142D01*
X154589285Y-44232142D02*
X154589285Y-43767857D01*
X154875000Y-44017857D01*
X154875000Y-43910714D01*
X154910714Y-43839285D01*
X154946428Y-43803571D01*
X155017857Y-43767857D01*
X155196428Y-43767857D01*
X155267857Y-43803571D01*
X155303571Y-43839285D01*
X155339285Y-43910714D01*
X155339285Y-44125000D01*
X155303571Y-44196428D01*
X155267857Y-44232142D01*
X155339285Y-43410714D02*
X155339285Y-43267857D01*
X155303571Y-43196428D01*
X155267857Y-43160714D01*
X155160714Y-43089285D01*
X155017857Y-43053571D01*
X154732142Y-43053571D01*
X154660714Y-43089285D01*
X154625000Y-43125000D01*
X154589285Y-43196428D01*
X154589285Y-43339285D01*
X154625000Y-43410714D01*
X154660714Y-43446428D01*
X154732142Y-43482142D01*
X154910714Y-43482142D01*
X154982142Y-43446428D01*
X155017857Y-43410714D01*
X155053571Y-43339285D01*
X155053571Y-43196428D01*
X155017857Y-43125000D01*
X154982142Y-43089285D01*
X154910714Y-43053571D01*
G04 #@! TO.C,C40*
X154017857Y-44482142D02*
X154053571Y-44517857D01*
X154089285Y-44625000D01*
X154089285Y-44696428D01*
X154053571Y-44803571D01*
X153982142Y-44875000D01*
X153910714Y-44910714D01*
X153767857Y-44946428D01*
X153660714Y-44946428D01*
X153517857Y-44910714D01*
X153446428Y-44875000D01*
X153375000Y-44803571D01*
X153339285Y-44696428D01*
X153339285Y-44625000D01*
X153375000Y-44517857D01*
X153410714Y-44482142D01*
X153589285Y-43839285D02*
X154089285Y-43839285D01*
X153303571Y-44017857D02*
X153839285Y-44196428D01*
X153839285Y-43732142D01*
X153339285Y-43303571D02*
X153339285Y-43232142D01*
X153375000Y-43160714D01*
X153410714Y-43125000D01*
X153482142Y-43089285D01*
X153625000Y-43053571D01*
X153803571Y-43053571D01*
X153946428Y-43089285D01*
X154017857Y-43125000D01*
X154053571Y-43160714D01*
X154089285Y-43232142D01*
X154089285Y-43303571D01*
X154053571Y-43375000D01*
X154017857Y-43410714D01*
X153946428Y-43446428D01*
X153803571Y-43482142D01*
X153625000Y-43482142D01*
X153482142Y-43446428D01*
X153410714Y-43410714D01*
X153375000Y-43375000D01*
X153339285Y-43303571D01*
G04 #@! TO.C,C41*
X141517857Y-30767857D02*
X141482142Y-30803571D01*
X141375000Y-30839285D01*
X141303571Y-30839285D01*
X141196428Y-30803571D01*
X141125000Y-30732142D01*
X141089285Y-30660714D01*
X141053571Y-30517857D01*
X141053571Y-30410714D01*
X141089285Y-30267857D01*
X141125000Y-30196428D01*
X141196428Y-30125000D01*
X141303571Y-30089285D01*
X141375000Y-30089285D01*
X141482142Y-30125000D01*
X141517857Y-30160714D01*
X142160714Y-30339285D02*
X142160714Y-30839285D01*
X141982142Y-30053571D02*
X141803571Y-30589285D01*
X142267857Y-30589285D01*
X142946428Y-30839285D02*
X142517857Y-30839285D01*
X142732142Y-30839285D02*
X142732142Y-30089285D01*
X142660714Y-30196428D01*
X142589285Y-30267857D01*
X142517857Y-30303571D01*
G04 #@! TO.C,C37*
X156517857Y-44482142D02*
X156553571Y-44517857D01*
X156589285Y-44625000D01*
X156589285Y-44696428D01*
X156553571Y-44803571D01*
X156482142Y-44875000D01*
X156410714Y-44910714D01*
X156267857Y-44946428D01*
X156160714Y-44946428D01*
X156017857Y-44910714D01*
X155946428Y-44875000D01*
X155875000Y-44803571D01*
X155839285Y-44696428D01*
X155839285Y-44625000D01*
X155875000Y-44517857D01*
X155910714Y-44482142D01*
X155839285Y-44232142D02*
X155839285Y-43767857D01*
X156125000Y-44017857D01*
X156125000Y-43910714D01*
X156160714Y-43839285D01*
X156196428Y-43803571D01*
X156267857Y-43767857D01*
X156446428Y-43767857D01*
X156517857Y-43803571D01*
X156553571Y-43839285D01*
X156589285Y-43910714D01*
X156589285Y-44125000D01*
X156553571Y-44196428D01*
X156517857Y-44232142D01*
X155839285Y-43517857D02*
X155839285Y-43017857D01*
X156589285Y-43339285D01*
G04 #@! TO.C,C32*
X126517857Y-30767857D02*
X126482142Y-30803571D01*
X126375000Y-30839285D01*
X126303571Y-30839285D01*
X126196428Y-30803571D01*
X126125000Y-30732142D01*
X126089285Y-30660714D01*
X126053571Y-30517857D01*
X126053571Y-30410714D01*
X126089285Y-30267857D01*
X126125000Y-30196428D01*
X126196428Y-30125000D01*
X126303571Y-30089285D01*
X126375000Y-30089285D01*
X126482142Y-30125000D01*
X126517857Y-30160714D01*
X126767857Y-30089285D02*
X127232142Y-30089285D01*
X126982142Y-30375000D01*
X127089285Y-30375000D01*
X127160714Y-30410714D01*
X127196428Y-30446428D01*
X127232142Y-30517857D01*
X127232142Y-30696428D01*
X127196428Y-30767857D01*
X127160714Y-30803571D01*
X127089285Y-30839285D01*
X126875000Y-30839285D01*
X126803571Y-30803571D01*
X126767857Y-30767857D01*
X127517857Y-30160714D02*
X127553571Y-30125000D01*
X127625000Y-30089285D01*
X127803571Y-30089285D01*
X127875000Y-30125000D01*
X127910714Y-30160714D01*
X127946428Y-30232142D01*
X127946428Y-30303571D01*
X127910714Y-30410714D01*
X127482142Y-30839285D01*
X127946428Y-30839285D01*
G04 #@! TO.C,C38*
X134017857Y-30767857D02*
X133982142Y-30803571D01*
X133875000Y-30839285D01*
X133803571Y-30839285D01*
X133696428Y-30803571D01*
X133625000Y-30732142D01*
X133589285Y-30660714D01*
X133553571Y-30517857D01*
X133553571Y-30410714D01*
X133589285Y-30267857D01*
X133625000Y-30196428D01*
X133696428Y-30125000D01*
X133803571Y-30089285D01*
X133875000Y-30089285D01*
X133982142Y-30125000D01*
X134017857Y-30160714D01*
X134267857Y-30089285D02*
X134732142Y-30089285D01*
X134482142Y-30375000D01*
X134589285Y-30375000D01*
X134660714Y-30410714D01*
X134696428Y-30446428D01*
X134732142Y-30517857D01*
X134732142Y-30696428D01*
X134696428Y-30767857D01*
X134660714Y-30803571D01*
X134589285Y-30839285D01*
X134375000Y-30839285D01*
X134303571Y-30803571D01*
X134267857Y-30767857D01*
X135160714Y-30410714D02*
X135089285Y-30375000D01*
X135053571Y-30339285D01*
X135017857Y-30267857D01*
X135017857Y-30232142D01*
X135053571Y-30160714D01*
X135089285Y-30125000D01*
X135160714Y-30089285D01*
X135303571Y-30089285D01*
X135375000Y-30125000D01*
X135410714Y-30160714D01*
X135446428Y-30232142D01*
X135446428Y-30267857D01*
X135410714Y-30339285D01*
X135375000Y-30375000D01*
X135303571Y-30410714D01*
X135160714Y-30410714D01*
X135089285Y-30446428D01*
X135053571Y-30482142D01*
X135017857Y-30553571D01*
X135017857Y-30696428D01*
X135053571Y-30767857D01*
X135089285Y-30803571D01*
X135160714Y-30839285D01*
X135303571Y-30839285D01*
X135375000Y-30803571D01*
X135410714Y-30767857D01*
X135446428Y-30696428D01*
X135446428Y-30553571D01*
X135410714Y-30482142D01*
X135375000Y-30446428D01*
X135303571Y-30410714D01*
G04 #@! TO.C,C33*
X157767857Y-44482142D02*
X157803571Y-44517857D01*
X157839285Y-44625000D01*
X157839285Y-44696428D01*
X157803571Y-44803571D01*
X157732142Y-44875000D01*
X157660714Y-44910714D01*
X157517857Y-44946428D01*
X157410714Y-44946428D01*
X157267857Y-44910714D01*
X157196428Y-44875000D01*
X157125000Y-44803571D01*
X157089285Y-44696428D01*
X157089285Y-44625000D01*
X157125000Y-44517857D01*
X157160714Y-44482142D01*
X157089285Y-44232142D02*
X157089285Y-43767857D01*
X157375000Y-44017857D01*
X157375000Y-43910714D01*
X157410714Y-43839285D01*
X157446428Y-43803571D01*
X157517857Y-43767857D01*
X157696428Y-43767857D01*
X157767857Y-43803571D01*
X157803571Y-43839285D01*
X157839285Y-43910714D01*
X157839285Y-44125000D01*
X157803571Y-44196428D01*
X157767857Y-44232142D01*
X157089285Y-43517857D02*
X157089285Y-43053571D01*
X157375000Y-43303571D01*
X157375000Y-43196428D01*
X157410714Y-43125000D01*
X157446428Y-43089285D01*
X157517857Y-43053571D01*
X157696428Y-43053571D01*
X157767857Y-43089285D01*
X157803571Y-43125000D01*
X157839285Y-43196428D01*
X157839285Y-43410714D01*
X157803571Y-43482142D01*
X157767857Y-43517857D01*
G04 #@! TO.C,C34*
X119017857Y-30767857D02*
X118982142Y-30803571D01*
X118875000Y-30839285D01*
X118803571Y-30839285D01*
X118696428Y-30803571D01*
X118625000Y-30732142D01*
X118589285Y-30660714D01*
X118553571Y-30517857D01*
X118553571Y-30410714D01*
X118589285Y-30267857D01*
X118625000Y-30196428D01*
X118696428Y-30125000D01*
X118803571Y-30089285D01*
X118875000Y-30089285D01*
X118982142Y-30125000D01*
X119017857Y-30160714D01*
X119267857Y-30089285D02*
X119732142Y-30089285D01*
X119482142Y-30375000D01*
X119589285Y-30375000D01*
X119660714Y-30410714D01*
X119696428Y-30446428D01*
X119732142Y-30517857D01*
X119732142Y-30696428D01*
X119696428Y-30767857D01*
X119660714Y-30803571D01*
X119589285Y-30839285D01*
X119375000Y-30839285D01*
X119303571Y-30803571D01*
X119267857Y-30767857D01*
X120375000Y-30339285D02*
X120375000Y-30839285D01*
X120196428Y-30053571D02*
X120017857Y-30589285D01*
X120482142Y-30589285D01*
G04 #@! TO.C,C35*
X159017857Y-44482142D02*
X159053571Y-44517857D01*
X159089285Y-44625000D01*
X159089285Y-44696428D01*
X159053571Y-44803571D01*
X158982142Y-44875000D01*
X158910714Y-44910714D01*
X158767857Y-44946428D01*
X158660714Y-44946428D01*
X158517857Y-44910714D01*
X158446428Y-44875000D01*
X158375000Y-44803571D01*
X158339285Y-44696428D01*
X158339285Y-44625000D01*
X158375000Y-44517857D01*
X158410714Y-44482142D01*
X158339285Y-44232142D02*
X158339285Y-43767857D01*
X158625000Y-44017857D01*
X158625000Y-43910714D01*
X158660714Y-43839285D01*
X158696428Y-43803571D01*
X158767857Y-43767857D01*
X158946428Y-43767857D01*
X159017857Y-43803571D01*
X159053571Y-43839285D01*
X159089285Y-43910714D01*
X159089285Y-44125000D01*
X159053571Y-44196428D01*
X159017857Y-44232142D01*
X158339285Y-43089285D02*
X158339285Y-43446428D01*
X158696428Y-43482142D01*
X158660714Y-43446428D01*
X158625000Y-43375000D01*
X158625000Y-43196428D01*
X158660714Y-43125000D01*
X158696428Y-43089285D01*
X158767857Y-43053571D01*
X158946428Y-43053571D01*
X159017857Y-43089285D01*
X159053571Y-43125000D01*
X159089285Y-43196428D01*
X159089285Y-43375000D01*
X159053571Y-43446428D01*
X159017857Y-43482142D01*
G04 #@! TO.C,C26*
X119017857Y-64017857D02*
X118982142Y-64053571D01*
X118875000Y-64089285D01*
X118803571Y-64089285D01*
X118696428Y-64053571D01*
X118625000Y-63982142D01*
X118589285Y-63910714D01*
X118553571Y-63767857D01*
X118553571Y-63660714D01*
X118589285Y-63517857D01*
X118625000Y-63446428D01*
X118696428Y-63375000D01*
X118803571Y-63339285D01*
X118875000Y-63339285D01*
X118982142Y-63375000D01*
X119017857Y-63410714D01*
X119303571Y-63410714D02*
X119339285Y-63375000D01*
X119410714Y-63339285D01*
X119589285Y-63339285D01*
X119660714Y-63375000D01*
X119696428Y-63410714D01*
X119732142Y-63482142D01*
X119732142Y-63553571D01*
X119696428Y-63660714D01*
X119267857Y-64089285D01*
X119732142Y-64089285D01*
X120375000Y-63339285D02*
X120232142Y-63339285D01*
X120160714Y-63375000D01*
X120125000Y-63410714D01*
X120053571Y-63517857D01*
X120017857Y-63660714D01*
X120017857Y-63946428D01*
X120053571Y-64017857D01*
X120089285Y-64053571D01*
X120160714Y-64089285D01*
X120303571Y-64089285D01*
X120375000Y-64053571D01*
X120410714Y-64017857D01*
X120446428Y-63946428D01*
X120446428Y-63767857D01*
X120410714Y-63696428D01*
X120375000Y-63660714D01*
X120303571Y-63625000D01*
X120160714Y-63625000D01*
X120089285Y-63660714D01*
X120053571Y-63696428D01*
X120017857Y-63767857D01*
G04 #@! TO.C,C27*
X149017857Y-64017857D02*
X148982142Y-64053571D01*
X148875000Y-64089285D01*
X148803571Y-64089285D01*
X148696428Y-64053571D01*
X148625000Y-63982142D01*
X148589285Y-63910714D01*
X148553571Y-63767857D01*
X148553571Y-63660714D01*
X148589285Y-63517857D01*
X148625000Y-63446428D01*
X148696428Y-63375000D01*
X148803571Y-63339285D01*
X148875000Y-63339285D01*
X148982142Y-63375000D01*
X149017857Y-63410714D01*
X149303571Y-63410714D02*
X149339285Y-63375000D01*
X149410714Y-63339285D01*
X149589285Y-63339285D01*
X149660714Y-63375000D01*
X149696428Y-63410714D01*
X149732142Y-63482142D01*
X149732142Y-63553571D01*
X149696428Y-63660714D01*
X149267857Y-64089285D01*
X149732142Y-64089285D01*
X149982142Y-63339285D02*
X150482142Y-63339285D01*
X150160714Y-64089285D01*
G04 #@! TO.C,C31*
X159017857Y-49982142D02*
X159053571Y-50017857D01*
X159089285Y-50125000D01*
X159089285Y-50196428D01*
X159053571Y-50303571D01*
X158982142Y-50375000D01*
X158910714Y-50410714D01*
X158767857Y-50446428D01*
X158660714Y-50446428D01*
X158517857Y-50410714D01*
X158446428Y-50375000D01*
X158375000Y-50303571D01*
X158339285Y-50196428D01*
X158339285Y-50125000D01*
X158375000Y-50017857D01*
X158410714Y-49982142D01*
X158339285Y-49732142D02*
X158339285Y-49267857D01*
X158625000Y-49517857D01*
X158625000Y-49410714D01*
X158660714Y-49339285D01*
X158696428Y-49303571D01*
X158767857Y-49267857D01*
X158946428Y-49267857D01*
X159017857Y-49303571D01*
X159053571Y-49339285D01*
X159089285Y-49410714D01*
X159089285Y-49625000D01*
X159053571Y-49696428D01*
X159017857Y-49732142D01*
X159089285Y-48553571D02*
X159089285Y-48982142D01*
X159089285Y-48767857D02*
X158339285Y-48767857D01*
X158446428Y-48839285D01*
X158517857Y-48910714D01*
X158553571Y-48982142D01*
G04 #@! TO.C,C30*
X126517857Y-64017857D02*
X126482142Y-64053571D01*
X126375000Y-64089285D01*
X126303571Y-64089285D01*
X126196428Y-64053571D01*
X126125000Y-63982142D01*
X126089285Y-63910714D01*
X126053571Y-63767857D01*
X126053571Y-63660714D01*
X126089285Y-63517857D01*
X126125000Y-63446428D01*
X126196428Y-63375000D01*
X126303571Y-63339285D01*
X126375000Y-63339285D01*
X126482142Y-63375000D01*
X126517857Y-63410714D01*
X126767857Y-63339285D02*
X127232142Y-63339285D01*
X126982142Y-63625000D01*
X127089285Y-63625000D01*
X127160714Y-63660714D01*
X127196428Y-63696428D01*
X127232142Y-63767857D01*
X127232142Y-63946428D01*
X127196428Y-64017857D01*
X127160714Y-64053571D01*
X127089285Y-64089285D01*
X126875000Y-64089285D01*
X126803571Y-64053571D01*
X126767857Y-64017857D01*
X127696428Y-63339285D02*
X127767857Y-63339285D01*
X127839285Y-63375000D01*
X127875000Y-63410714D01*
X127910714Y-63482142D01*
X127946428Y-63625000D01*
X127946428Y-63803571D01*
X127910714Y-63946428D01*
X127875000Y-64017857D01*
X127839285Y-64053571D01*
X127767857Y-64089285D01*
X127696428Y-64089285D01*
X127625000Y-64053571D01*
X127589285Y-64017857D01*
X127553571Y-63946428D01*
X127517857Y-63803571D01*
X127517857Y-63625000D01*
X127553571Y-63482142D01*
X127589285Y-63410714D01*
X127625000Y-63375000D01*
X127696428Y-63339285D01*
G04 #@! TO.C,C28*
X141517857Y-64017857D02*
X141482142Y-64053571D01*
X141375000Y-64089285D01*
X141303571Y-64089285D01*
X141196428Y-64053571D01*
X141125000Y-63982142D01*
X141089285Y-63910714D01*
X141053571Y-63767857D01*
X141053571Y-63660714D01*
X141089285Y-63517857D01*
X141125000Y-63446428D01*
X141196428Y-63375000D01*
X141303571Y-63339285D01*
X141375000Y-63339285D01*
X141482142Y-63375000D01*
X141517857Y-63410714D01*
X141803571Y-63410714D02*
X141839285Y-63375000D01*
X141910714Y-63339285D01*
X142089285Y-63339285D01*
X142160714Y-63375000D01*
X142196428Y-63410714D01*
X142232142Y-63482142D01*
X142232142Y-63553571D01*
X142196428Y-63660714D01*
X141767857Y-64089285D01*
X142232142Y-64089285D01*
X142660714Y-63660714D02*
X142589285Y-63625000D01*
X142553571Y-63589285D01*
X142517857Y-63517857D01*
X142517857Y-63482142D01*
X142553571Y-63410714D01*
X142589285Y-63375000D01*
X142660714Y-63339285D01*
X142803571Y-63339285D01*
X142875000Y-63375000D01*
X142910714Y-63410714D01*
X142946428Y-63482142D01*
X142946428Y-63517857D01*
X142910714Y-63589285D01*
X142875000Y-63625000D01*
X142803571Y-63660714D01*
X142660714Y-63660714D01*
X142589285Y-63696428D01*
X142553571Y-63732142D01*
X142517857Y-63803571D01*
X142517857Y-63946428D01*
X142553571Y-64017857D01*
X142589285Y-64053571D01*
X142660714Y-64089285D01*
X142803571Y-64089285D01*
X142875000Y-64053571D01*
X142910714Y-64017857D01*
X142946428Y-63946428D01*
X142946428Y-63803571D01*
X142910714Y-63732142D01*
X142875000Y-63696428D01*
X142803571Y-63660714D01*
G04 #@! TO.C,C29*
X134017857Y-64017857D02*
X133982142Y-64053571D01*
X133875000Y-64089285D01*
X133803571Y-64089285D01*
X133696428Y-64053571D01*
X133625000Y-63982142D01*
X133589285Y-63910714D01*
X133553571Y-63767857D01*
X133553571Y-63660714D01*
X133589285Y-63517857D01*
X133625000Y-63446428D01*
X133696428Y-63375000D01*
X133803571Y-63339285D01*
X133875000Y-63339285D01*
X133982142Y-63375000D01*
X134017857Y-63410714D01*
X134303571Y-63410714D02*
X134339285Y-63375000D01*
X134410714Y-63339285D01*
X134589285Y-63339285D01*
X134660714Y-63375000D01*
X134696428Y-63410714D01*
X134732142Y-63482142D01*
X134732142Y-63553571D01*
X134696428Y-63660714D01*
X134267857Y-64089285D01*
X134732142Y-64089285D01*
X135089285Y-64089285D02*
X135232142Y-64089285D01*
X135303571Y-64053571D01*
X135339285Y-64017857D01*
X135410714Y-63910714D01*
X135446428Y-63767857D01*
X135446428Y-63482142D01*
X135410714Y-63410714D01*
X135375000Y-63375000D01*
X135303571Y-63339285D01*
X135160714Y-63339285D01*
X135089285Y-63375000D01*
X135053571Y-63410714D01*
X135017857Y-63482142D01*
X135017857Y-63660714D01*
X135053571Y-63732142D01*
X135089285Y-63767857D01*
X135160714Y-63803571D01*
X135303571Y-63803571D01*
X135375000Y-63767857D01*
X135410714Y-63732142D01*
X135446428Y-63660714D01*
G04 #@! TO.C,D6*
X112946428Y-52839285D02*
X112946428Y-52089285D01*
X113125000Y-52089285D01*
X113232142Y-52125000D01*
X113303571Y-52196428D01*
X113339285Y-52267857D01*
X113375000Y-52410714D01*
X113375000Y-52517857D01*
X113339285Y-52660714D01*
X113303571Y-52732142D01*
X113232142Y-52803571D01*
X113125000Y-52839285D01*
X112946428Y-52839285D01*
X114017857Y-52089285D02*
X113875000Y-52089285D01*
X113803571Y-52125000D01*
X113767857Y-52160714D01*
X113696428Y-52267857D01*
X113660714Y-52410714D01*
X113660714Y-52696428D01*
X113696428Y-52767857D01*
X113732142Y-52803571D01*
X113803571Y-52839285D01*
X113946428Y-52839285D01*
X114017857Y-52803571D01*
X114053571Y-52767857D01*
X114089285Y-52696428D01*
X114089285Y-52517857D01*
X114053571Y-52446428D01*
X114017857Y-52410714D01*
X113946428Y-52375000D01*
X113803571Y-52375000D01*
X113732142Y-52410714D01*
X113696428Y-52446428D01*
X113660714Y-52517857D01*
G04 #@! TO.C,U7*
X87058571Y-55579285D02*
X87058571Y-56186428D01*
X87094285Y-56257857D01*
X87130000Y-56293571D01*
X87201428Y-56329285D01*
X87344285Y-56329285D01*
X87415714Y-56293571D01*
X87451428Y-56257857D01*
X87487142Y-56186428D01*
X87487142Y-55579285D01*
X87772857Y-55579285D02*
X88272857Y-55579285D01*
X87951428Y-56329285D01*
G04 #@! TO.C,R5*
X71375000Y-40839285D02*
X71125000Y-40482142D01*
X70946428Y-40839285D02*
X70946428Y-40089285D01*
X71232142Y-40089285D01*
X71303571Y-40125000D01*
X71339285Y-40160714D01*
X71375000Y-40232142D01*
X71375000Y-40339285D01*
X71339285Y-40410714D01*
X71303571Y-40446428D01*
X71232142Y-40482142D01*
X70946428Y-40482142D01*
X72053571Y-40089285D02*
X71696428Y-40089285D01*
X71660714Y-40446428D01*
X71696428Y-40410714D01*
X71767857Y-40375000D01*
X71946428Y-40375000D01*
X72017857Y-40410714D01*
X72053571Y-40446428D01*
X72089285Y-40517857D01*
X72089285Y-40696428D01*
X72053571Y-40767857D01*
X72017857Y-40803571D01*
X71946428Y-40839285D01*
X71767857Y-40839285D01*
X71696428Y-40803571D01*
X71660714Y-40767857D01*
G04 #@! TO.C,R6*
X71375000Y-42589285D02*
X71125000Y-42232142D01*
X70946428Y-42589285D02*
X70946428Y-41839285D01*
X71232142Y-41839285D01*
X71303571Y-41875000D01*
X71339285Y-41910714D01*
X71375000Y-41982142D01*
X71375000Y-42089285D01*
X71339285Y-42160714D01*
X71303571Y-42196428D01*
X71232142Y-42232142D01*
X70946428Y-42232142D01*
X72017857Y-41839285D02*
X71875000Y-41839285D01*
X71803571Y-41875000D01*
X71767857Y-41910714D01*
X71696428Y-42017857D01*
X71660714Y-42160714D01*
X71660714Y-42446428D01*
X71696428Y-42517857D01*
X71732142Y-42553571D01*
X71803571Y-42589285D01*
X71946428Y-42589285D01*
X72017857Y-42553571D01*
X72053571Y-42517857D01*
X72089285Y-42446428D01*
X72089285Y-42267857D01*
X72053571Y-42196428D01*
X72017857Y-42160714D01*
X71946428Y-42125000D01*
X71803571Y-42125000D01*
X71732142Y-42160714D01*
X71696428Y-42196428D01*
X71660714Y-42267857D01*
G04 #@! TO.C,J5*
X90750000Y-34839285D02*
X90750000Y-35375000D01*
X90714285Y-35482142D01*
X90642857Y-35553571D01*
X90535714Y-35589285D01*
X90464285Y-35589285D01*
X91464285Y-34839285D02*
X91107142Y-34839285D01*
X91071428Y-35196428D01*
X91107142Y-35160714D01*
X91178571Y-35125000D01*
X91357142Y-35125000D01*
X91428571Y-35160714D01*
X91464285Y-35196428D01*
X91500000Y-35267857D01*
X91500000Y-35446428D01*
X91464285Y-35517857D01*
X91428571Y-35553571D01*
X91357142Y-35589285D01*
X91178571Y-35589285D01*
X91107142Y-35553571D01*
X91071428Y-35517857D01*
G04 #@! TO.C,C10*
X78267857Y-49697857D02*
X78232142Y-49733571D01*
X78125000Y-49769285D01*
X78053571Y-49769285D01*
X77946428Y-49733571D01*
X77875000Y-49662142D01*
X77839285Y-49590714D01*
X77803571Y-49447857D01*
X77803571Y-49340714D01*
X77839285Y-49197857D01*
X77875000Y-49126428D01*
X77946428Y-49055000D01*
X78053571Y-49019285D01*
X78125000Y-49019285D01*
X78232142Y-49055000D01*
X78267857Y-49090714D01*
X78982142Y-49769285D02*
X78553571Y-49769285D01*
X78767857Y-49769285D02*
X78767857Y-49019285D01*
X78696428Y-49126428D01*
X78625000Y-49197857D01*
X78553571Y-49233571D01*
X79446428Y-49019285D02*
X79517857Y-49019285D01*
X79589285Y-49055000D01*
X79625000Y-49090714D01*
X79660714Y-49162142D01*
X79696428Y-49305000D01*
X79696428Y-49483571D01*
X79660714Y-49626428D01*
X79625000Y-49697857D01*
X79589285Y-49733571D01*
X79517857Y-49769285D01*
X79446428Y-49769285D01*
X79375000Y-49733571D01*
X79339285Y-49697857D01*
X79303571Y-49626428D01*
X79267857Y-49483571D01*
X79267857Y-49305000D01*
X79303571Y-49162142D01*
X79339285Y-49090714D01*
X79375000Y-49055000D01*
X79446428Y-49019285D01*
G04 #@! TO.C,C11*
X76517857Y-61017857D02*
X76482142Y-61053571D01*
X76375000Y-61089285D01*
X76303571Y-61089285D01*
X76196428Y-61053571D01*
X76125000Y-60982142D01*
X76089285Y-60910714D01*
X76053571Y-60767857D01*
X76053571Y-60660714D01*
X76089285Y-60517857D01*
X76125000Y-60446428D01*
X76196428Y-60375000D01*
X76303571Y-60339285D01*
X76375000Y-60339285D01*
X76482142Y-60375000D01*
X76517857Y-60410714D01*
X77232142Y-61089285D02*
X76803571Y-61089285D01*
X77017857Y-61089285D02*
X77017857Y-60339285D01*
X76946428Y-60446428D01*
X76875000Y-60517857D01*
X76803571Y-60553571D01*
X77946428Y-61089285D02*
X77517857Y-61089285D01*
X77732142Y-61089285D02*
X77732142Y-60339285D01*
X77660714Y-60446428D01*
X77589285Y-60517857D01*
X77517857Y-60553571D01*
G04 #@! TO.C,C13*
X73267857Y-61017857D02*
X73232142Y-61053571D01*
X73125000Y-61089285D01*
X73053571Y-61089285D01*
X72946428Y-61053571D01*
X72875000Y-60982142D01*
X72839285Y-60910714D01*
X72803571Y-60767857D01*
X72803571Y-60660714D01*
X72839285Y-60517857D01*
X72875000Y-60446428D01*
X72946428Y-60375000D01*
X73053571Y-60339285D01*
X73125000Y-60339285D01*
X73232142Y-60375000D01*
X73267857Y-60410714D01*
X73982142Y-61089285D02*
X73553571Y-61089285D01*
X73767857Y-61089285D02*
X73767857Y-60339285D01*
X73696428Y-60446428D01*
X73625000Y-60517857D01*
X73553571Y-60553571D01*
X74232142Y-60339285D02*
X74696428Y-60339285D01*
X74446428Y-60625000D01*
X74553571Y-60625000D01*
X74625000Y-60660714D01*
X74660714Y-60696428D01*
X74696428Y-60767857D01*
X74696428Y-60946428D01*
X74660714Y-61017857D01*
X74625000Y-61053571D01*
X74553571Y-61089285D01*
X74339285Y-61089285D01*
X74267857Y-61053571D01*
X74232142Y-61017857D01*
G04 #@! TO.C,C15*
X70767857Y-38767857D02*
X70732142Y-38803571D01*
X70625000Y-38839285D01*
X70553571Y-38839285D01*
X70446428Y-38803571D01*
X70375000Y-38732142D01*
X70339285Y-38660714D01*
X70303571Y-38517857D01*
X70303571Y-38410714D01*
X70339285Y-38267857D01*
X70375000Y-38196428D01*
X70446428Y-38125000D01*
X70553571Y-38089285D01*
X70625000Y-38089285D01*
X70732142Y-38125000D01*
X70767857Y-38160714D01*
X71482142Y-38839285D02*
X71053571Y-38839285D01*
X71267857Y-38839285D02*
X71267857Y-38089285D01*
X71196428Y-38196428D01*
X71125000Y-38267857D01*
X71053571Y-38303571D01*
X72160714Y-38089285D02*
X71803571Y-38089285D01*
X71767857Y-38446428D01*
X71803571Y-38410714D01*
X71875000Y-38375000D01*
X72053571Y-38375000D01*
X72125000Y-38410714D01*
X72160714Y-38446428D01*
X72196428Y-38517857D01*
X72196428Y-38696428D01*
X72160714Y-38767857D01*
X72125000Y-38803571D01*
X72053571Y-38839285D01*
X71875000Y-38839285D01*
X71803571Y-38803571D01*
X71767857Y-38767857D01*
G04 #@! TO.C,C21*
X112017857Y-58767857D02*
X111982142Y-58803571D01*
X111875000Y-58839285D01*
X111803571Y-58839285D01*
X111696428Y-58803571D01*
X111625000Y-58732142D01*
X111589285Y-58660714D01*
X111553571Y-58517857D01*
X111553571Y-58410714D01*
X111589285Y-58267857D01*
X111625000Y-58196428D01*
X111696428Y-58125000D01*
X111803571Y-58089285D01*
X111875000Y-58089285D01*
X111982142Y-58125000D01*
X112017857Y-58160714D01*
X112303571Y-58160714D02*
X112339285Y-58125000D01*
X112410714Y-58089285D01*
X112589285Y-58089285D01*
X112660714Y-58125000D01*
X112696428Y-58160714D01*
X112732142Y-58232142D01*
X112732142Y-58303571D01*
X112696428Y-58410714D01*
X112267857Y-58839285D01*
X112732142Y-58839285D01*
X113446428Y-58839285D02*
X113017857Y-58839285D01*
X113232142Y-58839285D02*
X113232142Y-58089285D01*
X113160714Y-58196428D01*
X113089285Y-58267857D01*
X113017857Y-58303571D01*
G04 #@! TO.C,C25*
X154017857Y-49982142D02*
X154053571Y-50017857D01*
X154089285Y-50125000D01*
X154089285Y-50196428D01*
X154053571Y-50303571D01*
X153982142Y-50375000D01*
X153910714Y-50410714D01*
X153767857Y-50446428D01*
X153660714Y-50446428D01*
X153517857Y-50410714D01*
X153446428Y-50375000D01*
X153375000Y-50303571D01*
X153339285Y-50196428D01*
X153339285Y-50125000D01*
X153375000Y-50017857D01*
X153410714Y-49982142D01*
X153410714Y-49696428D02*
X153375000Y-49660714D01*
X153339285Y-49589285D01*
X153339285Y-49410714D01*
X153375000Y-49339285D01*
X153410714Y-49303571D01*
X153482142Y-49267857D01*
X153553571Y-49267857D01*
X153660714Y-49303571D01*
X154089285Y-49732142D01*
X154089285Y-49267857D01*
X153339285Y-48589285D02*
X153339285Y-48946428D01*
X153696428Y-48982142D01*
X153660714Y-48946428D01*
X153625000Y-48875000D01*
X153625000Y-48696428D01*
X153660714Y-48625000D01*
X153696428Y-48589285D01*
X153767857Y-48553571D01*
X153946428Y-48553571D01*
X154017857Y-48589285D01*
X154053571Y-48625000D01*
X154089285Y-48696428D01*
X154089285Y-48875000D01*
X154053571Y-48946428D01*
X154017857Y-48982142D01*
G04 #@! TO.C,C19*
X94017857Y-58767857D02*
X93982142Y-58803571D01*
X93875000Y-58839285D01*
X93803571Y-58839285D01*
X93696428Y-58803571D01*
X93625000Y-58732142D01*
X93589285Y-58660714D01*
X93553571Y-58517857D01*
X93553571Y-58410714D01*
X93589285Y-58267857D01*
X93625000Y-58196428D01*
X93696428Y-58125000D01*
X93803571Y-58089285D01*
X93875000Y-58089285D01*
X93982142Y-58125000D01*
X94017857Y-58160714D01*
X94732142Y-58839285D02*
X94303571Y-58839285D01*
X94517857Y-58839285D02*
X94517857Y-58089285D01*
X94446428Y-58196428D01*
X94375000Y-58267857D01*
X94303571Y-58303571D01*
X95089285Y-58839285D02*
X95232142Y-58839285D01*
X95303571Y-58803571D01*
X95339285Y-58767857D01*
X95410714Y-58660714D01*
X95446428Y-58517857D01*
X95446428Y-58232142D01*
X95410714Y-58160714D01*
X95375000Y-58125000D01*
X95303571Y-58089285D01*
X95160714Y-58089285D01*
X95089285Y-58125000D01*
X95053571Y-58160714D01*
X95017857Y-58232142D01*
X95017857Y-58410714D01*
X95053571Y-58482142D01*
X95089285Y-58517857D01*
X95160714Y-58553571D01*
X95303571Y-58553571D01*
X95375000Y-58517857D01*
X95410714Y-58482142D01*
X95446428Y-58410714D01*
G04 #@! TO.C,C20*
X112267857Y-35767857D02*
X112232142Y-35803571D01*
X112125000Y-35839285D01*
X112053571Y-35839285D01*
X111946428Y-35803571D01*
X111875000Y-35732142D01*
X111839285Y-35660714D01*
X111803571Y-35517857D01*
X111803571Y-35410714D01*
X111839285Y-35267857D01*
X111875000Y-35196428D01*
X111946428Y-35125000D01*
X112053571Y-35089285D01*
X112125000Y-35089285D01*
X112232142Y-35125000D01*
X112267857Y-35160714D01*
X112553571Y-35160714D02*
X112589285Y-35125000D01*
X112660714Y-35089285D01*
X112839285Y-35089285D01*
X112910714Y-35125000D01*
X112946428Y-35160714D01*
X112982142Y-35232142D01*
X112982142Y-35303571D01*
X112946428Y-35410714D01*
X112517857Y-35839285D01*
X112982142Y-35839285D01*
X113446428Y-35089285D02*
X113517857Y-35089285D01*
X113589285Y-35125000D01*
X113625000Y-35160714D01*
X113660714Y-35232142D01*
X113696428Y-35375000D01*
X113696428Y-35553571D01*
X113660714Y-35696428D01*
X113625000Y-35767857D01*
X113589285Y-35803571D01*
X113517857Y-35839285D01*
X113446428Y-35839285D01*
X113375000Y-35803571D01*
X113339285Y-35767857D01*
X113303571Y-35696428D01*
X113267857Y-35553571D01*
X113267857Y-35375000D01*
X113303571Y-35232142D01*
X113339285Y-35160714D01*
X113375000Y-35125000D01*
X113446428Y-35089285D01*
G04 #@! TO.C,C24*
X155267857Y-49982142D02*
X155303571Y-50017857D01*
X155339285Y-50125000D01*
X155339285Y-50196428D01*
X155303571Y-50303571D01*
X155232142Y-50375000D01*
X155160714Y-50410714D01*
X155017857Y-50446428D01*
X154910714Y-50446428D01*
X154767857Y-50410714D01*
X154696428Y-50375000D01*
X154625000Y-50303571D01*
X154589285Y-50196428D01*
X154589285Y-50125000D01*
X154625000Y-50017857D01*
X154660714Y-49982142D01*
X154660714Y-49696428D02*
X154625000Y-49660714D01*
X154589285Y-49589285D01*
X154589285Y-49410714D01*
X154625000Y-49339285D01*
X154660714Y-49303571D01*
X154732142Y-49267857D01*
X154803571Y-49267857D01*
X154910714Y-49303571D01*
X155339285Y-49732142D01*
X155339285Y-49267857D01*
X154839285Y-48625000D02*
X155339285Y-48625000D01*
X154553571Y-48803571D02*
X155089285Y-48982142D01*
X155089285Y-48517857D01*
G04 #@! TO.C,C22*
X157767857Y-49982142D02*
X157803571Y-50017857D01*
X157839285Y-50125000D01*
X157839285Y-50196428D01*
X157803571Y-50303571D01*
X157732142Y-50375000D01*
X157660714Y-50410714D01*
X157517857Y-50446428D01*
X157410714Y-50446428D01*
X157267857Y-50410714D01*
X157196428Y-50375000D01*
X157125000Y-50303571D01*
X157089285Y-50196428D01*
X157089285Y-50125000D01*
X157125000Y-50017857D01*
X157160714Y-49982142D01*
X157160714Y-49696428D02*
X157125000Y-49660714D01*
X157089285Y-49589285D01*
X157089285Y-49410714D01*
X157125000Y-49339285D01*
X157160714Y-49303571D01*
X157232142Y-49267857D01*
X157303571Y-49267857D01*
X157410714Y-49303571D01*
X157839285Y-49732142D01*
X157839285Y-49267857D01*
X157160714Y-48982142D02*
X157125000Y-48946428D01*
X157089285Y-48875000D01*
X157089285Y-48696428D01*
X157125000Y-48625000D01*
X157160714Y-48589285D01*
X157232142Y-48553571D01*
X157303571Y-48553571D01*
X157410714Y-48589285D01*
X157839285Y-49017857D01*
X157839285Y-48553571D01*
G04 #@! TO.C,C18*
X93767857Y-35767857D02*
X93732142Y-35803571D01*
X93625000Y-35839285D01*
X93553571Y-35839285D01*
X93446428Y-35803571D01*
X93375000Y-35732142D01*
X93339285Y-35660714D01*
X93303571Y-35517857D01*
X93303571Y-35410714D01*
X93339285Y-35267857D01*
X93375000Y-35196428D01*
X93446428Y-35125000D01*
X93553571Y-35089285D01*
X93625000Y-35089285D01*
X93732142Y-35125000D01*
X93767857Y-35160714D01*
X94482142Y-35839285D02*
X94053571Y-35839285D01*
X94267857Y-35839285D02*
X94267857Y-35089285D01*
X94196428Y-35196428D01*
X94125000Y-35267857D01*
X94053571Y-35303571D01*
X94910714Y-35410714D02*
X94839285Y-35375000D01*
X94803571Y-35339285D01*
X94767857Y-35267857D01*
X94767857Y-35232142D01*
X94803571Y-35160714D01*
X94839285Y-35125000D01*
X94910714Y-35089285D01*
X95053571Y-35089285D01*
X95125000Y-35125000D01*
X95160714Y-35160714D01*
X95196428Y-35232142D01*
X95196428Y-35267857D01*
X95160714Y-35339285D01*
X95125000Y-35375000D01*
X95053571Y-35410714D01*
X94910714Y-35410714D01*
X94839285Y-35446428D01*
X94803571Y-35482142D01*
X94767857Y-35553571D01*
X94767857Y-35696428D01*
X94803571Y-35767857D01*
X94839285Y-35803571D01*
X94910714Y-35839285D01*
X95053571Y-35839285D01*
X95125000Y-35803571D01*
X95160714Y-35767857D01*
X95196428Y-35696428D01*
X95196428Y-35553571D01*
X95160714Y-35482142D01*
X95125000Y-35446428D01*
X95053571Y-35410714D01*
G04 #@! TO.C,C23*
X156517857Y-49982142D02*
X156553571Y-50017857D01*
X156589285Y-50125000D01*
X156589285Y-50196428D01*
X156553571Y-50303571D01*
X156482142Y-50375000D01*
X156410714Y-50410714D01*
X156267857Y-50446428D01*
X156160714Y-50446428D01*
X156017857Y-50410714D01*
X155946428Y-50375000D01*
X155875000Y-50303571D01*
X155839285Y-50196428D01*
X155839285Y-50125000D01*
X155875000Y-50017857D01*
X155910714Y-49982142D01*
X155910714Y-49696428D02*
X155875000Y-49660714D01*
X155839285Y-49589285D01*
X155839285Y-49410714D01*
X155875000Y-49339285D01*
X155910714Y-49303571D01*
X155982142Y-49267857D01*
X156053571Y-49267857D01*
X156160714Y-49303571D01*
X156589285Y-49732142D01*
X156589285Y-49267857D01*
X155839285Y-49017857D02*
X155839285Y-48553571D01*
X156125000Y-48803571D01*
X156125000Y-48696428D01*
X156160714Y-48625000D01*
X156196428Y-48589285D01*
X156267857Y-48553571D01*
X156446428Y-48553571D01*
X156517857Y-48589285D01*
X156553571Y-48625000D01*
X156589285Y-48696428D01*
X156589285Y-48910714D01*
X156553571Y-48982142D01*
X156517857Y-49017857D01*
G04 #@! TO.C,J3*
X168250000Y-45839285D02*
X168250000Y-46375000D01*
X168214285Y-46482142D01*
X168142857Y-46553571D01*
X168035714Y-46589285D01*
X167964285Y-46589285D01*
X168535714Y-45839285D02*
X169000000Y-45839285D01*
X168750000Y-46125000D01*
X168857142Y-46125000D01*
X168928571Y-46160714D01*
X168964285Y-46196428D01*
X169000000Y-46267857D01*
X169000000Y-46446428D01*
X168964285Y-46517857D01*
X168928571Y-46553571D01*
X168857142Y-46589285D01*
X168642857Y-46589285D01*
X168571428Y-46553571D01*
X168535714Y-46517857D01*
G04 #@! TO.C,J2*
X49750000Y-44589285D02*
X49750000Y-45125000D01*
X49714285Y-45232142D01*
X49642857Y-45303571D01*
X49535714Y-45339285D01*
X49464285Y-45339285D01*
X50071428Y-44660714D02*
X50107142Y-44625000D01*
X50178571Y-44589285D01*
X50357142Y-44589285D01*
X50428571Y-44625000D01*
X50464285Y-44660714D01*
X50500000Y-44732142D01*
X50500000Y-44803571D01*
X50464285Y-44910714D01*
X50035714Y-45339285D01*
X50500000Y-45339285D01*
G04 #@! TO.C,C16*
X73906857Y-35403464D02*
X73871142Y-35439178D01*
X73764000Y-35474892D01*
X73692571Y-35474892D01*
X73585428Y-35439178D01*
X73514000Y-35367749D01*
X73478285Y-35296321D01*
X73442571Y-35153464D01*
X73442571Y-35046321D01*
X73478285Y-34903464D01*
X73514000Y-34832035D01*
X73585428Y-34760607D01*
X73692571Y-34724892D01*
X73764000Y-34724892D01*
X73871142Y-34760607D01*
X73906857Y-34796321D01*
X74621142Y-35474892D02*
X74192571Y-35474892D01*
X74406857Y-35474892D02*
X74406857Y-34724892D01*
X74335428Y-34832035D01*
X74264000Y-34903464D01*
X74192571Y-34939178D01*
X75264000Y-34724892D02*
X75121142Y-34724892D01*
X75049714Y-34760607D01*
X75014000Y-34796321D01*
X74942571Y-34903464D01*
X74906857Y-35046321D01*
X74906857Y-35332035D01*
X74942571Y-35403464D01*
X74978285Y-35439178D01*
X75049714Y-35474892D01*
X75192571Y-35474892D01*
X75264000Y-35439178D01*
X75299714Y-35403464D01*
X75335428Y-35332035D01*
X75335428Y-35153464D01*
X75299714Y-35082035D01*
X75264000Y-35046321D01*
X75192571Y-35010607D01*
X75049714Y-35010607D01*
X74978285Y-35046321D01*
X74942571Y-35082035D01*
X74906857Y-35153464D01*
G04 #@! TO.C,C1*
X52625000Y-52767857D02*
X52589285Y-52803571D01*
X52482142Y-52839285D01*
X52410714Y-52839285D01*
X52303571Y-52803571D01*
X52232142Y-52732142D01*
X52196428Y-52660714D01*
X52160714Y-52517857D01*
X52160714Y-52410714D01*
X52196428Y-52267857D01*
X52232142Y-52196428D01*
X52303571Y-52125000D01*
X52410714Y-52089285D01*
X52482142Y-52089285D01*
X52589285Y-52125000D01*
X52625000Y-52160714D01*
X53339285Y-52839285D02*
X52910714Y-52839285D01*
X53125000Y-52839285D02*
X53125000Y-52089285D01*
X53053571Y-52196428D01*
X52982142Y-52267857D01*
X52910714Y-52303571D01*
G04 #@! TO.C,J4*
X55000000Y-50839285D02*
X55000000Y-51375000D01*
X54964285Y-51482142D01*
X54892857Y-51553571D01*
X54785714Y-51589285D01*
X54714285Y-51589285D01*
X55678571Y-51089285D02*
X55678571Y-51589285D01*
X55500000Y-50803571D02*
X55321428Y-51339285D01*
X55785714Y-51339285D01*
G04 #@! TO.C,J1*
X50250000Y-54589285D02*
X50250000Y-55125000D01*
X50214285Y-55232142D01*
X50142857Y-55303571D01*
X50035714Y-55339285D01*
X49964285Y-55339285D01*
X51000000Y-55339285D02*
X50571428Y-55339285D01*
X50785714Y-55339285D02*
X50785714Y-54589285D01*
X50714285Y-54696428D01*
X50642857Y-54767857D01*
X50571428Y-54803571D01*
G04 #@! TO.C,D5*
X77196428Y-35839285D02*
X77196428Y-35089285D01*
X77375000Y-35089285D01*
X77482142Y-35125000D01*
X77553571Y-35196428D01*
X77589285Y-35267857D01*
X77625000Y-35410714D01*
X77625000Y-35517857D01*
X77589285Y-35660714D01*
X77553571Y-35732142D01*
X77482142Y-35803571D01*
X77375000Y-35839285D01*
X77196428Y-35839285D01*
X78303571Y-35089285D02*
X77946428Y-35089285D01*
X77910714Y-35446428D01*
X77946428Y-35410714D01*
X78017857Y-35375000D01*
X78196428Y-35375000D01*
X78267857Y-35410714D01*
X78303571Y-35446428D01*
X78339285Y-35517857D01*
X78339285Y-35696428D01*
X78303571Y-35767857D01*
X78267857Y-35803571D01*
X78196428Y-35839285D01*
X78017857Y-35839285D01*
X77946428Y-35803571D01*
X77910714Y-35767857D01*
G04 #@! TO.C,D3*
X114589285Y-55553571D02*
X113839285Y-55553571D01*
X113839285Y-55375000D01*
X113875000Y-55267857D01*
X113946428Y-55196428D01*
X114017857Y-55160714D01*
X114160714Y-55125000D01*
X114267857Y-55125000D01*
X114410714Y-55160714D01*
X114482142Y-55196428D01*
X114553571Y-55267857D01*
X114589285Y-55375000D01*
X114589285Y-55553571D01*
X113839285Y-54875000D02*
X113839285Y-54410714D01*
X114125000Y-54660714D01*
X114125000Y-54553571D01*
X114160714Y-54482142D01*
X114196428Y-54446428D01*
X114267857Y-54410714D01*
X114446428Y-54410714D01*
X114517857Y-54446428D01*
X114553571Y-54482142D01*
X114589285Y-54553571D01*
X114589285Y-54767857D01*
X114553571Y-54839285D01*
X114517857Y-54875000D01*
G04 #@! TO.C,D2*
X113339285Y-55553571D02*
X112589285Y-55553571D01*
X112589285Y-55375000D01*
X112625000Y-55267857D01*
X112696428Y-55196428D01*
X112767857Y-55160714D01*
X112910714Y-55125000D01*
X113017857Y-55125000D01*
X113160714Y-55160714D01*
X113232142Y-55196428D01*
X113303571Y-55267857D01*
X113339285Y-55375000D01*
X113339285Y-55553571D01*
X112660714Y-54839285D02*
X112625000Y-54803571D01*
X112589285Y-54732142D01*
X112589285Y-54553571D01*
X112625000Y-54482142D01*
X112660714Y-54446428D01*
X112732142Y-54410714D01*
X112803571Y-54410714D01*
X112910714Y-54446428D01*
X113339285Y-54875000D01*
X113339285Y-54410714D01*
G04 #@! TO.C,D1*
X112089285Y-55553571D02*
X111339285Y-55553571D01*
X111339285Y-55375000D01*
X111375000Y-55267857D01*
X111446428Y-55196428D01*
X111517857Y-55160714D01*
X111660714Y-55125000D01*
X111767857Y-55125000D01*
X111910714Y-55160714D01*
X111982142Y-55196428D01*
X112053571Y-55267857D01*
X112089285Y-55375000D01*
X112089285Y-55553571D01*
X112089285Y-54410714D02*
X112089285Y-54839285D01*
X112089285Y-54625000D02*
X111339285Y-54625000D01*
X111446428Y-54696428D01*
X111517857Y-54767857D01*
X111553571Y-54839285D01*
G04 #@! TO.C,D4*
X115839285Y-55553571D02*
X115089285Y-55553571D01*
X115089285Y-55375000D01*
X115125000Y-55267857D01*
X115196428Y-55196428D01*
X115267857Y-55160714D01*
X115410714Y-55125000D01*
X115517857Y-55125000D01*
X115660714Y-55160714D01*
X115732142Y-55196428D01*
X115803571Y-55267857D01*
X115839285Y-55375000D01*
X115839285Y-55553571D01*
X115339285Y-54482142D02*
X115839285Y-54482142D01*
X115053571Y-54660714D02*
X115589285Y-54839285D01*
X115589285Y-54375000D01*
G04 #@! TO.C,L1*
X50875000Y-52839285D02*
X50517857Y-52839285D01*
X50517857Y-52089285D01*
X51517857Y-52839285D02*
X51089285Y-52839285D01*
X51303571Y-52839285D02*
X51303571Y-52089285D01*
X51232142Y-52196428D01*
X51160714Y-52267857D01*
X51089285Y-52303571D01*
G04 #@! TO.C,L2*
X79125000Y-40589285D02*
X78767857Y-40589285D01*
X78767857Y-39839285D01*
X79339285Y-39910714D02*
X79375000Y-39875000D01*
X79446428Y-39839285D01*
X79625000Y-39839285D01*
X79696428Y-39875000D01*
X79732142Y-39910714D01*
X79767857Y-39982142D01*
X79767857Y-40053571D01*
X79732142Y-40160714D01*
X79303571Y-40589285D01*
X79767857Y-40589285D01*
G04 #@! TO.C,U1*
X63428571Y-45589285D02*
X63428571Y-46196428D01*
X63464285Y-46267857D01*
X63500000Y-46303571D01*
X63571428Y-46339285D01*
X63714285Y-46339285D01*
X63785714Y-46303571D01*
X63821428Y-46267857D01*
X63857142Y-46196428D01*
X63857142Y-45589285D01*
X64607142Y-46339285D02*
X64178571Y-46339285D01*
X64392857Y-46339285D02*
X64392857Y-45589285D01*
X64321428Y-45696428D01*
X64250000Y-45767857D01*
X64178571Y-45803571D01*
G04 #@! TO.C,U2*
X63178571Y-34589285D02*
X63178571Y-35196428D01*
X63214285Y-35267857D01*
X63250000Y-35303571D01*
X63321428Y-35339285D01*
X63464285Y-35339285D01*
X63535714Y-35303571D01*
X63571428Y-35267857D01*
X63607142Y-35196428D01*
X63607142Y-34589285D01*
X63928571Y-34660714D02*
X63964285Y-34625000D01*
X64035714Y-34589285D01*
X64214285Y-34589285D01*
X64285714Y-34625000D01*
X64321428Y-34660714D01*
X64357142Y-34732142D01*
X64357142Y-34803571D01*
X64321428Y-34910714D01*
X63892857Y-35339285D01*
X64357142Y-35339285D01*
G04 #@! TO.C,U3*
X70428571Y-44904892D02*
X70428571Y-45512035D01*
X70464285Y-45583464D01*
X70500000Y-45619178D01*
X70571428Y-45654892D01*
X70714285Y-45654892D01*
X70785714Y-45619178D01*
X70821428Y-45583464D01*
X70857142Y-45512035D01*
X70857142Y-44904892D01*
X71142857Y-44904892D02*
X71607142Y-44904892D01*
X71357142Y-45190607D01*
X71464285Y-45190607D01*
X71535714Y-45226321D01*
X71571428Y-45262035D01*
X71607142Y-45333464D01*
X71607142Y-45512035D01*
X71571428Y-45583464D01*
X71535714Y-45619178D01*
X71464285Y-45654892D01*
X71250000Y-45654892D01*
X71178571Y-45619178D01*
X71142857Y-45583464D01*
G04 #@! TO.C,Q1*
X82678571Y-35910714D02*
X82607142Y-35875000D01*
X82535714Y-35803571D01*
X82428571Y-35696428D01*
X82357142Y-35660714D01*
X82285714Y-35660714D01*
X82321428Y-35839285D02*
X82250000Y-35803571D01*
X82178571Y-35732142D01*
X82142857Y-35589285D01*
X82142857Y-35339285D01*
X82178571Y-35196428D01*
X82250000Y-35125000D01*
X82321428Y-35089285D01*
X82464285Y-35089285D01*
X82535714Y-35125000D01*
X82607142Y-35196428D01*
X82642857Y-35339285D01*
X82642857Y-35589285D01*
X82607142Y-35732142D01*
X82535714Y-35803571D01*
X82464285Y-35839285D01*
X82321428Y-35839285D01*
X83357142Y-35839285D02*
X82928571Y-35839285D01*
X83142857Y-35839285D02*
X83142857Y-35089285D01*
X83071428Y-35196428D01*
X83000000Y-35267857D01*
X82928571Y-35303571D01*
G04 #@! TO.C,R3*
X86875000Y-59839285D02*
X86625000Y-59482142D01*
X86446428Y-59839285D02*
X86446428Y-59089285D01*
X86732142Y-59089285D01*
X86803571Y-59125000D01*
X86839285Y-59160714D01*
X86875000Y-59232142D01*
X86875000Y-59339285D01*
X86839285Y-59410714D01*
X86803571Y-59446428D01*
X86732142Y-59482142D01*
X86446428Y-59482142D01*
X87125000Y-59089285D02*
X87589285Y-59089285D01*
X87339285Y-59375000D01*
X87446428Y-59375000D01*
X87517857Y-59410714D01*
X87553571Y-59446428D01*
X87589285Y-59517857D01*
X87589285Y-59696428D01*
X87553571Y-59767857D01*
X87517857Y-59803571D01*
X87446428Y-59839285D01*
X87232142Y-59839285D01*
X87160714Y-59803571D01*
X87125000Y-59767857D01*
G04 #@! TO.C,R7*
X53375000Y-33839285D02*
X53125000Y-33482142D01*
X52946428Y-33839285D02*
X52946428Y-33089285D01*
X53232142Y-33089285D01*
X53303571Y-33125000D01*
X53339285Y-33160714D01*
X53375000Y-33232142D01*
X53375000Y-33339285D01*
X53339285Y-33410714D01*
X53303571Y-33446428D01*
X53232142Y-33482142D01*
X52946428Y-33482142D01*
X53625000Y-33089285D02*
X54125000Y-33089285D01*
X53803571Y-33839285D01*
G04 #@! TO.C,R2*
X90375000Y-59839285D02*
X90125000Y-59482142D01*
X89946428Y-59839285D02*
X89946428Y-59089285D01*
X90232142Y-59089285D01*
X90303571Y-59125000D01*
X90339285Y-59160714D01*
X90375000Y-59232142D01*
X90375000Y-59339285D01*
X90339285Y-59410714D01*
X90303571Y-59446428D01*
X90232142Y-59482142D01*
X89946428Y-59482142D01*
X90660714Y-59160714D02*
X90696428Y-59125000D01*
X90767857Y-59089285D01*
X90946428Y-59089285D01*
X91017857Y-59125000D01*
X91053571Y-59160714D01*
X91089285Y-59232142D01*
X91089285Y-59303571D01*
X91053571Y-59410714D01*
X90625000Y-59839285D01*
X91089285Y-59839285D01*
G04 #@! TD*
M02*
